<?xml version="1.0" encoding="utf-8"?>
<!-- Generator: Adobe Illustrator 22.0.1, SVG Export Plug-In . SVG Version: 6.00 Build 0)  -->
<svg version="1.1" id="Layer_1" xmlns="http://www.w3.org/2000/svg" xmlns:xlink="http://www.w3.org/1999/xlink" x="0px" y="0px"
	 viewBox="0 0 47 50" style="enable-background:new 0 0 47 50;" xml:space="preserve">
<style type="text/css">
	.st0{fill:#FFFFFF;}
</style>
<g>
	<path class="st0" d="M20.4,20.3h-0.1c-0.2,0-0.5,0.2-0.5,0.5v0.5c-0.7,0.2-1.3,0.8-1.3,1.6c0,1,0.9,1.3,1.6,1.5
		c0.8,0.3,1.1,0.4,1.1,0.8c0,0.6-0.6,0.7-0.9,0.7c-0.3,0-0.8-0.1-0.9-0.3c-0.1-0.1-0.1-0.2-0.1-0.4c0-0.2-0.2-0.4-0.5-0.4h-0.1
		c-0.1,0-0.2,0-0.3,0.1c-0.1,0.1-0.1,0.2-0.1,0.3l0,0.9c0,0.2,0.1,0.4,0.3,0.4c0,0,0,0,0.1,0l0,0c0.4,0.1,0.8,0.2,1.1,0.2v0.7
		c0,0.2,0.2,0.5,0.5,0.5h0.1c0.2,0,0.5-0.2,0.5-0.5V27c0.8-0.2,1.5-0.8,1.5-1.7c0-1.1-1-1.4-1.7-1.7c-0.7-0.3-1-0.4-1-0.7
		c0-0.5,0.6-0.7,0.9-0.7c0.6,0,0.7,0.2,0.7,0.6v0c0,0.2,0.2,0.5,0.5,0.5h0.1c0.2,0,0.5-0.2,0.5-0.5l0-0.8c0-0.1-0.1-0.2-0.1-0.3
		c-0.3-0.3-0.7-0.4-1.1-0.4v-0.5C20.9,20.5,20.7,20.3,20.4,20.3z"/>
	<path class="st0" d="M35.2,50H5.5c-1,0-1.8-0.8-1.8-1.8V30.9c0-1,0.8-1.8,1.8-1.8h9.3c-1.1-1.3-1.7-2.9-1.7-4.6
		c0-2.5,1.3-4.8,3.4-6.1c-0.8-0.9-1.3-1.7-1.4-1.8l0-0.1c-0.5-0.8-0.8-1.7-0.9-2.6c-2.2,1.2-7.1,3.9-9,4.6c-1.4,0.5-4.3,0.8-5.1-0.7
		c-0.9-1.7,1.8-3.5,2.7-4.2C3.7,13.1,5,12.2,6.6,11c6.6-4.8,12.2-8.8,13.8-9.2c1.8-0.4,6.1,0,10,0.4c2,0.2,3.9,0.4,4.6,0.4
		c2-0.1,6.4-1.6,8.6-2.6l0.6,1.3c-2.3,1-6.9,2.6-9.1,2.7c-0.8,0-2.6-0.1-4.9-0.4c-3.3-0.3-7.9-0.8-9.5-0.4c-1.5,0.4-8.9,5.7-13.3,9
		c-1.5,1.1-2.9,2.1-3.7,2.7c-2.3,1.6-2.2,2.3-2.2,2.3c0.2,0.3,1.9,0.6,3.3,0c2.3-0.9,9.7-5,9.8-5.1l1.1-0.6l0,1.3c0,1,0.2,2,0.8,3
		c0.1,0.2,0.9,1.3,1.8,2.3l0.6,0.7L18,19.2c-2.1,0.9-3.4,3-3.4,5.2c0,1.9,0.9,3.7,2.5,4.8l1.9,1.3H5.5c-0.2,0-0.4,0.2-0.4,0.4v17.2
		c0,0.2,0.2,0.4,0.4,0.4h29.7c0.2,0,0.4-0.2,0.4-0.4V30.9c0-0.2-0.2-0.4-0.4-0.4H21.6l1.9-1.3c1.6-1.1,2.5-2.9,2.5-4.8
		c0-1.4-0.5-2.7-1.4-3.7L24,19.9l0.9-0.4c0.5-0.2,1-0.6,1.6-0.9c1.3-0.8,3-1.8,5.7-3l4.3-4.3l9.9-2l0.3,1.4l-9.4,1.9L33,16.8
		l-0.1,0.1c-2.7,1.1-4.4,2.1-5.7,2.9c-0.3,0.2-0.6,0.4-0.9,0.6c0.8,1.2,1.3,2.6,1.3,4.1c0,1.7-0.6,3.3-1.7,4.6h9.3
		c1,0,1.8,0.8,1.8,1.8v17.2C37,49.2,36.2,50,35.2,50z M25.4,35.4H15.3c-1,0-1.8-0.8-1.8-1.8c0-1,0.8-1.8,1.8-1.8h10.1
		c1,0,1.8,0.8,1.8,1.8C27.3,34.6,26.4,35.4,25.4,35.4z M15.3,33.2c-0.2,0-0.4,0.2-0.4,0.4S15,34,15.3,34h10.1c0.2,0,0.4-0.2,0.4-0.4
		s-0.2-0.4-0.4-0.4H15.3z M20.3,29.9c-3,0-5.5-2.5-5.5-5.5c0-3,2.5-5.5,5.5-5.5c0.4,0,0.9,0.1,1.3,0.2l0.6,0.1v0.6
		c0,0.2,0.1,0.2,0.1,0.3c0.1,0.1,0.4,0.1,0.7,0.1c0.1,0,0.3,0,0.4-0.1l0.3-0.1l0.3,0.2c1.2,1,1.9,2.6,1.9,4.2c0,1.5-0.6,2.8-1.6,3.9
		C23.2,29.4,21.8,29.9,20.3,29.9z M20.3,20.4c-2.2,0-4,1.8-4,4c0,2.2,1.8,4,4,4c1.1,0,2.1-0.4,2.9-1.2c0.8-0.8,1.2-1.8,1.2-2.9
		c0-1.1-0.4-2.1-1.2-2.8c0,0-0.1,0-0.1,0c-0.9,0.1-1.5-0.2-1.8-0.5c-0.2-0.2-0.4-0.4-0.5-0.7C20.7,20.4,20.5,20.4,20.3,20.4z
		 M22.4,19l-0.5-0.1c-0.3-0.1-0.5-0.1-0.8-0.2l-0.5-0.1l-0.1-0.4c-0.3-0.9-0.7-2-1.4-3.4c-0.1-0.1-0.4-1-0.3-2.1l0-0.1
		c0.3-1.1,1.3-2.6,4.4-3c3-0.4,4.2,0.5,4.6,1.3c0.6,1,0.2,2.4-1,3.8c-0.5,0.5-1,1-1.6,1.4c-1.4,1-2.2,1.9-2.5,2.4L22.4,19z
		 M21.7,17.4C21.8,17.4,21.8,17.4,21.7,17.4c0.7-0.8,1.5-1.6,2.6-2.4c0.5-0.4,1-0.8,1.4-1.2c0.7-0.8,1-1.7,0.8-2.1
		c-0.2-0.4-1.2-0.8-3.2-0.6c-1.8,0.2-2.9,0.9-3.1,1.8c-0.1,0.7,0.2,1.2,0.2,1.2C21,15.5,21.5,16.5,21.7,17.4z"/>
</g>
</svg>
