<?xml version="1.0" encoding="utf-8"?>
<!-- Generator: Adobe Illustrator 22.0.1, SVG Export Plug-In . SVG Version: 6.00 Build 0)  -->
<svg version="1.1" id="Layer_1" xmlns="http://www.w3.org/2000/svg" xmlns:xlink="http://www.w3.org/1999/xlink" x="0px" y="0px"
	 viewBox="0 0 123 123" style="enable-background:new 0 0 123 123;" xml:space="preserve">
<style type="text/css">
	.st0{opacity:0.8;fill:#FFFFFF;enable-background:new    ;}
</style>
<g>
	<path class="st0" d="M113.5,64.2c-1.4,0-2.6,0.3-3.7,0.8c-1.7-2.1-4.3-3.5-7.2-3.5c-1.5,0-2.9,0.4-4.1,1l-0.1,0.1l-3.8,2.2
		c-1.7-2-4.2-3.3-7-3.3c-1.5,0-2.9,0.4-4.1,1l-0.2,0.1l-14.4,8.8c-3.2-1-6.8-2-10.3-3c-3.7-1-7.2-2-10-2.7c-1.4-0.4-2.7-0.7-3.7-0.9
		c-0.5-0.1-1-0.2-1.4-0.2c-0.4-0.1-0.7-0.1-1.1-0.1c-0.3,0-0.6,0-0.8,0.1c-1.1,0.1-2.6,0.5-4.3,0.9c-3.6,0.9-8.3,2.1-10.8,2.8v-4.3
		c0-3-2.5-5.5-5.5-5.5h-15c-3,0-5.5,2.5-5.5,5.5v42.3c0,3,2.5,5.5,5.5,5.5h15c3,0,5.5-2.5,5.5-5.5v-3.3c3.2,0.7,10.4,2.3,18,3.8
		c5.1,1.1,10.4,2.1,14.8,2.9c2.2,0.4,4.2,0.7,5.8,1c1.6,0.2,2.8,0.4,3.7,0.4c0.7,0,1.4-0.1,2.1-0.3c1.4-0.4,2.9-1,4.7-1.9
		c6.2-3,15-8.7,23.4-14.2c8.4-5.6,16.2-11.1,20-13.7c2.4-1.7,3.7-4.4,3.7-7.4C122.7,68.3,118.6,64.2,113.5,64.2z M22.3,106.2
		c0,0.7-0.6,1.4-1.4,1.4h-15c-0.7,0-1.4-0.6-1.4-1.4V63.9c0-0.7,0.6-1.4,1.4-1.4h15c0.7,0,1.4,0.6,1.4,1.4V106.2z M116.6,77.4
		c-4.7,3.2-15.2,10.7-25.4,17.3c-5.1,3.3-10.1,6.4-14.2,8.7c-2.1,1.1-3.9,2-5.3,2.6c-0.7,0.3-1.4,0.5-1.9,0.7
		c-0.5,0.1-0.9,0.2-1,0.2c-0.4,0-1.6-0.1-3.1-0.3c-5.4-0.8-15.5-2.8-24.1-4.6c-4.3-0.9-8.3-1.8-11.3-2.4c-1.7-0.4-3-0.7-3.8-0.8
		V72.4c0.4-0.1,0.9-0.3,1.6-0.4c2.2-0.6,5.5-1.5,8.4-2.2c1.5-0.4,2.9-0.7,4-0.9c0.6-0.1,1-0.2,1.4-0.3c0.4-0.1,0.6-0.1,0.6-0.1
		c0,0,0.2,0,0.5,0.1c1.1,0.2,3.4,0.7,6.3,1.5c8.5,2.2,21.9,6.2,27.3,7.9c1.9,0.6,3.6,1.4,4.7,2.5c0.6,0.5,1,1.1,1.3,1.7
		c0.3,0.6,0.4,1.2,0.4,2c0,1.6-0.6,3-1.7,4.1c-1,1-2.5,1.7-4.1,1.7l-5.3-0.5l-18-2.3c-1.1-0.1-2.2,0.6-2.3,1.8
		c-0.1,1.1,0.7,2.1,1.8,2.3l18.1,2.3L77,94h0.1c5.5,0,9.9-4.4,9.9-9.9c0-1.4-0.3-2.7-0.8-3.8c-0.8-1.7-2.1-3-3.6-4
		c-1.5-1-3.2-1.7-4.9-2.2c-1-0.3-2.1-0.7-3.5-1.1l11.1-6.8c0.7-0.4,1.5-0.6,2.2-0.6c1.3,0,2.5,0.5,3.4,1.3l-5.5,3.3
		c-1,0.6-1.3,1.8-0.7,2.8c0.6,1,1.8,1.3,2.8,0.7l12.8-7.6c0.7-0.4,1.5-0.6,2.3-0.6c1.4,0,2.7,0.6,3.6,1.5l-14.8,8.8
		c-1,0.6-1.3,1.8-0.7,2.8c0.6,1,1.8,1.3,2.8,0.7l16.1-9.5c0.2,0,0.3-0.1,0.5-0.1c0.3-0.1,0.6-0.4,0.8-0.6l0.5-0.3
		c0.7-0.4,1.5-0.6,2.3-0.6c1.4,0,2.7,0.6,3.6,1.5c0.9,0.9,1.5,2.2,1.5,3.6C118.6,75.1,117.8,76.6,116.6,77.4z"/>
	<path class="st0" d="M59.1,46.6c-1.3-1.1-1.9-2.5-1.9-4.2c0-1.1-0.9-2-2-2c-1.1,0-2,0.9-2,2c0,2.9,1.2,5.5,3.4,7.3
		c1.9,1.6,4.3,2.5,7.2,2.7v1.8c0,1.1,0.9,2,2,2c1.1,0,2-0.9,2-2v-1.9c2.3-0.2,4.5-0.8,6.3-2c1.3-0.8,2.4-1.9,3.1-3.3
		c0.7-1.4,1.1-3,1.1-4.8c0-1.9-0.4-3.5-1.2-4.9c-0.7-1.2-1.6-2.2-2.6-2.9c-1.8-1.3-3.9-2-6-2.6c-0.3-0.1-0.6-0.1-0.8-0.2V19.2
		c2,0.3,3.5,0.9,4.5,1.7c0.7,0.5,1.2,1.1,1.5,1.8c0.3,0.7,0.5,1.5,0.5,2.3c0,1.1,0.9,2,2,2c1.1,0,2-0.9,2-2c0-1.4-0.3-2.8-0.9-4.1
		c-0.9-1.9-2.5-3.5-4.6-4.5c-1.5-0.7-3.1-1.2-5-1.4v-1.8c0-1.1-0.9-2-2-2c-1.1,0-2,0.9-2,2V15c-1.5,0.1-2.8,0.4-4,0.9
		c-2.3,0.9-4,2.4-5.1,4.1c-1.1,1.7-1.5,3.5-1.5,5.2c0,1.8,0.4,3.3,1.2,4.6c0.7,1.1,1.6,2,2.6,2.7c1.8,1.2,3.8,1.8,5.9,2.4
		c0.3,0.1,0.5,0.1,0.8,0.2v13.5C61.6,48.2,60.1,47.5,59.1,46.6z M58.8,28.7c-0.6-0.4-1-0.9-1.2-1.4c-0.3-0.6-0.5-1.2-0.5-2.2
		c0-1.3,0.5-2.8,1.6-3.9c0.6-0.6,1.3-1.1,2.3-1.5c0.7-0.3,1.5-0.5,2.5-0.6v11.6C61.6,30.1,59.9,29.5,58.8,28.7z M71,37.2
		c1,0.5,1.8,1.2,2.3,1.9c0.5,0.8,0.8,1.7,0.8,3.2c0,1.2-0.2,2.1-0.6,2.9c-0.3,0.5-0.7,1-1.1,1.4c-0.7,0.6-1.7,1.1-3,1.4
		c-0.5,0.1-1.1,0.2-1.7,0.3V36C69,36.3,70.1,36.7,71,37.2z"/>
</g>
</svg>
