<svg width="105" height="110" viewBox="0 0 105 110" fill="none" xmlns="http://www.w3.org/2000/svg">
<path d="M96.075 64.1802C95.865 62.7144 94.92 61.458 93.555 60.8298L89.565 59.05L94.71 54.548C95.865 53.6057 96.39 52.1399 96.18 50.5694C95.97 49.1037 95.025 47.8473 93.66 47.2191L74.13 38.8433C75.6 35.807 76.44 32.352 76.44 28.6875C76.44 15.4956 65.73 4.81641 52.5 4.81641C39.27 4.81641 28.56 15.4956 28.56 28.6875C28.56 29.1063 28.56 29.6298 28.665 30.0486L10.395 45.9627C9.23999 46.905 8.71499 48.3708 8.92499 49.9412C9.13499 51.407 10.08 52.6634 11.445 53.2916L15.435 55.0714L10.29 59.5735C9.13499 60.5157 8.60999 61.9815 8.81999 63.552C9.02999 65.0178 9.97499 66.2741 11.34 66.9023L15.33 68.6822L10.185 73.1842C9.02999 74.1265 8.50499 75.5922 8.71499 77.1627C8.92499 78.6285 9.86999 79.8849 11.235 80.5131L64.995 104.175C65.52 104.384 66.15 104.594 66.78 104.594C67.83 104.594 68.88 104.175 69.72 103.547L94.5 81.9788C95.655 81.0365 96.18 79.5708 95.97 78.0003C95.76 76.5345 94.815 75.2782 93.45 74.65L89.46 72.8701L94.605 68.3681C95.76 67.1117 96.285 65.6459 96.075 64.1802ZM52.5 9.42312C63.21 9.42312 71.925 18.1131 71.925 28.7922C71.925 39.4714 63.21 48.0567 52.5 48.0567C41.79 48.0567 33.075 39.3667 33.075 28.6875C33.075 18.0084 41.79 9.42312 52.5 9.42312ZM13.65 49.2084L29.505 35.2835C32.34 45.2298 41.58 52.5587 52.5 52.5587C60.375 52.5587 67.41 48.6849 71.82 42.7171L91.35 51.407L66.99 72.6607L13.65 49.2084ZM91.35 78.4191L66.99 99.6728L13.65 76.2204L20.055 70.5667L65.205 90.4594C65.73 90.6688 66.36 90.8782 66.99 90.8782C68.04 90.8782 69.09 90.4594 69.825 89.8312L85.68 76.011L91.35 78.4191ZM66.99 86.1667L13.65 62.7144L20.055 57.0607L65.205 76.9533C65.73 77.1627 66.36 77.3721 66.99 77.3721C68.04 77.3721 69.09 76.9533 69.825 76.3251L85.68 62.505L91.35 65.0177L66.99 86.1667Z" fill="#3B184F"/>
<path d="M54.075 35.493H50.925C49.665 35.493 48.72 34.446 48.72 33.2943H44.1C44.1 36.7493 46.83 39.6809 50.19 39.995V43.3453H54.81V39.995C58.275 39.6809 60.9 36.7493 60.9 33.2943C60.9 29.5252 57.855 26.4889 54.075 26.4889H50.925C49.665 26.4889 48.72 25.4419 48.72 24.2903C48.72 23.0339 49.77 22.0916 50.925 22.0916H54.075C55.335 22.0916 56.28 23.1386 56.28 24.2903H60.9C60.9 20.8352 58.17 17.9037 54.81 17.5896V14.2393H50.19V17.5896C46.83 17.799 44.1 20.7305 44.1 24.1856C44.1 27.9547 47.145 30.9909 50.925 30.9909H54.075C55.335 30.9909 56.28 32.0379 56.28 33.1896C56.28 34.446 55.335 35.493 54.075 35.493Z" fill="#3B184F"/>
</svg>
