<?xml version="1.0" encoding="utf-8"?>
<!-- Generator: Adobe Illustrator 22.0.1, SVG Export Plug-In . SVG Version: 6.00 Build 0)  -->
<svg version="1.1" id="Layer_1" xmlns="http://www.w3.org/2000/svg" xmlns:xlink="http://www.w3.org/1999/xlink" x="0px" y="0px"
	 viewBox="0 0 54 48" style="enable-background:new 0 0 54 48;" xml:space="preserve">
<style type="text/css">
	.st0{fill:#FFFFFF;}
</style>
<g>
	<path class="st0" d="M29.3,28.6h-1.3v-7.7v-1h5.2c0.7,0,1.3-0.6,1.3-1.3s-0.6-1.3-1.3-1.3h-5.2V4.5l2.7,2.7c0.5,0.5,1.3,0.5,1.9,0
		c0.5-0.5,0.5-1.3,0-1.9l-4.9-4.9C27.4,0.1,27.1,0,26.8,0c-0.3,0-0.7,0.1-0.9,0.4l-5,5c-0.5,0.5-0.5,1.3,0,1.9
		c0.3,0.3,0.6,0.4,0.9,0.4c0.3,0,0.7-0.1,0.9-0.4l2.7-2.7v12.8h-1.3c-3.8,0-7,3.1-7,7c0,3.8,3.1,7,7,7h1.3v7.6v1.1h-5.4
		c-0.7,0-1.3,0.6-1.3,1.3c0,0.7,0.6,1.3,1.3,1.3h5.4v4.2c0,0.7,0.6,1.3,1.3,1.3c0.7,0,1.3-0.6,1.3-1.3v-4.2h1.3c3.8,0,7-3.1,7-7
		C36.3,31.7,33.2,28.6,29.3,28.6z M24.2,28.6c-2.4,0-4.3-2-4.3-4.3s2-4.3,4.3-4.3h1.3v1v7.7H24.2z M29.3,39.9h-1.3v-1.1v-7.6h1.3
		c2.4,0,4.3,2,4.3,4.3C33.7,38,31.7,39.9,29.3,39.9z"/>
	<path class="st0" d="M47.8,28H47v-5.7v-0.5h3.8c0.7,0,1.3-0.6,1.3-1.3s-0.6-1.3-1.3-1.3H47v-9l1.6,1.6c0.5,0.5,1.3,0.5,1.9,0
		c0.5-0.5,0.5-1.3,0-1.9L46.7,6c-0.5-0.5-1.3-0.5-1.9,0l-3.9,3.9c-0.5,0.5-0.5,1.3,0,1.9c0.3,0.3,0.6,0.4,0.9,0.4
		c0.3,0,0.7-0.1,0.9-0.4l1.6-1.6v9h-0.7c-3.2,0-5.7,2.6-5.7,5.7s2.6,5.7,5.7,5.7h0.7v5.6v0.6h-3.9c-0.7,0-1.3,0.6-1.3,1.3
		c0,0.7,0.6,1.3,1.3,1.3h3.9v3c0,0.7,0.6,1.3,1.3,1.3c0.7,0,1.3-0.6,1.3-1.3v-3h0.7c3.2,0,5.7-2.6,5.7-5.7S50.9,28,47.8,28z
		 M43.7,28c-1.7,0-3.1-1.4-3.1-3.1c0-1.7,1.4-3.1,3.1-3.1h0.7v0.5V28L43.7,28L43.7,28z M47.8,36.8H47v-0.6v-5.6h0.7
		c1.7,0,3.1,1.4,3.1,3.1C50.9,35.4,49.5,36.8,47.8,36.8z"/>
	<path class="st0" d="M9.8,28H9.1v-5.7v-0.5h3.8c0.7,0,1.3-0.6,1.3-1.3s-0.6-1.3-1.3-1.3H9.1v-9l1.6,1.6c0.5,0.5,1.3,0.5,1.9,0
		c0.5-0.5,0.5-1.3,0-1.9L8.7,6C8.2,5.5,7.4,5.5,6.8,6L3,9.9c-0.5,0.5-0.5,1.3,0,1.9c0.3,0.3,0.6,0.4,0.9,0.4s0.7-0.1,0.9-0.4
		l1.6-1.6v9H5.7c-3.2,0-5.7,2.6-5.7,5.7s2.6,5.7,5.7,5.7h0.7v5.6v0.6H2.5c-0.7,0-1.3,0.6-1.3,1.3c0,0.7,0.6,1.3,1.3,1.3h3.9v3
		c0,0.7,0.6,1.3,1.3,1.3c0.7,0,1.3-0.6,1.3-1.3v-3h0.7c3.2,0,5.7-2.6,5.7-5.7S12.9,28,9.8,28z M5.7,28c-1.7,0-3.1-1.4-3.1-3.1
		c0-1.7,1.4-3.1,3.1-3.1h0.7v0.5V28L5.7,28L5.7,28z M9.8,36.8H9.1v-0.6v-5.6h0.7c1.7,0,3.1,1.4,3.1,3.1
		C12.9,35.4,11.5,36.8,9.8,36.8z"/>
</g>
</svg>
