<svg width="100" height="102" viewBox="0 0 100 102" fill="none" xmlns="http://www.w3.org/2000/svg">
<path d="M50 39.4774C57.4 39.4774 63.3 33.3569 63.3 25.9103C63.3 18.3617 57.4 12.2412 50 12.2412C42.6 12.2412 36.7 18.3617 36.7 25.8083C36.7 33.3569 42.6 39.4774 50 39.4774ZM48.8 18.7697V17.2396C48.8 16.9336 49.1 16.6276 49.4 16.6276H50.6C50.9 16.6276 51.2 16.9336 51.2 17.2396V18.7697C53.1 18.8717 54.7 20.2998 55 22.136C55.1 22.544 54.8 22.85 54.4 22.85H53.2C52.9 22.85 52.7 22.646 52.6 22.442C52.4 21.728 51.8 21.2179 51 21.2179H49C48.1 21.2179 47.4 21.83 47.3 22.748C47.2 23.7681 48 24.5842 49 24.5842H50.9C53.1 24.5842 55.1 26.4203 55.1 28.7665C55.1 31.0107 53.4 32.7448 51.2 32.8468V34.377C51.2 34.683 50.9 34.989 50.6 34.989H49.4C49.1 34.989 48.8 34.683 48.8 34.377V32.8468C46.9 32.7448 45.3 31.3167 45 29.4806C44.9 29.0725 45.2 28.7665 45.6 28.7665H46.8C47.1 28.7665 47.3 28.9705 47.4 29.1745C47.6 29.8886 48.2 30.3986 49 30.3986H51C51.9 30.3986 52.6 29.7866 52.7 28.8685C52.8 27.8484 52 27.0324 51 27.0324H49.1C46.9 27.0324 44.9 25.1962 44.9 22.85C44.9 20.7079 46.6 18.8717 48.8 18.7697Z" fill="white"/>
<path d="M22.8 32.1325C27.384 32.1325 31.1 28.3419 31.1 23.6659C31.1 18.9899 27.384 15.1992 22.8 15.1992C18.216 15.1992 14.5 18.9899 14.5 23.6659C14.5 28.3419 18.216 32.1325 22.8 32.1325Z" fill="white"/>
<path d="M47.4 47.1284C47.4 44.9862 45.7 43.3541 43.7 43.3541H37.6L34.3 38.0497C32.8 35.7035 30.3 34.2754 27.5 34.2754H18.2C15.4 34.2754 12.7 35.8055 11.3 38.2537L3 52.1268C1.9 53.9629 2.5 56.3091 4.3 57.3292C4.9 57.7372 5.6 57.8392 6.2 57.8392C7.5 57.8392 8.7 57.2272 9.4 56.0031L14.6 47.3324L12.9 85.4834C12.8 87.7276 14.5 89.6658 16.7 89.7678C16.8 89.7678 16.8 89.7678 16.9 89.7678C19 89.7678 20.8 88.1356 20.9 85.8915L22.2 61.0015H23.5L24.8 85.8915C24.9 88.1356 26.8 89.8698 29 89.7678C31.2 89.6658 32.9 87.7276 32.8 85.4834L31 46.8224L32.5 49.1686C33.2 50.2907 34.4 50.9027 35.6 50.9027H43.7C45.8 50.9027 47.4 49.2706 47.4 47.1284Z" fill="white"/>
<path d="M77.2 32.1325C81.784 32.1325 85.5 28.3419 85.5 23.6659C85.5 18.9899 81.784 15.1992 77.2 15.1992C72.616 15.1992 68.9 18.9899 68.9 23.6659C68.9 28.3419 72.616 32.1325 77.2 32.1325Z" fill="white"/>
<path d="M97 52.1268L88.8 38.2537C87.3 35.8055 84.7 34.2754 81.9 34.2754H72.6C69.8 34.2754 67.3 35.7035 65.8 38.0497L62.5 43.3541H56.4C54.3 43.3541 52.7 45.0882 52.7 47.1284C52.7 49.1686 54.4 50.9027 56.4 50.9027H64.5C65.8 50.9027 66.9 50.2907 67.6 49.1686L69.1 46.8224L67.4 85.4834C67.2 87.7276 68.8 89.6658 71 89.7678C73.2 89.8698 75.1 88.1356 75.2 85.8915L76.5 61.0015H77.8L79.1 85.8915C79.2 88.0336 81 89.7678 83.1 89.7678C83.2 89.7678 83.2 89.7678 83.3 89.7678C85.5 89.6658 87.2 87.7276 87.1 85.4834L85.4 47.3324L90.6 56.0031C91.3 57.2272 92.5 57.8392 93.8 57.8392C94.5 57.8392 95.1 57.6352 95.7 57.3292C97.5 56.2071 98 53.8609 97 52.1268Z" fill="white"/>
<path d="M54.1 55.2881C53.3 54.5741 52 55.1861 52 56.3082V59.5725H38.7C38 59.5725 37.5 60.0825 37.5 60.7966V64.5708C37.5 65.2849 38 65.7949 38.7 65.7949H52V69.0592C52 70.1813 53.2 70.7933 54.1 70.0793L61.9 63.7548C62.5 63.2447 62.5 62.2247 61.9 61.7146L54.1 55.2881Z" fill="white"/>
<path d="M61.3 73.6496H48V70.3854C48 69.2633 46.8 68.6512 45.9 69.3653L38 75.6898C37.4 76.1998 37.4 77.2199 38 77.7299L45.8 84.0544C46.6 84.7685 47.9 84.1564 47.9 83.0344V79.7701H61.2C61.9 79.7701 62.4 79.2601 62.4 78.546V74.7717C62.4 74.1597 61.9 73.6496 61.3 73.6496Z" fill="white"/>
</svg>
