<svg width="120" height="99" viewBox="0 0 120 99" fill="none" xmlns="http://www.w3.org/2000/svg">
<path d="M115.56 81.9592H102.36V44.2792H108.96C109.44 44.2792 109.8 43.6792 109.44 43.3192L98.8801 30.8392C98.6401 30.5992 98.1601 30.5992 97.9201 30.8392L87.3601 43.3192C87.0001 43.6792 87.3601 44.2792 87.8401 44.2792H94.44V81.9592H79.9201V57.8392H86.5201C87.0001 57.8392 87.3601 57.2392 87.0001 56.8792L76.4401 44.3992C76.2001 44.1592 75.7201 44.1592 75.4801 44.3992L64.9201 56.8792C64.5601 57.2392 64.9201 57.8392 65.4001 57.8392H72.0001V81.9592H57.4801V71.2792H64.0801C64.5601 71.2792 64.9201 70.6792 64.5601 70.3192L54.0001 57.8392C53.7601 57.5992 53.2801 57.5992 53.0401 57.8392L42.4801 70.3192C42.1201 70.6792 42.4801 71.2792 42.9601 71.2792H49.5601V81.9592H33.4801V63.7192C32.1601 63.8392 30.8401 63.9592 29.5201 63.9592C28.2001 63.9592 26.8801 63.8392 25.5601 63.7192V85.9192V89.8792H115.56C116.4 89.8792 117 89.2792 117 88.4392V83.3992C117 82.5592 116.4 81.9592 115.56 81.9592Z" fill="white"/>
<path d="M56.04 32.0395C56.04 17.3995 44.16 5.51953 29.52 5.51953C14.88 5.51953 3 17.3995 3 32.0395C3 46.6795 14.88 58.5595 29.52 58.5595C44.16 58.5595 56.04 46.6795 56.04 32.0395ZM19.68 37.6795H24.24C24.24 39.4795 25.68 40.9195 27.6 40.9195H31.56C33.36 40.9195 34.8 39.4795 34.8 37.6795C34.8 35.8795 33.36 34.4395 31.56 34.4395H27.6C23.28 34.4395 19.8 30.9595 19.8 26.6395C19.8 22.4395 23.16 19.0795 27.36 18.8395V14.1595H31.92V18.7195C36.12 18.8395 39.48 22.3195 39.48 26.5195H34.8C34.8 24.7195 33.36 23.2795 31.56 23.2795H27.6C25.8 23.2795 24.24 24.7195 24.24 26.5195C24.24 28.3195 25.68 29.8795 27.6 29.8795H31.56C35.88 29.8795 39.36 33.3595 39.36 37.6795C39.36 41.8795 36 45.2395 31.8 45.4795V50.0395H27.24V45.4795C23.04 45.2395 19.68 41.8795 19.68 37.6795Z" fill="white"/>
</svg>
