<svg width="110" height="109" viewBox="0 0 110 109" fill="none" xmlns="http://www.w3.org/2000/svg">
<path d="M15.29 20.1508L20.79 14.6453V40.081C20.79 41.2922 21.78 42.3933 22.99 42.3933C24.2 42.3933 25.19 41.4023 25.19 40.081V14.6453L30.69 20.1508C31.13 20.5913 31.68 20.8115 32.23 20.8115C32.78 20.8115 33.33 20.5913 33.77 20.1508C34.65 19.27 34.65 17.8385 33.77 16.9576L24.42 7.59817C23.54 6.71728 22.11 6.71728 21.23 7.59817L12.1 16.9576C11.22 17.8385 11.22 19.27 12.1 20.1508C12.98 21.0317 14.41 21.0317 15.29 20.1508Z" fill="#3B184F"/>
<path d="M83.49 55.7168C82.17 55.7168 80.85 55.8269 79.64 56.0471V37.8787C79.64 31.6024 69.41 28.4092 59.29 28.4092C49.17 28.4092 38.94 31.7125 38.94 37.8787V51.7528C34.98 49.5505 29.04 48.4494 23.1 48.4494C12.98 48.4494 2.75 51.7528 2.75 57.919V77.9592C2.75 84.2356 12.98 87.4288 23.1 87.4288C30.36 87.4288 37.62 85.7771 41.14 82.4738C44.66 85.667 52.03 87.4288 59.18 87.4288C59.84 87.4288 60.39 87.3187 61.05 87.3187C64.35 96.568 73.15 103.175 83.38 103.175C96.47 103.175 107.14 92.4939 107.14 79.3907C107.14 66.2874 96.58 55.7168 83.49 55.7168ZM38.94 77.9592C38.94 79.721 32.89 82.9142 23.1 82.9142C13.31 82.9142 7.26 79.721 7.26 77.9592V74.1053C11.22 76.3076 17.16 77.4087 23.1 77.4087C29.04 77.4087 34.98 76.3076 38.94 74.1053V77.9592ZM38.94 67.9391C38.94 69.7009 32.89 72.8941 23.1 72.8941C13.31 72.8941 7.26 69.7009 7.26 67.9391V64.0852C11.22 66.2874 17.16 67.3886 23.1 67.3886C29.04 67.3886 34.98 66.2874 38.94 64.0852V67.9391ZM23.1 62.874C13.31 62.874 7.26 59.6808 7.26 57.919C7.26 56.1572 13.31 52.964 23.1 52.964C32.89 52.964 38.94 56.1572 38.94 57.919C38.94 59.6808 32.89 62.874 23.1 62.874ZM59.29 32.8136C69.08 32.8136 75.13 36.0069 75.13 37.7686C75.13 39.5304 69.08 42.7236 59.29 42.7236C49.5 42.7236 43.45 39.5304 43.45 37.7686C43.45 36.0069 49.39 32.8136 59.29 32.8136ZM43.45 44.045C47.41 46.2472 53.35 47.3483 59.29 47.3483C65.23 47.3483 71.17 46.2472 75.13 44.045V47.8989C75.13 49.6606 69.08 52.8539 59.29 52.8539C49.5 52.8539 43.45 49.6606 43.45 47.8989V44.045ZM43.45 54.0651C47.41 56.2673 53.35 57.3684 59.29 57.3684C65.23 57.3684 71.17 56.2673 75.13 54.0651V57.2583C72.27 58.3594 69.63 60.0111 67.32 62.1032C65.01 62.6538 62.37 62.9841 59.29 62.9841C49.5 62.9841 43.45 59.7909 43.45 58.0291V54.0651ZM43.45 64.0852C47.41 66.2874 53.35 67.3886 59.29 67.3886C60.61 67.3886 61.93 67.2784 63.14 67.1683C62.04 68.9301 61.27 70.802 60.72 72.784C60.28 72.784 59.84 72.8941 59.29 72.8941C49.5 72.8941 43.45 69.7009 43.45 67.9391V64.0852ZM59.29 83.0243C49.5 83.0243 43.45 79.8311 43.45 78.0693V74.2155C47.41 76.4177 53.35 77.5188 59.29 77.5188C59.51 77.5188 59.73 77.5188 59.84 77.5188C59.73 78.1795 59.73 78.8401 59.73 79.5008C59.73 80.712 59.84 81.8131 60.06 83.0243C59.73 82.9142 59.51 83.0243 59.29 83.0243ZM83.49 98.6601C72.93 98.6601 64.24 90.0715 64.24 79.3907C64.24 68.7099 72.82 60.1212 83.49 60.1212C94.05 60.1212 102.74 68.7099 102.74 79.3907C102.74 90.0715 94.16 98.6601 83.49 98.6601Z" fill="#3B184F"/>
<path d="M81.95 73.0042H85.03C86.24 73.0042 87.12 73.9952 87.12 75.0963H91.63C91.63 71.6828 88.99 68.9301 85.69 68.5997V65.0762H81.18V68.5997C77.88 68.9301 75.24 71.793 75.24 75.0963C75.24 78.73 78.21 81.703 81.84 81.703H84.92C86.13 81.703 87.01 82.694 87.01 83.7951C87.01 84.8962 86.24 85.8872 85.03 85.8872H81.95C80.74 85.8872 79.86 84.8962 79.86 83.7951H75.35C75.35 87.2085 77.99 89.9613 81.29 90.2916V93.7051H85.8V90.2916C89.1 89.9613 91.74 87.0984 91.74 83.7951C91.74 80.1614 88.77 77.1884 85.14 77.1884H82.06C80.85 77.1884 79.97 76.1974 79.97 75.0963C79.97 73.9952 80.85 73.0042 81.95 73.0042Z" fill="#3B184F"/>
</svg>
