<?xml version="1.0" encoding="utf-8"?>
<!-- Generator: Adobe Illustrator 22.0.1, SVG Export Plug-In . SVG Version: 6.00 Build 0)  -->
<svg version="1.1" id="Layer_1" xmlns="http://www.w3.org/2000/svg" xmlns:xlink="http://www.w3.org/1999/xlink" x="0px" y="0px"
	 viewBox="0 0 61 45" style="enable-background:new 0 0 61 45;" xml:space="preserve">
<style type="text/css">
	.st0{fill:#FFFFFF;}
</style>
<g>
	<path class="st0" d="M10.7,32.2c-0.2,0-0.5,0-0.7,0c-0.2,0-0.4,0-0.6,0c0,0-0.8,0-1.2,0c-0.8,0-1.5,0-2.3,0c-0.8,0-1.5,0-2.3,0
		l-0.8,0c-2.3,0-2.3,0.7-2.4,2.7l0,0.3c-0.1,2.6-0.1,5.8,0.1,8.8c0,0.1,0,0.1,0,0.2l0.1,0l-0.1,0.1c0.1,0.2,0.3,0.3,0.5,0.3l2.4,0
		l9,0c0.3,0,0.6-0.3,0.6-0.6c0-0.9,0-1.8,0.1-2.7c0-1.3,0.1-2.5,0.1-3.8c0-0.2,0-0.5,0-0.9c0.1-1.2,0.1-2.9-0.5-3.8
		C12.2,32.3,11.4,32.2,10.7,32.2z M6.6,33.5l0.9,0c0.2,0,0.5,0,0.8,0c0.4,0,0.9-0.1,1.4-0.1c1.1,0,1.7,0.2,2,0.5
		c0.2,0.2,0.2,1.7,0.2,2.4c0,0.2,0,0.4,0,0.5c0,0.8,0,1.6,0,2.5c0,0.7,0,1.4,0,2.1c0,0.7,0,1.4,0,2.1H1.7c-0.1-1.1,0-2.2,0-3.2
		c0-1,0-2.1,0-3.1c0-0.7,0-1.4,0-2.1c0.1-1.4,0.2-1.6,1.4-1.6l0.2,0c0.4,0,0.7,0,1.1,0C5.1,33.5,5.9,33.5,6.6,33.5z"/>
	<path class="st0" d="M25.4,20.9c-0.6,0-1.2,0.1-1.7,0.1c-0.5,0-0.9,0.1-1.4,0.1c-0.3,0-0.8,0-1.3-0.1c-0.6-0.1-1.4-0.1-2.1-0.1
		c-1.6,0-2.6,0.4-2.8,1.2c-0.4,1.1-0.3,2.6-0.2,4c0,0.5,0.1,1,0.1,1.5c0,2.2,0,4.5-0.1,6.7c-0.1,3.2-0.2,6.6,0.1,9.8
		c0,0.1,0,0.1,0,0.2l0,0.1c0.1,0.2,0.3,0.3,0.5,0.3l2.4,0l9,0c0.3,0,0.6-0.3,0.6-0.6c0-2,0-4,0.1-5.9c0-3.1,0.1-6.2,0.1-9.2
		c0-0.5,0-1,0-1.5c0-1.4,0.1-2.9-0.2-4.3C28.3,21.2,26.7,20.9,25.4,20.9z M17.2,22.7c0.1-0.2,0.1-0.3,0.2-0.4c0,0,0.1,0,0.2,0
		c0.1,0,0.2,0,0.4,0c0.3,0,0.6,0,0.8,0c0.4,0,0.7,0,1.1,0c0.4,0,0.7,0,1.2,0c0,0,0,0,0,0c0.4,0,0.9,0,1.4-0.1
		c0.7-0.1,1.5-0.1,2.2-0.1c1,0,1.7,0.1,2.1,0.4c0.9,0.6,0.8,3.1,0.7,4.7c0,0.4,0,0.8,0,1.1c0,2.8,0,5.5,0,8.3l0,3.8
		c0,0.3,0,0.6,0,0.9c0,0.7,0.1,1.4-0.1,1.9c0,0.1,0,0.1,0,0.2h0c-0.1,0-0.2,0-0.3,0.1c-0.3,0.1-0.6,0.1-1.1,0.1c-0.5,0-1,0-1.5-0.1
		c-0.4,0-0.8-0.1-1.1-0.1l-6,0c-0.2-3.1-0.1-6.2,0-9.3c0-1.9,0.1-3.8,0.1-5.7c0-0.4-0.1-1-0.1-1.6C16.9,25.4,16.7,23.5,17.2,22.7z"
		/>
	<path class="st0" d="M44.2,29.7c0-0.9,0.1-2.1-0.4-2.8c-0.4-0.7-1.3-1-2.7-1c-0.6,0-1.2,0.1-1.7,0.1c-0.3,0-0.5,0-0.7,0.1l-0.8,0
		c-0.9,0-1.8,0.1-2.8,0.1c-0.2,0-0.5,0-0.7,0c-0.3,0-0.6,0-0.9,0c-0.4,0-0.8,0.1-1,0.2c-1,0.4-1,1.3-1,2.2c0,0.2,0,0.3,0,0.5
		c-0.2,5.4-0.3,10.3,0,15.1c0,0.1,0,0.1,0.1,0.3c0.1,0.2,0.3,0.3,0.5,0.3l2.4,0l9,0c0.3,0,0.6-0.3,0.6-0.6c0-1.5,0-3,0.1-4.6
		c0.1-3,0.1-6.1,0-9.1C44.2,30.2,44.2,29.9,44.2,29.7z M32.7,30.5c0-0.2,0-0.5,0-0.7c0-0.6-0.1-1.2,0.1-1.7c0.1-0.2,0.1-0.3,0.1-0.4
		c0,0,0.1-0.1,0.3-0.2c0.1-0.1,0.4-0.1,0.7-0.1c0.3,0,0.6,0,0.8,0c0.2,0,0.4,0,0.5,0c0.4,0,1-0.1,1.6-0.1c0.9-0.1,2.1-0.2,3.1-0.2
		c1.7,0,2.6,0.3,2.9,0.9c0.4,0.7,0.3,2.3,0.2,3.6c0,0.5-0.1,0.9-0.1,1.2c0,2.1,0,4.2-0.1,6.3l0,2.9c0,0.1,0,0.2,0,0.4
		c0,0.3,0.1,0.6-0.1,0.8c-0.1,0.1-0.1,0.2-0.2,0.2h0c-0.1,0-0.2-0.1-0.4-0.1c-0.1,0-0.2,0-0.3,0c-1,0.1-2,0.2-3.3,0.2
		c-1.1,0-2.3,0-3.4-0.1c-0.9,0-1.8-0.1-2.7-0.1C32.5,39.1,32.6,34.6,32.7,30.5z"/>
	<path class="st0" d="M59.6,15.1c-0.2-3.2-0.7-3.4-3.8-3.4l-1.4,0c-0.9,0-1.8,0-2.8,0c-0.9,0-1.9,0-2.8,0.1l-0.2,0
		c-0.6,0-1.1,0-1.4,0.7c-0.6,1-0.4,2.7-0.2,4.2c0.1,0.5,0.1,1,0.1,1.4c0.1,2.3,0,4.7,0,7l0,1.1c0,1.7-0.1,3.5-0.1,5.3
		c-0.1,4.2-0.2,8.5,0.1,12.7c0,0.1,0,0.1,0,0.2l0.1,0l-0.1,0.1c0.1,0.2,0.3,0.3,0.5,0.3l2.4,0l9,0c0.3,0,0.6-0.3,0.6-0.6
		c0-2.9,0.1-5.9,0.2-8.8C60,28.6,60.2,21.8,59.6,15.1z M48.2,33.4c0-1.3,0.1-2.6,0.1-3.9c0-2.8,0-5.7,0-8.4c0-1.9,0-3.7,0-5.6
		c0-0.6,0-1.2,0.1-1.7l0-0.2c0-0.6,0-0.6,0.4-0.6c0.1,0,0.2,0,0.4,0c0.8-0.1,1.6-0.1,2.6-0.1c0.9,0,1.9,0,2.8,0.1
		c0.6,0,1.2,0,1.8,0.1c2,0,2.1,0.6,2.2,2.5c0,0.8,0.1,1.5,0.1,2.3c0.1,4.7,0.1,9.6,0,14.2l-0.1,10.4c0,0.1,0,0.2,0,0.4
		c0,0.3,0,0.6,0,0.8c0,0.1,0,0.1,0,0.2c-0.5-0.2-1.8-0.3-1.8-0.3l-1,0l-7.4,0C48.1,40.2,48.1,36.7,48.2,33.4z"/>
	<path class="st0" d="M37.9,15.6c0.2,0,0.3-0.1,0.4-0.2c3.8-4,8.2-8,14.3-12.8l0,0.2c-0.1,0.7-0.3,1.3-0.3,2c0,0.2,0,0.3,0.2,0.4
		c0.1,0.1,0.3,0.2,0.4,0.2c0.3,0,0.6-0.2,0.6-0.6c0-0.7,0.2-1.3,0.3-2c0.1-0.6,0.3-1.3,0.3-2c0-0.2-0.1-0.3-0.2-0.4
		c-0.1-0.1-0.3-0.2-0.4-0.2h0c-1.4,0.1-2.8,0.3-4.3,0.8c-0.3,0.1-0.5,0.4-0.4,0.7c0,0.3,0.3,0.5,0.5,0.5c0.1,0,0.1,0,0.2,0
		c0.9-0.3,1.7-0.5,2.5-0.6c-4.2,3.3-7.5,6.1-10.5,8.9c-0.4,0.3-0.7,0.7-1.1,1.1c-0.6,0.6-1.1,1.2-1.7,1.7c-0.5,0.4-0.9,0.6-1.3,0.6
		c-0.4,0-0.8-0.2-1.4-0.5l-0.4-0.2c-2.2-1-4.5-1.9-6.8-2.8c-0.5-0.2-1-0.4-1.6-0.7c-1.4-0.7-3.1-1.5-4.6-1.5c-1.3,0-2.5,1.1-3.5,2
		c-0.3,0.2-0.5,0.5-0.8,0.7c-4,3.3-8,6.8-12.1,10.4c-0.2,0.2-0.2,0.4-0.2,0.6c0.1,0.2,0.3,0.4,0.6,0.4c0.1,0,0.3-0.1,0.4-0.2
		c4.1-3.8,8.3-7.4,12.4-10.7c1.3-1.1,2.5-1.6,3.7-1.6c0.5,0,1,0.1,1.5,0.3c1.3,0.5,2.7,1,4,1.6c2.8,1.1,5.6,2.3,8.7,3.7
		C37.7,15.6,37.8,15.6,37.9,15.6z"/>
	<path class="st0" d="M50,20.5c0.2,0,0.3-0.1,0.4-0.2c0.1-0.1,0.1-0.3,0.1-0.4l0-0.1c-0.3-2.6-0.2-4.2,0.2-4.7
		c0.1-0.1,0.2-0.1,0.3-0.1v-0.1c0,0,0,0,0,0l0.1,0.1c0.3,0,0.5-0.3,0.5-0.5c0-0.3-0.2-0.6-0.6-0.7c-0.1,0-0.2,0-0.2,0
		c-0.9,0-1.4,0.5-1.5,1.5c-0.3,1.7-0.1,3.5,0,4.7C49.4,20.3,49.8,20.5,50,20.5z"/>
	<path class="st0" d="M52.8,15.1c0.2,0,0.3-0.1,0.4-0.2c0.1-0.1,0.1-0.3,0.1-0.4c0-0.3-0.2-0.6-0.6-0.6c-0.2,0-0.3,0.1-0.4,0.2
		c-0.1,0.1-0.1,0.3-0.1,0.4C52.2,14.7,52.4,15.1,52.8,15.1z"/>
</g>
</svg>
