<svg width="105" height="108" viewBox="0 0 105 108" fill="none" xmlns="http://www.w3.org/2000/svg">
<path d="M54.705 40.5958V37.2391C58.17 37.0293 61.005 34.0922 61.005 30.5257C61.005 26.8543 57.96 23.8123 54.285 23.8123H51.03C49.665 23.8123 48.51 22.6584 48.51 21.2947C48.51 19.9311 49.665 18.7772 51.03 18.7772H54.285C55.65 18.7772 56.805 19.9311 56.805 21.2947H61.005C61.005 17.7282 58.275 14.896 54.705 14.5813V11.2246H50.505V14.6862C47.04 14.896 44.205 17.8331 44.205 21.3996C44.205 25.071 47.25 28.1131 50.925 28.1131H54.18C55.545 28.1131 56.7 29.2669 56.7 30.6306C56.7 31.9942 55.545 33.1481 54.18 33.1481H50.925C49.56 33.1481 48.405 31.9942 48.405 30.6306H44.205C44.205 34.1971 46.935 37.0293 50.505 37.344V40.7007L54.705 40.5958Z" fill="#3B184F"/>
<path d="M82.95 54.232C82.845 53.1831 82.005 52.4488 80.955 52.239C80.325 52.1341 65.31 50.246 56.805 58.6377C56.07 59.372 55.44 60.2112 54.81 61.0504V49.197C66.57 48.0431 75.81 38.0779 75.81 26.0147C75.81 13.1124 65.31 2.72754 52.5 2.72754C39.69 2.72754 29.19 13.2173 29.19 26.0147C29.19 38.0779 38.43 48.0431 50.19 49.197V61.3651C49.56 60.421 48.825 59.4769 47.985 58.7426C39.585 50.3509 24.57 52.239 23.835 52.3439C22.785 52.4488 22.05 53.288 21.84 54.3369C21.735 54.9663 19.845 69.9666 28.245 78.4633C33.915 84.1277 42.63 85.0718 47.88 85.0718C48.72 85.0718 49.455 85.0718 50.19 84.9669V100.072C50.19 101.331 51.24 102.38 52.5 102.38C53.76 102.38 54.81 101.331 54.81 100.072V84.862C55.44 84.862 56.175 84.9669 56.91 84.9669C62.16 84.9669 70.875 84.0228 76.545 78.3584C85.05 69.9666 83.055 54.8614 82.95 54.232ZM33.81 25.9098C33.81 15.6299 42.21 7.23812 52.5 7.23812C62.79 7.23812 71.19 15.6299 71.19 25.9098C71.19 36.1897 62.79 44.5815 52.5 44.5815C42.21 44.5815 33.81 36.2946 33.81 25.9098ZM26.46 56.6447C30.345 56.4349 39.585 56.5398 44.835 61.8895C48.93 65.9805 49.98 72.4842 50.085 76.9947L39.9 66.8197C38.955 65.8756 37.485 65.8756 36.645 66.8197C35.805 67.7638 35.7 69.2323 36.645 70.0715L46.83 80.2465C42.315 80.1416 35.805 79.0927 31.71 75.0017C26.355 69.7568 26.25 60.6308 26.46 56.6447ZM73.29 75.1066C69.195 79.1976 62.685 80.2465 58.17 80.3514L68.355 70.1764C69.3 69.2323 69.3 67.7638 68.355 66.9246C67.41 66.0854 65.94 65.9805 65.1 66.9246L54.915 77.0996C55.02 72.5891 56.07 66.0854 60.165 61.9944C65.415 56.7496 74.655 56.5398 78.54 56.7496C78.75 60.6308 78.645 69.7568 73.29 75.1066Z" fill="#3B184F"/>
</svg>
