<?xml version="1.0" encoding="utf-8"?>
<!-- Generator: Adobe Illustrator 22.0.1, SVG Export Plug-In . SVG Version: 6.00 Build 0)  -->
<svg version="1.1" id="Layer_1" xmlns="http://www.w3.org/2000/svg" xmlns:xlink="http://www.w3.org/1999/xlink" x="0px" y="0px"
	 viewBox="0 0 30 30" style="enable-background:new 0 0 30 30;" xml:space="preserve">
<g>
	<path d="M30,30L30,30L30,30l0-11c0-5.4-1.2-9.5-7.5-9.5c-3,0-5.1,1.7-5.9,3.2h-0.1V10h-6v20h6.2v-9.9c0-2.6,0.5-5.1,3.7-5.1
		c3.2,0,3.2,3,3.2,5.3V30H30z"/>
	<path d="M0.5,10h6.2v20H0.5V10z"/>
	<path d="M3.6,0C1.6,0,0,1.6,0,3.6s1.6,3.6,3.6,3.6s3.6-1.6,3.6-3.6C7.2,1.6,5.6,0,3.6,0L3.6,0z"/>
</g>
</svg>
