<svg width="43" height="49" viewBox="0 0 43 49" fill="none" xmlns="http://www.w3.org/2000/svg">
<path d="M1.93245 48.9724L0 48.9449L0.0192661 47.2657C0.0992497 39.4706 0.147707 34.7658 5.91411 32.6124C10.7517 30.7231 13.6824 28.7745 13.7116 28.7547L14.7777 28.0405L18.6683 40.6565L19.2731 38.9043C17.7727 36.6348 17.3593 34.8855 18.0091 33.5649C18.7687 32.021 20.6147 31.8312 21.3731 31.8204C21.3731 31.8204 21.3731 31.8204 21.3737 31.8204C22.0136 31.8204 23.991 31.9449 24.7908 33.5421C25.4535 34.8652 25.0436 36.6222 23.5379 38.9037L24.1428 40.6565L28.0322 28.0435L29.0971 28.7535C29.1263 28.7733 32.0851 30.7297 36.9104 32.6178C42.6826 34.7688 42.7217 39.4892 42.7854 47.3088L42.8005 48.9473L40.8675 48.97L40.8523 47.3255C40.7899 39.6598 40.7607 36.1612 36.2349 34.4742C32.8884 33.1644 30.4329 31.8438 29.1216 31.0781L24.2368 46.8705L21.4041 38.666L18.5714 46.8705L17.1702 42.3741L13.6871 31.0787C12.3776 31.845 9.92847 33.1638 6.58726 34.4689C2.06439 36.1577 2.02878 39.6448 1.95055 47.286L1.93245 48.9724ZM21.4245 33.8026C20.8961 33.8091 19.9813 33.9546 19.7338 34.4581C19.617 34.6951 19.3724 35.665 21.1332 38.1775L21.4046 38.5648L21.675 38.1781C23.4399 35.6554 23.1894 34.6856 23.0709 34.4479C22.8157 33.9373 21.8822 33.8026 21.4245 33.8026Z" fill="white"/>
<path d="M21.4046 2.75835C27.7175 2.75835 32.854 8.02069 32.854 14.4888C32.854 20.9622 27.7181 26.2293 21.4046 26.2293C15.0912 26.2293 9.95531 20.967 9.95531 14.4989C9.95531 8.02548 15.0918 2.75835 21.4046 2.75835ZM18.3384 5.88343C16.2121 6.87962 14.9779 8.68821 14.8425 11.0314C14.7555 12.4994 15.1426 14.5331 17.3815 16.1255C16.8432 16.1495 15.7445 16.4015 15.2716 17.9778C15.1315 18.4292 14.9943 18.9117 14.8647 19.411C14.4671 20.9401 14.9715 22.0566 16.3645 22.7301C16.981 23.0396 17.6086 23.239 18.1837 23.3767C18.2362 24.8099 19.2334 25.8336 20.6276 25.8713C20.857 25.8767 21.087 25.8791 21.3153 25.8791C21.5442 25.8791 21.7719 25.8767 22.0054 25.8707C23.3996 25.8312 24.4119 24.762 24.4119 23.3288C24.4119 23.212 24.4137 23.0941 24.416 22.9761C25.3256 22.5726 26.1044 21.9704 26.7396 21.1777C27.853 19.7864 28.3043 17.982 27.9762 16.2267C27.6802 14.6408 26.7846 13.2423 25.4885 12.3018C25.9993 12.1042 26.5989 11.6522 26.9101 10.6309C27.0245 10.2639 27.1296 9.89154 27.2347 9.51797L27.3637 9.06298C27.7356 7.76565 27.1646 6.5252 25.9474 5.97921C25.4558 5.75711 24.9584 5.5799 24.454 5.44879C24.2484 3.78328 23.3418 3.11516 21.4146 3.11516H20.916H20.881L20.8459 3.11636C19.2813 3.17503 18.3676 4.12812 18.339 5.73196L18.3384 5.74992V5.76788V5.88343V5.88343ZM21.4046 0.777344C14.0152 0.777344 8.02344 6.92153 8.02344 14.4989C8.02344 22.0763 14.0152 28.2109 21.4046 28.2109C28.7941 28.2109 34.7859 22.0668 34.7859 14.4894C34.7859 6.91195 28.7941 0.777344 21.4046 0.777344ZM20.836 19.047C21.2517 19.047 21.6586 18.9698 22.0498 18.7992C23.037 18.358 23.1836 17.1852 22.3528 16.4841C22.069 16.2435 21.7468 16.0734 21.4146 15.913C20.5546 15.5221 19.6549 15.2317 18.8341 14.73C17.5146 13.9182 16.6739 12.8053 16.7714 11.1517C16.8789 9.28748 17.9151 8.12486 19.5767 7.50344C20.2609 7.24301 20.2709 7.25259 20.2709 6.52101C20.2709 6.27017 20.2709 6.01992 20.2709 5.76908C20.2808 5.2177 20.3783 5.11772 20.916 5.09737C21.0824 5.09737 21.2482 5.09737 21.4146 5.09737C22.5682 5.09737 22.5682 5.09737 22.5682 6.28035C22.5682 7.1125 22.5682 7.12208 23.3797 7.24241C23.9957 7.34239 24.5917 7.53337 25.1686 7.79379C25.4815 7.93388 25.6082 8.16437 25.5107 8.50561C25.3641 9.01688 25.2269 9.52815 25.0711 10.0292C24.9771 10.337 24.8796 10.4723 24.7062 10.4723C24.6087 10.4723 24.4866 10.4292 24.3284 10.3495C23.5374 9.96159 22.7153 9.76762 21.8501 9.76762C21.7322 9.76762 21.6131 9.77121 21.4934 9.77839C21.2295 9.78857 20.9755 9.82868 20.7408 9.93884C19.8809 10.3196 19.7437 11.2918 20.477 11.8935C20.8483 12.194 21.2686 12.4149 21.7088 12.6053C22.4713 12.9262 23.2338 13.2369 23.9472 13.6476C26.244 14.9509 26.8599 17.9078 25.2474 19.9223C24.6606 20.6539 23.9081 21.1352 23.0189 21.3855C22.6278 21.4956 22.4619 21.7064 22.4812 22.117C22.5011 22.5182 22.4812 22.9288 22.4812 23.33C22.4812 23.691 22.3055 23.8813 21.9534 23.8915C21.7433 23.8963 21.5308 23.8993 21.3171 23.8993C21.1034 23.8993 20.888 23.8969 20.6731 23.8915C20.3018 23.8813 20.1255 23.6712 20.1162 23.2898C20.1162 22.9893 20.1062 22.6984 20.1062 22.3978C20.0963 21.7465 20.077 21.7165 19.471 21.616C18.6893 21.4854 17.9169 21.3052 17.2035 20.9442C16.6366 20.6736 16.5776 20.5234 16.7341 19.9217C16.8514 19.4709 16.9787 19.0195 17.1153 18.5789C17.214 18.2508 17.3045 18.1053 17.4755 18.1053C17.5759 18.1053 17.7038 18.1556 17.8778 18.2484C18.6694 18.6693 19.5101 18.91 20.3999 19.0201C20.5447 19.0381 20.6906 19.047 20.836 19.047Z" fill="white"/>
</svg>
