<svg width="96" height="94" viewBox="0 0 96 94" fill="none" xmlns="http://www.w3.org/2000/svg">
<path d="M91.0265 9.4668H4.89183C3.45305 9.4668 2.39795 10.6143 2.39795 11.9531V83.5767C2.39795 85.011 3.54897 86.0629 4.89183 86.0629H90.9306C92.3694 86.0629 93.4245 84.9154 93.4245 83.5767V11.9531C93.5204 10.6143 92.3694 9.4668 91.0265 9.4668ZM12.0857 38.537C12.0857 36.1463 14.0041 34.2338 16.402 34.2338C18.8 34.2338 20.7184 36.1463 20.7184 38.537C20.7184 40.9276 18.8 42.8401 16.402 42.8401C14.0041 42.8401 12.0857 40.9276 12.0857 38.537ZM66.1837 38.537C66.1837 50.3946 58.0306 60.0528 47.9592 60.0528C37.8877 60.0528 29.7347 50.3946 29.7347 38.537C29.7347 26.6794 37.8877 17.0212 47.9592 17.0212C58.0306 17.0212 66.1837 26.5838 66.1837 38.537ZM75.2 38.537C75.2 36.1463 77.1184 34.2338 79.5163 34.2338C81.9143 34.2338 83.8326 36.1463 83.8326 38.537C83.8326 40.9276 81.9143 42.8401 79.5163 42.8401C77.1184 42.8401 75.2 40.9276 75.2 38.537ZM7.48162 67.5116H88.5326V71.7191H7.48162V67.5116ZM7.48162 81.0904V76.7872H88.5326V81.0904H7.48162Z" fill="white"/>
<path d="M45.7531 23.3329V26.7755C42.2041 27.0623 39.3265 30.0267 39.3265 33.7561C39.3265 37.5812 42.4918 40.7368 46.3286 40.7368H49.6857C51.1245 40.7368 52.1796 41.8843 52.1796 43.2231C52.1796 44.6574 51.0286 45.7093 49.6857 45.7093H46.3286C44.8898 45.7093 43.8347 44.5618 43.8347 43.2231H39.3265C39.3265 46.8568 42.2041 49.8212 45.7531 50.2037V53.7419H50.2612V50.2037C53.9061 49.9169 56.6878 46.9525 56.6878 43.2231C56.6878 39.398 53.5225 36.2424 49.6857 36.2424H46.3286C44.8898 36.2424 43.8347 35.0949 43.8347 33.7561C43.8347 32.4174 44.9857 31.2699 46.3286 31.2699H49.6857C51.1245 31.2699 52.1796 32.4174 52.1796 33.7561H56.6878C56.6878 30.1224 53.8102 27.158 50.2612 26.7755V23.2373H45.7531V23.3329Z" fill="white"/>
</svg>
