<svg width="98" height="104" viewBox="0 0 98 104" fill="none" xmlns="http://www.w3.org/2000/svg">
<path d="M84.3889 11.9951H13.3933C11.4333 11.9951 9.79999 13.6308 9.79999 15.7027V65.646C9.79999 67.8269 11.5422 68.6992 13.72 68.6992H83.9533C86.1311 68.6992 88.0911 67.8269 88.0911 65.646V15.7027C88.2 13.6308 86.3489 11.9951 84.3889 11.9951ZM83.8444 55.6137C83.8444 56.268 83.3 56.7041 82.7555 56.7041H16.3333C15.68 56.7041 15.2444 56.1589 15.2444 55.6137V18.5379C15.2444 17.8836 15.7889 17.4474 16.3333 17.4474H82.7555C83.4089 17.4474 83.8444 17.9927 83.8444 18.5379V55.6137Z" fill="white"/>
<path d="M65.2244 86.1464H57.7111V74.1514H38.1111V86.1464H31.36C30.0533 86.1464 29.4 87.564 29.4 88.8726V91.5988H66.4222V88.8726C66.4222 87.564 66.4222 86.1464 65.2244 86.1464Z" fill="white"/>
<path d="M62.72 31.6236L60.9778 26.2803C60.3244 24.5356 58.9089 23.4451 57.1667 23.227C55.4244 23.118 53.6822 23.8813 52.92 25.408L41.8133 45.6906L34.6267 37.6212C32.4489 35.2221 29.6178 33.8045 26.46 33.8045H18.5111V39.2569H26.46C28.3111 39.2569 29.9444 39.9111 31.1422 41.1107L38.6556 48.962C39.6356 49.9434 40.7244 50.0525 41.9222 50.0525C42.0311 50.0525 42.2489 50.0525 42.2489 50.0525C43.6644 50.0525 44.8622 49.2891 45.5156 48.0896L56.6222 28.2432L58.1467 32.8231C59.6711 37.4031 63.9178 40.3473 68.7089 40.3473H79.5978V35.9855H68.6C65.9867 35.9855 63.4822 34.1317 62.72 31.6236Z" fill="white"/>
</svg>
