<svg width="100" height="100" viewBox="0 0 100 100" fill="none" xmlns="http://www.w3.org/2000/svg">
<path d="M48.3999 21.9996H51.5999C52.9999 21.9996 54.0999 23.0996 54.0999 24.4996H58.1999C58.1999 20.9996 55.4999 18.0996 51.9999 17.8996V14.5996H47.9999V17.8996C44.5999 18.0996 41.7999 20.9996 41.7999 24.4996C41.7999 28.1996 44.7999 31.0996 48.3999 31.0996H51.5999C52.9999 31.0996 54.0999 32.1996 54.0999 33.5996C54.0999 34.9996 52.9999 36.0996 51.5999 36.0996H48.3999C46.9999 36.0996 45.8999 34.9996 45.8999 33.5996H41.7999C41.7999 37.0996 44.4999 39.8996 47.9999 40.1996V43.4996H52.0999V40.1996C55.4999 39.9996 58.2999 37.0996 58.2999 33.5996C58.2999 29.8996 55.2999 26.9996 51.6999 26.9996H48.4999C47.0999 26.9996 45.9999 25.8996 45.9999 24.4996C45.8999 23.0996 46.9999 21.9996 48.3999 21.9996Z" fill="#3B184F"/>
<path d="M73.0999 29.1C73.0999 16.4 62.6999 6 49.9999 6C37.2999 6 26.8999 16.4 26.8999 29.1C26.8999 41.8 37.2999 52.1 49.9999 52.1C62.6999 52.1 73.0999 41.8 73.0999 29.1ZM49.9999 47.6C39.7999 47.6 31.4999 39.3 31.4999 29.1C31.4999 18.9 39.7999 10.6 49.9999 10.6C60.1999 10.6 68.4999 18.9 68.4999 29.1C68.4999 39.3 60.1999 47.6 49.9999 47.6Z" fill="#3B184F"/>
<path d="M42.7 77.3999L40.4 65.2999C39.7 61.3999 37.8 57.9999 35 55.2999L25 45.8999C24.5 45.3999 23.8 44.9999 23.1 44.6999L20.8 27.1999C20.5 25.2999 19.6 23.5999 18 22.4999C16.4 21.3999 14.5 20.8999 12.6 21.2999C9.79996 21.8999 7.49996 24.0999 6.99996 26.9999L2.69996 50.2999C1.99996 54.2999 2.89996 58.3999 5.19996 61.6999L16.5 77.9999C16.1 78.3999 15.8 78.9999 15.8 79.5999V91.5999C15.8 92.8999 16.8 93.8999 18.1 93.8999H42.5C43.8 93.8999 44.8 92.8999 44.8 91.5999V79.5999C44.9 78.3999 43.9 77.4999 42.7 77.3999ZM7.19996 51.0999L11.4 27.6999C11.6 26.6999 12.4 25.8999 13.4 25.7999C14.1 25.6999 14.7 25.7999 15.3 26.1999C15.8 26.5999 16.2 27.1999 16.3 27.7999L18.5 44.9999C17.9 45.2999 17.3 45.7999 16.8 46.2999C15 48.2999 14.8 51.1999 16.3 53.2999L24.8 65.8999C25.5 66.8999 26.9 67.1999 28 66.4999C29 65.7999 29.3 64.3999 28.6 63.2999L20.1 50.6999C19.8 50.2999 19.8 49.6999 20.2 49.2999C20.5 48.9999 20.8 48.8999 21 48.8999C21.2 48.8999 21.5 48.8999 21.8 49.1999L31.8 58.5999C33.9 60.5999 35.4 63.1999 35.9 66.0999L38 77.3999H21.6L8.99996 59.1999C7.39996 56.7999 6.69996 53.8999 7.19996 51.0999ZM40.3 89.3999H20.5V81.8999H40.3V89.3999Z" fill="#3B184F"/>
<path d="M97.2 50.3001L93 27.0001C92.5 24.1001 90.2 21.9001 87.4 21.4001C85.5 21.1001 83.6 21.5001 82 22.6001C80.4 23.7001 79.4 25.4001 79.2 27.3001L76.9 44.7001C76.2 45.0001 75.6 45.4001 75 45.9001L65 55.3001C62.2 57.9001 60.3 61.5001 59.5 65.2001L57.2 77.4001C56 77.5001 55 78.4001 55 79.7001V91.7001C55 93.0001 56 94.0001 57.3 94.0001H81.7C83 94.0001 84 93.0001 84 91.7001V79.7001C84 79.1001 83.7 78.5001 83.3 78.1001L94.6 61.8001C97.1 58.4001 98 54.3001 97.2 50.3001ZM79.5 89.4001H59.7V81.9001H79.5V89.4001ZM91 59.2001L78.4 77.4001H62L64.1 66.1001C64.6 63.3001 66.1 60.6001 68.2 58.6001L78.2 49.2001C78.5 48.9001 78.8 48.9001 79 48.9001C79.2 48.9001 79.5 49.0001 79.8 49.3001C80.2 49.7001 80.2 50.3001 79.9 50.7001L71.4 63.3001C70.7 64.3001 71 65.8001 72 66.5001C73 67.2001 74.5 66.9001 75.2 65.9001L83.7 53.3001C85.2 51.1001 85 48.2001 83.2 46.3001C82.7 45.8001 82.1 45.3001 81.5 45.0001L83.8 27.9001C83.9 27.2001 84.2 26.7001 84.8 26.3001C85.3 25.9001 86 25.8001 86.6 25.9001C87.6 26.1001 88.4 26.9001 88.6 27.8001L92.8 51.2001C93.3 54.0001 92.7 56.8001 91 59.2001Z" fill="#3B184F"/>
</svg>
