<svg width="77" height="48" viewBox="0 0 77 48" fill="none" xmlns="http://www.w3.org/2000/svg">
<path d="M40.1421 10.1359C40.1421 8.29217 39.0615 7.04599 37.2436 6.81073C36.8995 6.76129 36.5453 6.72208 36.2012 6.68287C35.178 6.55501 34.2112 6.44761 33.2836 6.24134C29.6585 5.42731 26.1474 3.74983 22.2638 0.964246C21.6229 0.50396 20.9155 0.0820312 20.0835 0.0820312C19.2605 0.0820312 18.5531 0.50396 17.9123 0.95487C12.7178 4.61329 8.04044 6.47745 3.20013 6.79112C1.1054 6.92836 0.00484029 8.1447 0.00484029 10.3123C0.00484029 11.6071 0.00484029 12.9018 0.00484029 14.1966V14.2162C-0.00513459 17.8158 -0.00513459 21.5339 0.0339337 25.2017C0.0439086 26.5655 0.215975 27.9779 0.531016 29.4099C1.27747 32.7649 2.97985 35.7857 5.73458 38.6403C9.16844 42.2007 13.4734 44.9471 18.8873 47.0363C19.2506 47.1735 19.6429 47.252 20.0544 47.252C20.5514 47.252 21.0494 47.1437 21.4891 46.9477C21.7858 46.8104 22.0917 46.6826 22.3885 46.5556L22.4176 46.5453C23.7284 45.9666 25.0767 45.3682 26.3967 44.6624C30.7965 42.2792 34.1256 39.4637 36.5744 36.05C38.7747 32.9899 39.9127 29.9094 40.0465 26.6337C40.0756 26.0064 40.0947 25.3389 40.1039 24.5837L40.1521 18.5216C40.1521 18.4824 40.1521 18.4526 40.1521 18.4133V16.0591C40.1513 14.079 40.1513 12.1074 40.1421 10.1359ZM37.8462 18.4048C37.8462 18.4244 37.8462 18.444 37.8462 18.4739L37.798 24.5556C37.7881 25.2818 37.7689 25.9194 37.7498 26.5272C37.6351 29.323 36.6401 31.9807 34.7174 34.6486C32.4789 37.7675 29.3992 40.357 25.3145 42.5741C24.0809 43.2415 22.77 43.8194 21.4982 44.3786L21.4691 44.3888C21.1632 44.526 20.8665 44.6539 20.5606 44.7911C20.4076 44.8602 20.2256 44.8994 20.0444 44.8994C19.9106 44.8994 19.7859 44.8798 19.6811 44.8406C14.5823 42.869 10.5458 40.2991 7.35134 36.9935C4.92163 34.4535 3.41958 31.8051 2.76955 28.8917C2.48277 27.6267 2.33896 26.3805 2.32982 25.1838C2.29158 21.5348 2.30073 17.8175 2.30073 14.2273V14.2077C2.30073 12.9129 2.30073 11.6182 2.30073 10.3234C2.30073 9.87248 2.36806 9.53835 2.50189 9.40111C2.62657 9.26388 2.92249 9.17523 3.35308 9.14625C8.62397 8.79337 13.6646 6.81158 19.2123 2.88807C19.6429 2.58377 19.9297 2.43716 20.0826 2.43716C20.2356 2.43716 20.5224 2.594 20.9529 2.8983C25.095 5.86032 28.8639 7.65544 32.7948 8.5385C33.828 8.77376 34.8513 8.89139 35.9419 9.01925C36.286 9.05846 36.621 9.09767 36.9651 9.14711C37.6351 9.23575 37.8546 9.48039 37.8546 10.1376C37.8546 12.1091 37.8546 14.0807 37.8546 16.0522L37.8462 18.4048Z" fill="white"/>
<path d="M21.6711 22.4655H18.4667C17.1658 22.4655 16.1043 21.377 16.1043 20.0431C16.1043 18.7091 17.1658 17.6206 18.4667 17.6206H24.11C24.7409 17.6206 25.2579 17.0913 25.2579 16.4435C25.2579 15.7957 24.7417 15.2664 24.11 15.2664H21.2214V13.0101C21.2214 12.3632 20.7052 11.833 20.0735 11.833C19.4417 11.833 18.9255 12.3623 18.9255 13.0101V15.2664H18.4758C15.9123 15.2664 13.8176 17.405 13.8176 20.0431C13.8176 22.6718 15.9031 24.8198 18.4758 24.8198H21.6803C22.9811 24.8198 24.0426 25.9082 24.0426 27.2422C24.0426 28.5762 22.9811 29.6646 21.6803 29.6646H15.9314C15.3005 29.6646 14.7835 30.194 14.7835 30.8418C14.7835 31.4887 15.2997 32.0189 15.9314 32.0189H18.9255V34.3143C18.9255 34.9613 19.4417 35.4915 20.0735 35.4915C20.7052 35.4915 21.2214 34.9621 21.2214 34.3143V32.0189H21.7093C21.7193 32.0189 21.7285 32.0189 21.7384 32.0189C24.2729 31.9891 26.3302 29.8513 26.3302 27.2422C26.3294 24.6041 24.2438 22.4655 21.6711 22.4655Z" fill="white"/>
<path d="M69.3427 11.3042C73.2446 11.3042 76.1838 9.74868 76.1838 7.68433C76.1838 5.61997 73.2446 4.06445 69.3427 4.06445C65.4409 4.06445 62.5016 5.61997 62.5016 7.68433C62.5016 9.74868 65.4409 11.3042 69.3427 11.3042ZM69.3427 5.61826C72.5962 5.61826 74.6735 6.84477 74.6735 7.68944C74.6735 8.53411 72.597 9.76062 69.3427 9.76062C66.0893 9.76062 64.012 8.53411 64.012 7.68944C64.012 6.84477 66.0884 5.61826 69.3427 5.61826Z" fill="white"/>
<path d="M75.6111 11.3752C75.2212 11.227 74.7865 11.4332 74.6419 11.8338C74.321 12.7303 72.2063 13.6985 69.3494 13.6985C66.5681 13.6985 64.4841 12.7823 64.0818 11.8985C63.9056 11.5116 63.4526 11.3437 63.0752 11.5244C62.6978 11.7051 62.5341 12.1696 62.7103 12.5565C63.4468 14.1698 66.115 15.2471 69.3502 15.2471C70.8922 15.2471 72.39 14.9888 73.5795 14.5116C74.8887 13.9891 75.7507 13.2468 76.0658 12.363C76.2021 11.9684 76.0009 11.5235 75.6111 11.3752Z" fill="white"/>
<path d="M75.6111 15.3235C75.2212 15.1752 74.7865 15.3815 74.6419 15.7821C74.321 16.6788 72.2063 17.6471 69.3494 17.6471C66.5681 17.6471 64.4841 16.7308 64.0818 15.8469C63.9056 15.4599 63.4526 15.292 63.0752 15.4727C62.6978 15.6534 62.5341 16.1179 62.7103 16.5049C63.4468 18.1184 66.115 19.1958 69.3502 19.1958C70.8922 19.1958 72.39 18.9375 73.5795 18.4602C74.8887 17.9377 75.7507 17.1953 76.0658 16.3114C76.2021 15.9176 76.0009 15.4727 75.6111 15.3235Z" fill="white"/>
<path d="M75.6111 19.2673C75.2212 19.119 74.7865 19.3253 74.6419 19.7259C74.321 20.6227 72.2063 21.591 69.3494 21.591C66.5681 21.591 64.4841 20.6747 64.0818 19.7907C63.9056 19.4037 63.4526 19.2358 63.0752 19.4165C62.6978 19.5972 62.5341 20.0618 62.7103 20.4488C63.4468 22.0624 66.115 23.1399 69.3502 23.1399C70.8922 23.1399 72.39 22.8816 73.5795 22.4043C74.8887 21.8817 75.7507 21.1393 76.0658 20.2553C76.2021 19.8615 76.0009 19.4165 75.6111 19.2673Z" fill="white"/>
<path d="M75.6111 23.2171C75.2212 23.0687 74.7865 23.275 74.6419 23.6757C74.321 24.5724 72.2063 25.5408 69.3494 25.5408C66.5681 25.5408 64.4841 24.6244 64.0818 23.7404C63.9056 23.3534 63.4526 23.1855 63.0752 23.3662C62.6978 23.5469 62.5341 24.0115 62.7103 24.3985C63.4468 26.0121 66.115 27.0896 69.3502 27.0896C70.8922 27.0896 72.39 26.8313 73.5795 26.354C74.8887 25.8314 75.7507 25.089 76.0658 24.205C76.2021 23.8044 76.0009 23.3586 75.6111 23.2171Z" fill="white"/>
<path d="M75.6111 27.1604C75.2212 27.0121 74.7865 27.2184 74.6419 27.619C74.321 28.5158 72.2063 29.4841 69.3494 29.4841C66.5681 29.4841 64.4841 28.5678 64.0818 27.6838C63.9056 27.2968 63.4526 27.1289 63.0752 27.3096C62.6978 27.4903 62.5341 27.9549 62.7103 28.3419C63.4468 29.9555 66.115 31.033 69.3502 31.033C70.8922 31.033 72.39 30.7747 73.5795 30.2973C74.8887 29.7748 75.7507 29.0323 76.0658 28.1484C76.2021 27.7537 76.0009 27.3087 75.6111 27.1604Z" fill="white"/>
<path d="M59.0146 19.2673C58.6247 19.119 58.19 19.3253 58.0453 19.7259C57.7245 20.6227 55.6098 21.591 52.7528 21.591C49.9715 21.591 47.8884 20.6747 47.4853 19.7907C47.309 19.4037 46.856 19.2358 46.4786 19.4165C46.1013 19.5972 45.9375 20.0618 46.1137 20.4488C46.8502 22.0624 49.5185 23.1399 52.7537 23.1399C54.2956 23.1399 55.7935 22.8816 56.983 22.4043C58.2922 21.8817 59.1542 21.1393 59.4692 20.2553C59.6064 19.8615 59.4052 19.4165 59.0146 19.2673Z" fill="white"/>
<path d="M59.0146 23.2171C58.6247 23.0687 58.19 23.275 58.0453 23.6757C57.7245 24.5724 55.6098 25.5408 52.7528 25.5408C49.9715 25.5408 47.8884 24.6244 47.4853 23.7404C47.309 23.3534 46.856 23.1855 46.4786 23.3662C46.1013 23.5469 45.9375 24.0115 46.1137 24.3985C46.8502 26.0121 49.5185 27.0896 52.7537 27.0896C54.2956 27.0896 55.7935 26.8313 56.983 26.354C58.2922 25.8314 59.1542 25.089 59.4692 24.205C59.6064 23.8044 59.4052 23.3586 59.0146 23.2171Z" fill="white"/>
<path d="M59.0146 27.1604C58.6247 27.0121 58.19 27.2184 58.0453 27.619C57.7245 28.5158 55.6098 29.4841 52.7528 29.4841C49.9715 29.4841 47.8884 28.5678 47.4853 27.6838C47.309 27.2968 46.856 27.1289 46.4786 27.3096C46.1013 27.4903 45.9375 27.9549 46.1137 28.3419C46.8502 29.9555 49.5185 31.033 52.7537 31.033C54.2956 31.033 55.7935 30.7747 56.983 30.2973C58.2922 29.7748 59.1542 29.0323 59.4692 28.1484C59.6064 27.7537 59.4052 27.3087 59.0146 27.1604Z" fill="white"/>
<path d="M52.7528 11.9556C48.851 11.9556 45.9117 13.5111 45.9117 15.5756C45.9117 17.64 48.851 19.1956 52.7528 19.1956C56.6547 19.1956 59.5939 17.64 59.5939 15.5756C59.5939 13.5111 56.6547 11.9556 52.7528 11.9556ZM52.7528 17.6477C49.4994 17.6477 47.4221 16.4211 47.4221 15.5764C47.4221 14.7317 49.4985 13.5052 52.7528 13.5052C56.0071 13.5052 58.0836 14.7317 58.0836 15.5764C58.0836 16.4211 56.0063 17.6477 52.7528 17.6477Z" fill="white"/>
</svg>
