<svg id="Layer_1" data-name="Layer 1" xmlns="http://www.w3.org/2000/svg" viewBox="0 0 100 100"><defs><style>.cls-1{fill:#ffffff;}.cls-2{fill:none;stroke:#4a2070;stroke-linecap:round;stroke-linejoin:round;stroke-width:4px;}</style></defs><title>colored</title><rect class="cls-1" x="26" y="13" width="64" height="64" rx="6" ry="6"/><path class="cls-2" d="M53,57V85H70.33C72.54,85,73,83.59,73,81.38V35a4,4,0,0,0-4-4H57a4,4,0,0,0-4,4V49"/><polyline class="cls-2" points="33 85 53 85 53 51"/><path class="cls-2" d="M53,49H37a4,4,0,0,0-4,4v6"/><path class="cls-2" d="M13,71a4,4,0,0,1,4-4H33V85H17a3.69,3.69,0,0,1-4-3.62V71"/><line class="cls-2" x1="34" y1="31" x2="14" y2="51"/><line class="cls-2" x1="26" y1="31" x2="34" y2="31"/><line class="cls-2" x1="34" y1="39" x2="34" y2="31"/><line class="cls-2" x1="53" y1="61.38" x2="72.67" y2="81"/><line class="cls-2" x1="53" y1="74.38" x2="63.67" y2="85"/><line class="cls-2" x1="53" y1="48.38" x2="72.67" y2="68"/><line class="cls-2" x1="53" y1="35.38" x2="72.67" y2="55"/><line class="cls-2" x1="62" y1="31.38" x2="72.67" y2="42"/></svg>