<svg id="Layer_1" data-name="Layer 1" xmlns="http://www.w3.org/2000/svg" viewBox="0 0 100 100"><defs><style>.cls-1{fill:#4a2070;}.cls-2,.cls-3{fill:none;stroke:#ffca43;stroke-linecap:round;stroke-linejoin:round;}.cls-2{stroke-width:4px;}.cls-3{stroke-width:3.67px;}</style></defs><title>colored</title><rect class="cls-1" x="25" y="16" width="64" height="64" rx="6" ry="6"/><line class="cls-2" x1="30" y1="69" x2="20" y2="69"/><path class="cls-2" d="M36.88,75.86a8.12,8.12,0,0,1-6,2.14,9,9,0,1,1,0-18,8.42,8.42,0,0,1,6,2.52"/><line class="cls-2" x1="11" y1="32" x2="33" y2="32"/><line class="cls-2" x1="16.66" y1="26.34" x2="11" y2="32"/><line class="cls-2" x1="16.66" y1="37.66" x2="11" y2="32"/><line class="cls-2" x1="71" y1="75" x2="50" y2="75"/><line class="cls-2" x1="66.34" y1="80.63" x2="72" y2="74.97"/><line class="cls-2" x1="66.34" y1="69.31" x2="72" y2="74.97"/><path class="cls-2" d="M57.64,32.54c-6.27-4.49-8.93-.14-8.51,2.27,0.38,2.14,3.33,2.85,4.54,3,8.61,1.23,2.87,11.4-5.67,5.06"/><line class="cls-2" x1="52.96" y1="28" x2="52.97" y2="30.37"/><line class="cls-2" x1="52.96" y1="44.87" x2="52.97" y2="48"/><circle class="cls-3" cx="53" cy="38" r="19"/><path class="cls-3" d="M49.58,65A19,19,0,1,1,29,50.1"/></svg>