<svg id="Layer_1" data-name="Layer 1" xmlns="http://www.w3.org/2000/svg" viewBox="0 0 100 100"><defs><style>.cls-1{fill:#ffffff;}.cls-2{fill:none;stroke:#ffca43;stroke-linecap:round;stroke-linejoin:round;stroke-width:4px;}</style></defs><title>colored</title><circle class="cls-1" cx="53" cy="46" r="35"/><path class="cls-2" d="M14.42,69.24A31,31,0,0,0,73.74,53.12V53"/><path class="cls-2" d="M12.23,60.88h0q-0.06-.51-0.11-1A31,31,0,0,1,69.87,41.54C70.29,42.48,71,44,71.35,45"/><path class="cls-2" d="M33,45H43a5,5,0,1,1,0,10H36"/><path class="cls-2" d="M33,69H47c10.22,0,10.22-13,0-14H36"/><line class="cls-2" x1="36" y1="38" x2="36" y2="76"/><line class="cls-2" x1="42" y1="38" x2="42" y2="45"/><line class="cls-2" x1="42" y1="69" x2="42" y2="76"/><line class="cls-2" x1="22" y1="69" x2="14.42" y2="69"/><line class="cls-2" x1="71" y1="45" x2="63" y2="45"/></svg>