<svg id="Layer_1" data-name="Layer 1" xmlns="http://www.w3.org/2000/svg" viewBox="0 0 100 100"><defs><style>.cls-1{fill:#4a2070;}.cls-2,.cls-3{fill:none;stroke:#ffca43;stroke-linecap:round;stroke-linejoin:round;}.cls-2{stroke-width:4px;}.cls-3{stroke-width:3.67px;}</style></defs><title>colored</title><rect class="cls-1" x="18" y="15" width="64" height="64" rx="6" ry="6"/><path class="cls-2" d="M27,33h9c4,0,4,6,0,6H31"/><path class="cls-2" d="M27,47H38c5.44,0,5.41-7.94,0-8H31"/><line class="cls-2" x1="31" y1="30" x2="31" y2="50"/><line class="cls-2" x1="15" y1="88" x2="53" y2="88"/><path class="cls-3" d="M50.1,24A22,22,0,0,1,34.88,62"/><path class="cls-3" d="M27,60.5a22,22,0,0,1,16-41h0l0.39,0.16L44,19.92h0"/><line class="cls-2" x1="25" y1="82" x2="43" y2="82"/><line class="cls-2" x1="34" y1="79" x2="34" y2="62.13"/><path class="cls-2" d="M33,82H22C11.63,80.13,9,73.75,6,67H19Z"/><path class="cls-2" d="M37,82H48c10.38-2,13-8.25,16-15H51Z"/></svg>