<svg id="Layer_1" data-name="Layer 1" xmlns="http://www.w3.org/2000/svg" viewBox="0 0 100 100"><defs><style>.cls-1{fill:#ffffff;}.cls-2{fill:none;stroke:#ffca43;stroke-linecap:round;stroke-linejoin:round;stroke-width:4px;}</style></defs><title>colored</title><circle class="cls-1" cx="56" cy="46" r="35"/><line class="cls-2" x1="75.34" y1="48.34" x2="81" y2="54"/><line class="cls-2" x1="75.34" y1="59.66" x2="81" y2="54"/><polyline class="cls-2" points="40.35 43.67 37.34 38.5 28.34 23"/><line class="cls-2" x1="52.34" y1="43.67" x2="64.34" y2="23"/><line class="cls-2" x1="14" y1="54" x2="26" y2="54"/><line class="cls-2" x1="79" y1="54" x2="58.34" y2="54"/><line class="cls-2" x1="56.63" y1="24.72" x2="64.44" y2="23"/><line class="cls-2" x1="66.17" y1="30.81" x2="64.44" y2="23"/><line class="cls-2" x1="36.17" y1="24.72" x2="28.36" y2="23"/><line class="cls-2" x1="26.63" y1="30.81" x2="28.36" y2="23"/><polyline class="cls-2" points="52.47 64.36 52.84 65 52.84 65 52.84 65 64.46 85"/><line class="cls-2" x1="40.34" y1="64.53" x2="28.46" y2="85"/><line class="cls-2" x1="36.17" y1="83.28" x2="28.36" y2="85"/><line class="cls-2" x1="26.63" y1="77.19" x2="28.36" y2="85"/><line class="cls-2" x1="56.71" y1="83.28" x2="64.52" y2="85"/><line class="cls-2" x1="66.25" y1="77.19" x2="64.52" y2="85"/><line class="cls-2" x1="16" y1="59.66" x2="10.34" y2="54"/><line class="cls-2" x1="16" y1="48.34" x2="10.34" y2="54"/><path class="cls-2" d="M52.34,64.39a12,12,0,1,1,6-10.39"/></svg>