<svg xmlns="http://www.w3.org/2000/svg" viewBox="0 0 723.53 723.54"><defs><style>.cls-1{isolation:isolate;}.cls-14,.cls-2{fill:#4f336b;}.cls-11,.cls-3{fill:#a159c8;}.cls-12,.cls-4{fill:#6345a2;}.cls-10,.cls-5{fill:#e56ae8;}.cls-13,.cls-6{fill:#223078;}.cls-15,.cls-7,.cls-9{fill:#fff;}.cls-7,.cls-8{opacity:0.2;}.cls-7{mix-blend-mode:overlay;}.cls-8{fill:#231f20;}.cls-10,.cls-11,.cls-12,.cls-13,.cls-14{font-size:29.3px;font-family:Circe-Light, Circe;font-weight:300;}.cls-15{stroke:#fff;stroke-miterlimit:10;}</style></defs><g class="cls-1"><g id="Слой_1" data-name="Слой 1"><path class="cls-2" d="M985.17,338.65a102.31,102.31,0,0,1-45.83,40.45,151.2,151.2,0,0,0-18,3.35,154,154,0,0,0-17.48,5.35A162.22,162.22,0,0,0,802.22,502.15a160,160,0,0,0-3.75,22.55,102.36,102.36,0,0,0-199.61-6.14q.92-15.52,3.16-30.74C621.38,355,714.25,239.69,847.49,196.26l0,0q12.93-4.22,26.36-7.52t26.86-5.51h0a102.46,102.46,0,0,1,84.41,155.45Z" transform="translate(-598.23 -178.23)"/><path class="cls-3" d="M1282.55,703.61s0,.07,0,.1a365.81,365.81,0,0,1-28.32,46.7,102.45,102.45,0,0,1-165.79-111.3,159.32,159.32,0,0,0,18.88-31.19,0,0,0,0,0,0,0,161.46,161.46,0,0,0,10.61-105l-.38-1.52a158.2,158.2,0,0,0-5.42-17.68c0,.05.08.08.11.13s.08.11.13.16c.66.93,1.38,1.84,2.13,2.74.29.4.63.8,1,1.2.69.85,1.41,1.67,2.13,2.5.4.47.82,1,1.3,1.43,1.14,1.31,2.39,2.56,3.64,3.75,1.87,1.86,3.78,3.62,5.8,5.3,1.86,1.59,3.8,3.11,5.83,4.54.85.61,1.7,1.23,2.55,1.78.45.32.9.64,1.36.91,1.54,1,3.11,2,4.73,2.92.21.14.42.24.64.38.77.45,1.54.87,2.31,1.27,2.34,1.28,4.74,2.45,7.16,3.51.82.4,1.64.75,2.47,1.07a101.08,101.08,0,0,0,52.23,6.78c1.44-.16,2.87-.37,4.34-.67s2.81-.5,4.2-.82a.8.8,0,0,1,.26,0c.75-.16,1.47-.32,2.18-.51s1.28-.32,1.92-.5c1.41-.38,2.79-.78,4.17-1.2,0,0,0,0,.06,0a97.12,97.12,0,0,0,12.23-4.71,99.49,99.49,0,0,0,28.19-19.25,19,19,0,0,0,1.81-1.78c1.22-1.2,2.37-2.42,3.46-3.68.58-.66,1.17-1.3,1.7-2a19.09,19.09,0,0,0,1.33-1.57c.61-.75,1.19-1.49,1.78-2.26.48-.59.9-1.17,1.33-1.76a2,2,0,0,0,.19-.24c.77-1,1.51-2.1,2.23-3.16,1-1.41,1.89-2.85,2.77-4.31.55-.93,1.11-1.86,1.64-2.82a90.68,90.68,0,0,0,4.55-9.09c.32-.67.59-1.33.88-2,.08-.21.19-.42.27-.66.26-.64.5-1.28.74-1.92s.59-1.56.88-2.34.56-1.56.8-2.36a101.34,101.34,0,0,0,5-34.52c0-.85,0-1.7-.1-2.56-.06-1.41-.16-2.79-.3-4.17,0-.29-.05-.56-.08-.85-.32-3.17-.79-6.3-1.41-9.42q5.07,12.3,9.23,25.08c.43,1.28.83,2.58,1.2,3.86,2.29,7.23,4.36,14.6,6.17,22.05A360.18,360.18,0,0,1,1282.55,703.61Z" transform="translate(-598.23 -178.23)"/><path class="cls-4" d="M1254.2,750.41q-10.34,14.45-22,27.87a361.79,361.79,0,0,1-435.64,84.36,364.57,364.57,0,0,1-46.7-28.3v0a102.4,102.4,0,0,1,50-169.76,104.72,104.72,0,0,1,20.74-2.89,100.85,100.85,0,0,1,40.24,6.67,0,0,0,0,0,0,0,162,162,0,0,0,227.57-29.26,102.45,102.45,0,0,0,165.79,111.3Z" transform="translate(-598.23 -178.23)"/><path class="cls-5" d="M1296.51,426.36a101,101,0,0,1-5,28c-.27.77-.54,1.57-.8,2.36s-.59,1.55-.88,2.34-.48,1.28-.74,1.92c-.08.24-.19.45-.27.66-.29.7-.59,1.36-.88,2a90.68,90.68,0,0,1-4.55,9.09c-.53,1-1.09,1.89-1.64,2.82-.88,1.46-1.81,2.9-2.77,4.31-.72,1.06-1.46,2.13-2.23,3.16a2,2,0,0,1-.19.24c-.43.61-.88,1.2-1.33,1.76-.59.77-1.17,1.51-1.78,2.26-.43.53-.88,1-1.33,1.57s-1.12,1.3-1.7,2c-1.09,1.26-2.24,2.48-3.46,3.68a19,19,0,0,1-1.81,1.78A99.49,99.49,0,0,1,1237,515.58a97.12,97.12,0,0,1-12.23,4.71s0,0-.06,0c-1.38.42-2.76.85-4.17,1.2-.64.18-1.28.34-1.92.5s-1.43.35-2.18.51a.8.8,0,0,0-.26,0c-1.39.32-2.8.58-4.2.82s-2.88.48-4.34.67a101.08,101.08,0,0,1-52.23-6.78c-.83-.35-1.65-.69-2.47-1.07-2.42-1.06-4.82-2.23-7.16-3.51-.77-.4-1.54-.82-2.31-1.27-.22-.14-.43-.24-.64-.38-1.62-.93-3.19-1.88-4.73-2.92-.46-.29-.91-.59-1.36-.91-.85-.55-1.7-1.17-2.55-1.78-2-1.46-3.94-3-5.83-4.54s-3.93-3.44-5.8-5.3c-1.25-1.19-2.5-2.44-3.64-3.75-.42-.48-.88-1-1.3-1.43-.72-.83-1.44-1.65-2.13-2.5-.35-.4-.66-.8-1-1.2-.75-.9-1.47-1.81-2.13-2.74,0,0-.08-.11-.13-.16s-.08-.08-.11-.13a159.06,159.06,0,0,0-16-31.89.06.06,0,0,0,0-.08,161.94,161.94,0,0,0-156.81-72.6,102.31,102.31,0,0,0,45.83-40.45A102.46,102.46,0,0,0,900.76,183.2q17.07-2.87,34.09-4.07c136.64-9.7,266.29,59.42,335.46,174.86v0a358.26,358.26,0,0,1,24.31,48.59v.08a.08.08,0,0,1,0,.08s0,.08,0,.1c.62,3.12,1.09,6.25,1.41,9.42,0,.29.06.56.08.85.14,1.38.24,2.76.3,4.17,0,.86.08,1.71.1,2.56,0,1.91,0,3.82,0,5.73Z" transform="translate(-598.23 -178.23)"/><path class="cls-6" d="M860.81,668.34a100.85,100.85,0,0,0-40.24-6.67,104.72,104.72,0,0,0-20.74,2.89,102.4,102.4,0,0,0-50,169.76c-8.83-6.31-17.4-13-25.67-20.08A362.25,362.25,0,0,1,599.81,573.13a355.89,355.89,0,0,1-.95-54.57,102.36,102.36,0,0,1,199.61,6.14,159.59,159.59,0,0,0,.62,35.72,156.37,156.37,0,0,0,3.35,18.22,161.29,161.29,0,0,0,41.94,75.15A163,163,0,0,0,860.81,668.34Z" transform="translate(-598.23 -178.23)"/><path class="cls-7" d="M960,178.23c-187.31,0-341.37,142.36-359.9,324.77.53-5.08,1.17-10.13,1.91-15.18a110.45,110.45,0,0,1,29.09-34.39c37.77-144,167.55-250.65,322.73-253.42-1-.66-2.1-1.33-3.17-2a101.93,101.93,0,0,0-49.91-14.82q17.07-2.87,34.09-4.07a110.52,110.52,0,0,1,39.44,21.12c153.29,6.33,280.39,114.14,315.86,258.05a103.15,103.15,0,0,0,6-26.17,101.42,101.42,0,0,0-1.55-29.73q6,14.36,10.54,29.06a110.08,110.08,0,0,1-11.25,43.7v0a342.71,342.71,0,0,1,6.17,64.82,338.77,338.77,0,0,1-95.29,236c1.22-.24,2.42-.5,3.64-.8a101.82,101.82,0,0,0,45.8-24.81q-10.34,14.45-22,27.87a111.92,111.92,0,0,1-24.15,9,107.23,107.23,0,0,1-17.63,2.82l0,0A340,340,0,0,1,724,784.8a102.39,102.39,0,0,0,25.8,49.52c-8.83-6.31-17.4-13-25.67-20.08a112.17,112.17,0,0,1-10.26-26.57,105.76,105.76,0,0,1-2.66-15.85l0,0a340.55,340.55,0,0,1-84-301.53,100.57,100.57,0,0,0-16.73,20.85,102.16,102.16,0,0,0-11.54,27.32v.05c-.42,7.1-.64,14.31-.64,21.52,0,199.8,162,361.76,361.77,361.76s361.74-162,361.74-361.76S1159.81,178.23,960,178.23Z" transform="translate(-598.23 -178.23)"/><path class="cls-8" d="M598.86,518.56c0-.61.08-1.2.13-1.81,0,.56-.08,1.12-.11,1.68v.05S598.86,518.53,598.86,518.56Z" transform="translate(-598.23 -178.23)"/><path class="cls-8" d="M1294.61,402.4a102.92,102.92,0,0,1-.44,42.31,100.89,100.89,0,0,1-25.24,47.81,102.38,102.38,0,0,1-120.8,21.39,11.93,11.93,0,0,1-6.28-8.49A185.31,185.31,0,0,0,1004.6,360.34c-7.72-1.91-11.63-10.68-7.43-17.43a110.12,110.12,0,0,0-62.32-163.78q-17,1.2-34.09,4.07a102.48,102.48,0,0,1,75.79,167.61,11.67,11.67,0,0,1-9.45,4.24c-2.35-.08-4.71-.13-7.09-.13A185,185,0,0,0,794,458a11.71,11.71,0,0,1-18.69,3A110.19,110.19,0,0,0,602,487.82q-2.24,15.24-3.16,30.74a102.39,102.39,0,0,1,180.33-36.72,11.65,11.65,0,0,1,2.07,10.07,185.51,185.51,0,0,0,21.08,145c4.19,6.8.25,15.57-7.52,17.44l-.18,0a110.15,110.15,0,0,0-80.76,133.24,112.17,112.17,0,0,0,10.26,26.57c8.27,7,16.84,13.77,25.67,20.08a102.4,102.4,0,0,1,50-169.76,106.47,106.47,0,0,1,14.56-2.47,11.91,11.91,0,0,1,9.88,3.68A185.11,185.11,0,0,0,1057,697.64a11.68,11.68,0,0,1,17.43,7.52c.1.45.21.9.31,1.34A110.17,110.17,0,0,0,1208,787.27a111.92,111.92,0,0,0,24.15-9q11.68-13.39,22-27.87a102.39,102.39,0,0,1-172-64.81,11.88,11.88,0,0,1,3.69-9.89A184.57,184.57,0,0,0,1145.08,540c0-5.32-.21-10.59-.66-15.8v0a110.18,110.18,0,0,0,160.72-92.73C1302.08,421.66,1298.55,412,1294.61,402.4ZM1107.32,607.89a0,0,0,0,1,0,0,159.32,159.32,0,0,1-18.88,31.19,162.17,162.17,0,0,1-227.57,29.26,0,0,0,0,1,0,0,163,163,0,0,1-16.43-14.55,161.29,161.29,0,0,1-41.94-75.15,156.37,156.37,0,0,1-3.35-18.22,161.08,161.08,0,0,1,3.13-58.27A162.22,162.22,0,0,1,903.89,387.8a154,154,0,0,1,17.48-5.35,151.2,151.2,0,0,1,18-3.35,161.94,161.94,0,0,1,156.81,72.6.06.06,0,0,1,0,.08,162.35,162.35,0,0,1,21.4,49.57l.38,1.52A161.46,161.46,0,0,1,1107.32,607.89Z" transform="translate(-598.23 -178.23)"/><circle class="cls-9" cx="620.86" cy="299.12" r="19.84"/><text class="cls-10" transform="translate(615.41 309.25)">1</text><circle class="cls-9" cx="549.86" cy="550.12" r="19.84"/><text class="cls-11" transform="translate(542.11 560.25)">2</text><circle class="cls-9" cx="175.86" cy="540.12" r="19.84"/><text class="cls-12" transform="translate(168.05 550.25)">3</text><circle class="cls-9" cx="92.86" cy="299.12" r="19.84"/><text class="cls-13" transform="translate(84.98 309.25)">4</text><circle class="cls-9" cx="357.86" cy="86.12" r="19.84"/><text class="cls-14" transform="translate(350.27 96.25)">5</text><path class="cls-15" d="M915.08,801.8c-.37,0-.74,0-1.1,0s-.59,0-1,0h-2l-3.67,0c-1.22,0-2.45,0-3.67,0h-1.26c-3.61,0-3.64,1.16-3.74,4.28v.5a130,130,0,0,0,.13,13.89.83.83,0,0,0,.06.25l.16,0h0l-.1.19a.88.88,0,0,0,.84.53h18a1,1,0,0,0,1-1c0-1.44,0-2.88.09-4.33.06-2,.11-4,.1-6,0-.39,0-.86,0-1.38.09-2,.21-4.65-.82-6A3.73,3.73,0,0,0,915.08,801.8Zm-6.48,2,1.45,0c.34,0,.77,0,1.26-.07.69-.05,1.49-.11,2.27-.11,1.68,0,2.72.28,3.17.85.3.39.27,2.65.26,3.73,0,.32,0,.58,0,.74,0,1.31,0,2.62,0,3.92,0,1.12,0,2.23-.08,3.35s0,2.26-.07,3.39H900.73c-.09-1.7-.06-3.42,0-5.09s0-3.27,0-4.9c0-1.1,0-2.17,0-3.28.08-2.18.36-2.49,2.29-2.49h2C906.18,803.85,907.39,803.83,908.6,803.81Z" transform="translate(-598.23 -178.23)"/><path class="cls-15" d="M938.36,783.85c-.91,0-1.84.08-2.75.16s-1.5.13-2.25.14c-.53,0-1.24-.06-2-.14-1-.09-2.16-.19-3.27-.19-2.57,0-4,.61-4.5,1.88-.64,1.8-.44,4.18-.26,6.28.07.82.14,1.61.15,2.33.08,3.55,0,7.17-.1,10.67a153.11,153.11,0,0,0,.12,15.59,1.2,1.2,0,0,0,.06.24l.06.16a.87.87,0,0,0,.84.54h18a1,1,0,0,0,1-1c0-3.13,0-6.27.09-9.41,0-4.88.11-9.75.09-14.63,0-.81,0-1.63,0-2.45a41.08,41.08,0,0,0-.25-6.85C942.9,784.24,940.45,783.85,938.36,783.85Zm-13,2.84a6.19,6.19,0,0,0,.3-.61l.34,0a4.53,4.53,0,0,0,.56,0,11.43,11.43,0,0,1,1.32-.07c.58,0,1.16,0,1.75.06s1.13.06,1.83.06h0c.61,0,1.39-.08,2.25-.16,1.1-.1,2.36-.22,3.52-.22a6.18,6.18,0,0,1,3.39.69c1.39,1,1.19,4.87,1.06,7.45,0,.69-.07,1.31-.07,1.77,0,4.36,0,8.72-.06,13.08l-.06,6c0,.41,0,.89.06,1.41a9.34,9.34,0,0,1-.11,3.08l-.07.25h0a1.66,1.66,0,0,0-.54.12,5.31,5.31,0,0,1-1.8.24c-.75,0-1.57-.07-2.32-.14s-1.3-.11-1.81-.11h-9.57c-.32-4.88-.19-9.87-.07-14.7.07-3,.15-6,.12-9,0-.65-.09-1.52-.2-2.53C924.94,791,924.62,788,925.36,786.69Z" transform="translate(-598.23 -178.23)"/><path class="cls-15" d="M968.17,797.73c0-1.47.11-3.3-.61-4.4s-2.06-1.55-4.23-1.55c-.92,0-1.83.08-2.63.16l-1.17.09-1.27.07c-1.43.07-2.92.15-4.39.15-.33,0-.71,0-1.11-.06s-.94-.07-1.4-.07a4.05,4.05,0,0,0-1.66.27c-1.62.7-1.63,2-1.63,3.46,0,.25,0,.51,0,.77a227.12,227.12,0,0,0,0,24,1.34,1.34,0,0,0,.12.41.89.89,0,0,0,.84.53h18a1,1,0,0,0,1-1c0-2.41.06-4.82.1-7.23.08-4.71.16-9.59,0-14.38C968.14,798.59,968.15,798.17,968.17,797.73Zm-18.26,1.36c0-.34,0-.74,0-1.17a8.19,8.19,0,0,1,.15-2.67,1.41,1.41,0,0,0,.09-.69,5.4,5.4,0,0,1,.51-.32,2.34,2.34,0,0,1,1.13-.2c.43,0,.89.05,1.29.08s.62,0,.83,0c.62,0,1.54-.09,2.61-.2,1.46-.15,3.28-.34,4.93-.34,2.61,0,4.13.47,4.65,1.43.63,1.18.45,3.7.3,5.73,0,.76-.1,1.44-.1,2,0,3.34,0,6.68-.08,10l-.07,4.66a3.9,3.9,0,0,0,0,.56,2.85,2.85,0,0,1-.08,1.35c-.11.19-.19.35-.24.35h0a1.83,1.83,0,0,0-.66-.11,3.25,3.25,0,0,0-.42,0,42.3,42.3,0,0,1-5.23.28c-1.78,0-3.57-.07-5.35-.14-1.42-.05-2.82-.11-4.2-.12C949.54,812.71,949.73,805.48,949.91,799.09Z" transform="translate(-598.23 -178.23)"/><path class="cls-15" d="M992.59,774.69c-.39-5-1-5.33-6-5.38l-2.2,0c-1.46,0-2.93,0-4.39,0s-3,0-4.47.09l-.3,0c-1,0-1.73.06-2.29,1.07-.88,1.57-.62,4.25-.39,6.62.09.82.16,1.6.17,2.24.09,3.68.06,7.43,0,11.06V792c0,2.77-.09,5.55-.16,8.35a197.18,197.18,0,0,0,.18,20.19.76.76,0,0,0,.07.24l.15,0h0l-.1.19a.89.89,0,0,0,.84.54h18a1,1,0,0,0,1-1c0-4.62.13-9.35.25-13.93C993.13,796.11,993.4,785.24,992.59,774.69Zm-18.13,29c0-2.06.09-4.12.11-6.16,0-4.46,0-9,0-13.38q0-4.42,0-8.85c0-.91,0-1.84.09-2.75l0-.36c0-.89,0-.89.6-.92l.6,0a39.19,39.19,0,0,1,4.17-.19c1.46,0,2.94.05,4.39.09l2.84.09c3.09,0,3.3,1,3.49,3.92.08,1.2.1,2.39.13,3.63.14,7.5.08,15.13,0,22.51l-.14,16.5c0,.15,0,.34,0,.56a3.55,3.55,0,0,1,0,1.28.69.69,0,0,0,0,.35,16.22,16.22,0,0,0-2.83-.4H974.58C974.23,814.34,974.35,808.94,974.46,803.71Z" transform="translate(-598.23 -178.23)"/><path class="cls-15" d="M958.07,775.45a.88.88,0,0,0,.66-.27A209,209,0,0,1,981.4,755l0,.26a18.23,18.23,0,0,0-.47,3.23.9.9,0,0,0,.24.66,1,1,0,0,0,.7.28,1,1,0,0,0,1-.93,17.83,17.83,0,0,1,.46-3.1,18.5,18.5,0,0,0,.47-3.17,1,1,0,0,0-.28-.68,1,1,0,0,0-.69-.29h0a25.34,25.34,0,0,0-6.89,1.29,1,1,0,0,0-.65,1.09.91.91,0,0,0,.87.81,1.18,1.18,0,0,0,.31,0,25.5,25.5,0,0,1,3.88-1c-6.62,5.23-11.9,9.72-16.58,14.11-.58.55-1.14,1.13-1.7,1.72a29.79,29.79,0,0,1-2.76,2.64,3.35,3.35,0,0,1-2.06.92,6,6,0,0,1-2.25-.71l-.59-.27c-3.54-1.53-7.14-3-10.72-4.48-.77-.31-1.6-.7-2.47-1.11-2.29-1.09-4.89-2.31-7.22-2.36-2.1,0-3.93,1.67-5.55,3.15-.42.38-.82.74-1.2,1.06-6.28,5.16-12.71,10.71-19.11,16.51a.83.83,0,0,0-.24,1,1.06,1.06,0,0,0,.95.67.92.92,0,0,0,.64-.26c6.57-6,13.19-11.67,19.67-17a9.35,9.35,0,0,1,5.88-2.5,6.72,6.72,0,0,1,2.44.46q3.2,1.23,6.37,2.51c4.41,1.79,8.92,3.71,13.8,5.88A1.09,1.09,0,0,0,958.07,775.45Z" transform="translate(-598.23 -178.23)"/><path class="cls-15" d="M977.38,783.23a.91.91,0,0,0,.68-.29.79.79,0,0,0,.2-.66l0-.16c-.43-4.14-.3-6.63.39-7.39a.58.58,0,0,1,.45-.22v-.15h0l.15.16a.83.83,0,0,0,.84-.84,1,1,0,0,0-.91-1.09l-.38,0c-1.36,0-2.18.78-2.43,2.32a28.83,28.83,0,0,0,0,7.43A1,1,0,0,0,977.38,783.23Z" transform="translate(-598.23 -178.23)"/><path class="cls-15" d="M981.79,774.58a.9.9,0,0,0,.7-.31,1,1,0,0,0,.23-.65.91.91,0,0,0-.93-1,.88.88,0,0,0-.7.3,1,1,0,0,0-.24.66A.92.92,0,0,0,981.79,774.58Z" transform="translate(-598.23 -178.23)"/><path class="cls-15" d="M1171.34,322.68c0-1,0-2-.06-3,0-2.26-.11-4.59-.07-6.89a12.84,12.84,0,0,0-.84-5.84c-1.42-2.92-4.69-3.2-7.32-3.43-2.07-.18-4.31-.26-7-.26-1.71,0-3.41,0-5.11.06l-2.2,0-2.44,0c-2.81,0-5.62-.06-8.43-.13-2.53-.05-5.07-.11-7.6-.12-6.09,0-12.29.13-18.28.24l-8,.14h-1.09c-3.11,0-6.63,0-8.75,2.59s-2,6.55-1.94,10.06c0,.82,0,1.6,0,2.32-.07,4.88-.06,9.83-.05,14.62,0,5.76,0,11.72-.11,17.58-.08,3.71-.16,8,0,12.28,0,.64,0,1.33,0,2,0,2.7,0,5.77,1.09,8.06,1.43,3,4.25,3.2,7,3.2h.74l0,.5c-.12,1.7-.28,4,.87,4.92a5.22,5.22,0,0,0,3.22.7c.7,0,1.42,0,2-.08l1.29-.06c.36,0,.78,0,1.24.05s1.13.06,1.72.06a5.16,5.16,0,0,0,3.2-.73,2.09,2.09,0,0,0,.71-1.51,15.68,15.68,0,0,0,0-2.48c0-.49,0-1,0-1.45h4.39c5.3,0,10.71.2,15.94.37,4.47.14,9.08.29,13.62.34v.17c-.09,1.59-.22,3.76.87,4.62a5.27,5.27,0,0,0,3.23.7c.7,0,1.41,0,2-.08l1.29-.06c.35,0,.78,0,1.23.05s1.14.06,1.73.06a5.2,5.2,0,0,0,3.2-.73,2.11,2.11,0,0,0,.7-1.51,14.69,14.69,0,0,0,.05-2.49c0-.29,0-.59,0-.87,3.44-.29,5.6-1.16,6.6-2.65a6.31,6.31,0,0,0,.76-3.25v-.29c.13-2.22.14-4.49.15-6.68,0-1.11,0-2.22,0-3.32,0-3.18.12-6.37.19-9.55C1171.29,341.74,1171.49,332.13,1171.34,322.68Zm-2.33,40.2c0,.85,0,1.7,0,2.56,0,1.68,0,3.42-.11,5.12-.24,4.05-4.93,4.23-8.35,4.36l-1,.05c-2,.1-4.18.15-6.52.15-4.39,0-8.86-.18-13.19-.36-3.45-.14-7-.29-10.52-.34l-3,0c-3.09,0-6.19.06-9.3.12s-6.22.12-9.32.12c-3.29,0-6.16-.07-8.79-.21-4.79-.26-4.89-5.05-5-8.91l0-1.07c-.11-3.31-.18-6.1-.13-8.91.16-9.82.23-18.49.23-26.51,0-4.44,0-9.68.14-14.83.12-4.44.62-8.15,5.59-8.7a34.85,34.85,0,0,1,3.64-.15h2.85l6.62-.12c5.7-.1,11.6-.21,17.41-.23l10.74.08c4.72,0,9.45.07,14.29.08l3.43,0a31.22,31.22,0,0,1,6.73.56c4.3,1,4.13,5.31,4,9.14,0,.92-.07,1.81-.05,2.62.28,9.44.12,19,0,28.32Zm-12.53,17.52h-.06l-.93,0-1.15,0a7.5,7.5,0,0,1-1.81-.17c-1.71-.39-1.66-1.76-1.6-3.34h2.21c1.43,0,2.85,0,4.26,0h2.07c.64,0,1.33,0,2,0v0a5.17,5.17,0,0,1-.43,2.89c-.45.6-1.69.67-2.58.67-.4,0-.81,0-1.18,0Zm-48.26,0h0l-1,0c-.38,0-.77,0-1.16,0a7.37,7.37,0,0,1-1.79-.17c-1.23-.29-1.3-.47-1.54-1.75a8.58,8.58,0,0,1,0-2v-.29c3.52,0,7-.06,10.55-.07,0,.22,0,.45,0,.69a5.08,5.08,0,0,1-.43,2.89c-.45.6-1.69.67-2.58.67-.4,0-.81,0-1.18,0Z" transform="translate(-598.23 -178.23)"/><path class="cls-15" d="M1161.28,330.69c0-1.54,0-3.08-.08-4.63,0-2-.1-4-.07-6v-.48c0-1.79.09-4-1.14-5.52-1.56-1.93-4.87-2.15-7.22-2.15-.87,0-1.71,0-2.48.06s-1.21.05-1.72.05h-.72c-2.92,0-5.83,0-8.74-.06s-5.83-.06-8.85-.06c-4.29,0-8.65.09-12.86.17l-5.69.11c-4.52.07-8.63.51-9.37,5a2.4,2.4,0,0,0-2.09,1c-.75,1.27-.6,3.73-.5,5.53,0,.46.06.89.06,1.23s0,.86,0,1.37c-.08,1.72-.19,3.85.69,4.94a2.5,2.5,0,0,0,1.68.75v2.53c0,4.51,0,9.18-.09,13.77a2.22,2.22,0,0,0-1.81,1c-.75,1.26-.6,3.73-.5,5.52,0,.47.06.89.06,1.24s0,.85,0,1.36c-.08,1.72-.19,3.86.69,4.94a2.64,2.64,0,0,0,1.88.79c.69,4.13,3.73,4.7,6.92,4.7.74,0,1.51,0,2.27-.06s1.37-.06,2-.07l5.52,0c6.16,0,12.39.08,18.52.24,1.37,0,2.74.08,4.11.13,2.45.09,5,.19,7.47.19h1.51l1.59,0a15.06,15.06,0,0,0,6.28-1,3.61,3.61,0,0,0,2.12-2.83,27.07,27.07,0,0,0,.33-7.49c0-1.17-.1-2.3-.08-3.34q0-3,.11-6.06C1161.17,342,1161.28,336.3,1161.28,330.69Zm-2.11,24.07a38.41,38.41,0,0,1-.21,6.89c-.47,3.08-1.42,4.06-4.2,4.4a48.19,48.19,0,0,1-5.44.26H1149c-3.84,0-7.76-.13-11.54-.26-3-.1-6.05-.2-9.08-.24s-6.19-.05-9.28-.05h-1.58c-.6,0-1.34,0-2.18.09-1.09.06-2.32.14-3.57.14-4.41,0-6.77-.95-7.42-3l.38-.05c1.13-.17,1.37-.53,1.54-1.57a20.19,20.19,0,0,0,.07-3.9c0-.45,0-.89,0-1.32s0-1.27.08-2a12.27,12.27,0,0,0-.22-4.6,2.34,2.34,0,0,0-2.16-1.36c.09-4.6.09-9.26.08-13.78v-2.49c.25,0,.47-.05.66-.08,1.13-.17,1.37-.52,1.54-1.56a20.2,20.2,0,0,0,.07-3.9c0-.45,0-.9,0-1.32,0-.58,0-1.27.08-2a12.34,12.34,0,0,0-.22-4.61,2.14,2.14,0,0,0-1.86-1.31c.63-2.79,3.56-3.18,6.65-3.18l2.11,0,9.34-.15c2.45,0,4.89-.07,7.34-.07s4.7,0,7,.08c1,0,2.11,0,3.16,0,1.31,0,2.63,0,3.94,0l3.94,0c2,0,3.69,0,5.24.09.29,0,.6,0,.93,0a8,8,0,0,1,3.33.47c2,1,2,2.62,2,4.48v.52c.07,3.5.11,7,.12,10.53,0,5.38-.09,10.86-.19,16.16l-.09,5.24C1159.11,352.46,1159.14,353.61,1159.17,354.76Zm-56.39,6.41c-.2,0-.8,0-.93-1.29a9.47,9.47,0,0,1-.18-2.81c0-.39,0-.76,0-1.1s0-.66,0-1c-.12-2.12-.28-4.74,1.91-4.92,1.13.14,1,3.94.87,5.56,0,.42,0,.77,0,1s0,.56.07,1c.09,1.1.25,3.14,0,3.46a3.09,3.09,0,0,1-1,.15h-.35A1.37,1.37,0,0,1,1102.78,361.17Zm1.64-36.68c0,.42,0,.76,0,1s0,.55.07,1c.09,1.09.25,3.14,0,3.46a3.09,3.09,0,0,1-1,.15h-.35a1.89,1.89,0,0,1-.38.05c-.2,0-.8,0-.93-1.3a9.42,9.42,0,0,1-.18-2.81c0-.39,0-.76,0-1.09s0-.67,0-1c-.12-2.11-.28-4.74,1.91-4.91C1104.68,319.06,1104.5,322.86,1104.42,324.49Z" transform="translate(-598.23 -178.23)"/><path class="cls-15" d="M1147.33,331.66a9.85,9.85,0,0,0-2-.21c-3.89,0-6.94,2.15-7.79,5.48-1.33,5.26,1.2,9.92,6.15,11.33a10.47,10.47,0,0,0,2.87.43h0c3.76,0,6.36-2.6,7.31-7.34C1154.77,336.77,1152.34,333.15,1147.33,331.66Zm4.62,7.19a.85.85,0,0,0-.68.3,1,1,0,0,0-.23.63.9.9,0,0,0,.91.94h.15a10.18,10.18,0,0,1-1.32,4,5.19,5.19,0,0,1-4.19,2v0c0-.13,0-.25,0-.38a.81.81,0,0,0-.22-.64.93.93,0,0,0-.67-.27.94.94,0,0,0-1,.9v.22a5.73,5.73,0,0,1-.56-.14,6.56,6.56,0,0,1-4.94-5.76l.2,0a.77.77,0,0,0,.69-.87,1,1,0,0,0-.93-.92v-.09c0-.17,0-.34,0-.52a5.66,5.66,0,0,1,5.35-4.92v.23a.93.93,0,0,0,1.86,0v-.17h.06l.35,0c2.28.68,5,2.17,5.32,5.39Z" transform="translate(-598.23 -178.23)"/><path class="cls-15" d="M1164.23,308.53a1,1,0,0,0-.3,0,.88.88,0,0,0-.85.8.91.91,0,0,0,.64,1c2.08.66,2.11,4.13,2.13,6.43,0,.5,0,1,0,1.32.14,2.26.19,4.7.15,7.46a.89.89,0,0,0,.24.64,1,1,0,0,0,.68.27.91.91,0,0,0,1-.9,80.06,80.06,0,0,0-.63-12.56C1167,310.78,1166.33,309.19,1164.23,308.53Z" transform="translate(-598.23 -178.23)"/><path class="cls-15" d="M1160.2,309.52h.07a.89.89,0,0,0,.91-.93.91.91,0,0,0-1-.94.89.89,0,0,0-.91.94,1,1,0,0,0,.22.63A.87.87,0,0,0,1160.2,309.52Z" transform="translate(-598.23 -178.23)"/><path class="cls-15" d="M1149,337.93a6.77,6.77,0,0,0,.12-1,1,1,0,0,0-.92-1,.63.63,0,0,0-.27.06,7.31,7.31,0,0,1-1,.25,3,3,0,0,0-.66.17,3.21,3.21,0,0,0-1-.17,3,3,0,0,0-1.88.65,4.5,4.5,0,0,0-1.58,2.47,3.62,3.62,0,0,0,1,3,3.77,3.77,0,0,0,2.93,1.43,3.46,3.46,0,0,0,2.22-.8,3.7,3.7,0,0,0,1-4.31A7.18,7.18,0,0,1,1149,337.93Zm-1.81,3a1.84,1.84,0,0,1-1.62,1.07,1.78,1.78,0,0,1-1.44-.79,1.8,1.8,0,0,1,.13-2.58,1.47,1.47,0,0,1,1.06-.46,1.66,1.66,0,0,1,1.33.73l.12.16h0A1.69,1.69,0,0,1,1147.2,340.89Z" transform="translate(-598.23 -178.23)"/><path class="cls-9" d="M1231.21,609.78a4.85,4.85,0,0,0-4.57-5.11l-1.64-.19c-1.61-.2-3.13-.37-4.6-.68-5.71-1.25-11.24-3.83-17.36-8.11a6,6,0,0,0-3.43-1.36,6.18,6.18,0,0,0-3.43,1.34c-8.18,5.63-15.55,8.49-23.18,9-3.3.21-5,2.08-5,5.41v6c0,5.53,0,11.24,0,16.88a30.58,30.58,0,0,0,.79,6.47,29.16,29.16,0,0,0,8.2,14.18c5.41,5.47,12.19,9.69,20.72,12.9a5.31,5.31,0,0,0,1.84.33,5.74,5.74,0,0,0,2.26-.46c.47-.22,1-.41,1.42-.61h0c2.07-.89,4.19-1.81,6.27-2.9,6.94-3.66,12.18-8,16-13.23a25.72,25.72,0,0,0,5.47-14.47c0-1,.08-2,.09-3.15l.08-9.31v-3.79C1231.23,615.84,1231.23,612.81,1231.21,609.78Zm-3.62,12.71v.1l-.07,9.35c0,1.11,0,2.09-.08,3a22.33,22.33,0,0,1-4.77,12.48c-3.53,4.79-8.38,8.77-14.82,12.17-1.94,1-4,1.92-6,2.78h0l-1.43.62a2,2,0,0,1-.82.17,1.7,1.7,0,0,1-.57-.09c-8-3-14.39-7-19.43-12.06a25.26,25.26,0,0,1-7.91-18.15c-.06-5.61,0-11.32,0-16.83v-6a2.22,2.22,0,0,1,.31-1.42,2.16,2.16,0,0,1,1.34-.39c8.31-.54,16.25-3.59,25-9.62a3.37,3.37,0,0,1,1.38-.69,3.42,3.42,0,0,1,1.37.71c6.52,4.55,12.46,7.31,18.66,8.66a43.67,43.67,0,0,0,4.95.74c.55.06,1.07.12,1.62.2,1,.13,1.4.51,1.4,1.52v9.09Z" transform="translate(-598.23 -178.23)"/><path class="cls-9" d="M1202.11,628.73h-5a3.73,3.73,0,0,1,0-7.45H1206a1.81,1.81,0,0,0,0-3.62h-4.55V614.2a1.81,1.81,0,0,0-3.62,0v3.46h-.71a7.34,7.34,0,1,0,0,14.68h5a3.73,3.73,0,1,1,0,7.45h-9.06a1.81,1.81,0,0,0,0,3.62h4.72v3.52a1.81,1.81,0,0,0,3.62,0v-3.52h.81a7.34,7.34,0,0,0-.1-14.68Z" transform="translate(-598.23 -178.23)"/><path class="cls-15" d="M700.8,599.12v3.39a.75.75,0,0,0,.21.54.82.82,0,0,0,.59.23.77.77,0,0,0,.8-.77v-3.18h.35a10.7,10.7,0,0,0,1.39-.08c0,.42,0,.84,0,1.25,0,.63,0,1.27.06,1.9a.81.81,0,0,0,.84.77.82.82,0,0,0,.57-.23.7.7,0,0,0,.19-.55c0-.7-.05-1.4-.08-2.09,0-.46,0-.91,0-1.37a4.24,4.24,0,0,0,3.34-3.12c.49-2.31-1.37-4-3.57-4.62,0-2,0-3.94,0-5.91a3.59,3.59,0,0,1,2.15,1.3.77.77,0,0,0,.66.35.87.87,0,0,0,.77-.44.68.68,0,0,0-.07-.73,5.42,5.42,0,0,0-3.52-2s0-1.18,0-1.45a.75.75,0,0,0-.21-.55.8.8,0,0,0-.58-.23.76.76,0,0,0-.8.77c0,.26,0,1.3,0,1.3h-.14a7.8,7.8,0,0,0-1.28.1v-1.27a.72.72,0,0,0-.21-.55.84.84,0,0,0-.58-.23.77.77,0,0,0-.8.78V584a4.71,4.71,0,0,0-3.33,3.43c-.39,2,1.23,3.62,3,4.32a2,2,0,0,0,.29.09v5.57a3.87,3.87,0,0,1-2.39-2.59.81.81,0,0,0-.78-.54.85.85,0,0,0-.68.33.73.73,0,0,0-.08.66A5.22,5.22,0,0,0,700.8,599.12Zm-1.18-12.36a3.62,3.62,0,0,1,1.2-1v4.34a2.68,2.68,0,0,1-1.74-1.47A2.24,2.24,0,0,1,699.62,586.76Zm2.79,3.85v-5.37a7.43,7.43,0,0,1,1.42-.14c0,1.92,0,3.85,0,5.77h-.07c-.42-.06-.83-.12-1.25-.21Zm1.6,5.51.06,1.49a5.27,5.27,0,0,1-.8.1h-.35l-.52,0v-5.55l.31,0q.6.06,1.17.15Q703.94,594.23,704,596.12Zm3.69-.81c-.06.68-.8,1.34-2.05,1.84l0-1.38c0-1-.08-1.95-.1-2.92C707,593.72,707.76,594.55,707.7,595.31Z" transform="translate(-598.23 -178.23)"/><path class="cls-15" d="M716.65,593.4a17.14,17.14,0,0,1-2,7.35,11.26,11.26,0,0,1-1.22,1.68,9,9,0,0,0-1.49,2.26.8.8,0,0,0,.37.92,11.79,11.79,0,0,0,5,.81c1.14,0,2.3-.06,3.41-.13s1.94-.11,2.9-.11h0c.6,0,1.34.06,2.13.12,1,.08,2,.16,3,.16a8.07,8.07,0,0,0,3.41-.57.77.77,0,0,0,.4-.69c0-3.24,1.4-5.36,4.22-6.49a.83.83,0,0,0,.58-.77c0-.91,0-1.83,0-2.74,0-1.29-.05-2.57,0-3.86,0-.3,0-.66.06-1.05a6.27,6.27,0,0,0-.21-3.15l-.06-.14-.13-.17c-.3-.32-.6-.62-.9-.91a11.65,11.65,0,0,1-2.5-3.16,8.15,8.15,0,0,1-.49-1.54,6.47,6.47,0,0,0-.62-1.78c-.62-1.09-1.31-1.14-2.45-1.22h-.19c-1.76-.12-3.68-.18-5.86-.18-1.23,0-2.47,0-3.7,0l-1.45,0h-1.1a24.29,24.29,0,0,0-6,.52.83.83,0,0,0-.57.64.69.69,0,0,0,.23.7C716.16,583.7,716.88,589.34,716.65,593.4Zm6.22-13.76c2,0,4,0,6.06.13l.5,0c1.19,0,1.47,0,1.86,1.33l.11.37a13.27,13.27,0,0,0,.65,1.83,12,12,0,0,0,2.8,3.63c.29.3.6.59.88.89.39.7.22,2.35.09,3.68a11.66,11.66,0,0,0-.11,1.47,11.19,11.19,0,0,0,.11,1.18c.14,1.17.33,2.78,0,3.32a3.42,3.42,0,0,1-1,.48,4.73,4.73,0,0,0-1,.47,5.57,5.57,0,0,0-1.8,2.26,7.36,7.36,0,0,0-.52,1.63,7.73,7.73,0,0,1-.37,1.27c-.4,1-.4,1-1.52,1h-.2c-.8,0-1.59,0-2.39,0-1.28,0-2.58,0-3.86,0-.91,0-1.81,0-2.72,0-1.41,0-2.82,0-4.22-.08-.8,0-1.55-.07-1.66-.28s.24-.67.73-1.38a17.37,17.37,0,0,0,2.79-7.37c.94-6.27-.64-11.94-4.32-15.61a30.25,30.25,0,0,1,4-.2h5.19Z" transform="translate(-598.23 -178.23)"/><path class="cls-15" d="M668.68,591.34c0,1.29,0,2.58,0,3.86,0,.92,0,1.83,0,2.74a.82.82,0,0,0,.57.77c2.82,1.13,4.2,3.25,4.22,6.49a.79.79,0,0,0,.4.69,8.12,8.12,0,0,0,3.42.57c1,0,2.1-.08,3-.16.79-.06,1.52-.11,2.25-.12s1.81.06,2.81.11,2.27.14,3.4.14a11.75,11.75,0,0,0,4.94-.81.8.8,0,0,0,.37-.93,8.64,8.64,0,0,0-1.49-2.25,12.11,12.11,0,0,1-1.22-1.69,17.39,17.39,0,0,1-2-7.35c-.37-5.71,1.49-10.49,5.23-13.46a.67.67,0,0,0,.23-.7.82.82,0,0,0-.57-.64,24.42,24.42,0,0,0-6-.49l-1.91,0c-1.4,0-2.81-.07-4.22-.07-2.18,0-4.11.06-5.91.19l-.22,0c-1,.07-1.79.12-2.39,1.13a5.3,5.3,0,0,0-.51,1.59,7.57,7.57,0,0,1-.28,1.07,11,11,0,0,1-2.86,3.91c-.3.29-.59.59-.95,1l-.11.19a6.3,6.3,0,0,0-.23,3.18C668.65,590.68,668.68,591,668.68,591.34Zm6-10.22c.39-1.29.67-1.3,1.86-1.33l.51,0c2-.09,4.08-.13,6-.13h5.22a29.86,29.86,0,0,1,3.95.2c-3.56,3.55-5.15,9-4.39,15.1a17.78,17.78,0,0,0,2.58,7.47c.19.29.38.54.54.76.29.38.52.69.46.86s-.44.31-1.14.44a10.15,10.15,0,0,1-1.9.15l-1.38,0-1.31,0-2.79,0c-1.32,0-2.65,0-4,0-.66,0-1.33,0-2,0h-.51c-1,0-1.11,0-1.56-.94a4.78,4.78,0,0,1-.34-1.25,6.4,6.4,0,0,0-.35-1.3,6.63,6.63,0,0,0-1.68-2.47,4.49,4.49,0,0,0-1.2-.57,3.45,3.45,0,0,1-1.16-.59,6.06,6.06,0,0,1,0-2.94c.06-.46.11-.87.12-1.18s0-.94-.1-1.6c-.13-1.44-.29-3.24.07-3.92.31-.32.61-.62.91-.91a12.09,12.09,0,0,0,2.8-3.63,13.83,13.83,0,0,0,.64-1.84Z" transform="translate(-598.23 -178.23)"/><path class="cls-15" d="M675.68,585.75a.8.8,0,0,0,.78-.53,30.65,30.65,0,0,1,1.38-3.06.8.8,0,0,0,0-.78.91.91,0,0,0-.73-.42.72.72,0,0,0-.64.41,32.76,32.76,0,0,0-1.52,3.4.73.73,0,0,0,.06.65A.83.83,0,0,0,675.68,585.75Z" transform="translate(-598.23 -178.23)"/><path class="cls-15" d="M677.32,585.7a.9.9,0,0,0,.79.46h0a.82.82,0,0,0,.66-.33,12.68,12.68,0,0,1,1.52-1.64.69.69,0,0,0,.2-.8.87.87,0,0,0-.79-.55.81.81,0,0,0-.53.22,14.55,14.55,0,0,0-1.76,1.94A.65.65,0,0,0,677.32,585.7Z" transform="translate(-598.23 -178.23)"/><path class="cls-15" d="M741.83,608.27c0-.31,0-.65.07-1,.11-3,.1-6,.1-8.87V596c0-3.75,0-7.49-.08-11.24,0-1.76-.06-3.53-.11-5.29,0-.33,0-.72,0-1.14a8.2,8.2,0,0,0-.23-3.19c-.49-1.18-1.15-1.34-2.29-1.51a32,32,0,0,0-4.74-.29c-1.09,0-2.18,0-3.27.06s-2.12.06-3.15.06h-.6c-7.11-.08-14.36-.13-21.54-.13h-.64c-8,0-16.13.07-24.14.18h-.53c-.87,0-1.74,0-2.62,0s-1.77-.06-2.64-.06a25.45,25.45,0,0,0-2.78.13c-.71.07-1.49.08-2.23.08h-1a17.13,17.13,0,0,0-3.27.22,3.08,3.08,0,0,0-.95.36.71.71,0,0,0-.44.28l.08.12h-.16a.69.69,0,0,0-.1.23c-.92,2.07-.69,4.72-.48,7.07.06.67.12,1.32.14,1.93.14,3,.11,6,.07,8.92l0,2.89c0,2-.11,4-.2,6-.11,2.5-.23,5.09-.18,7.68.11,2.21.14,4.46.18,6.64,0,1.5,0,3,.1,4.49,0,.57,0,1.27,0,2-.09,1.91-.19,4.07.46,5.39s2.41,1.49,4,1.49h.82l6.9,0,6,0c8.62.07,15.58.11,21.93.11h0c14.05,0,25.78-.17,36.93-.54a.81.81,0,0,0,.79-.8C742.05,622.43,742,616.1,741.83,608.27Zm-72.24-33,1.13,0h.4l.52-.05c.91-.09,1.78-.17,2.67-.17.3,0,.59,0,.89,0,.94.06,1.94.09,3.07.09,1.39,0,2.79,0,4.18-.09l3.35-.09c6.73-.07,13.55-.11,20.25-.11h3.23c7.8,0,15.7.08,23.49.2h.16c.49,0,1,0,1.62-.06s1.31-.07,2-.07a7.7,7.7,0,0,1,2.09.22c1.74.51,1.69,2.11,1.64,3.82,0,.37,0,.75,0,1.11.09,4,.15,8,.17,11.89s0,7.92,0,11.9c0,.36,0,.74,0,1.12.09,1.64.17,3.2-1.63,3.71a6.23,6.23,0,0,1-1.7.19c-.65,0-1.34-.05-2-.11-.47,0-.92-.07-1.33-.08-1.27,0-2.55-.06-3.82-.06-2.85,0-5.75.08-8.56.17s-5.66.17-8.53.17c-2.35,0-4.72-.11-7-.22-1.25-.06-2.5-.12-3.76-.16l-1.47,0c-1.06,0-2.12,0-3.19.06s-2.12.07-3.18.07c-.57,0-1.15,0-1.73,0-1.33,0-2.66-.07-4-.07-2.48,0-5,.07-7.43.15s-4.95.15-7.43.15l-2,0-2.22,0a14.06,14.06,0,0,1-3.45-.33,2.63,2.63,0,0,0-.57-.1,3.91,3.91,0,0,1,0-.76c0-.15,0-.28,0-.38v-.28a58.44,58.44,0,0,1,.12-6.22c.36-4,.33-8,.31-11.91v-.85c0-2.33-.06-4.13-.16-5.84,0-.32,0-.66-.07-1-.14-1.92-.32-4.31.33-5.75a4.29,4.29,0,0,1,2-.27C668.49,575.26,669.07,575.28,669.59,575.3Zm-3.82,45V620c1.13-.05,2.27-.07,3.41-.07,2.69,0,5.43.12,8.08.24,2.12.1,4.24.19,6.35.23,3.77.06,7.86.09,12.5.09h6.81l26.07-.18,11.41-.08v.7c0,.25,0,.73.08,1.31,0,.35.06.74.08,1.14-3.55.3-7.33.44-11.89.44-3.1,0-6.25-.06-9.3-.13s-6.24-.13-9.38-.13h-2c-6.47.07-12.93.08-19.39.09-7.46,0-15.18,0-22.76.11v-.4c0-.53,0-1.05,0-1.53S665.78,620.8,665.77,620.3Zm10.2-9.7c3.46,0,7-.1,10.4-.21s6.92-.21,10.38-.21c2.27,0,4.31,0,6.25.14,3.57.17,7.2.26,11.08.26,2.89,0,5.85-.05,9-.15l.8,0c2-.06,4.1-.13,6.14-.13.92,0,1.84,0,2.75.05.56,0,1.18.07,1.83.12,1,.08,1.92.16,2.88.16h0a8.4,8.4,0,0,0,2.76-.37c0,1,0,2,.05,2.92-8.06.46-16.6.67-27.65.67-3.57,0-7.13,0-10.7-.05l-6.68,0c-9.73-.06-19.79-.11-29.69-.61,0-1-.05-2-.09-3C668.63,610.46,672.05,610.6,676,610.6Zm19.34,4.73,6.67,0q5.35,0,10.71,0c11.06,0,19.61-.2,27.67-.67,0,1.09,0,2.17,0,3.26v.58l-11.4.08q-13,.09-26.08.17l-6.8,0c-4.64,0-8.73,0-12.5-.1-2.1,0-4.22-.13-6.34-.22-2.65-.12-5.4-.25-8.09-.25-1.15,0-2.3,0-3.45.08l-.07-3.64C675.54,615.22,685.59,615.28,695.31,615.33ZM666,626.26a5.75,5.75,0,0,1-.13-.94c7.58-.1,15.29-.11,22.75-.12,6.46,0,12.92,0,19.38-.08h2c3.14,0,6.31.07,9.38.13s6.21.13,9.31.13c4.59,0,8.39-.14,12-.45a4.42,4.42,0,0,1-.29,2.3c-.28.34-1.32.52-3.1.52-.91,0-1.86,0-2.63-.08-.51,0-1,0-1.34,0h0c-8.66.22-18,.32-28.69.32h-3.35c-4.55,0-9.11-.06-13.66-.1-5.08-.06-10.15-.11-15.22-.11h-2.09c-.31,0-.63,0-.94,0l-.93,0C667.12,627.79,666.23,627.53,666,626.26Z" transform="translate(-598.23 -178.23)"/><path class="cls-9" d="M803.81,340.44h-1.9v-13h7.8a2,2,0,0,0,0-3.93h-7.8V304.33L806,308.4a2,2,0,0,0,2.78-2.78l-7.41-7.41a1.9,1.9,0,0,0-1.39-.57,2,2,0,0,0-1.39.57l-7.42,7.42a2,2,0,0,0,1.39,3.36,2,2,0,0,0,1.39-.57l4.05-4.08v19.15h-1.89a10.44,10.44,0,1,0,0,20.87H798v13h-8.06a2,2,0,0,0,0,3.93H798v6.23a2,2,0,0,0,3.93,0v-6.23h1.9a10.44,10.44,0,0,0,0-20.87Zm-7.72,0a6.51,6.51,0,0,1,0-13H798v13Zm7.72,16.94h-1.9v-13h1.9a6.51,6.51,0,1,1,0,13Z" transform="translate(-598.23 -178.23)"/><path class="cls-9" d="M831.4,339.52h-1.07v-9.3H836a2,2,0,0,0,0-3.93h-5.68V312.77l2.44,2.43a2,2,0,0,0,2.78-2.78l-5.79-5.79a2,2,0,0,0-2.78,0l-5.8,5.81a2,2,0,0,0,0,2.78,1.93,1.93,0,0,0,1.39.57,2,2,0,0,0,1.39-.57l2.43-2.44v13.5h-1.06a8.59,8.59,0,1,0,0,17.17h1.06v9.3h-5.84a2,2,0,0,0,0,3.93h5.88v4.45a2,2,0,1,0,3.92,0v-4.45h1.06a8.58,8.58,0,1,0,0-17.16Zm-6,0a4.66,4.66,0,1,1,0-9.32h1.07v9.31h-1.07Zm6,13.23h-1.07v-9.3h1.07a4.65,4.65,0,1,1,0,9.3Z" transform="translate(-598.23 -178.23)"/><path class="cls-9" d="M774.53,339.52h-1.06v-9.3h5.67a2,2,0,0,0,0-3.93h-5.67V312.77l2.43,2.43a2,2,0,0,0,2.78-2.78l-5.77-5.77a2,2,0,0,0-2.78,0l-5.81,5.81a2,2,0,0,0,0,2.78,2,2,0,0,0,2.78,0l2.44-2.44v13.49h-1.06a8.59,8.59,0,1,0,0,17.17h1.06v9.29h-5.85a2,2,0,1,0,0,3.93h5.87v4.45a2,2,0,1,0,3.92,0v-4.45h1.07a8.58,8.58,0,1,0,0-17.16Zm-6,0a4.66,4.66,0,1,1,0-9.32h1.06v9.31H768.5Zm6,13.23h-1.06v-9.3h1.06a4.65,4.65,0,1,1,0,9.3Z" transform="translate(-598.23 -178.23)"/></g></g></svg>