<svg xmlns="http://www.w3.org/2000/svg" viewBox="0 0 723.53 723.54"><defs><style>.cls-1{isolation:isolate;}.cls-14,.cls-2{fill:#4f336b;}.cls-11,.cls-3{fill:#a159c8;}.cls-12,.cls-4{fill:#6345a2;}.cls-10,.cls-5{fill:#e56ae8;}.cls-13,.cls-6{fill:#223078;}.cls-7,.cls-9{fill:#fff;}.cls-7,.cls-8{opacity:0.2;}.cls-7{mix-blend-mode:overlay;}.cls-8{fill:#231f20;}.cls-10,.cls-11,.cls-12,.cls-13,.cls-14{font-size:29.3px;font-family:Circe-Light, Circe;font-weight:300;}</style></defs><g class="cls-1"><g id="Слой_1" data-name="Слой 1"><path class="cls-2" d="M985.17,338.65a102.31,102.31,0,0,1-45.83,40.45,151.2,151.2,0,0,0-18,3.35,154,154,0,0,0-17.48,5.35A162.22,162.22,0,0,0,802.22,502.15a160,160,0,0,0-3.75,22.55,102.36,102.36,0,0,0-199.61-6.14q.92-15.52,3.16-30.74C621.38,355,714.25,239.69,847.49,196.26l0,0q12.93-4.22,26.36-7.52t26.86-5.51h0a102.46,102.46,0,0,1,84.41,155.45Z" transform="translate(-598.23 -178.23)"/><path class="cls-3" d="M1282.55,703.61s0,.07,0,.1a365.81,365.81,0,0,1-28.32,46.7,102.45,102.45,0,0,1-165.79-111.3,159.32,159.32,0,0,0,18.88-31.19,0,0,0,0,0,0,0,161.46,161.46,0,0,0,10.61-105l-.38-1.52a158.2,158.2,0,0,0-5.42-17.68c0,.05.08.08.11.13s.08.11.13.16c.66.93,1.38,1.84,2.13,2.74.29.4.63.8,1,1.2.69.85,1.41,1.67,2.13,2.5.4.47.82,1,1.3,1.43,1.14,1.31,2.39,2.56,3.64,3.75,1.87,1.86,3.78,3.62,5.8,5.3,1.86,1.59,3.8,3.11,5.83,4.54.85.61,1.7,1.23,2.55,1.78.45.32.9.64,1.36.91,1.54,1,3.11,2,4.73,2.92.21.14.42.24.64.38.77.45,1.54.87,2.31,1.27,2.34,1.28,4.74,2.45,7.16,3.51.82.4,1.64.75,2.47,1.07a101.08,101.08,0,0,0,52.23,6.78c1.44-.16,2.87-.37,4.34-.67s2.81-.5,4.2-.82a.8.8,0,0,1,.26,0c.75-.16,1.47-.32,2.18-.51s1.28-.32,1.92-.5c1.41-.38,2.79-.78,4.17-1.2,0,0,0,0,.06,0a97.12,97.12,0,0,0,12.23-4.71,99.49,99.49,0,0,0,28.19-19.25,19,19,0,0,0,1.81-1.78c1.22-1.2,2.37-2.42,3.46-3.68.58-.66,1.17-1.3,1.7-2a19.09,19.09,0,0,0,1.33-1.57c.61-.75,1.19-1.49,1.78-2.26.48-.59.9-1.17,1.33-1.76a2,2,0,0,0,.19-.24c.77-1,1.51-2.1,2.23-3.16,1-1.41,1.89-2.85,2.77-4.31.55-.93,1.11-1.86,1.64-2.82a90.68,90.68,0,0,0,4.55-9.09c.32-.67.59-1.33.88-2,.08-.21.19-.42.27-.66.26-.64.5-1.28.74-1.92s.59-1.56.88-2.34.56-1.56.8-2.36a101.34,101.34,0,0,0,5-34.52c0-.85,0-1.7-.1-2.56-.06-1.41-.16-2.79-.3-4.17,0-.29-.05-.56-.08-.85-.32-3.17-.79-6.3-1.41-9.42q5.07,12.3,9.23,25.08c.43,1.28.83,2.58,1.2,3.86,2.29,7.23,4.36,14.6,6.17,22.05A360.18,360.18,0,0,1,1282.55,703.61Z" transform="translate(-598.23 -178.23)"/><path class="cls-4" d="M1254.2,750.41q-10.34,14.45-22,27.87a361.79,361.79,0,0,1-435.64,84.36,364.57,364.57,0,0,1-46.7-28.3v0a102.4,102.4,0,0,1,50-169.76,104.72,104.72,0,0,1,20.74-2.89,100.85,100.85,0,0,1,40.24,6.67,0,0,0,0,0,0,0,162,162,0,0,0,227.57-29.26,102.45,102.45,0,0,0,165.79,111.3Z" transform="translate(-598.23 -178.23)"/><path class="cls-5" d="M1296.51,426.36a101,101,0,0,1-5,28c-.27.77-.54,1.57-.8,2.36s-.59,1.55-.88,2.34-.48,1.28-.74,1.92c-.08.24-.19.45-.27.66-.29.7-.59,1.36-.88,2a90.68,90.68,0,0,1-4.55,9.09c-.53,1-1.09,1.89-1.64,2.82-.88,1.46-1.81,2.9-2.77,4.31-.72,1.06-1.46,2.13-2.23,3.16a2,2,0,0,1-.19.24c-.43.61-.88,1.2-1.33,1.76-.59.77-1.17,1.51-1.78,2.26-.43.53-.88,1-1.33,1.57s-1.12,1.3-1.7,2c-1.09,1.26-2.24,2.48-3.46,3.68a19,19,0,0,1-1.81,1.78A99.49,99.49,0,0,1,1237,515.58a97.12,97.12,0,0,1-12.23,4.71s0,0-.06,0c-1.38.42-2.76.85-4.17,1.2-.64.18-1.28.34-1.92.5s-1.43.35-2.18.51a.8.8,0,0,0-.26,0c-1.39.32-2.8.58-4.2.82s-2.88.48-4.34.67a101.08,101.08,0,0,1-52.23-6.78c-.83-.35-1.65-.69-2.47-1.07-2.42-1.06-4.82-2.23-7.16-3.51-.77-.4-1.54-.82-2.31-1.27-.22-.14-.43-.24-.64-.38-1.62-.93-3.19-1.88-4.73-2.92-.46-.29-.91-.59-1.36-.91-.85-.55-1.7-1.17-2.55-1.78-2-1.46-3.94-3-5.83-4.54s-3.93-3.44-5.8-5.3c-1.25-1.19-2.5-2.44-3.64-3.75-.42-.48-.88-1-1.3-1.43-.72-.83-1.44-1.65-2.13-2.5-.35-.4-.66-.8-1-1.2-.75-.9-1.47-1.81-2.13-2.74,0,0-.08-.11-.13-.16s-.08-.08-.11-.13a159.06,159.06,0,0,0-16-31.89.06.06,0,0,0,0-.08,161.94,161.94,0,0,0-156.81-72.6,102.31,102.31,0,0,0,45.83-40.45A102.46,102.46,0,0,0,900.76,183.2q17.07-2.87,34.09-4.07c136.64-9.7,266.29,59.42,335.46,174.86v0a358.26,358.26,0,0,1,24.31,48.59v.08a.08.08,0,0,1,0,.08s0,.08,0,.1c.62,3.12,1.09,6.25,1.41,9.42,0,.29.06.56.08.85.14,1.38.24,2.76.3,4.17,0,.86.08,1.71.1,2.56,0,1.91,0,3.82,0,5.73Z" transform="translate(-598.23 -178.23)"/><path class="cls-6" d="M860.81,668.34a100.85,100.85,0,0,0-40.24-6.67,104.72,104.72,0,0,0-20.74,2.89,102.4,102.4,0,0,0-50,169.76c-8.83-6.31-17.4-13-25.67-20.08A362.25,362.25,0,0,1,599.81,573.13a355.89,355.89,0,0,1-.95-54.57,102.36,102.36,0,0,1,199.61,6.14,159.59,159.59,0,0,0,.62,35.72,156.37,156.37,0,0,0,3.35,18.22,161.29,161.29,0,0,0,41.94,75.15A163,163,0,0,0,860.81,668.34Z" transform="translate(-598.23 -178.23)"/><path class="cls-7" d="M960,178.23c-187.31,0-341.37,142.36-359.9,324.77.53-5.08,1.17-10.13,1.91-15.18a110.45,110.45,0,0,1,29.09-34.39c37.77-144,167.55-250.65,322.73-253.42-1-.66-2.1-1.33-3.17-2a101.93,101.93,0,0,0-49.91-14.82q17.07-2.87,34.09-4.07a110.52,110.52,0,0,1,39.44,21.12c153.29,6.33,280.39,114.14,315.86,258.05a103.15,103.15,0,0,0,6-26.17,101.42,101.42,0,0,0-1.55-29.73q6,14.36,10.54,29.06a110.08,110.08,0,0,1-11.25,43.7v0a342.71,342.71,0,0,1,6.17,64.82,338.77,338.77,0,0,1-95.29,236c1.22-.24,2.42-.5,3.64-.8a101.82,101.82,0,0,0,45.8-24.81q-10.34,14.45-22,27.87a111.92,111.92,0,0,1-24.15,9,107.23,107.23,0,0,1-17.63,2.82l0,0A340,340,0,0,1,724,784.8a102.39,102.39,0,0,0,25.8,49.52c-8.83-6.31-17.4-13-25.67-20.08a112.17,112.17,0,0,1-10.26-26.57,105.76,105.76,0,0,1-2.66-15.85l0,0a340.55,340.55,0,0,1-84-301.53,100.57,100.57,0,0,0-16.73,20.85,102.16,102.16,0,0,0-11.54,27.32v.05c-.42,7.1-.64,14.31-.64,21.52,0,199.8,162,361.76,361.77,361.76s361.74-162,361.74-361.76S1159.81,178.23,960,178.23Z" transform="translate(-598.23 -178.23)"/><path class="cls-8" d="M598.86,518.56c0-.61.08-1.2.13-1.81,0,.56-.08,1.12-.11,1.68v.05S598.86,518.53,598.86,518.56Z" transform="translate(-598.23 -178.23)"/><path class="cls-8" d="M1294.61,402.4a102.92,102.92,0,0,1-.44,42.31,100.89,100.89,0,0,1-25.24,47.81,102.38,102.38,0,0,1-120.8,21.39,11.93,11.93,0,0,1-6.28-8.49A185.31,185.31,0,0,0,1004.6,360.34c-7.72-1.91-11.63-10.68-7.43-17.43a110.12,110.12,0,0,0-62.32-163.78q-17,1.2-34.09,4.07a102.48,102.48,0,0,1,75.79,167.61,11.67,11.67,0,0,1-9.45,4.24c-2.35-.08-4.71-.13-7.09-.13A185,185,0,0,0,794,458a11.71,11.71,0,0,1-18.69,3A110.19,110.19,0,0,0,602,487.82q-2.24,15.24-3.16,30.74a102.39,102.39,0,0,1,180.33-36.72,11.65,11.65,0,0,1,2.07,10.07,185.51,185.51,0,0,0,21.08,145c4.19,6.8.25,15.57-7.52,17.44l-.18,0a110.15,110.15,0,0,0-80.76,133.24,112.17,112.17,0,0,0,10.26,26.57c8.27,7,16.84,13.77,25.67,20.08a102.4,102.4,0,0,1,50-169.76,106.47,106.47,0,0,1,14.56-2.47,11.91,11.91,0,0,1,9.88,3.68A185.11,185.11,0,0,0,1057,697.64a11.68,11.68,0,0,1,17.43,7.52c.1.45.21.9.31,1.34A110.17,110.17,0,0,0,1208,787.27a111.92,111.92,0,0,0,24.15-9q11.68-13.39,22-27.87a102.39,102.39,0,0,1-172-64.81,11.88,11.88,0,0,1,3.69-9.89A184.57,184.57,0,0,0,1145.08,540c0-5.32-.21-10.59-.66-15.8v0a110.18,110.18,0,0,0,160.72-92.73C1302.08,421.66,1298.55,412,1294.61,402.4ZM1107.32,607.89a0,0,0,0,1,0,0,159.32,159.32,0,0,1-18.88,31.19,162.17,162.17,0,0,1-227.57,29.26,0,0,0,0,1,0,0,163,163,0,0,1-16.43-14.55,161.29,161.29,0,0,1-41.94-75.15,156.37,156.37,0,0,1-3.35-18.22,161.08,161.08,0,0,1,3.13-58.27A162.22,162.22,0,0,1,903.89,387.8a154,154,0,0,1,17.48-5.35,151.2,151.2,0,0,1,18-3.35,161.94,161.94,0,0,1,156.81,72.6.06.06,0,0,1,0,.08,162.35,162.35,0,0,1,21.4,49.57l.38,1.52A161.46,161.46,0,0,1,1107.32,607.89Z" transform="translate(-598.23 -178.23)"/><circle class="cls-9" cx="620.86" cy="299.12" r="19.84"/><text class="cls-10" transform="translate(615.41 309.25)">1</text><circle class="cls-9" cx="549.86" cy="550.12" r="19.84"/><text class="cls-11" transform="translate(542.11 560.25)">2</text><circle class="cls-9" cx="175.86" cy="540.12" r="19.84"/><text class="cls-12" transform="translate(168.05 550.25)">3</text><circle class="cls-9" cx="92.86" cy="299.12" r="19.84"/><text class="cls-13" transform="translate(84.98 309.25)">4</text><circle class="cls-9" cx="357.86" cy="86.12" r="19.84"/><text class="cls-14" transform="translate(350.27 96.25)">5</text><path class="cls-9" d="M835.89,349.72a41.15,41.15,0,0,0-6.48-17.54c-4-5.76-9.64-10-14.72-13.33a2.72,2.72,0,0,0,1.48-1.4,2.47,2.47,0,0,0-.06-1.92,3.11,3.11,0,0,0-1.3-1.49c.61-.79,1.19-1.61,1.77-2.42a31.1,31.1,0,0,1,3.58-4.46c1.31-1.27,2.49-2.65,3.63-4s2.16-2.52,3.35-3.7a.83.83,0,0,0,.2-.92.92.92,0,0,0-.81-.59c-1-.05-1.87-.15-2.74-.25a28.86,28.86,0,0,0-3.13-.23,9.12,9.12,0,0,0-5,1.37,11.2,11.2,0,0,0-1.38,1.06,4.06,4.06,0,0,1-2.47,1.33,2.4,2.4,0,0,1-1-.24,8,8,0,0,1-2-1.49,8.06,8.06,0,0,0-2.35-1.66,7.6,7.6,0,0,0-2.78-.54,6.82,6.82,0,0,0-1.93.28,11.71,11.71,0,0,0-2.8,1.42,6.91,6.91,0,0,1-3.48,1.4,4.42,4.42,0,0,1-2.78-1.16c-2-1.67-3.36-2.26-5-2.26a15.69,15.69,0,0,0-3.67.61.85.85,0,0,0-.57.52.89.89,0,0,0,0,.78,47.28,47.28,0,0,0,4.23,5.68c2.28,2.75,4.62,5.58,5.75,8.92a4.5,4.5,0,0,0-1.2.67,2.52,2.52,0,0,0-1.22,2.27,2.79,2.79,0,0,0,1.6,2c-4.85,2.57-8.5,6.77-12,10.83l-1,1.18c-3,3.42-5.17,8.28-6.51,14.46-.92,4.3-2.07,12.58.63,19.7,2,5.37,6.5,10.32,12.56,13.94a33.16,33.16,0,0,0,16.28,4.74c1.23.05,2.44.08,3.65.08h0a31.08,31.08,0,0,0,13.37-2.52A32.15,32.15,0,0,0,834,367.06C836.32,362.56,836.94,356.89,835.89,349.72Zm-61.78-.34c.4-3.84,1.62-11.05,5.4-16.2,5.45-7.46,10.64-12.07,15.84-14.09.12,0,.21-.11.2-.13a24.26,24.26,0,0,1,3.24-.2c1.21,0,2.42.07,3.63.13,1,.05,2,.1,3,.12.73,0,1.58.08,2.47.17,1.13.1,2.29.2,3.42.2a6,6,0,0,0,.9-.05c8.4,5.43,17.45,12.69,20.84,25.3a40.64,40.64,0,0,1,1.43,14.05c-.57,6.51-4.34,12.71-10.62,17.46a26.47,26.47,0,0,1-16.14,5.47h-1.35c-5.18,0-10.65-.2-15.55-2.55a33,33,0,0,1-12.68-10C773.43,362.7,773.52,355.2,774.11,349.38Zm18.06-48.2a6.29,6.29,0,0,0,3.23,1.44l.39,0a6.06,6.06,0,0,0,3-.93,13.2,13.2,0,0,0,1.76-1.22,4.82,4.82,0,0,1,3.15-1.42,5.15,5.15,0,0,1,1.24.16,7.57,7.57,0,0,1,3.36,2.09l.49.44a4.79,4.79,0,0,0,3.1,1.46,4.46,4.46,0,0,0,2.81-1.22l.71-.6a8.7,8.7,0,0,1,3.15-2,6.43,6.43,0,0,1,1.91-.23,29.23,29.23,0,0,1,3.64.32l.57.07c-.72.78-1.41,1.58-2.1,2.38-1.15,1.34-2.34,2.72-3.65,4a31.19,31.19,0,0,0-3.59,4.48c-.7,1-1.42,2-2.21,3A20.71,20.71,0,0,0,811,313l-.69-.09a34.56,34.56,0,0,0-5.11-.34c-1.65,0-3.33.08-4.92.17l-1.6,0a23.68,23.68,0,0,0-3.63.23c-1.18-3.53-3.58-6.45-5.91-9.28a55.85,55.85,0,0,1-3.63-4.76,7.88,7.88,0,0,1,2.24-.47H788a4.9,4.9,0,0,1,3.1,1.7A12.87,12.87,0,0,0,792.17,301.18Zm9,13.25,1.76-.06c.83,0,1.65-.06,2.48-.06,1,0,1.91,0,2.76.12,1.1.1,2.27.27,3.59.51l.17,0c.54.09,2,.32,2.13.94.09.37-.28.88-1.08,1.47a2.23,2.23,0,0,1-1.22.22,22.64,22.64,0,0,1-2.58-.22c-.56-.07-1-.13-1.33-.14h-1.65c-1,0-1.91,0-2.87-.06l-.31,0c-1.34-.06-2.73-.13-4.09-.13a29.22,29.22,0,0,0-3.79.22H795a1.89,1.89,0,0,1-1.44-.79,1.13,1.13,0,0,1-.13-1.06c.18-.44,2.45-.63,3.31-.7l.47,0C798.53,314.51,799.89,314.47,801.2,314.43Z" transform="translate(-598.23 -178.23)"/><path class="cls-9" d="M800.3,362.28l0,6.45a.84.84,0,0,0,.24.61.92.92,0,0,0,.65.25.84.84,0,0,0,.88-.86v-6.22q.53,0,1.08,0h.48a21.68,21.68,0,0,0,2.52-.24v.19c.08,2,.16,4,.26,6.05a.89.89,0,0,0,.92.85.9.9,0,0,0,.64-.25.82.82,0,0,0,.21-.61c-.11-2.19-.2-4.39-.28-6.58,2.9-.76,6.26-2.49,6.15-6.5s-3.75-5.6-6.52-6.32c-.06-3.68-.09-7.51-.09-11.69a6.6,6.6,0,0,1,4.84,2.74.85.85,0,0,0,.73.4,1,1,0,0,0,.84-.48.8.8,0,0,0-.05-.83c-1.13-1.76-3.39-3-6.35-3.39v-3.1a.87.87,0,0,0-.23-.61.92.92,0,0,0-.64-.25.84.84,0,0,0-.89.85c0,.61,0,3,0,3h-.55a17.82,17.82,0,0,0-3,.26v-3a.8.8,0,0,0-.24-.6.91.91,0,0,0-.64-.26.85.85,0,0,0-.89.86v3.43c-4.65,1.39-6.83,4.37-5.85,8,.87,3.2,3.55,4.34,5.82,5l0,11.08a7.28,7.28,0,0,1-5.29-5.17.88.88,0,0,0-.85-.61.92.92,0,0,0-.76.37.78.78,0,0,0-.09.73C794.58,359.52,796.8,361.6,800.3,362.28Zm-3.89-20c.34-1.36,1.59-2.64,3.5-3.6l.43-.2,0,9.12a5.8,5.8,0,0,1-3.16-2.08A3.85,3.85,0,0,1,796.41,342.27ZM804,348.4l-.71-.12-1.16-.23,0-10.2a14.52,14.52,0,0,1,3.56-.52c0,4.05,0,7.79.08,11.4Zm1.46,12.26a19.76,19.76,0,0,1-2.11.12c-.42,0-.84,0-1.24,0l0-11c.65.13,1.3.24,1.94.35l1.74.32q.11,5.07.29,10.14Zm2.4-.47c-.11-3.1-.21-6.21-.27-9.31,1.92.57,4.08,1.59,4.43,4.28C812.37,358.17,810,359.56,807.82,360.19Z" transform="translate(-598.23 -178.23)"/><path class="cls-9" d="M778.57,350.11a39.65,39.65,0,0,1,6.94-15.67.72.72,0,0,0,.09-.79,1,1,0,0,0-.86-.5.9.9,0,0,0-.74.37,41,41,0,0,0-7.14,16.14.88.88,0,0,0,.18.74,1,1,0,0,0,.75.36A.77.77,0,0,0,778.57,350.11Z" transform="translate(-598.23 -178.23)"/><path class="cls-9" d="M787.26,331.53a.85.85,0,0,0,.86-.88.93.93,0,0,0-.22-.61.82.82,0,0,0-.64-.28.84.84,0,0,0-.65.28,1,1,0,0,0-.21.61A.84.84,0,0,0,787.26,331.53Z" transform="translate(-598.23 -178.23)"/><path class="cls-9" d="M1141.08,345.09c-.07-4.13-.11-8.47-.1-13.25a7.53,7.53,0,0,1,5.7,3.12.76.76,0,0,0,.67.39.91.91,0,0,0,.78-.45.74.74,0,0,0,0-.77c-1.24-2-3.76-3.32-7.11-3.74v-1.31q0-1.14,0-2.28a.78.78,0,0,0-.21-.56.86.86,0,0,0-.6-.24.8.8,0,0,0-.83.8c0,.74,0,1.47,0,2.21v1.24h-.58a19.47,19.47,0,0,0-3.72.37V327a.79.79,0,0,0-.22-.56.86.86,0,0,0-.6-.24.79.79,0,0,0-.82.8v4c-3,.9-5.21,2.46-6.21,4.41a5.75,5.75,0,0,0-.19,4.7c1.2,3.37,4,4.48,6.37,5.06l0,12.68c-3.09-.7-5.12-2.65-6.23-5.95a.8.8,0,0,0-.78-.56.87.87,0,0,0-.71.34.69.69,0,0,0-.08.67c1.37,4.11,3.92,6.46,7.79,7.2v7.33a.79.79,0,0,0,.22.56.86.86,0,0,0,.6.24.79.79,0,0,0,.82-.8v-7.12c.48,0,1,.05,1.47.05.7,0,1.43,0,2.19-.1.39,0,.79-.09,1.21-.17l0,.48q.12,3.32.28,6.65a.82.82,0,0,0,.85.78.79.79,0,0,0,.59-.23.75.75,0,0,0,.2-.57c-.12-2.49-.22-5-.32-7.46,1.78-.5,4.84-1.67,6.24-4.15a5.51,5.51,0,0,0,.42-4.38C1147.09,347,1144,345.77,1141.08,345.09Zm.34,12.52c-.15-3.91-.25-7.5-.32-10.95a10,10,0,0,1,2.22.86,6.44,6.44,0,0,1,3.2,3.78,4.21,4.21,0,0,1-.5,3.29A7.13,7.13,0,0,1,1141.42,357.61Zm-3.55-13.13c-1-.16-1.94-.33-2.84-.53l0-11.64a16.79,16.79,0,0,1,4.29-.57h0c0,4.65,0,8.91.1,13Zm-2.85,1c.66.12,1.32.22,2,.32.83.13,1.66.26,2.46.42.07,3.75.18,7.56.33,11.66-.58.08-1.16.15-1.73.19s-1,.06-1.54.06-1,0-1.52-.07Zm-1.61-12.67,0,10.64-.57-.19a7.42,7.42,0,0,1-4.26-3.92,3.61,3.61,0,0,1,.32-3.11A9,9,0,0,1,1133.41,332.86Z" transform="translate(-598.23 -178.23)"/><path class="cls-9" d="M1177.29,345.45c-.84-11.24-3.63-19.76-8.53-26a41.75,41.75,0,0,0-22.48-14.35,40.77,40.77,0,0,0-9.06-1,38,38,0,0,0-17.33,4.19c-5.56,2.82-15.48,8.92-19.57,18.09-3.78,8.49-4.88,18.1-3,25.7a43.37,43.37,0,0,0,11.49,19.45,44.2,44.2,0,0,0,31,12.95h0a40.91,40.91,0,0,0,10.47-1.35A36.62,36.62,0,0,0,1177.29,345.45Zm-1.5,4.27a37.39,37.39,0,0,1-3.62,13.09,32.41,32.41,0,0,1-16,16.4,38.39,38.39,0,0,1-16.3,3.55,42.32,42.32,0,0,1-25-8.29,44.13,44.13,0,0,1-13-15.45c-3.84-7.55-4.53-15.27-2.23-25,1.4-5.91,3.27-9.86,6.28-13.21A50.93,50.93,0,0,1,1116.6,312a38.57,38.57,0,0,1,20.8-6.31,37.76,37.76,0,0,1,8.46,1,40.84,40.84,0,0,1,19.91,11.77c4.62,5,7.59,11.72,9.09,20.5A52.22,52.22,0,0,1,1175.79,349.72Z" transform="translate(-598.23 -178.23)"/><path class="cls-9" d="M1136.71,313.59a29.92,29.92,0,0,0-7.64,1c-13.47,3.57-24.12,18.3-23.24,32.19.71,5.84,3.76,12.5,8.37,18.26a27.91,27.91,0,0,0,17,10.15,51.16,51.16,0,0,0,9.7,1.14,23.78,23.78,0,0,0,10.27-2.16,32.07,32.07,0,0,0,13.64-12.06c6.39-10.33,5.1-25.25-3.14-36.3A31.58,31.58,0,0,0,1136.71,313.59ZM1166,356.06A29.45,29.45,0,0,1,1155.14,370a24.25,24.25,0,0,1-14.33,4.68,28.42,28.42,0,0,1-3.28-.2c-7-.83-14.18-2.34-19.61-7.74s-9.65-13.37-10.46-20c-.69-11,6.78-23.58,17-28.68a27.57,27.57,0,0,1,12.26-2.82A30.25,30.25,0,0,1,1157,323C1165.75,331.06,1169.69,345.57,1166,356.06Z" transform="translate(-598.23 -178.23)"/><path class="cls-9" d="M1123.14,324.39a.77.77,0,0,0-.43.13,22.8,22.8,0,0,0-10.24,15.33.85.85,0,0,0,.18.69.94.94,0,0,0,.7.32.69.69,0,0,0,.71-.6,21.27,21.27,0,0,1,9.49-14.33.78.78,0,0,0,.34-.92A.82.82,0,0,0,1123.14,324.39Z" transform="translate(-598.23 -178.23)"/><path class="cls-9" d="M1126.36,324a.85.85,0,0,0,.2-.56.79.79,0,0,0-.8-.82.78.78,0,0,0-.6.26.85.85,0,0,0-.2.56.79.79,0,0,0,.8.82A.76.76,0,0,0,1126.36,324Z" transform="translate(-598.23 -178.23)"/><path class="cls-9" d="M1195,629.81l-.12,0q-.08-4.24-.07-8.49a5.23,5.23,0,0,1,3.25,1.91,1,1,0,0,0,.83.44,1.11,1.11,0,0,0,1-.56.86.86,0,0,0-.08-.91,7.58,7.58,0,0,0-5-2.83v-2.12a.94.94,0,0,0-.26-.68,1.06,1.06,0,0,0-.73-.29,1,1,0,0,0-1,1v1.93h-.28a12.32,12.32,0,0,0-1.92.15v-1.91a.93.93,0,0,0-.27-.68,1,1,0,0,0-.72-.28,1,1,0,0,0-1,1v2.39c-2.57.9-4.22,2.57-4.65,4.73-.55,2.74,1.68,4.93,4.13,5.89a4.22,4.22,0,0,0,.5.16l0,8a5.5,5.5,0,0,1-3.58-3.73,1,1,0,0,0-1-.68,1,1,0,0,0-.86.42.88.88,0,0,0-.09.81c1.07,3.07,2.76,4.72,5.49,5.31v4.83a1,1,0,0,0,.26.68,1,1,0,0,0,.73.28,1,1,0,0,0,1-1v-4.6l0,0h.58a16.4,16.4,0,0,0,2-.12l0,.63c0,1.3.1,2.59.17,3.89a1,1,0,0,0,1.75.67.91.91,0,0,0,.24-.69c-.08-1.54-.14-3.08-.2-4.62v-.27c2.64-.73,4.26-2.23,4.7-4.32C1200.52,632.93,1197.88,630.65,1195,629.81Zm3.26,5.65c-.12,1.42-2.11,2.36-3.17,2.76q-.1-3.19-.18-6.39l.08,0C1197.22,633.13,1198.32,634.33,1198.22,635.46Zm-5.57-6.09c-.6-.09-1.19-.17-1.79-.31l-.29-.07V621.3a11,11,0,0,1,2.15-.22h0q0,4.17.07,8.32Zm-2.09,1.55.65.08c.56.06,1.12.12,1.66.22q.08,3.78.21,7.56a8.55,8.55,0,0,1-1.19.16h-.47q-.45,0-.87,0Zm-2-8.94v6.42c-1.51-.57-2.42-1.31-2.68-2.19a3.18,3.18,0,0,1,.81-2.77A5,5,0,0,1,1188.59,622Z" transform="translate(-598.23 -178.23)"/><path class="cls-9" d="M1186.06,651.48a30.82,30.82,0,0,0,7.36.94h0a20.27,20.27,0,0,0,17.06-8.52c5.53-7.42,5.27-18.24-.66-26.91a22.58,22.58,0,0,0-18.47-9.49,21.72,21.72,0,0,0-4.85.54c-10,2.28-17.79,12.72-17.37,23.28C1170.27,640.72,1177.55,649.39,1186.06,651.48Zm8.56-.8c-3.79,0-10.84-.71-15.49-4.85-4.19-3.72-7.41-9.57-8-14.54-.43-10.75,8.25-20.91,18.56-21.75.58,0,1.15-.07,1.72-.07,10,0,18.5,7.34,20.62,17.85a21,21,0,0,1-4.4,17,16.58,16.58,0,0,1-13,6.35Z" transform="translate(-598.23 -178.23)"/><path class="cls-9" d="M1246.25,642.82c0-.82-.11-1.64-.12-2.41-.08-4.5-.07-8.48,0-12.16.08-2.79,0-5.62-.12-8.35-.07-1.95-.14-3.9-.17-5.77a1,1,0,0,0,0-.85v-.7c0-.55,0-1.1,0-1.65.25-6,.28-12.41.07-20.28,0-1,0-2.12.09-3.34.21-4.21.47-9.46-2.4-12.07-2.25-2-5.9-2.28-8.44-2.28-1.5,0-3,.1-4.37.18-1.05.07-2,.13-2.88.14s-1.94,0-2.9,0c-3,0-6-.06-9-.12s-6-.12-9-.12h-2.25c-.63,0-1.38,0-2.19-.06-1,0-2.1-.08-3.23-.08-3.77,0-8.89.46-9.83,4.45a26,26,0,0,0-.25,6.88c0,1,.09,2,.09,2.94v1.55c0,4-.06,8.17.16,12.25-10.12.89-19.43,6.58-23.75,14.53-5.55,10.21-3.94,22.74,4.08,31.93a31.44,31.44,0,0,0,23.62,10.82,29.67,29.67,0,0,0,5.49-.51,26.28,26.28,0,0,0,12.26-5.91.79.79,0,0,0,.3,0c3.13.05,6.26.13,9.38.21,4.29.12,8.74.24,13.11.25.71,0,1.53.06,2.42.13,1,.08,2.13.16,3.21.16h0c2.35,0,5.55-.36,6.33-3.53A21.34,21.34,0,0,0,1246.25,642.82Zm-7.82,7.79c-.73,0-1.48-.06-2.22-.12s-1.44-.11-2.12-.11c-4.39,0-8.85-.13-13.16-.24-2.54-.07-5.08-.14-7.62-.18a26.44,26.44,0,0,0,4.54-6.46v0l2.25,0c3.15,0,6.34.14,9.44.28s6.29.29,9.44.29c1.89,0,3.61-.05,5.25-.16l0,.87c.06,3.49-1.24,5.21-4.37,5.73A9.22,9.22,0,0,1,1238.43,650.61Zm-19.71-9.08a25,25,0,0,0,1.66-6.93c5.89,0,11.87-.2,17.66-.37l6.09-.17,0,.05c0,2.54.05,5.08.11,7.62v.2c-1.64.1-3.36.15-5.25.15-3.14,0-6.32-.14-9.4-.28s-6.28-.28-9.43-.28Zm1-16.14c1.78.09,3.68.14,5.79.14,3,0,6.11-.1,9.09-.18s6-.18,9-.18h.44q0,3.45,0,6.9l-6.07.18c-5.76.17-11.71.34-17.57.36v-.18a5.23,5.23,0,0,0,0-.56A39.87,39.87,0,0,0,1219.77,625.39Zm24.38-2.21h-.44c-3,0-6.1.09-9.08.18s-6.08.18-9.1.18c-2.27,0-4.3,0-6.19-.15a32.59,32.59,0,0,0-3.16-8.1l3.91,0h0c6.36,0,12.81-.23,19.05-.44l5.06-.18Q1244.19,618.94,1244.15,623.18Zm0-10.46-5.34.18c-6.17.22-12.56.44-18.84.44-1.65,0-3.29,0-4.94-.05H1215a28,28,0,0,0-7.92-7.87l6.42,0c3.43,0,6.86,0,10.28,0h1.49c2.56,0,5.17-.09,7.7-.18s5.29-.19,7.92-.19q1.68,0,3.36.06C1244.22,607.7,1244.21,610.21,1244.2,612.72Zm0-9.51c-1.11,0-2.23-.06-3.34-.06-2.64,0-5.33.1-7.93.19s-5.14.18-7.69.18h-1.34c-3.41,0-6.82,0-10.23,0s-6.59-.05-9.88-.05c-.1,0-.18,0-.16.06a31.75,31.75,0,0,0-5.42-2,27.17,27.17,0,0,0-5.91-.62h-.71c-.08-1.67-.14-3.43-.15-5.38,2.81-.26,5.81-.38,9.42-.38,3,0,6,.09,8.92.17s5.92.16,8.85.16h1.71c2.85,0,5.78.17,8.61.33s5.8.32,8.69.32a55.75,55.75,0,0,0,6.49-.34v.54c0,2.3,0,4.59.06,6.89Zm-6.82-9.05c-2.94,0-6-.18-8.88-.36s-5.9-.35-8.82-.35h-1.17c-.71,0-1.42,0-2.12,0-2.73,0-5.53-.08-8.23-.16s-5.51-.16-8.27-.16c-3.23,0-5.92.11-8.46.34,0-1.57,0-3.14,0-4.72,0-.81,0-1.74-.1-2.7,1.76-.07,3.68-.1,5.85-.1s4.25,0,6.38.06,4.25.06,6.37.06h0c3.62,0,6.57-.09,9.3-.28,1.55-.1,3.2-.16,5-.16,2.31,0,4.67.09,6.94.16s4.64.17,7,.17c2.12,0,4-.07,5.75-.22,0,1.79.15,8,.15,8A52.53,52.53,0,0,1,1237.37,594.16Zm.84-10.17c-2.31,0-4.66-.08-6.93-.16s-4.63-.16-7-.16c-1.88,0-3.55.06-5.11.17-2.72.19-5.67.28-9.28.28-2.14,0-4.28,0-6.43-.06s-4.29-.07-6.43-.07-4.09,0-5.85.1a19.06,19.06,0,0,1,.28-5.32c.86-3.35,3.19-3.4,5.88-3.45.48,0,1,0,1.44-.05,1.9-.12,3.93-.19,6.22-.21h1.51c3.13,0,6.23.1,9.11.2,1.2,0,2.4.06,3.59.06,2,0,4,0,6-.09s4-.1,6-.1c2.59,0,4.74.08,6.76.25,5.15.43,5.7,4,5.81,8.42C1242.17,583.93,1240.31,584,1238.21,584Zm-40.53,19.42c14.64,4,23.7,19,20.2,33.55a24.86,24.86,0,0,1-24.55,19.35,28.14,28.14,0,0,1-7.89-1.14c-11.64-3.4-22.84-15.52-20.64-29.16,1.29-8,4.59-13.35,11-17.86a27.58,27.58,0,0,1,16-5.39A27,27,0,0,1,1197.68,603.41Z" transform="translate(-598.23 -178.23)"/><path class="cls-9" d="M1179.76,618.13a1,1,0,0,0-.65.24,15.35,15.35,0,0,0-5.47,9.81,1.06,1.06,0,0,0,.25.84,1.17,1.17,0,0,0,.85.39.79.79,0,0,0,.82-.74,13.7,13.7,0,0,1,4.93-8.87.85.85,0,0,0,.29-1A1.12,1.12,0,0,0,1179.76,618.13Z" transform="translate(-598.23 -178.23)"/><path class="cls-9" d="M1182.27,616.21a.93.93,0,0,0-.72.31,1,1,0,0,0-.24.68,1,1,0,0,0,1.69.68,1.06,1.06,0,0,0,.24-.68A1,1,0,0,0,1182.27,616.21Z" transform="translate(-598.23 -178.23)"/><path class="cls-9" d="M1197,576.92h0a6.5,6.5,0,0,0-3.57,1.51,4.58,4.58,0,0,0-1.1,3.73,1,1,0,0,0,1,1,1,1,0,0,0,.72-.29.89.89,0,0,0,.24-.68c0-.93-.08-1.88.7-2.46a5.56,5.56,0,0,1,2.46-.84.79.79,0,0,0,.74-.89A1.11,1.11,0,0,0,1197,576.92Z" transform="translate(-598.23 -178.23)"/><path class="cls-9" d="M1200.23,575.93a.93.93,0,0,0-.73.32,1.06,1.06,0,0,0-.24.68,1,1,0,0,0,1,1,.89.89,0,0,0,.72-.32,1,1,0,0,0,.24-.68A1,1,0,0,0,1200.23,575.93Z" transform="translate(-598.23 -178.23)"/><path class="cls-9" d="M915.08,801.8c-.37,0-.74,0-1.1,0s-.59,0-1,0h-2l-3.67,0c-1.22,0-2.45,0-3.67,0h-1.26c-3.61,0-3.64,1.16-3.74,4.28v.5a130,130,0,0,0,.13,13.89.83.83,0,0,0,.06.25l.16,0h0l-.1.19a.88.88,0,0,0,.84.53h18a1,1,0,0,0,1-1c0-1.44,0-2.88.09-4.33.06-2,.11-4,.1-6,0-.39,0-.86,0-1.38.09-2,.21-4.65-.82-6A3.73,3.73,0,0,0,915.08,801.8Zm-6.48,2,1.45,0c.34,0,.77,0,1.26-.07.69-.05,1.49-.11,2.27-.11,1.68,0,2.72.28,3.17.85.3.39.27,2.65.26,3.73,0,.32,0,.58,0,.74,0,1.31,0,2.62,0,3.92,0,1.12,0,2.23-.08,3.35s0,2.26-.07,3.39H900.73c-.09-1.7-.06-3.42,0-5.09s0-3.27,0-4.9c0-1.1,0-2.17,0-3.28.08-2.18.36-2.49,2.29-2.49h2C906.18,803.85,907.39,803.83,908.6,803.81Z" transform="translate(-598.23 -178.23)"/><path class="cls-9" d="M938.36,783.85c-.91,0-1.84.08-2.75.16s-1.5.13-2.25.14c-.53,0-1.24-.06-2-.14-1-.09-2.16-.19-3.27-.19-2.57,0-4,.61-4.5,1.88-.64,1.8-.44,4.18-.26,6.28.07.82.14,1.61.15,2.33.08,3.55,0,7.17-.1,10.67a153.11,153.11,0,0,0,.12,15.59,1.2,1.2,0,0,0,.06.24l.06.16a.87.87,0,0,0,.84.54h18a1,1,0,0,0,1-1c0-3.13,0-6.27.09-9.41,0-4.88.11-9.75.09-14.63,0-.81,0-1.63,0-2.45a41.08,41.08,0,0,0-.25-6.85C942.9,784.24,940.45,783.85,938.36,783.85Zm-13,2.84a6.19,6.19,0,0,0,.3-.61l.34,0a4.53,4.53,0,0,0,.56,0,11.43,11.43,0,0,1,1.32-.07c.58,0,1.16,0,1.75.06s1.13.06,1.83.06h0c.61,0,1.39-.08,2.25-.16,1.1-.1,2.36-.22,3.52-.22a6.18,6.18,0,0,1,3.39.69c1.39,1,1.19,4.87,1.06,7.45,0,.69-.07,1.31-.07,1.77,0,4.36,0,8.72-.06,13.08l-.06,6c0,.41,0,.89.06,1.41a9.34,9.34,0,0,1-.11,3.08l-.07.25h0a1.66,1.66,0,0,0-.54.12,5.31,5.31,0,0,1-1.8.24c-.75,0-1.57-.07-2.32-.14s-1.3-.11-1.81-.11h-9.57c-.32-4.88-.19-9.87-.07-14.7.07-3,.15-6,.12-9,0-.65-.09-1.52-.2-2.53C924.94,791,924.62,788,925.36,786.69Z" transform="translate(-598.23 -178.23)"/><path class="cls-9" d="M968.17,797.73c0-1.47.11-3.3-.61-4.4s-2.06-1.55-4.23-1.55c-.92,0-1.83.08-2.63.16l-1.17.09-1.27.07c-1.43.07-2.92.15-4.39.15-.33,0-.71,0-1.11-.06s-.94-.07-1.4-.07a4.05,4.05,0,0,0-1.66.27c-1.62.7-1.63,2-1.63,3.46,0,.25,0,.51,0,.77a227.12,227.12,0,0,0,0,24,1.34,1.34,0,0,0,.12.41.89.89,0,0,0,.84.53h18a1,1,0,0,0,1-1c0-2.41.06-4.82.1-7.23.08-4.71.16-9.59,0-14.38C968.14,798.59,968.15,798.17,968.17,797.73Zm-18.26,1.36c0-.34,0-.74,0-1.17a8.19,8.19,0,0,1,.15-2.67,1.41,1.41,0,0,0,.09-.69,5.4,5.4,0,0,1,.51-.32,2.34,2.34,0,0,1,1.13-.2c.43,0,.89.05,1.29.08s.62,0,.83,0c.62,0,1.54-.09,2.61-.2,1.46-.15,3.28-.34,4.93-.34,2.61,0,4.13.47,4.65,1.43.63,1.18.45,3.7.3,5.73,0,.76-.1,1.44-.1,2,0,3.34,0,6.68-.08,10l-.07,4.66a3.9,3.9,0,0,0,0,.56,2.85,2.85,0,0,1-.08,1.35c-.11.19-.19.35-.24.35h0a1.83,1.83,0,0,0-.66-.11,3.25,3.25,0,0,0-.42,0,42.3,42.3,0,0,1-5.23.28c-1.78,0-3.57-.07-5.35-.14-1.42-.05-2.82-.11-4.2-.12C949.54,812.71,949.73,805.48,949.91,799.09Z" transform="translate(-598.23 -178.23)"/><path class="cls-9" d="M992.59,774.69c-.39-5-1-5.33-6-5.38l-2.2,0c-1.46,0-2.93,0-4.39,0s-3,0-4.47.09l-.3,0c-1,0-1.73.06-2.29,1.07-.88,1.57-.62,4.25-.39,6.62.09.82.16,1.6.17,2.24.09,3.68.06,7.43,0,11.06V792c0,2.77-.09,5.55-.16,8.35a197.18,197.18,0,0,0,.18,20.19.76.76,0,0,0,.07.24l.15,0h0l-.1.19a.89.89,0,0,0,.84.54h18a1,1,0,0,0,1-1c0-4.62.13-9.35.25-13.93C993.13,796.11,993.4,785.24,992.59,774.69Zm-18.13,29c0-2.06.09-4.12.11-6.16,0-4.46,0-9,0-13.38q0-4.42,0-8.85c0-.91,0-1.84.09-2.75l0-.36c0-.89,0-.89.6-.92l.6,0a39.19,39.19,0,0,1,4.17-.19c1.46,0,2.94.05,4.39.09l2.84.09c3.09,0,3.3,1,3.49,3.92.08,1.2.1,2.39.13,3.63.14,7.5.08,15.13,0,22.51l-.14,16.5c0,.15,0,.34,0,.56a3.55,3.55,0,0,1,0,1.28.69.69,0,0,0,0,.35,16.22,16.22,0,0,0-2.83-.4H974.58C974.23,814.34,974.35,808.94,974.46,803.71Z" transform="translate(-598.23 -178.23)"/><path class="cls-9" d="M958.07,775.45a.88.88,0,0,0,.66-.27A209,209,0,0,1,981.4,755l0,.26a18.23,18.23,0,0,0-.47,3.23.9.9,0,0,0,.24.66,1,1,0,0,0,.7.28,1,1,0,0,0,1-.93,17.83,17.83,0,0,1,.46-3.1,18.5,18.5,0,0,0,.47-3.17,1,1,0,0,0-.28-.68,1,1,0,0,0-.69-.29h0a25.34,25.34,0,0,0-6.89,1.29,1,1,0,0,0-.65,1.09.91.91,0,0,0,.87.81,1.18,1.18,0,0,0,.31,0,25.5,25.5,0,0,1,3.88-1c-6.62,5.23-11.9,9.72-16.58,14.11-.58.55-1.14,1.13-1.7,1.72a29.79,29.79,0,0,1-2.76,2.64,3.35,3.35,0,0,1-2.06.92,6,6,0,0,1-2.25-.71l-.59-.27c-3.54-1.53-7.14-3-10.72-4.48-.77-.31-1.6-.7-2.47-1.11-2.29-1.09-4.89-2.31-7.22-2.36-2.1,0-3.93,1.67-5.55,3.15-.42.38-.82.74-1.2,1.06-6.28,5.16-12.71,10.71-19.11,16.51a.83.83,0,0,0-.24,1,1.06,1.06,0,0,0,.95.67.92.92,0,0,0,.64-.26c6.57-6,13.19-11.67,19.67-17a9.35,9.35,0,0,1,5.88-2.5,6.72,6.72,0,0,1,2.44.46q3.2,1.23,6.37,2.51c4.41,1.79,8.92,3.71,13.8,5.88A1.09,1.09,0,0,0,958.07,775.45Z" transform="translate(-598.23 -178.23)"/><path class="cls-9" d="M977.38,783.23a.91.91,0,0,0,.68-.29.79.79,0,0,0,.2-.66l0-.16c-.43-4.14-.3-6.63.39-7.39a.58.58,0,0,1,.45-.22v-.15h0l.15.16a.83.83,0,0,0,.84-.84,1,1,0,0,0-.91-1.09l-.38,0c-1.36,0-2.18.78-2.43,2.32a28.83,28.83,0,0,0,0,7.43A1,1,0,0,0,977.38,783.23Z" transform="translate(-598.23 -178.23)"/><path class="cls-9" d="M981.79,774.58a.9.9,0,0,0,.7-.31,1,1,0,0,0,.23-.65.91.91,0,0,0-.93-1,.88.88,0,0,0-.7.3,1,1,0,0,0-.24.66A.92.92,0,0,0,981.79,774.58Z" transform="translate(-598.23 -178.23)"/><path class="cls-9" d="M722.88,586.85q4.05-5.7,8.12-11.36c.4-.55.94-1.18,1.51-1.85,1.9-2.22,4.27-5,3.7-7.56-.94-4.28-7.66-4.36-11.27-4.4h-.7c-1.29,0-2.58,0-3.87,0-2.53,0-5.14,0-7.78.13a11,11,0,0,0-8.05,3.25,72.66,72.66,0,0,0-4.66,5.64c-1,1.23-1.89,2.45-2.87,3.61-2.6,3.11-5.25,6.4-8.09,10.06l-.84,1.08a179,179,0,0,0-10.7,14.79c-1.09,1.77-2.27,3.55-3.41,5.27a90,90,0,0,0-7,11.71c-.94,2-1,3.7-.3,4.93,1,1.63,3.39,2.53,7.36,2.76,1.13.07,2.27.09,3.4.09,1.51,0,3,0,4.55-.08l3-.08h2a18.22,18.22,0,0,0,6.69-.89c4.58-1.8,7.24-5.88,9.81-9.82.72-1.11,1.44-2.21,2.2-3.25,4.34-6,8.69-12.15,12.9-18.09ZM668.57,618c.2-.43.42-.86.71-1.41,1.87-3.55,4.11-7,6.27-10.28,1.13-1.75,2.27-3.49,3.36-5.26,5.35-8.6,11.77-16.47,19-25.14.7-.84,1.43-1.67,2.16-2.49,1-1.2,2.14-2.43,3.13-3.7l.68-.87c2-2.58,3.68-4.8,7.34-5.35a24.1,24.1,0,0,1,3.67-.23c1,0,1.91,0,2.86.06s1.84.06,2.73.06l2.51,0a37.88,37.88,0,0,1,6.57.45l.69.1a6.61,6.61,0,0,1,2.39.62,3.08,3.08,0,0,1,1.61,2c.23,1.33-.88,2.73-1.77,3.86-.21.26-.41.52-.58.75q-3.46,4.77-6.88,9.56l-7.63,10.74L712,599.15c-1.36,1.92-2.75,3.82-4.15,5.73-2.78,3.8-5.66,7.73-8.25,11.73-3.76,5.79-8.39,6.31-14.51,6.41l-3,.07c-1.53,0-3.05.09-4.57.09-.79,0-1.59,0-2.38,0h-1.78c-1.37,0-2.88-.08-3.67-.67A3.93,3.93,0,0,1,668.57,618Z" transform="translate(-598.23 -178.23)"/><path class="cls-9" d="M670.38,588h0c7,0,12.62-4.36,13.64-10.6.65-4,1-7.32-1.54-10.63-2.29-3-5.13-4-8.6-4.87l0,.14h0l-.18-.17a13.56,13.56,0,0,0-1.55-.09,14.24,14.24,0,0,0-14,11.52,12.74,12.74,0,0,0,1.93,9.65,11.63,11.63,0,0,0,7.68,4.83A16.47,16.47,0,0,0,670.38,588Zm-9.2-6.59a11,11,0,0,1-1-9.09,12.34,12.34,0,0,1,11.94-8.75c.44,0,.89,0,1.31.06,6.92,1.82,9.81,5.41,9.09,11.29-.46,3.81-1.5,7.63-5.89,9.76a14.8,14.8,0,0,1-6.41,1.5A12.89,12.89,0,0,1,668,586,9.8,9.8,0,0,1,661.18,581.44Z" transform="translate(-598.23 -178.23)"/><path class="cls-9" d="M742.38,601.87c-2.28-3-5.12-4-8.6-4.86l0,.14h0l-.18-.17a13.56,13.56,0,0,0-1.55-.09,14.24,14.24,0,0,0-14,11.52,12.76,12.76,0,0,0,1.93,9.64,11.59,11.59,0,0,0,7.68,4.83,15.47,15.47,0,0,0,2.63.22h0c7,0,12.62-4.35,13.64-10.59C744.58,608.51,744.88,605.19,742.38,601.87Zm.09,8.16c-.47,3.81-1.5,7.63-5.89,9.76a14.83,14.83,0,0,1-6.41,1.5,14.16,14.16,0,0,1-2.26-.19,9.77,9.77,0,0,1-6.82-4.59,11,11,0,0,1-1-9.08,12.37,12.37,0,0,1,12-8.76c.44,0,.88,0,1.3.07C740.29,600.55,743.18,604.14,742.47,610Z" transform="translate(-598.23 -178.23)"/><path class="cls-9" d="M671.44,577.53a3.43,3.43,0,0,0,.56,0c1.59-.34,2-2.3,1.81-3.55a2.46,2.46,0,0,0-2.46-2.33,2.92,2.92,0,0,0-1,.18,2.87,2.87,0,0,0-2,3.45,3.29,3.29,0,0,0,3.12,2.3Zm-.59-4a1.55,1.55,0,0,1,.49-.09c.56,0,.7.49.72.91,0,.23,0,1.38-.68,1.44a1.37,1.37,0,0,1-1.33-1.13A1,1,0,0,1,670.85,573.48Z" transform="translate(-598.23 -178.23)"/><path class="cls-9" d="M731.45,606.73a2.92,2.92,0,0,0-1,.18,2.88,2.88,0,0,0-2,3.46,3.29,3.29,0,0,0,3.12,2.3h0a2.6,2.6,0,0,0,.56-.06c1.59-.33,1.95-2.3,1.81-3.54A2.46,2.46,0,0,0,731.45,606.73Zm-.5,1.89a1.34,1.34,0,0,1,.49-.1c.56,0,.7.49.72.91,0,.23,0,1.38-.68,1.44a1.37,1.37,0,0,1-1.33-1.13A1,1,0,0,1,731,608.62Z" transform="translate(-598.23 -178.23)"/><path class="cls-9" d="M684,621.7h0c6.77-.28,11.93-1.68,15.06-7.63a.87.87,0,0,0,0-.87,1,1,0,0,0-.82-.47.8.8,0,0,0-.71.45c-2.78,5.29-7.07,6.48-13.53,6.75a.87.87,0,0,0-.86.93A.81.81,0,0,0,684,621.7Z" transform="translate(-598.23 -178.23)"/><path class="cls-9" d="M699.84,612a.85.85,0,0,0,.65-.28.94.94,0,0,0,.21-.61.85.85,0,0,0-.86-.89.81.81,0,0,0-.65.29.9.9,0,0,0-.21.6A.85.85,0,0,0,699.84,612Z" transform="translate(-598.23 -178.23)"/></g></g></svg>