<svg xmlns="http://www.w3.org/2000/svg" viewBox="0 0 723.53 723.54"><defs><style>.cls-1{isolation:isolate;}.cls-14,.cls-2{fill:#4f336b;}.cls-11,.cls-3{fill:#a159c8;}.cls-12,.cls-4{fill:#6345a2;}.cls-10,.cls-5{fill:#e56ae8;}.cls-13,.cls-6{fill:#223078;}.cls-15,.cls-7,.cls-9{fill:#fff;}.cls-7,.cls-8{opacity:0.2;}.cls-7{mix-blend-mode:overlay;}.cls-8{fill:#231f20;}.cls-10,.cls-11,.cls-12,.cls-13,.cls-14{font-size:29.3px;font-family:Circe-Light, Circe;font-weight:300;}.cls-15{stroke:#fff;stroke-miterlimit:10;}</style></defs><g class="cls-1"><g id="Слой_1" data-name="Слой 1"><path class="cls-2" d="M985.17,338.65a102.31,102.31,0,0,1-45.83,40.45,151.2,151.2,0,0,0-18,3.35,154,154,0,0,0-17.48,5.35A162.22,162.22,0,0,0,802.22,502.15a160,160,0,0,0-3.75,22.55,102.36,102.36,0,0,0-199.61-6.14q.92-15.52,3.16-30.74C621.38,355,714.25,239.69,847.49,196.26l0,0q12.93-4.22,26.36-7.52t26.86-5.51h0a102.46,102.46,0,0,1,84.41,155.45Z" transform="translate(-598.23 -178.23)"/><path class="cls-3" d="M1282.55,703.61s0,.07,0,.1a365.81,365.81,0,0,1-28.32,46.7,102.45,102.45,0,0,1-165.79-111.3,159.32,159.32,0,0,0,18.88-31.19,0,0,0,0,0,0,0,161.46,161.46,0,0,0,10.61-105l-.38-1.52a158.2,158.2,0,0,0-5.42-17.68c0,.05.08.08.11.13s.08.11.13.16c.66.93,1.38,1.84,2.13,2.74.29.4.63.8,1,1.2.69.85,1.41,1.67,2.13,2.5.4.47.82,1,1.3,1.43,1.14,1.31,2.39,2.56,3.64,3.75,1.87,1.86,3.78,3.62,5.8,5.3,1.86,1.59,3.8,3.11,5.83,4.54.85.61,1.7,1.23,2.55,1.78.45.32.9.64,1.36.91,1.54,1,3.11,2,4.73,2.92.21.14.42.24.64.38.77.45,1.54.87,2.31,1.27,2.34,1.28,4.74,2.45,7.16,3.51.82.4,1.64.75,2.47,1.07a101.08,101.08,0,0,0,52.23,6.78c1.44-.16,2.87-.37,4.34-.67s2.81-.5,4.2-.82a.8.8,0,0,1,.26,0c.75-.16,1.47-.32,2.18-.51s1.28-.32,1.92-.5c1.41-.38,2.79-.78,4.17-1.2,0,0,0,0,.06,0a97.12,97.12,0,0,0,12.23-4.71,99.49,99.49,0,0,0,28.19-19.25,19,19,0,0,0,1.81-1.78c1.22-1.2,2.37-2.42,3.46-3.68.58-.66,1.17-1.3,1.7-2a19.09,19.09,0,0,0,1.33-1.57c.61-.75,1.19-1.49,1.78-2.26.48-.59.9-1.17,1.33-1.76a2,2,0,0,0,.19-.24c.77-1,1.51-2.1,2.23-3.16,1-1.41,1.89-2.85,2.77-4.31.55-.93,1.11-1.86,1.64-2.82a90.68,90.68,0,0,0,4.55-9.09c.32-.67.59-1.33.88-2,.08-.21.19-.42.27-.66.26-.64.5-1.28.74-1.92s.59-1.56.88-2.34.56-1.56.8-2.36a101.34,101.34,0,0,0,5-34.52c0-.85,0-1.7-.1-2.56-.06-1.41-.16-2.79-.3-4.17,0-.29-.05-.56-.08-.85-.32-3.17-.79-6.3-1.41-9.42q5.07,12.3,9.23,25.08c.43,1.28.83,2.58,1.2,3.86,2.29,7.23,4.36,14.6,6.17,22.05A360.18,360.18,0,0,1,1282.55,703.61Z" transform="translate(-598.23 -178.23)"/><path class="cls-4" d="M1254.2,750.41q-10.34,14.45-22,27.87a361.79,361.79,0,0,1-435.64,84.36,364.57,364.57,0,0,1-46.7-28.3v0a102.4,102.4,0,0,1,50-169.76,104.72,104.72,0,0,1,20.74-2.89,100.85,100.85,0,0,1,40.24,6.67,0,0,0,0,0,0,0,162,162,0,0,0,227.57-29.26,102.45,102.45,0,0,0,165.79,111.3Z" transform="translate(-598.23 -178.23)"/><path class="cls-5" d="M1296.51,426.36a101,101,0,0,1-5,28c-.27.77-.54,1.57-.8,2.36s-.59,1.55-.88,2.34-.48,1.28-.74,1.92c-.08.24-.19.45-.27.66-.29.7-.59,1.36-.88,2a90.68,90.68,0,0,1-4.55,9.09c-.53,1-1.09,1.89-1.64,2.82-.88,1.46-1.81,2.9-2.77,4.31-.72,1.06-1.46,2.13-2.23,3.16a2,2,0,0,1-.19.24c-.43.61-.88,1.2-1.33,1.76-.59.77-1.17,1.51-1.78,2.26-.43.53-.88,1-1.33,1.57s-1.12,1.3-1.7,2c-1.09,1.26-2.24,2.48-3.46,3.68a19,19,0,0,1-1.81,1.78A99.49,99.49,0,0,1,1237,515.58a97.12,97.12,0,0,1-12.23,4.71s0,0-.06,0c-1.38.42-2.76.85-4.17,1.2-.64.18-1.28.34-1.92.5s-1.43.35-2.18.51a.8.8,0,0,0-.26,0c-1.39.32-2.8.58-4.2.82s-2.88.48-4.34.67a101.08,101.08,0,0,1-52.23-6.78c-.83-.35-1.65-.69-2.47-1.07-2.42-1.06-4.82-2.23-7.16-3.51-.77-.4-1.54-.82-2.31-1.27-.22-.14-.43-.24-.64-.38-1.62-.93-3.19-1.88-4.73-2.92-.46-.29-.91-.59-1.36-.91-.85-.55-1.7-1.17-2.55-1.78-2-1.46-3.94-3-5.83-4.54s-3.93-3.44-5.8-5.3c-1.25-1.19-2.5-2.44-3.64-3.75-.42-.48-.88-1-1.3-1.43-.72-.83-1.44-1.65-2.13-2.5-.35-.4-.66-.8-1-1.2-.75-.9-1.47-1.81-2.13-2.74,0,0-.08-.11-.13-.16s-.08-.08-.11-.13a159.06,159.06,0,0,0-16-31.89.06.06,0,0,0,0-.08,161.94,161.94,0,0,0-156.81-72.6,102.31,102.31,0,0,0,45.83-40.45A102.46,102.46,0,0,0,900.76,183.2q17.07-2.87,34.09-4.07c136.64-9.7,266.29,59.42,335.46,174.86v0a358.26,358.26,0,0,1,24.31,48.59v.08a.08.08,0,0,1,0,.08s0,.08,0,.1c.62,3.12,1.09,6.25,1.41,9.42,0,.29.06.56.08.85.14,1.38.24,2.76.3,4.17,0,.86.08,1.71.1,2.56,0,1.91,0,3.82,0,5.73Z" transform="translate(-598.23 -178.23)"/><path class="cls-6" d="M860.81,668.34a100.85,100.85,0,0,0-40.24-6.67,104.72,104.72,0,0,0-20.74,2.89,102.4,102.4,0,0,0-50,169.76c-8.83-6.31-17.4-13-25.67-20.08A362.25,362.25,0,0,1,599.81,573.13a355.89,355.89,0,0,1-.95-54.57,102.36,102.36,0,0,1,199.61,6.14,159.59,159.59,0,0,0,.62,35.72,156.37,156.37,0,0,0,3.35,18.22,161.29,161.29,0,0,0,41.94,75.15A163,163,0,0,0,860.81,668.34Z" transform="translate(-598.23 -178.23)"/><path class="cls-7" d="M960,178.23c-187.31,0-341.37,142.36-359.9,324.77.53-5.08,1.17-10.13,1.91-15.18a110.45,110.45,0,0,1,29.09-34.39c37.77-144,167.55-250.65,322.73-253.42-1-.66-2.1-1.33-3.17-2a101.93,101.93,0,0,0-49.91-14.82q17.07-2.87,34.09-4.07a110.52,110.52,0,0,1,39.44,21.12c153.29,6.33,280.39,114.14,315.86,258.05a103.15,103.15,0,0,0,6-26.17,101.42,101.42,0,0,0-1.55-29.73q6,14.36,10.54,29.06a110.08,110.08,0,0,1-11.25,43.7v0a342.71,342.71,0,0,1,6.17,64.82,338.77,338.77,0,0,1-95.29,236c1.22-.24,2.42-.5,3.64-.8a101.82,101.82,0,0,0,45.8-24.81q-10.34,14.45-22,27.87a111.92,111.92,0,0,1-24.15,9,107.23,107.23,0,0,1-17.63,2.82l0,0A340,340,0,0,1,724,784.8a102.39,102.39,0,0,0,25.8,49.52c-8.83-6.31-17.4-13-25.67-20.08a112.17,112.17,0,0,1-10.26-26.57,105.76,105.76,0,0,1-2.66-15.85l0,0a340.55,340.55,0,0,1-84-301.53,100.57,100.57,0,0,0-16.73,20.85,102.16,102.16,0,0,0-11.54,27.32v.05c-.42,7.1-.64,14.31-.64,21.52,0,199.8,162,361.76,361.77,361.76s361.74-162,361.74-361.76S1159.81,178.23,960,178.23Z" transform="translate(-598.23 -178.23)"/><path class="cls-8" d="M598.86,518.56c0-.61.08-1.2.13-1.81,0,.56-.08,1.12-.11,1.68v.05S598.86,518.53,598.86,518.56Z" transform="translate(-598.23 -178.23)"/><path class="cls-8" d="M1294.61,402.4a102.92,102.92,0,0,1-.44,42.31,100.89,100.89,0,0,1-25.24,47.81,102.38,102.38,0,0,1-120.8,21.39,11.93,11.93,0,0,1-6.28-8.49A185.31,185.31,0,0,0,1004.6,360.34c-7.72-1.91-11.63-10.68-7.43-17.43a110.12,110.12,0,0,0-62.32-163.78q-17,1.2-34.09,4.07a102.48,102.48,0,0,1,75.79,167.61,11.67,11.67,0,0,1-9.45,4.24c-2.35-.08-4.71-.13-7.09-.13A185,185,0,0,0,794,458a11.71,11.71,0,0,1-18.69,3A110.19,110.19,0,0,0,602,487.82q-2.24,15.24-3.16,30.74a102.39,102.39,0,0,1,180.33-36.72,11.65,11.65,0,0,1,2.07,10.07,185.51,185.51,0,0,0,21.08,145c4.19,6.8.25,15.57-7.52,17.44l-.18,0a110.15,110.15,0,0,0-80.76,133.24,112.17,112.17,0,0,0,10.26,26.57c8.27,7,16.84,13.77,25.67,20.08a102.4,102.4,0,0,1,50-169.76,106.47,106.47,0,0,1,14.56-2.47,11.91,11.91,0,0,1,9.88,3.68A185.11,185.11,0,0,0,1057,697.64a11.68,11.68,0,0,1,17.43,7.52c.1.45.21.9.31,1.34A110.17,110.17,0,0,0,1208,787.27a111.92,111.92,0,0,0,24.15-9q11.68-13.39,22-27.87a102.39,102.39,0,0,1-172-64.81,11.88,11.88,0,0,1,3.69-9.89A184.57,184.57,0,0,0,1145.08,540c0-5.32-.21-10.59-.66-15.8v0a110.18,110.18,0,0,0,160.72-92.73C1302.08,421.66,1298.55,412,1294.61,402.4ZM1107.32,607.89a0,0,0,0,1,0,0,159.32,159.32,0,0,1-18.88,31.19,162.17,162.17,0,0,1-227.57,29.26,0,0,0,0,1,0,0,163,163,0,0,1-16.43-14.55,161.29,161.29,0,0,1-41.94-75.15,156.37,156.37,0,0,1-3.35-18.22,161.08,161.08,0,0,1,3.13-58.27A162.22,162.22,0,0,1,903.89,387.8a154,154,0,0,1,17.48-5.35,151.2,151.2,0,0,1,18-3.35,161.94,161.94,0,0,1,156.81,72.6.06.06,0,0,1,0,.08,162.35,162.35,0,0,1,21.4,49.57l.38,1.52A161.46,161.46,0,0,1,1107.32,607.89Z" transform="translate(-598.23 -178.23)"/><circle class="cls-9" cx="620.86" cy="299.12" r="19.84"/><text class="cls-10" transform="translate(615.41 309.25)">1</text><circle class="cls-9" cx="549.86" cy="550.12" r="19.84"/><text class="cls-11" transform="translate(542.11 560.25)">2</text><circle class="cls-9" cx="175.86" cy="540.12" r="19.84"/><text class="cls-12" transform="translate(168.05 550.25)">3</text><circle class="cls-9" cx="92.86" cy="299.12" r="19.84"/><text class="cls-13" transform="translate(84.98 309.25)">4</text><circle class="cls-9" cx="357.86" cy="86.12" r="19.84"/><text class="cls-14" transform="translate(350.27 96.25)">5</text><path class="cls-15" d="M915.08,801.8c-.37,0-.74,0-1.1,0s-.59,0-1,0h-2l-3.67,0c-1.22,0-2.45,0-3.67,0h-1.26c-3.61,0-3.64,1.16-3.74,4.28v.5a130,130,0,0,0,.13,13.89.83.83,0,0,0,.06.25l.16,0h0l-.1.19a.88.88,0,0,0,.84.53h18a1,1,0,0,0,1-1c0-1.44,0-2.88.09-4.33.06-2,.11-4,.1-6,0-.39,0-.86,0-1.38.09-2,.21-4.65-.82-6A3.73,3.73,0,0,0,915.08,801.8Zm-6.48,2,1.45,0c.34,0,.77,0,1.26-.07.69-.05,1.49-.11,2.27-.11,1.68,0,2.72.28,3.17.85.3.39.27,2.65.26,3.73,0,.32,0,.58,0,.74,0,1.31,0,2.62,0,3.92,0,1.12,0,2.23-.08,3.35s0,2.26-.07,3.39H900.73c-.09-1.7-.06-3.42,0-5.09s0-3.27,0-4.9c0-1.1,0-2.17,0-3.28.08-2.18.36-2.49,2.29-2.49h2C906.18,803.85,907.39,803.83,908.6,803.81Z" transform="translate(-598.23 -178.23)"/><path class="cls-15" d="M938.36,783.85c-.91,0-1.84.08-2.75.16s-1.5.13-2.25.14c-.53,0-1.24-.06-2-.14-1-.09-2.16-.19-3.27-.19-2.57,0-4,.61-4.5,1.88-.64,1.8-.44,4.18-.26,6.28.07.82.14,1.61.15,2.33.08,3.55,0,7.17-.1,10.67a153.11,153.11,0,0,0,.12,15.59,1.2,1.2,0,0,0,.06.24l.06.16a.87.87,0,0,0,.84.54h18a1,1,0,0,0,1-1c0-3.13,0-6.27.09-9.41,0-4.88.11-9.75.09-14.63,0-.81,0-1.63,0-2.45a41.08,41.08,0,0,0-.25-6.85C942.9,784.24,940.45,783.85,938.36,783.85Zm-13,2.84a6.19,6.19,0,0,0,.3-.61l.34,0a4.53,4.53,0,0,0,.56,0,11.43,11.43,0,0,1,1.32-.07c.58,0,1.16,0,1.75.06s1.13.06,1.83.06h0c.61,0,1.39-.08,2.25-.16,1.1-.1,2.36-.22,3.52-.22a6.18,6.18,0,0,1,3.39.69c1.39,1,1.19,4.87,1.06,7.45,0,.69-.07,1.31-.07,1.77,0,4.36,0,8.72-.06,13.08l-.06,6c0,.41,0,.89.06,1.41a9.34,9.34,0,0,1-.11,3.08l-.07.25h0a1.66,1.66,0,0,0-.54.12,5.31,5.31,0,0,1-1.8.24c-.75,0-1.57-.07-2.32-.14s-1.3-.11-1.81-.11h-9.57c-.32-4.88-.19-9.87-.07-14.7.07-3,.15-6,.12-9,0-.65-.09-1.52-.2-2.53C924.94,791,924.62,788,925.36,786.69Z" transform="translate(-598.23 -178.23)"/><path class="cls-15" d="M968.17,797.73c0-1.47.11-3.3-.61-4.4s-2.06-1.55-4.23-1.55c-.92,0-1.83.08-2.63.16l-1.17.09-1.27.07c-1.43.07-2.92.15-4.39.15-.33,0-.71,0-1.11-.06s-.94-.07-1.4-.07a4.05,4.05,0,0,0-1.66.27c-1.62.7-1.63,2-1.63,3.46,0,.25,0,.51,0,.77a227.12,227.12,0,0,0,0,24,1.34,1.34,0,0,0,.12.41.89.89,0,0,0,.84.53h18a1,1,0,0,0,1-1c0-2.41.06-4.82.1-7.23.08-4.71.16-9.59,0-14.38C968.14,798.59,968.15,798.17,968.17,797.73Zm-18.26,1.36c0-.34,0-.74,0-1.17a8.19,8.19,0,0,1,.15-2.67,1.41,1.41,0,0,0,.09-.69,5.4,5.4,0,0,1,.51-.32,2.34,2.34,0,0,1,1.13-.2c.43,0,.89.05,1.29.08s.62,0,.83,0c.62,0,1.54-.09,2.61-.2,1.46-.15,3.28-.34,4.93-.34,2.61,0,4.13.47,4.65,1.43.63,1.18.45,3.7.3,5.73,0,.76-.1,1.44-.1,2,0,3.34,0,6.68-.08,10l-.07,4.66a3.9,3.9,0,0,0,0,.56,2.85,2.85,0,0,1-.08,1.35c-.11.19-.19.35-.24.35h0a1.83,1.83,0,0,0-.66-.11,3.25,3.25,0,0,0-.42,0,42.3,42.3,0,0,1-5.23.28c-1.78,0-3.57-.07-5.35-.14-1.42-.05-2.82-.11-4.2-.12C949.54,812.71,949.73,805.48,949.91,799.09Z" transform="translate(-598.23 -178.23)"/><path class="cls-15" d="M992.59,774.69c-.39-5-1-5.33-6-5.38l-2.2,0c-1.46,0-2.93,0-4.39,0s-3,0-4.47.09l-.3,0c-1,0-1.73.06-2.29,1.07-.88,1.57-.62,4.25-.39,6.62.09.82.16,1.6.17,2.24.09,3.68.06,7.43,0,11.06V792c0,2.77-.09,5.55-.16,8.35a197.18,197.18,0,0,0,.18,20.19.76.76,0,0,0,.07.24l.15,0h0l-.1.19a.89.89,0,0,0,.84.54h18a1,1,0,0,0,1-1c0-4.62.13-9.35.25-13.93C993.13,796.11,993.4,785.24,992.59,774.69Zm-18.13,29c0-2.06.09-4.12.11-6.16,0-4.46,0-9,0-13.38q0-4.42,0-8.85c0-.91,0-1.84.09-2.75l0-.36c0-.89,0-.89.6-.92l.6,0a39.19,39.19,0,0,1,4.17-.19c1.46,0,2.94.05,4.39.09l2.84.09c3.09,0,3.3,1,3.49,3.92.08,1.2.1,2.39.13,3.63.14,7.5.08,15.13,0,22.51l-.14,16.5c0,.15,0,.34,0,.56a3.55,3.55,0,0,1,0,1.28.69.69,0,0,0,0,.35,16.22,16.22,0,0,0-2.83-.4H974.58C974.23,814.34,974.35,808.94,974.46,803.71Z" transform="translate(-598.23 -178.23)"/><path class="cls-15" d="M958.07,775.45a.88.88,0,0,0,.66-.27A209,209,0,0,1,981.4,755l0,.26a18.23,18.23,0,0,0-.47,3.23.9.9,0,0,0,.24.66,1,1,0,0,0,.7.28,1,1,0,0,0,1-.93,17.83,17.83,0,0,1,.46-3.1,18.5,18.5,0,0,0,.47-3.17,1,1,0,0,0-.28-.68,1,1,0,0,0-.69-.29h0a25.34,25.34,0,0,0-6.89,1.29,1,1,0,0,0-.65,1.09.91.91,0,0,0,.87.81,1.18,1.18,0,0,0,.31,0,25.5,25.5,0,0,1,3.88-1c-6.62,5.23-11.9,9.72-16.58,14.11-.58.55-1.14,1.13-1.7,1.72a29.79,29.79,0,0,1-2.76,2.64,3.35,3.35,0,0,1-2.06.92,6,6,0,0,1-2.25-.71l-.59-.27c-3.54-1.53-7.14-3-10.72-4.48-.77-.31-1.6-.7-2.47-1.11-2.29-1.09-4.89-2.31-7.22-2.36-2.1,0-3.93,1.67-5.55,3.15-.42.38-.82.74-1.2,1.06-6.28,5.16-12.71,10.71-19.11,16.51a.83.83,0,0,0-.24,1,1.06,1.06,0,0,0,.95.67.92.92,0,0,0,.64-.26c6.57-6,13.19-11.67,19.67-17a9.35,9.35,0,0,1,5.88-2.5,6.72,6.72,0,0,1,2.44.46q3.2,1.23,6.37,2.51c4.41,1.79,8.92,3.71,13.8,5.88A1.09,1.09,0,0,0,958.07,775.45Z" transform="translate(-598.23 -178.23)"/><path class="cls-15" d="M977.38,783.23a.91.91,0,0,0,.68-.29.79.79,0,0,0,.2-.66l0-.16c-.43-4.14-.3-6.63.39-7.39a.58.58,0,0,1,.45-.22v-.15h0l.15.16a.83.83,0,0,0,.84-.84,1,1,0,0,0-.91-1.09l-.38,0c-1.36,0-2.18.78-2.43,2.32a28.83,28.83,0,0,0,0,7.43A1,1,0,0,0,977.38,783.23Z" transform="translate(-598.23 -178.23)"/><path class="cls-15" d="M981.79,774.58a.9.9,0,0,0,.7-.31,1,1,0,0,0,.23-.65.91.91,0,0,0-.93-1,.88.88,0,0,0-.7.3,1,1,0,0,0-.24.66A.92.92,0,0,0,981.79,774.58Z" transform="translate(-598.23 -178.23)"/><path class="cls-9" d="M702.81,604.44h-1.9v-13h7.8a2,2,0,0,0,0-3.93h-7.8V568.33L705,572.4a2,2,0,0,0,2.78-2.78l-7.41-7.41a1.9,1.9,0,0,0-1.39-.57,2,2,0,0,0-1.39.57l-7.42,7.42a2,2,0,0,0,1.39,3.36,2,2,0,0,0,1.39-.57l4.05-4.08v19.15h-1.89a10.44,10.44,0,1,0,0,20.87H697v13h-8.06a2,2,0,0,0,0,3.93H697v6.23a2,2,0,0,0,3.93,0v-6.23h1.9a10.44,10.44,0,0,0,0-20.87Zm-7.72,0a6.51,6.51,0,1,1,0-13H697v13Zm7.72,16.94h-1.9v-13h1.9a6.51,6.51,0,1,1,0,13Z" transform="translate(-598.23 -178.23)"/><path class="cls-9" d="M730.4,603.52h-1.07v-9.3H735a2,2,0,0,0,0-3.93h-5.68V576.77l2.44,2.43a2,2,0,0,0,2.78-2.78l-5.79-5.79a2,2,0,0,0-2.78,0l-5.8,5.81a2,2,0,0,0,0,2.78,1.93,1.93,0,0,0,1.39.57,2,2,0,0,0,1.39-.57l2.43-2.44v13.5h-1.06a8.59,8.59,0,1,0,0,17.17h1.06v9.3h-5.84a2,2,0,0,0,0,3.93h5.88v4.45a2,2,0,0,0,3.92,0v-4.45h1.06a8.58,8.58,0,1,0,0-17.16Zm-6,0a4.66,4.66,0,0,1,0-9.32h1.07v9.31h-1.07Zm6,13.23h-1.07v-9.3h1.07a4.65,4.65,0,1,1,0,9.3Z" transform="translate(-598.23 -178.23)"/><path class="cls-9" d="M673.53,603.52h-1.06v-9.3h5.67a2,2,0,0,0,0-3.93h-5.67V576.77l2.43,2.43a2,2,0,0,0,2.78-2.78l-5.77-5.77a2,2,0,0,0-2.78,0l-5.81,5.81a2,2,0,0,0,0,2.78,2,2,0,0,0,2.78,0l2.44-2.44v13.49h-1.06a8.59,8.59,0,1,0,0,17.17h1.06v9.29h-5.85a2,2,0,1,0,0,3.93h5.87v4.45a2,2,0,1,0,3.92,0v-4.45h1.07a8.58,8.58,0,1,0,0-17.16Zm-6,0a4.66,4.66,0,1,1,0-9.32h1.06v9.31H667.5Zm6,13.23h-1.06v-9.3h1.06a4.65,4.65,0,1,1,0,9.3Z" transform="translate(-598.23 -178.23)"/><path class="cls-9" d="M1207.41,609.41a4.85,4.85,0,0,0-4.57-5.11l-1.64-.19c-1.62-.2-3.14-.37-4.6-.68-5.71-1.25-11.24-3.83-17.36-8.11a6.06,6.06,0,0,0-3.44-1.36,6.15,6.15,0,0,0-3.42,1.34c-8.19,5.63-15.56,8.49-23.18,9-3.3.21-5,2.08-5,5.41v6c0,5.53,0,11.24,0,16.88A30.55,30.55,0,0,0,1145,639a29.24,29.24,0,0,0,8.2,14.18c5.41,5.47,12.19,9.69,20.73,12.9a5.3,5.3,0,0,0,1.83.33A5.79,5.79,0,0,0,1178,666c.46-.22.94-.41,1.41-.61h0c2.06-.89,4.19-1.81,6.27-2.9,6.93-3.66,12.18-8,16-13.23a25.72,25.72,0,0,0,5.47-14.47c0-1,.08-2,.1-3.15l.07-9.31v-3.79Q1207.42,614,1207.41,609.41Zm-3.62,12.71v.1l-.08,9.35c0,1.11,0,2.09-.07,3a22.28,22.28,0,0,1-4.78,12.48c-3.53,4.79-8.38,8.77-14.82,12.17-1.94,1-4,1.92-6,2.78h0l-1.44.62a2,2,0,0,1-.81.17,1.66,1.66,0,0,1-.57-.09c-8-3-14.4-7-19.43-12.06a25.12,25.12,0,0,1-7.91-18.15c-.06-5.61,0-11.32,0-16.83v-6a2.21,2.21,0,0,1,.32-1.42,2.11,2.11,0,0,1,1.34-.39c8.3-.54,16.25-3.59,25-9.62a1.69,1.69,0,0,1,2.74,0c6.53,4.55,12.47,7.31,18.66,8.66a43.85,43.85,0,0,0,5,.74c.54.06,1.07.12,1.61.2,1.06.13,1.4.51,1.4,1.52v12.71Z" transform="translate(-598.23 -178.23)"/><path class="cls-9" d="M1178.3,628.36h-5a3.73,3.73,0,0,1,0-7.45h8.89a1.81,1.81,0,0,0,0-3.62h-4.55v-3.46a1.81,1.81,0,1,0-3.61,0v3.46h-.71a7.34,7.34,0,1,0,0,14.68h5a3.73,3.73,0,0,1,0,7.45h-9.06a1.81,1.81,0,0,0,0,3.62H1174v3.52a1.81,1.81,0,1,0,3.61,0V643h.82a7.34,7.34,0,0,0-.11-14.68Z" transform="translate(-598.23 -178.23)"/><path class="cls-9" d="M1253.42,611.21c6.14,0,10.77-2.39,10.77-5.57s-4.63-5.56-10.77-5.56-10.78,2.39-10.78,5.56S1247.27,611.21,1253.42,611.21Zm0-8.74c5.12,0,8.39,1.88,8.39,3.18s-3.27,3.19-8.39,3.19-8.4-1.89-8.4-3.19S1248.29,602.47,1253.42,602.47Z" transform="translate(-598.23 -178.23)"/><path class="cls-9" d="M1263.29,611.31a1.2,1.2,0,0,0-1.53.71c-.5,1.38-3.83,2.86-8.33,2.86s-7.67-1.4-8.3-2.76a1.2,1.2,0,1,0-2.17,1c1.16,2.48,5.37,4.13,10.47,4.13a18.67,18.67,0,0,0,6.66-1.13c2.06-.8,3.42-1.94,3.92-3.3A1.21,1.21,0,0,0,1263.29,611.31Z" transform="translate(-598.23 -178.23)"/><path class="cls-9" d="M1263.29,617.38a1.2,1.2,0,0,0-1.53.71c-.5,1.38-3.83,2.86-8.33,2.86s-7.67-1.4-8.3-2.76a1.2,1.2,0,1,0-2.17,1c1.16,2.48,5.37,4.13,10.47,4.13a18.67,18.67,0,0,0,6.66-1.13c2.06-.8,3.42-1.94,3.92-3.3A1.21,1.21,0,0,0,1263.29,617.38Z" transform="translate(-598.23 -178.23)"/><path class="cls-9" d="M1263.29,623.44a1.19,1.19,0,0,0-1.53.71c-.5,1.37-3.83,2.86-8.33,2.86s-7.67-1.41-8.3-2.76a1.2,1.2,0,1,0-2.17,1c1.16,2.48,5.37,4.13,10.47,4.13a18.67,18.67,0,0,0,6.66-1.13c2.06-.8,3.42-1.94,3.92-3.3A1.2,1.2,0,0,0,1263.29,623.44Z" transform="translate(-598.23 -178.23)"/><path class="cls-9" d="M1263.29,629.51a1.19,1.19,0,0,0-1.53.71c-.5,1.37-3.83,2.86-8.33,2.86s-7.67-1.41-8.3-2.77a1.2,1.2,0,0,0-2.17,1c1.16,2.47,5.37,4.13,10.47,4.13a18.89,18.89,0,0,0,6.66-1.13c2.06-.8,3.42-1.94,3.92-3.3A1.2,1.2,0,0,0,1263.29,629.51Z" transform="translate(-598.23 -178.23)"/><path class="cls-9" d="M1263.29,635.57a1.2,1.2,0,0,0-1.53.7c-.5,1.38-3.83,2.87-8.33,2.87s-7.67-1.41-8.3-2.77a1.2,1.2,0,0,0-2.17,1c1.16,2.48,5.37,4.14,10.47,4.14a18.89,18.89,0,0,0,6.66-1.13c2.06-.8,3.42-1.94,3.92-3.3A1.2,1.2,0,0,0,1263.29,635.57Z" transform="translate(-598.23 -178.23)"/><path class="cls-9" d="M1237.14,623.44a1.18,1.18,0,0,0-1.52.71c-.51,1.37-3.84,2.86-8.34,2.86s-7.67-1.41-8.3-2.76a1.2,1.2,0,1,0-2.17,1c1.16,2.48,5.37,4.13,10.47,4.13a18.59,18.59,0,0,0,6.66-1.13c2.06-.8,3.42-1.94,3.92-3.3A1.2,1.2,0,0,0,1237.14,623.44Z" transform="translate(-598.23 -178.23)"/><path class="cls-9" d="M1237.14,629.51a1.18,1.18,0,0,0-1.52.71c-.51,1.37-3.84,2.86-8.34,2.86s-7.67-1.41-8.3-2.77a1.2,1.2,0,0,0-2.17,1c1.16,2.47,5.37,4.13,10.47,4.13a18.81,18.81,0,0,0,6.66-1.13c2.06-.8,3.42-1.94,3.92-3.3A1.2,1.2,0,0,0,1237.14,629.51Z" transform="translate(-598.23 -178.23)"/><path class="cls-9" d="M1237.14,635.57a1.18,1.18,0,0,0-1.52.7c-.51,1.38-3.84,2.87-8.34,2.87s-7.67-1.41-8.3-2.77a1.2,1.2,0,0,0-2.17,1c1.16,2.48,5.37,4.14,10.47,4.14a18.81,18.81,0,0,0,6.66-1.13c2.06-.8,3.42-1.94,3.92-3.3A1.2,1.2,0,0,0,1237.14,635.57Z" transform="translate(-598.23 -178.23)"/><path class="cls-9" d="M1227.28,612.21c-6.15,0-10.78,2.39-10.78,5.56s4.63,5.56,10.78,5.56,10.77-2.39,10.77-5.56S1233.42,612.21,1227.28,612.21Zm0,8.74c-5.13,0-8.4-1.88-8.4-3.18s3.27-3.18,8.4-3.18,8.4,1.88,8.4,3.18S1232.4,621,1227.28,621Z" transform="translate(-598.23 -178.23)"/><path class="cls-9" d="M1074,343.11c0-.83.07-1.66.1-2.49,0-.2,0-.4,0-.61.06-1.53.35-1.91,1.9-2s3.22,0,4.83.09a75.4,75.4,0,0,1,10.91,1.21c1.63.33,3.21.86,4.81,1.31a3.44,3.44,0,0,1,.56.25c1.61.83,1.91,1.32,1.75,3.12-.08.92-.2,1.84-.35,2.75-.06.39,0,.57.43.65,1.13.21,2.25.47,3.37.7a.55.55,0,0,0,.7-.35,97.15,97.15,0,0,1,10.31-16.44c3.15-4.23,6.45-8.34,9.69-12.51l.51-.64-.76-.06-3.55-.14a1.75,1.75,0,0,1-1.62-.87,1.52,1.52,0,0,1,1.2-2.33c1.14-.07,2.29,0,3.43,0l.07-.22c-.15-.16-.31-.31-.47-.47-2.9-2.75-5.85-5.45-8.69-8.26a26.2,26.2,0,0,1-5.44-7.19,10.38,10.38,0,0,1-1-3.26c-.33-3,1.9-5,5-4.66a19,19,0,0,1,7.27,2.6c2,1.12,3.9,2.35,5.83,3.56a.64.64,0,0,0,1-.16c1.67-1.93,3.35-3.85,5.06-5.75a9.87,9.87,0,0,1,4.41-3h.89a9.19,9.19,0,0,1,3.53,2.13c.95.88,1.89,1.77,2.76,2.73,1.13,1.25,2.19,2.56,3.25,3.87.33.41.61.44,1,.13s.68-.45,1-.68a42.12,42.12,0,0,1,8-4.43,12.17,12.17,0,0,1,5.18-1.09,3.79,3.79,0,0,1,3.6,2.94,6.14,6.14,0,0,1-.17,3.5,17.89,17.89,0,0,1-2.79,5,62,62,0,0,1-7,7.55c-1.47,1.41-3,2.74-4.52,4.11-.27.25-.51.52-.77.78l.09.15,1.43.09c.72,0,1.44,0,2.16.1a1.17,1.17,0,0,1,.69.3,1.67,1.67,0,0,1-.64,2.65,4,4,0,0,1-1.08.19c-1.17.05-2.34.05-3.5.08l-.66,0,.42.57c4.64,6.17,9.37,12.27,13.53,18.78a85.5,85.5,0,0,1,7.53,13.89,19.83,19.83,0,0,1,1.54,5.6,31.24,31.24,0,0,1-.35,7,1,1,0,0,0,.24.77,16.39,16.39,0,0,1,3.44,4.65V370a2.62,2.62,0,0,1-1.37,1.21Q1159,377.78,1145,383.62a73.42,73.42,0,0,1-10.68,3.73c-1.13.27-2.28.44-3.42.65h-2.22c-12.49-3.33-24.53-8.07-37-11.74-.08.24-.17.48-.24.72-.26.89-.48,1.79-.75,2.67-.42,1.32-.74,1.58-2.11,1.6-3.92.05-7.85,0-11.77.12a3,3,0,0,1-2.83-1.15Zm59.87,12.1c0-.3,0-.48,0-.67,0-1.53,0-3.07.06-4.6a.61.61,0,0,0-.53-.74,9.32,9.32,0,0,1-4.36-2.54,6,6,0,0,1-1.67-5.15,7.76,7.76,0,0,1,5.87-6.53c.49-.12.69-.35.68-.83a11.43,11.43,0,0,1,0-1.17,1.85,1.85,0,0,1,1.73-1.65,1.67,1.67,0,0,1,1.53,1.73c0,.42,0,.85,0,1.27s.12.47.44.58a12.09,12.09,0,0,1,2.21.87,7,7,0,0,1,4,6.29,1.3,1.3,0,0,1-.41.89,1.68,1.68,0,0,1-2.85-1.14,4.9,4.9,0,0,0-2.25-3.17c-.72-.5-1.05-.32-1.05.53,0,2.37,0,4.74,0,7.11a.64.64,0,0,0,.51.72,11.52,11.52,0,0,1,3.55,1.79,5.94,5.94,0,0,1,2.43,4,7.29,7.29,0,0,1-1.35,5.52c-.55.7-.53.72,0,1.47a11,11,0,0,1,1.71,3.89c.12.51.25,1,.39,1.59l.75-.14c4.32-1,8.64-2.06,13-3.12a13.17,13.17,0,0,1,5.44-.36c1,.17,1.94.46,2.91.69.28.07.49.1.54-.3a16.93,16.93,0,0,0-.68-8.32,60.64,60.64,0,0,0-5-10,228.14,228.14,0,0,0-18-25.35,1,1,0,0,0-.69-.33l-14.39,0a1,1,0,0,0-.84.41c-3.51,4.45-7.08,8.85-10.52,13.35a121.48,121.48,0,0,0-9.93,15c-.38.68-.7,1.38-1.09,2.18Zm36,13.68a1.38,1.38,0,0,0-.14-.24c-2.36-2.64-5.23-4.11-8.85-3.66a38.4,38.4,0,0,0-4.24.87q-9,2.19-18,4.42a16.26,16.26,0,0,1-7.24.42c-4.32-.87-8.65-1.68-13-2.56-1.83-.36-3.64-.81-5.46-1.23a1.31,1.31,0,0,1-1-.83,1.73,1.73,0,0,1,.21-1.69,1.3,1.3,0,0,1,1.44-.46c1.75.31,3.5.61,5.25.94l14.13,2.64a4.87,4.87,0,0,0,1.65.12c2.07-.39,4.13-.85,6.19-1.3a.47.47,0,0,0,.29-.35,6.79,6.79,0,0,0-5-6.62c-1.62-.48-3.25-.88-4.9-1.25l-32.77-7.33c-.47-.11-.69,0-.77.47,0,.15-.08.29-.11.43-.52,2.32-1,4.63-1.55,6.94q-1.63,6.76-3.33,13.52c-.13.51-.09.71.43.88,4.56,1.52,9.11,3.08,13.68,4.59,6.18,2.05,12.39,4,18.56,6.12a14,14,0,0,0,9.25.06c2.88-1,5.81-1.88,8.61-3.09,8.49-3.68,16.93-7.48,25.38-11.24Zm-34.28-54.19c2.41,0,4.82,0,7.22,0a1.54,1.54,0,0,0,.86-.27,106.15,106.15,0,0,0,9.37-8.09,52.32,52.32,0,0,0,6.67-7.58,8.72,8.72,0,0,0,1.48-3.14c.31-1.48-.16-2-1.63-1.64a19.66,19.66,0,0,0-5.76,2.43c-2.35,1.37-4.62,2.86-6.95,4.28-1.46.89-1.74.82-2.82-.49-1.57-1.92-3.11-3.86-4.76-5.71a39.07,39.07,0,0,0-3.13-2.9.83.83,0,0,0-1.2,0c-.49.42-1,.82-1.47,1.27a63.22,63.22,0,0,0-6,7c-1.34,1.73-1.77,1.74-3.62.55-2.26-1.47-4.55-2.92-6.88-4.27a18.88,18.88,0,0,0-5.38-2.2c-1.37-.3-1.92.27-1.54,1.63a10,10,0,0,0,.83,2,24.51,24.51,0,0,0,3.62,4.91,111.66,111.66,0,0,0,13.13,11.94,1.26,1.26,0,0,0,.77.21C1130.85,314.71,1133.24,314.7,1135.62,314.7ZM1077.32,378h.74c3.06,0,6.11-.07,9.16-.08.41,0,.59-.12.69-.51.63-2.49,1.3-5,1.95-7.46,1.75-6.75,3.51-13.5,4.77-20.36.32-1.71.56-3.43.84-5.15a.79.79,0,0,0-.66-1c-.55-.15-1.09-.35-1.65-.48a93.62,93.62,0,0,0-15.21-1.66c-.36,0-.47.12-.48.44,0,.77-.08,1.55-.08,2.33q0,16.41-.07,32.82Zm56.51-39.59a4.15,4.15,0,0,0-2.6,2,3.19,3.19,0,0,0,.92,4.53,12,12,0,0,0,1,.67,5,5,0,0,0,.67.28A51.29,51.29,0,0,0,1133.83,338.42Zm3.53,12c0,.09-.08.14-.08.19,0,1.74,0,3.48,0,5.21a.52.52,0,0,0,.25.38,12,12,0,0,0,1.22.51.82.82,0,0,0,1-.32,3.64,3.64,0,0,0,.57-3.71A4.11,4.11,0,0,0,1137.36,350.45Z" transform="translate(-598.23 -178.23)"/><path class="cls-9" d="M841,338.71l-.24-.28a17.41,17.41,0,0,0-7.15-4.73l-.57-.17a79.56,79.56,0,0,0-8.14-3.21c-.79-.26-1.44-.54-2-.77-4.09-2-4.63-3.2-4.71-3.47l-.21-.48.19-.44a29.65,29.65,0,0,0,6.05-12.48l.13-.3a7.83,7.83,0,0,0,1.59-3.71c1-3.52,1-6.1.15-7.9l-.09-.19,0-.21c1.09-4.55,2.14-13.08-3.09-19a20.61,20.61,0,0,0-10.24-6.4l-3-1A41.5,41.5,0,0,0,801,272a3.78,3.78,0,0,0-1,.14l-.41.06a9,9,0,0,0-4.13.68c-1.76.73-10.65,4.84-13.47,13.56-.46,1.23-1.42,5-.18,13.25l0,.25-.16.21c-1.26,1.69-1.36,4.44-.3,8.15a8.48,8.48,0,0,0,1.6,3.95l.14.3a28.93,28.93,0,0,0,5.55,12.33l.27.36-.25.36a1.31,1.31,0,0,0-.23.49c-.71,2-8.62,5.56-15.56,7.68a16.1,16.1,0,0,0-7.19,5c-6.88,10.2-7.75,32.11-7.79,33.05.11,5.7,2.7,6.86,3.2,7l.43.2c15.21,6.63,37.42,7.93,39.91,8.05l.78,0c.74,0,1.49,0,2.2-.08h.06l.22,0a1.86,1.86,0,0,0,.49.07h.11c1,0,24.86-1.41,39.74-8.09,1.08-.28,3.6-1.57,3.69-7.37C848.72,370.7,847.72,348.74,841,338.71Zm-50-10.36.42-.38.41.39c3.64,3.43,7.67,5.32,11.34,5.32,3.86,0,7.84-1.68,11.52-4.85l.31-.26.8.39a14.33,14.33,0,0,0,2.46,1.79l.76.37-.08.09.3.17c.69.41,1.43.81,2.28,1.23s1.59.66,2.36.92a78.23,78.23,0,0,1,7.93,3.14l.74.23a13.37,13.37,0,0,1,5.65,3.69c6.11,9.06,7.14,28.85,7.24,31.06,0,3.1-.93,3.89-1.16,4.05-13.69,6.12-34.36,7.71-38.36,8h-.11l-.12,0a1.46,1.46,0,0,0-.44-.06h-.14c-1.1.07-2,.11-2.85.11h-.66c-2.49-.15-24.78-1.61-39-8-.29-.12-1.14-1.09-1.2-3.93,0-.21.74-21.57,7.15-31.09A13.11,13.11,0,0,1,774,337c3.06-.94,10.63-3.45,14.77-6.45a2.63,2.63,0,0,0,.53-.47C789.59,329.71,790.22,329,791,328.35Zm-6.5-26.2.14-.17a1.69,1.69,0,0,0,.72-1.68c-1.39-8.38-.48-11.87-.16-12.74,2.42-7.44,10.06-10.93,11.56-11.54a8.32,8.32,0,0,1,1.51-.4l.16,0,1.27-.07v.08l.27,0a6.34,6.34,0,0,0,.79-.12l.29-.06a42.5,42.5,0,0,1,7.62,1.73l3.07,1.05c5.59,1.66,8.2,4.75,8.67,5.37,4.5,5.1,3.3,12.78,2.18,16.91a1.72,1.72,0,0,0,.23,1.38l.24.32c.41.55.57,2.38-.35,5.79a4.71,4.71,0,0,1-1.2,2.61,1.73,1.73,0,0,0-.43.89c-1.52,8.91-9.5,18.87-17.91,18.87-7.15,0-15.3-9.17-16.76-18.86a1.78,1.78,0,0,0-.46-.94,5.29,5.29,0,0,1-1.23-2.9C784,305.05,783.89,303,784.45,302.15Z" transform="translate(-598.23 -178.23)"/><path class="cls-9" d="M796.09,301.12H793.9a1.62,1.62,0,1,1,0-3.24h3.86a.79.79,0,0,0,.79-.78.8.8,0,0,0-.79-.79h-2v-1.5a.79.79,0,1,0-1.57,0v1.5h-.31a3.19,3.19,0,1,0,0,6.38h2.2a1.62,1.62,0,0,1,0,3.24h-3.94a.78.78,0,0,0-.78.78.79.79,0,0,0,.78.79h2.05V309a.79.79,0,1,0,1.57,0V307.5h.36a3.19,3.19,0,0,0,0-6.38Z" transform="translate(-598.23 -178.23)"/><path class="cls-9" d="M812.45,301.12h-2.2a1.62,1.62,0,0,1,0-3.24h3.87a.78.78,0,0,0,.78-.78.79.79,0,0,0-.78-.79h-2v-1.5a.79.79,0,1,0-1.57,0v1.5h-.31a3.19,3.19,0,1,0,0,6.38h2.19a1.62,1.62,0,0,1,0,3.24h-3.93a.79.79,0,0,0-.79.78.8.8,0,0,0,.79.79h2.05V309a.79.79,0,1,0,1.57,0V307.5h.35a3.19,3.19,0,0,0,0-6.38Z" transform="translate(-598.23 -178.23)"/><path class="cls-9" d="M797.59,317.07s-.9,13.12,15.23,0H797.59Z" transform="translate(-598.23 -178.23)"/><path class="cls-2" d="M727,378s80-27,139-18-5,12-5,12l-37,31-63,15Z" transform="translate(-598.23 -178.23)"/></g></g></svg>