<svg xmlns="http://www.w3.org/2000/svg" viewBox="0 0 686.52 842.6"><defs><style>.cls-1{isolation:isolate;}.cls-2{fill:#483c69;}.cls-3{fill:#16254d;}.cls-4{fill:#343973;}.cls-5{fill:#594c99;}.cls-6{fill:#644b9e;}.cls-7{fill:#b56fdf;}.cls-8{fill:#231f20;}.cls-8,.cls-9{opacity:0.2;}.cls-11,.cls-9{fill:#fff;}.cls-10,.cls-9{mix-blend-mode:overlay;}.cls-10{opacity:0.1;}.cls-12{fill:none;stroke:#b56fdf;stroke-miterlimit:10;stroke-width:4px;}</style></defs><g class="cls-1"><g id="Слой_1" data-name="Слой 1"><path class="cls-2" d="M600.67,152.47l82.77,332V142.36A342.64,342.64,0,0,0,600.67,152.47Z" transform="translate(-340.18 14.88)"/><path class="cls-3" d="M521,183.34,683.44,484.45l-82.77-332A339.54,339.54,0,0,0,521,183.34Z" transform="translate(-340.18 14.88)"/><path class="cls-4" d="M521,183.34c-96.45,52.15-165,149.29-177.53,263.29l340,37.82Z" transform="translate(-340.18 14.88)"/><path class="cls-5" d="M535.88,793.15l147.56-308.7-340-37.82a374.78,374.78,0,0,0-2.09,37.82C341.35,620.53,420.82,738.05,535.88,793.15Z" transform="translate(-340.18 14.88)"/><path class="cls-6" d="M535.88,793.15a340.66,340.66,0,0,0,147.56,33.38c136.94,0,255.08-80.48,309.72-196.72L683.44,484.45Z" transform="translate(-340.18 14.88)"/><path class="cls-7" d="M1025.52,484.45c0-188.93-153.15-342.09-342.08-342.09V484.45L993.16,629.81A340.62,340.62,0,0,0,1025.52,484.45Z" transform="translate(-340.18 14.88)"/><path class="cls-8" d="M1026.7,485.62A342.93,342.93,0,0,0,694.34,141.39v-.15l-9.75,0-9.75,0v.15A344.54,344.54,0,0,0,611,148.89l0-.14-9.46,2.32L592,153.39l0,.14a341.45,341.45,0,0,0-62,23.77l-.07-.13-8.6,4.61-.1.06-8.48,4.55.06.12A343.21,343.21,0,0,0,343.45,437.17l-.16,0-1.06,9.7c0,.15,0,.3,0,.45l-.88,7.75h.13c-.8,9.43-1.23,18.9-1.26,28.25a343.22,343.22,0,0,0,185.44,306l-.07.13,8.77,4.24,8.79,4.24.06-.12a343.75,343.75,0,0,0,325.67-24.46A344.06,344.06,0,0,0,989.42,640.12l.14.06,4.17-8.8,4.18-8.81-.12-.06A340.37,340.37,0,0,0,1026.7,485.62Z" transform="translate(-340.18 14.88)"/><path class="cls-9" d="M997.61,484.45a313.88,313.88,0,0,0-305.25-314v-.14H674.52v.13a316.14,316.14,0,0,0-58.4,7.13l0-.13-8.65,2.15-8.67,2.16,0,.13a312.6,312.6,0,0,0-56.66,21.94l-.07-.11-7.86,4.24-.08.05-7.76,4.2.06.11A314.12,314.12,0,0,0,372.11,442.21l-.14,0-.94,8.89c0,.13,0,.27,0,.41l-.78,7.09h.12c-.71,8.63-1.07,17.3-1.07,25.86A314.16,314.16,0,0,0,539.93,764l-.06.12,8,3.85,8.06,3.86,0-.12a314.65,314.65,0,0,0,298-23.38A314.87,314.87,0,0,0,964,626l.13.06,3.79-8.07,3.8-8.08-.11,0A311.46,311.46,0,0,0,997.61,484.45Z" transform="translate(-340.18 14.88)"/><g class="cls-10"><path d="M680.44,145.38V460L604.31,154.67a340,340,0,0,1,76.13-9.29m3-3a342.64,342.64,0,0,0-82.77,10.11l82.77,332V142.36Z" transform="translate(-340.18 14.88)"/><path d="M598.49,156.12l76.27,305.93L525,184.57a336.91,336.91,0,0,1,73.45-28.45m2.18-3.65A339.54,339.54,0,0,0,521,183.34L683.44,484.45l-82.77-332Z" transform="translate(-340.18 14.88)"/><path d="M519.76,187.42,678.08,480.83,346.77,444a339,339,0,0,1,173-256.56m1.21-4.08c-96.45,52.15-165,149.29-177.53,263.29l340,37.82L521,183.34Z" transform="translate(-340.18 14.88)"/><path d="M346,451.4,678.9,487,534.47,789.14A339.11,339.11,0,0,1,344.35,484.45c0-10.94.54-22,1.61-33.05m-2.68-3.3a343.62,343.62,0,0,0-1.93,36.35c0,136.08,79.47,253.6,194.53,308.7l147.56-308.7L343.28,448.1Z" transform="translate(-340.18 14.88)"/><path d="M684.86,488.43l304.3,142.82A339.07,339.07,0,0,1,683.44,823.53a335.92,335.92,0,0,1-143.56-31.8l145-303.3m-1.42-4L535.88,793.15a340.66,340.66,0,0,0,147.56,33.38c136.94,0,255.08-80.48,309.72-196.72L683.44,484.45Z" transform="translate(-340.18 14.88)"/><path d="M686.44,145.38A339.2,339.2,0,0,1,991.71,625.82L686.44,482.54V145.38m-3-3V484.45L993.16,629.81a340.62,340.62,0,0,0,32.36-145.36c0-188.93-153.15-342.09-342.08-342.09Z" transform="translate(-340.18 14.88)"/></g><path class="cls-11" d="M743.5,377.71a7.3,7.3,0,0,1,1.89,5.12,8,8,0,0,1-1.24,4.34,8.6,8.6,0,0,1-3.76,3.19,14.56,14.56,0,0,1-6.2,1.19,21.37,21.37,0,0,1-5.62-.75,14.59,14.59,0,0,1-4.69-2.14l2.44-4.79a11.86,11.86,0,0,0,3.57,1.8,13.87,13.87,0,0,0,4.15.63,6.6,6.6,0,0,0,3.7-.9,2.93,2.93,0,0,0,1.36-2.57c0-2.22-1.69-3.32-5.06-3.32h-2.86v-4.13l5.56-6.3H725.23v-5h18.92v4.06l-6.1,6.95A9.11,9.11,0,0,1,743.5,377.71Z" transform="translate(-340.18 14.88)"/><path class="cls-11" d="M758.71,364.06v27h-6.26v-22h-5.4v-5Z" transform="translate(-340.18 14.88)"/><path class="cls-11" d="M769.67,384.93a3.6,3.6,0,0,1,1.05,2.69,6.26,6.26,0,0,1-.2,1.54,17.07,17.07,0,0,1-.85,2.32l-2.2,5.56h-3.82l1.7-6.14a3.25,3.25,0,0,1-1.53-1.26,3.67,3.67,0,0,1-.56-2,3.58,3.58,0,0,1,1.07-2.69,3.7,3.7,0,0,1,2.68-1A3.63,3.63,0,0,1,769.67,384.93Z" transform="translate(-340.18 14.88)"/><path class="cls-11" d="M790.75,375.18a8.19,8.19,0,0,1,3.36,3,7.91,7.91,0,0,1,1.24,4.42,8.45,8.45,0,0,1-1.35,4.75,8.79,8.79,0,0,1-3.69,3.14,12,12,0,0,1-5.19,1.1q-5.68,0-8.88-3.47T773,378.16a16.61,16.61,0,0,1,1.74-7.88,11.78,11.78,0,0,1,4.85-5,14.79,14.79,0,0,1,7.2-1.7,17.66,17.66,0,0,1,4.15.48,11.22,11.22,0,0,1,3.38,1.37l-2.32,4.6A8.89,8.89,0,0,0,787,368.7a7.38,7.38,0,0,0-5.44,2,8.4,8.4,0,0,0-2.16,5.83,9,9,0,0,1,6.67-2.39A10.57,10.57,0,0,1,790.75,375.18ZM788,385.8a3.66,3.66,0,0,0,1.26-2.93,3.74,3.74,0,0,0-1.26-3,4.89,4.89,0,0,0-3.34-1.1,5,5,0,0,0-3.36,1.14,3.7,3.7,0,0,0-1.31,2.92,3.66,3.66,0,0,0,1.28,2.89,5,5,0,0,0,3.47,1.12A4.8,4.8,0,0,0,788,385.8Z" transform="translate(-340.18 14.88)"/><path class="cls-11" d="M818.63,364.06v4.06l-10,23H801.8l9.69-21.93h-9v4.4H797v-9.5Z" transform="translate(-340.18 14.88)"/><path class="cls-11" d="M833.75,376.63a8.77,8.77,0,0,1,0-10.85,6.77,6.77,0,0,1,9.67,0,8.88,8.88,0,0,1,0,10.85,6.77,6.77,0,0,1-9.67,0Zm6.91-2.22a7.22,7.22,0,0,0,0-6.41,2.49,2.49,0,0,0-4.12,0,7,7,0,0,0,0,6.37,2.49,2.49,0,0,0,4.12,0Zm14-10.35h4.6l-18.46,27h-4.59Zm-1.21,26.43a6.13,6.13,0,0,1-2.38-2.6,9.56,9.56,0,0,1,0-7.88,6.22,6.22,0,0,1,2.38-2.61,6.62,6.62,0,0,1,3.45-.9,6.31,6.31,0,0,1,4.85,2,8.8,8.8,0,0,1,0,10.85,6.32,6.32,0,0,1-4.85,2A6.54,6.54,0,0,1,853.48,390.49Zm5.52-3.36a5.62,5.62,0,0,0,.75-3.18,5.68,5.68,0,0,0-.75-3.19,2.38,2.38,0,0,0-2.07-1.1,2.41,2.41,0,0,0-2,1.08,7.06,7.06,0,0,0,0,6.41,2.41,2.41,0,0,0,2,1.08A2.36,2.36,0,0,0,859,387.13Z" transform="translate(-340.18 14.88)"/><path class="cls-11" d="M727.22,405.57h2.15V424h11.35v1.85h-13.5Z" transform="translate(-340.18 14.88)"/><path class="cls-11" d="M743.82,406.84a1.41,1.41,0,0,1-.44-1,1.4,1.4,0,0,1,.44-1,1.43,1.43,0,0,1,1.07-.44,1.49,1.49,0,0,1,1.07.42,1.35,1.35,0,0,1,.43,1,1.44,1.44,0,0,1-.43,1.07,1.46,1.46,0,0,1-1.07.44A1.43,1.43,0,0,1,743.82,406.84Zm0,3.77h2.06v15.23h-2.06Z" transform="translate(-340.18 14.88)"/><path class="cls-11" d="M765.53,410.61v20.85h-2V423a6.36,6.36,0,0,1-2.45,2.25,7.2,7.2,0,0,1-3.34.76,7.78,7.78,0,0,1-3.9-1,6.91,6.91,0,0,1-2.71-2.73,8.82,8.82,0,0,1,0-8.08,7,7,0,0,1,2.72-2.74,7.93,7.93,0,0,1,3.89-1,7.21,7.21,0,0,1,3.43.81,6.32,6.32,0,0,1,2.44,2.32v-3Zm-4.79,12.81a5.2,5.2,0,0,0,2-2.1,6.82,6.82,0,0,0,0-6.18,5.33,5.33,0,0,0-2-2.1,5.62,5.62,0,0,0-2.88-.75A5.68,5.68,0,0,0,755,413a5.33,5.33,0,0,0-2,2.1,6.82,6.82,0,0,0,0,6.18,5.2,5.2,0,0,0,2,2.1,5.78,5.78,0,0,0,2.91.74A5.72,5.72,0,0,0,760.74,423.42Z" transform="translate(-340.18 14.88)"/><path class="cls-11" d="M785,410.61v15.23h-2v-2.78a5.58,5.58,0,0,1-2.23,2.16,6.68,6.68,0,0,1-3.24.76,5.89,5.89,0,0,1-6.43-6.54v-8.83h2.06v8.63a5.1,5.1,0,0,0,1.18,3.65,4.49,4.49,0,0,0,3.39,1.24,5,5,0,0,0,3.8-1.46,5.71,5.71,0,0,0,1.39-4.07v-8Z" transform="translate(-340.18 14.88)"/><path class="cls-11" d="M790.72,406.84a1.4,1.4,0,0,1-.43-1,1.39,1.39,0,0,1,.43-1,1.47,1.47,0,0,1,1.08-.44,1.49,1.49,0,0,1,1.07.42,1.35,1.35,0,0,1,.43,1,1.44,1.44,0,0,1-.43,1.07,1.53,1.53,0,0,1-2.15,0Zm0,3.77h2.06v15.23h-2.06Z" transform="translate(-340.18 14.88)"/><path class="cls-11" d="M812.44,404.35v21.49h-2v-3a6.23,6.23,0,0,1-2.44,2.34,7.21,7.21,0,0,1-3.43.81,7.73,7.73,0,0,1-3.89-1,7.12,7.12,0,0,1-2.72-2.75,8.76,8.76,0,0,1,0-8.05,7,7,0,0,1,2.72-2.74,7.93,7.93,0,0,1,3.89-1,7.21,7.21,0,0,1,3.34.77,6.41,6.41,0,0,1,2.45,2.24v-9.15Zm-4.79,19.07a5.2,5.2,0,0,0,2-2.1,6.84,6.84,0,0,0,0-6.19,5.2,5.2,0,0,0-2-2.1,5.62,5.62,0,0,0-2.88-.74,5.68,5.68,0,0,0-2.91.74,5.2,5.2,0,0,0-2,2.1,6.84,6.84,0,0,0,0,6.19,5.2,5.2,0,0,0,2,2.1,5.78,5.78,0,0,0,2.91.74A5.72,5.72,0,0,0,807.65,423.42Z" transform="translate(-340.18 14.88)"/><path class="cls-11" d="M818.15,406.84a1.41,1.41,0,0,1-.44-1,1.4,1.4,0,0,1,.44-1,1.45,1.45,0,0,1,1.07-.44,1.49,1.49,0,0,1,1.07.42,1.35,1.35,0,0,1,.43,1,1.44,1.44,0,0,1-.43,1.07,1.46,1.46,0,0,1-1.07.44A1.45,1.45,0,0,1,818.15,406.84Zm0,3.77h2.05v15.23h-2.05Z" transform="translate(-340.18 14.88)"/><path class="cls-11" d="M834,424.91a3.87,3.87,0,0,1-1.44.8,5.86,5.86,0,0,1-1.78.27,4,4,0,0,1-4.46-4.43v-9.2h-2.72v-1.74h2.72v-3.33h2.06v3.33H833v1.74h-4.63v9.09a2.88,2.88,0,0,0,.68,2.07,2.58,2.58,0,0,0,2,.71,3.87,3.87,0,0,0,1.23-.2,3.13,3.13,0,0,0,1-.58Z" transform="translate(-340.18 14.88)"/><path class="cls-11" d="M850.23,410.61l-7.61,17.05a7.35,7.35,0,0,1-2.15,3,4.82,4.82,0,0,1-2.92.89,5.79,5.79,0,0,1-2.06-.35,4.37,4.37,0,0,1-1.65-1l1-1.53a3.8,3.8,0,0,0,2.78,1.16,2.84,2.84,0,0,0,1.78-.58,5.32,5.32,0,0,0,1.37-2l.67-1.48-6.81-15.2h2.15l5.73,12.94,5.73-12.94Z" transform="translate(-340.18 14.88)"/><path class="cls-11" d="M882.2,405.57v20.27h-2.06V409.62l-8,13.64h-1l-8-13.55v16.13h-2.05V405.57h1.76l8.81,15,8.71-15Z" transform="translate(-340.18 14.88)"/><path class="cls-11" d="M888.34,406.84a1.41,1.41,0,0,1-.44-1,1.4,1.4,0,0,1,.44-1,1.45,1.45,0,0,1,1.07-.44,1.49,1.49,0,0,1,1.07.42,1.36,1.36,0,0,1,.44,1,1.45,1.45,0,0,1-.44,1.07,1.46,1.46,0,0,1-1.07.44A1.45,1.45,0,0,1,888.34,406.84Zm0,3.77h2v15.23h-2Z" transform="translate(-340.18 14.88)"/><path class="cls-11" d="M908.48,412.16a6.49,6.49,0,0,1,1.69,4.85v8.83h-2v-8.63a5.06,5.06,0,0,0-1.19-3.62,4.46,4.46,0,0,0-3.39-1.24,5.17,5.17,0,0,0-3.89,1.46,5.5,5.5,0,0,0-1.44,4v8h-2.05V410.61h2v2.81a5.68,5.68,0,0,1,2.34-2.16,7.45,7.45,0,0,1,3.46-.77A6.23,6.23,0,0,1,908.48,412.16Z" transform="translate(-340.18 14.88)"/><path class="cls-11" d="M915.73,406.84a1.4,1.4,0,0,1-.43-1,1.39,1.39,0,0,1,.43-1,1.55,1.55,0,0,1,2.14,0,1.36,1.36,0,0,1,.44,1,1.5,1.5,0,0,1-1.51,1.51A1.46,1.46,0,0,1,915.73,406.84Zm0,3.77h2.06v15.23h-2.06Z" transform="translate(-340.18 14.88)"/><path class="cls-11" d="M935.87,412.16a6.49,6.49,0,0,1,1.69,4.85v8.83h-2v-8.63a5.06,5.06,0,0,0-1.19-3.62,4.46,4.46,0,0,0-3.39-1.24,5.17,5.17,0,0,0-3.89,1.46,5.49,5.49,0,0,0-1.43,4v8h-2.06V410.61h2v2.81a5.72,5.72,0,0,1,2.33-2.16,7.48,7.48,0,0,1,3.46-.77A6.23,6.23,0,0,1,935.87,412.16Z" transform="translate(-340.18 14.88)"/><path class="cls-11" d="M957.31,410.61V424c0,2.58-.63,4.5-1.89,5.74s-3.17,1.87-5.72,1.87a12.9,12.9,0,0,1-4-.62,8.33,8.33,0,0,1-3.09-1.72l1-1.57a7.92,7.92,0,0,0,2.68,1.54,10.23,10.23,0,0,0,3.32.55,5.85,5.85,0,0,0,4.26-1.35,5.69,5.69,0,0,0,1.36-4.18v-1.94a6.27,6.27,0,0,1-2.51,2.2,7.74,7.74,0,0,1-3.43.75,8,8,0,0,1-3.89-.94,7,7,0,0,1-2.76-2.64,7.88,7.88,0,0,1,0-7.65,7,7,0,0,1,2.74-2.61,8.15,8.15,0,0,1,3.91-.93,7.73,7.73,0,0,1,3.5.78,6.32,6.32,0,0,1,2.52,2.26v-2.92Zm-4.8,12.12a5.28,5.28,0,0,0,2.07-2,5.67,5.67,0,0,0,.73-2.89,5.61,5.61,0,0,0-.73-2.88,5.21,5.21,0,0,0-2.06-2,6.16,6.16,0,0,0-3-.71,6.31,6.31,0,0,0-3,.69,5.12,5.12,0,0,0-2,2,6,6,0,0,0,0,5.79,5.23,5.23,0,0,0,2,2,6.21,6.21,0,0,0,3,.71A6.32,6.32,0,0,0,952.51,422.73Z" transform="translate(-340.18 14.88)"/><path class="cls-11" d="M669.18,661.86V667H648.76V662.9l10.42-9.84a10.94,10.94,0,0,0,2.24-2.73,4.86,4.86,0,0,0,.58-2.25,3,3,0,0,0-1.1-2.5,5.17,5.17,0,0,0-3.22-.86,7.47,7.47,0,0,0-3.21.67,6.13,6.13,0,0,0-2.39,2l-4.55-2.94a10.68,10.68,0,0,1,4.36-3.68,14.51,14.51,0,0,1,6.37-1.34,13,13,0,0,1,5.27,1,8.11,8.11,0,0,1,3.51,2.78,7.19,7.19,0,0,1,1.26,4.23,9.42,9.42,0,0,1-.93,4.13,15.86,15.86,0,0,1-3.59,4.4l-6.22,5.87Z" transform="translate(-340.18 14.88)"/><path class="cls-11" d="M689.47,652.36a7.54,7.54,0,0,1,2.73,6.1A8.51,8.51,0,0,1,691,663a8.63,8.63,0,0,1-3.76,3.24,14.37,14.37,0,0,1-6.24,1.22,21.37,21.37,0,0,1-5.62-.75,14.6,14.6,0,0,1-4.69-2.15l2.47-4.78a11.85,11.85,0,0,0,3.55,1.79,13.46,13.46,0,0,0,4.14.64,6.43,6.43,0,0,0,3.7-.93,3,3,0,0,0,1.35-2.59,2.92,2.92,0,0,0-1.4-2.62,9.79,9.79,0,0,0-4.89-.89h-6.91l1.39-15.21h16.49v5H679.26l-.42,5.13H681Q686.76,650.08,689.47,652.36Z" transform="translate(-340.18 14.88)"/><path class="cls-11" d="M701,660.8a3.59,3.59,0,0,1,1,2.68,6.19,6.19,0,0,1-.19,1.54,17.07,17.07,0,0,1-.85,2.32l-2.2,5.56H695l1.69-6.14a3.16,3.16,0,0,1-1.52-1.25,3.7,3.7,0,0,1-.56-2,3.53,3.53,0,0,1,1.06-2.68,3.72,3.72,0,0,1,2.68-1A3.67,3.67,0,0,1,701,660.8Z" transform="translate(-340.18 14.88)"/><path class="cls-11" d="M723.31,653.58a7.24,7.24,0,0,1,1.9,5.11A8.14,8.14,0,0,1,724,663a8.65,8.65,0,0,1-3.76,3.18,14.43,14.43,0,0,1-6.2,1.2,21.32,21.32,0,0,1-5.62-.75,14.6,14.6,0,0,1-4.69-2.15l2.43-4.78a11.73,11.73,0,0,0,3.57,1.79,13.67,13.67,0,0,0,4.15.64,6.55,6.55,0,0,0,3.71-.91,2.91,2.91,0,0,0,1.35-2.57c0-2.21-1.68-3.32-5.06-3.32H711v-4.13l5.56-6.29H705.05v-5H724V644l-6.1,6.95A9.09,9.09,0,0,1,723.31,653.58Z" transform="translate(-340.18 14.88)"/><path class="cls-11" d="M746,653.58a7.27,7.27,0,0,1,1.89,5.11,8.06,8.06,0,0,1-1.24,4.35,8.59,8.59,0,0,1-3.76,3.18,14.4,14.4,0,0,1-6.2,1.2,21.3,21.3,0,0,1-5.61-.75,14.56,14.56,0,0,1-4.7-2.15l2.44-4.78a11.73,11.73,0,0,0,3.57,1.79,13.57,13.57,0,0,0,4.15.64,6.57,6.57,0,0,0,3.71-.91,2.91,2.91,0,0,0,1.35-2.57q0-3.32-5.06-3.32h-2.86v-4.13l5.56-6.29h-11.5v-5h18.91V644l-6.1,6.95A9.12,9.12,0,0,1,746,653.58Z" transform="translate(-340.18 14.88)"/><path class="cls-11" d="M763.1,652.5a8.8,8.8,0,0,1,0-10.85,6.27,6.27,0,0,1,4.85-2,6.19,6.19,0,0,1,4.82,2,8.88,8.88,0,0,1,0,10.85,6.22,6.22,0,0,1-4.82,2A6.29,6.29,0,0,1,763.1,652.5Zm6.91-2.22a7.22,7.22,0,0,0,0-6.41,2.48,2.48,0,0,0-4.11,0,5.45,5.45,0,0,0-.77,3.18,5.51,5.51,0,0,0,.77,3.19,2.48,2.48,0,0,0,4.11,0Zm14-10.35h4.59l-18.45,27h-4.6Zm-1.22,26.43a6.13,6.13,0,0,1-2.37-2.61,9.56,9.56,0,0,1,0-7.88,6,6,0,0,1,2.37-2.6,6.6,6.6,0,0,1,3.46-.91,6.3,6.3,0,0,1,4.84,2,8.8,8.8,0,0,1,0,10.85,6.29,6.29,0,0,1-4.84,2A6.69,6.69,0,0,1,782.83,666.36Zm5.52-3.36a5.68,5.68,0,0,0,.75-3.19,5.62,5.62,0,0,0-.75-3.18,2.35,2.35,0,0,0-2.06-1.1,2.4,2.4,0,0,0-2,1.08,7.06,7.06,0,0,0,0,6.41,2.48,2.48,0,0,0,4.11,0Z" transform="translate(-340.18 14.88)"/><path class="cls-11" d="M664.46,683.29a7,7,0,0,1,0,10.18,9.26,9.26,0,0,1-6.09,1.83h-5.44v6.4h-2.14V681.43h7.58A9.16,9.16,0,0,1,664.46,683.29Zm-1.54,8.81a4.54,4.54,0,0,0,1.59-3.72,4.64,4.64,0,0,0-1.59-3.78,7.1,7.1,0,0,0-4.6-1.31h-5.39v10.13h5.39A7,7,0,0,0,662.92,692.1Z" transform="translate(-340.18 14.88)"/><path class="cls-11" d="M674.6,687.14a7.37,7.37,0,0,1,3.55-.78v2l-.49,0a4.9,4.9,0,0,0-3.77,1.47,5.93,5.93,0,0,0-1.36,4.14v7.76h-2V686.47h2v3A5,5,0,0,1,674.6,687.14Z" transform="translate(-340.18 14.88)"/><path class="cls-11" d="M681.83,682.71a1.43,1.43,0,0,1-.44-1,1.4,1.4,0,0,1,.44-1,1.46,1.46,0,0,1,1.07-.43,1.47,1.47,0,0,1,1.07.42,1.34,1.34,0,0,1,.44,1,1.46,1.46,0,0,1-.44,1.07,1.44,1.44,0,0,1-1.07.43A1.46,1.46,0,0,1,681.83,682.71Zm0,3.76h2V701.7h-2Z" transform="translate(-340.18 14.88)"/><path class="cls-11" d="M702.45,686.47l-6.78,15.23h-2.11l-6.75-15.23H689l5.71,13,5.76-13Z" transform="translate(-340.18 14.88)"/><path class="cls-11" d="M714.78,687.85a5.75,5.75,0,0,1,1.59,4.41v9.44h-2v-2.37a4.74,4.74,0,0,1-2,1.85,7,7,0,0,1-3.2.67,6.25,6.25,0,0,1-4-1.22,3.94,3.94,0,0,1-1.51-3.21,3.88,3.88,0,0,1,1.41-3.13,6.89,6.89,0,0,1,4.47-1.19h4.84v-.92a3.92,3.92,0,0,0-1.1-3,4.59,4.59,0,0,0-3.22-1,8.17,8.17,0,0,0-2.78.48,7,7,0,0,0-2.28,1.32l-.93-1.54a8.37,8.37,0,0,1,2.78-1.52,11,11,0,0,1,3.42-.53A6.42,6.42,0,0,1,714.78,687.85Zm-2.32,11.58a4.8,4.8,0,0,0,1.86-2.3v-2.49h-4.78q-3.91,0-3.91,2.72a2.5,2.5,0,0,0,1,2.1,4.65,4.65,0,0,0,2.84.77A5.41,5.41,0,0,0,712.46,699.43Z" transform="translate(-340.18 14.88)"/><path class="cls-11" d="M730,700.78a3.87,3.87,0,0,1-1.43.79,5.57,5.57,0,0,1-1.78.28,4,4,0,0,1-4.46-4.43v-9.21h-2.72v-1.74h2.72v-3.33h2.06v3.33H729v1.74h-4.63v9.09a2.84,2.84,0,0,0,.68,2.07,2.54,2.54,0,0,0,2,.71,3.87,3.87,0,0,0,1.23-.2,3,3,0,0,0,1-.58Z" transform="translate(-340.18 14.88)"/><path class="cls-11" d="M746.43,694.73H733.69a5.48,5.48,0,0,0,1.82,3.83,6,6,0,0,0,4.17,1.46,6.53,6.53,0,0,0,2.61-.5,5.83,5.83,0,0,0,2.06-1.49l1.15,1.33a6.38,6.38,0,0,1-2.53,1.85,9.1,9.1,0,0,1-7.5-.36,7.16,7.16,0,0,1-2.82-2.77,7.79,7.79,0,0,1-1-4,8.25,8.25,0,0,1,1-4,7.13,7.13,0,0,1,2.67-2.75,7.51,7.51,0,0,1,3.81-1,7.41,7.41,0,0,1,3.79,1,6.94,6.94,0,0,1,2.63,2.74,8.2,8.2,0,0,1,1,4Zm-11-5.2a5.52,5.52,0,0,0-1.69,3.66h10.8a5.48,5.48,0,0,0-1.69-3.66,5.59,5.59,0,0,0-7.42,0Z" transform="translate(-340.18 14.88)"/><path class="cls-11" d="M777.59,702l-2.26-2.22a7.57,7.57,0,0,1-5.47,2.14,7.78,7.78,0,0,1-3-.55,4.88,4.88,0,0,1-2.06-1.54,3.67,3.67,0,0,1-.74-2.26,4,4,0,0,1,.95-2.59,10.22,10.22,0,0,1,3.11-2.36,8.77,8.77,0,0,1-1.54-2,4.05,4.05,0,0,1-.43-1.81,3.29,3.29,0,0,1,1.16-2.62,4.6,4.6,0,0,1,3.13-1,4.39,4.39,0,0,1,2.91.91,3.05,3.05,0,0,1,1.08,2.45,3.46,3.46,0,0,1-.81,2.26,9.61,9.61,0,0,1-2.78,2.05l4.34,4.35a10.31,10.31,0,0,0,1.13-3.07l1.6.46a11.19,11.19,0,0,1-1.51,3.79l2.32,2.32Zm-3.42-3.38-4.89-4.87a9.93,9.93,0,0,0-2.53,1.87,2.75,2.75,0,0,0-.71,1.87,2.42,2.42,0,0,0,1.07,2,4.63,4.63,0,0,0,2.83.8A5.62,5.62,0,0,0,774.17,698.58Zm-5.53-11.33a1.92,1.92,0,0,0-.66,1.51,2.54,2.54,0,0,0,.34,1.29,9.81,9.81,0,0,0,1.42,1.66,10.6,10.6,0,0,0,2.38-1.6,2.14,2.14,0,0,0,.66-1.52,1.76,1.76,0,0,0-.59-1.39,2.48,2.48,0,0,0-1.69-.52A2.76,2.76,0,0,0,768.64,687.25Z" transform="translate(-340.18 14.88)"/><path class="cls-11" d="M662.08,722.08a6.81,6.81,0,0,1,2.72,2.73,8.74,8.74,0,0,1,0,8.08,6.93,6.93,0,0,1-2.71,2.74,7.82,7.82,0,0,1-3.89,1,7.18,7.18,0,0,1-3.34-.77,6.29,6.29,0,0,1-2.45-2.25v8.49h-2.06V721.22h2v3a6.39,6.39,0,0,1,2.45-2.31,7.18,7.18,0,0,1,3.43-.82A7.79,7.79,0,0,1,662.08,722.08ZM661,734a5.16,5.16,0,0,0,2-2.1,6.82,6.82,0,0,0,0-6.18,5.35,5.35,0,0,0-2-2.1,6,6,0,0,0-5.8,0,5.4,5.4,0,0,0-2,2.1,6.82,6.82,0,0,0,0,6.18,5.2,5.2,0,0,0,2,2.1,6.05,6.05,0,0,0,5.8,0Z" transform="translate(-340.18 14.88)"/><path class="cls-11" d="M683.71,721.22v15.23h-2v-2.78a5.58,5.58,0,0,1-2.23,2.16,6.69,6.69,0,0,1-3.24.77,5.9,5.9,0,0,1-6.43-6.55v-8.83h2.06v8.63a5.1,5.1,0,0,0,1.18,3.65,4.47,4.47,0,0,0,3.39,1.24,5,5,0,0,0,3.8-1.46,5.69,5.69,0,0,0,1.39-4.07v-8Z" transform="translate(-340.18 14.88)"/><path class="cls-11" d="M701.2,722.08a6.81,6.81,0,0,1,2.72,2.73,8.68,8.68,0,0,1,0,8.05,6.92,6.92,0,0,1-2.72,2.75,7.7,7.7,0,0,1-3.88,1,7.18,7.18,0,0,1-3.43-.81,6.35,6.35,0,0,1-2.45-2.35v3h-2V715h2.06v9.15a6.29,6.29,0,0,1,2.45-2.25,7.18,7.18,0,0,1,3.34-.77A7.79,7.79,0,0,1,701.2,722.08ZM700.07,734a5.16,5.16,0,0,0,2-2.1,6.25,6.25,0,0,0,.74-3.09,6.32,6.32,0,0,0-.74-3.1,5.16,5.16,0,0,0-2-2.1,5.78,5.78,0,0,0-2.89-.74,5.72,5.72,0,0,0-2.91.74,5.2,5.2,0,0,0-2,2.1,6.43,6.43,0,0,0-.74,3.1,6.36,6.36,0,0,0,.74,3.09,5.2,5.2,0,0,0,2,2.1,6.05,6.05,0,0,0,5.8,0Z" transform="translate(-340.18 14.88)"/><path class="cls-11" d="M709.11,715h2v21.48h-2Z" transform="translate(-340.18 14.88)"/><path class="cls-11" d="M716.87,717.46a1.44,1.44,0,0,1-.44-1.05,1.4,1.4,0,0,1,.44-1,1.44,1.44,0,0,1,1.07-.43,1.49,1.49,0,0,1,1.07.42,1.33,1.33,0,0,1,.43,1,1.47,1.47,0,0,1-1.5,1.51A1.44,1.44,0,0,1,716.87,717.46Zm0,3.76H719v15.23H716.9Z" transform="translate(-340.18 14.88)"/><path class="cls-11" d="M727,735.61a7.14,7.14,0,0,1-2.8-2.76,8,8,0,0,1-1-4,8,8,0,0,1,1-4,7.19,7.19,0,0,1,2.8-2.75,8.17,8.17,0,0,1,4-1,7.88,7.88,0,0,1,3.52.77,5.82,5.82,0,0,1,2.44,2.25l-1.53,1a4.87,4.87,0,0,0-1.91-1.7,5.74,5.74,0,0,0-2.52-.56,6,6,0,0,0-3,.74,5.21,5.21,0,0,0-2.06,2.1,7,7,0,0,0,0,6.21A5.22,5.22,0,0,0,728,734a5.9,5.9,0,0,0,3,.74,5.74,5.74,0,0,0,2.52-.55,4.59,4.59,0,0,0,1.91-1.68l1.53,1a5.81,5.81,0,0,1-2.46,2.25,7.86,7.86,0,0,1-3.5.77A8.17,8.17,0,0,1,727,735.61Z" transform="translate(-340.18 14.88)"/><path class="cls-11" d="M762.68,721.22V734.6c0,2.59-.64,4.5-1.9,5.75s-3.17,1.86-5.72,1.86a12.61,12.61,0,0,1-4-.62,8.23,8.23,0,0,1-3.08-1.72l1-1.56a7.87,7.87,0,0,0,2.68,1.53,9.87,9.87,0,0,0,3.31.55,5.85,5.85,0,0,0,4.26-1.35,5.64,5.64,0,0,0,1.36-4.18v-1.94a6.24,6.24,0,0,1-2.5,2.2,7.81,7.81,0,0,1-3.44.75,8.05,8.05,0,0,1-3.89-.94A6.89,6.89,0,0,1,748,732.3a7.38,7.38,0,0,1-1-3.84,7.28,7.28,0,0,1,1-3.82,6.92,6.92,0,0,1,2.73-2.61,8.18,8.18,0,0,1,3.91-.93,7.74,7.74,0,0,1,3.51.79,6.31,6.31,0,0,1,2.52,2.26v-2.93Zm-4.81,12.12a5.07,5.07,0,0,0,2.07-2,5.71,5.71,0,0,0,.74-2.9,5.61,5.61,0,0,0-.74-2.88,5.14,5.14,0,0,0-2.06-2,6.23,6.23,0,0,0-3-.71,6.31,6.31,0,0,0-3,.69,5.08,5.08,0,0,0-2.06,2,6.05,6.05,0,0,0,0,5.8,5.1,5.1,0,0,0,2.06,2,6.21,6.21,0,0,0,3,.71A6.28,6.28,0,0,0,757.87,733.34Z" transform="translate(-340.18 14.88)"/><path class="cls-11" d="M772.56,721.89a7.36,7.36,0,0,1,3.55-.79v2l-.49,0a4.9,4.9,0,0,0-3.77,1.48,5.93,5.93,0,0,0-1.36,4.14v7.76h-2V721.22h2v3A5,5,0,0,1,772.56,721.89Z" transform="translate(-340.18 14.88)"/><path class="cls-11" d="M789.69,722.6a5.75,5.75,0,0,1,1.6,4.41v9.44h-2v-2.37a4.77,4.77,0,0,1-2,1.85,7.09,7.09,0,0,1-3.2.67,6.28,6.28,0,0,1-4.06-1.22,3.93,3.93,0,0,1-1.5-3.21,3.87,3.87,0,0,1,1.4-3.13,6.89,6.89,0,0,1,4.47-1.19h4.84v-.93a3.9,3.9,0,0,0-1.1-3,4.52,4.52,0,0,0-3.21-1,8.18,8.18,0,0,0-2.79.48,7,7,0,0,0-2.28,1.32l-.93-1.54a8.19,8.19,0,0,1,2.78-1.52,10.74,10.74,0,0,1,3.42-.54A6.4,6.4,0,0,1,789.69,722.6Zm-2.31,11.58a4.78,4.78,0,0,0,1.85-2.3v-2.49h-4.78c-2.6,0-3.91.9-3.91,2.72a2.48,2.48,0,0,0,1,2.1,4.6,4.6,0,0,0,2.83.77A5.45,5.45,0,0,0,787.38,734.18Z" transform="translate(-340.18 14.88)"/><path class="cls-11" d="M809.19,722.77a6.51,6.51,0,0,1,1.7,4.85v8.83h-2.06v-8.63a5.06,5.06,0,0,0-1.18-3.62,4.49,4.49,0,0,0-3.39-1.24,5.24,5.24,0,0,0-3.9,1.46,5.55,5.55,0,0,0-1.43,4v8h-2.06V721.22h2V724a5.72,5.72,0,0,1,2.33-2.16,7.5,7.5,0,0,1,3.46-.77A6.21,6.21,0,0,1,809.19,722.77Z" transform="translate(-340.18 14.88)"/><path class="cls-11" d="M824.5,735.53a4,4,0,0,1-1.44.79,5.82,5.82,0,0,1-1.78.28,4.48,4.48,0,0,1-3.3-1.16,4.42,4.42,0,0,1-1.16-3.27V723H814.1v-1.74h2.72v-3.33h2.06v3.33h4.63V723h-4.63v9.09a2.88,2.88,0,0,0,.68,2.07,2.6,2.6,0,0,0,2,.71,4,4,0,0,0,1.23-.2,3.19,3.19,0,0,0,1-.58Z" transform="translate(-340.18 14.88)"/><path class="cls-11" d="M828.77,736.06a7.54,7.54,0,0,1-2.65-1.35l.93-1.62a7.51,7.51,0,0,0,2.4,1.23,9.53,9.53,0,0,0,3,.48,5.83,5.83,0,0,0,3.09-.65,2.08,2.08,0,0,0,1-1.84A1.65,1.65,0,0,0,836,731a3.53,3.53,0,0,0-1.39-.72,22.31,22.31,0,0,0-2.22-.48,25.79,25.79,0,0,1-3-.71,4.36,4.36,0,0,1-1.92-1.23,3.43,3.43,0,0,1-.8-2.4,3.76,3.76,0,0,1,1.59-3.13,7.16,7.16,0,0,1,4.43-1.22,11.59,11.59,0,0,1,3,.4,8.3,8.3,0,0,1,2.43,1l-.9,1.65a7.74,7.74,0,0,0-4.49-1.3,5.11,5.11,0,0,0-3,.7,2.11,2.11,0,0,0-1,1.82,1.79,1.79,0,0,0,.56,1.39,3.5,3.5,0,0,0,1.41.77,22.54,22.54,0,0,0,2.31.5,29.33,29.33,0,0,1,2.93.7,4.29,4.29,0,0,1,1.88,1.19,3.26,3.26,0,0,1,.78,2.31,3.68,3.68,0,0,1-1.66,3.17,7.86,7.86,0,0,1-4.62,1.18A11.61,11.61,0,0,1,828.77,736.06Z" transform="translate(-340.18 14.88)"/><path class="cls-11" d="M447.79,530.7v5.09H427.37v-4l10.42-9.85a11,11,0,0,0,2.24-2.72,4.9,4.9,0,0,0,.58-2.26,3,3,0,0,0-1.1-2.49,5.11,5.11,0,0,0-3.22-.87,7.41,7.41,0,0,0-3.21.68,6.13,6.13,0,0,0-2.39,2l-4.56-2.94a10.75,10.75,0,0,1,4.36-3.69,14.73,14.73,0,0,1,6.38-1.33,13,13,0,0,1,5.26,1,8.07,8.07,0,0,1,3.52,2.78,7.2,7.2,0,0,1,1.25,4.22,9.57,9.57,0,0,1-.92,4.14,16.19,16.19,0,0,1-3.59,4.4l-6.22,5.87Z" transform="translate(-340.18 14.88)"/><path class="cls-11" d="M455.9,534.6a11.15,11.15,0,0,1-4.11-4.81,19.67,19.67,0,0,1,0-15A11.15,11.15,0,0,1,455.9,510a11.62,11.62,0,0,1,12,0,11.15,11.15,0,0,1,4.11,4.81,19.67,19.67,0,0,1,0,15,11.15,11.15,0,0,1-4.11,4.81,11.62,11.62,0,0,1-12,0Zm9.86-5.76q1.41-2.12,1.41-6.56t-1.41-6.56a4.56,4.56,0,0,0-7.72,0q-1.41,2.12-1.41,6.56t1.41,6.56a4.56,4.56,0,0,0,7.72,0Z" transform="translate(-340.18 14.88)"/><path class="cls-11" d="M488.85,521.33a8.8,8.8,0,0,1,0-10.85,6.29,6.29,0,0,1,4.85-2,6.22,6.22,0,0,1,4.82,2,8.84,8.84,0,0,1,0,10.85,6.19,6.19,0,0,1-4.82,2A6.27,6.27,0,0,1,488.85,521.33Zm6.91-2.22a5.6,5.6,0,0,0,.76-3.2,5.65,5.65,0,0,0-.76-3.21,2.38,2.38,0,0,0-2.06-1.08,2.41,2.41,0,0,0-2.05,1.1,5.59,5.59,0,0,0-.77,3.19,5.53,5.53,0,0,0,.77,3.18,2.48,2.48,0,0,0,4.11,0Zm14-10.34h4.59l-18.45,27h-4.6Zm-1.22,26.42a6,6,0,0,1-2.37-2.6,9.56,9.56,0,0,1,0-7.88,6,6,0,0,1,2.37-2.6,6.6,6.6,0,0,1,3.46-.91,6.26,6.26,0,0,1,4.84,2,8.8,8.8,0,0,1,0,10.85,6.29,6.29,0,0,1-4.84,2A6.6,6.6,0,0,1,508.58,535.19Zm5.52-3.35a7.07,7.07,0,0,0,0-6.38,2.38,2.38,0,0,0-2.06-1.1,2.41,2.41,0,0,0-2,1.09,7,7,0,0,0,0,6.4,2.48,2.48,0,0,0,4.11,0Z" transform="translate(-340.18 14.88)"/><path class="cls-11" d="M431.54,552.12v8H442v1.85H431.54v8.6h-2.15V550.27h13.9v1.85Z" transform="translate(-340.18 14.88)"/><path class="cls-11" d="M449,569.69a7.25,7.25,0,0,1-2.78-2.77,8.33,8.33,0,0,1,0-8,7.13,7.13,0,0,1,2.78-2.75,8.44,8.44,0,0,1,7.93,0,7.11,7.11,0,0,1,2.77,2.75,8.48,8.48,0,0,1,0,8,7.23,7.23,0,0,1-2.77,2.77,8.36,8.36,0,0,1-7.93,0Zm6.87-1.57a5.18,5.18,0,0,0,2-2.1,7,7,0,0,0,0-6.19,5.18,5.18,0,0,0-2-2.1,6.09,6.09,0,0,0-5.82,0,5.18,5.18,0,0,0-2,2.1,6.84,6.84,0,0,0,0,6.19,5.18,5.18,0,0,0,2,2.1,6.09,6.09,0,0,0,5.82,0Z" transform="translate(-340.18 14.88)"/><path class="cls-11" d="M478.65,555.31v15.23h-2v-2.78a5.58,5.58,0,0,1-2.23,2.16,6.74,6.74,0,0,1-3.24.77,5.9,5.9,0,0,1-6.43-6.55v-8.83h2.06v8.63a5.1,5.1,0,0,0,1.18,3.65,4.46,4.46,0,0,0,3.39,1.24,5,5,0,0,0,3.79-1.46,5.64,5.64,0,0,0,1.39-4.07v-8Z" transform="translate(-340.18 14.88)"/><path class="cls-11" d="M496.73,556.86a6.51,6.51,0,0,1,1.7,4.85v8.83h-2.06v-8.63a5.06,5.06,0,0,0-1.19-3.62,4.45,4.45,0,0,0-3.38-1.24,5.23,5.23,0,0,0-3.9,1.46,5.55,5.55,0,0,0-1.43,4v8h-2.06V555.31h2v2.81a5.72,5.72,0,0,1,2.33-2.16,7.5,7.5,0,0,1,3.46-.77A6.23,6.23,0,0,1,496.73,556.86Z" transform="translate(-340.18 14.88)"/><path class="cls-11" d="M518,549.06v21.48h-2v-3a6.25,6.25,0,0,1-2.44,2.35,7.21,7.21,0,0,1-3.43.81,7.67,7.67,0,0,1-3.88-1,7,7,0,0,1-2.73-2.75,8.76,8.76,0,0,1,0-8.05,6.89,6.89,0,0,1,2.73-2.73,7.77,7.77,0,0,1,3.88-1,7.21,7.21,0,0,1,3.34.77,6.36,6.36,0,0,1,2.45,2.25v-9.15Zm-4.79,19.06a5.2,5.2,0,0,0,2-2.1,6.84,6.84,0,0,0,0-6.19,5.2,5.2,0,0,0-2-2.1,5.72,5.72,0,0,0-2.88-.74,5.78,5.78,0,0,0-2.91.74,5.2,5.2,0,0,0-2,2.1,6.84,6.84,0,0,0,0,6.19,5.2,5.2,0,0,0,2,2.1,5.68,5.68,0,0,0,2.91.74A5.62,5.62,0,0,0,513.18,568.12Z" transform="translate(-340.18 14.88)"/><path class="cls-11" d="M533.61,556.69a5.75,5.75,0,0,1,1.59,4.41v9.44h-2v-2.37a4.66,4.66,0,0,1-2,1.85,7.19,7.19,0,0,1-3.2.67,6.25,6.25,0,0,1-4-1.22,4.17,4.17,0,0,1-.1-6.34,6.85,6.85,0,0,1,4.47-1.19h4.84V561a3.9,3.9,0,0,0-1.1-3,4.55,4.55,0,0,0-3.22-1,8.17,8.17,0,0,0-2.78.48,7.06,7.06,0,0,0-2.29,1.32l-.92-1.54a8.19,8.19,0,0,1,2.78-1.52,10.74,10.74,0,0,1,3.42-.54A6.42,6.42,0,0,1,533.61,556.69Zm-2.32,11.58a4.8,4.8,0,0,0,1.86-2.3v-2.49h-4.78c-2.61,0-3.91.9-3.91,2.72a2.5,2.5,0,0,0,1,2.1,4.63,4.63,0,0,0,2.84.77A5.41,5.41,0,0,0,531.29,568.27Z" transform="translate(-340.18 14.88)"/><path class="cls-11" d="M548.81,569.62a3.87,3.87,0,0,1-1.43.79,5.92,5.92,0,0,1-1.78.28,4.47,4.47,0,0,1-3.3-1.16,4.38,4.38,0,0,1-1.16-3.27v-9.21h-2.72v-1.74h2.72V552h2.05v3.33h4.64v1.74h-4.64v9.09a2.88,2.88,0,0,0,.68,2.07,2.62,2.62,0,0,0,2,.71,4,4,0,0,0,1.23-.2,3.13,3.13,0,0,0,1-.58Z" transform="translate(-340.18 14.88)"/><path class="cls-11" d="M552.52,551.55a1.44,1.44,0,0,1-.44-1,1.4,1.4,0,0,1,.44-1,1.46,1.46,0,0,1,1.07-.43,1.49,1.49,0,0,1,1.07.42,1.34,1.34,0,0,1,.44,1,1.47,1.47,0,0,1-.44,1.08,1.55,1.55,0,0,1-2.14,0Zm0,3.76h2.05v15.23h-2.05Z" transform="translate(-340.18 14.88)"/><path class="cls-11" d="M562.59,569.69a7.3,7.3,0,0,1-2.77-2.77,8.33,8.33,0,0,1,0-8,7.18,7.18,0,0,1,2.77-2.75,8.46,8.46,0,0,1,7.94,0,7,7,0,0,1,2.76,2.75,8.48,8.48,0,0,1,0,8,7.13,7.13,0,0,1-2.76,2.77,8.38,8.38,0,0,1-7.94,0Zm6.88-1.57a5.18,5.18,0,0,0,2-2.1,7,7,0,0,0,0-6.19,5.18,5.18,0,0,0-2-2.1,6.09,6.09,0,0,0-5.82,0,5.27,5.27,0,0,0-2,2.1,6.93,6.93,0,0,0,0,6.19,5.27,5.27,0,0,0,2,2.1,6.09,6.09,0,0,0,5.82,0Z" transform="translate(-340.18 14.88)"/><path class="cls-11" d="M590.81,556.86a6.51,6.51,0,0,1,1.7,4.85v8.83h-2.06v-8.63a5,5,0,0,0-1.19-3.62,4.45,4.45,0,0,0-3.38-1.24,5.24,5.24,0,0,0-3.9,1.46,5.55,5.55,0,0,0-1.43,4v8h-2.06V555.31h2v2.81a5.72,5.72,0,0,1,2.33-2.16,7.5,7.5,0,0,1,3.46-.77A6.23,6.23,0,0,1,590.81,556.86Z" transform="translate(-340.18 14.88)"/><path class="cls-11" d="M604.06,546.16h1.88l-9.55,27.28h-1.88Z" transform="translate(-340.18 14.88)"/><path class="cls-11" d="M443.24,605.29l-4.64-6.52a14.13,14.13,0,0,1-1.62.09h-5.44v6.43h-2.15V585H437a9.18,9.18,0,0,1,6.08,1.85,6.31,6.31,0,0,1,2.2,5.1,6.28,6.28,0,0,1-4.63,6.37l4.95,6.95Zm-1.71-9.58a5.24,5.24,0,0,0,0-7.52,7.08,7.08,0,0,0-4.61-1.32h-5.38V597h5.38A7.08,7.08,0,0,0,441.53,595.71Z" transform="translate(-340.18 14.88)"/><path class="cls-11" d="M463.16,598.31H450.42a5.44,5.44,0,0,0,1.82,3.84,6.08,6.08,0,0,0,4.17,1.46,6.57,6.57,0,0,0,2.61-.51,5.56,5.56,0,0,0,2.05-1.49l1.16,1.33a6.65,6.65,0,0,1-2.53,1.86,8.69,8.69,0,0,1-3.35.63,8.49,8.49,0,0,1-4.15-1,7.25,7.25,0,0,1-2.83-2.77,8,8,0,0,1-1-4,8.13,8.13,0,0,1,1-4,7,7,0,0,1,2.66-2.75,7.81,7.81,0,0,1,7.61,0,7,7,0,0,1,2.63,2.73,8.23,8.23,0,0,1,1,4Zm-11.05-5.2a5.52,5.52,0,0,0-1.69,3.67h10.8a5.53,5.53,0,0,0-1.7-3.67,5.6,5.6,0,0,0-7.41,0Z" transform="translate(-340.18 14.88)"/><path class="cls-11" d="M467.92,604.9a7.71,7.71,0,0,1-2.65-1.35l.93-1.62a7.83,7.83,0,0,0,2.4,1.23,9.53,9.53,0,0,0,3,.48,5.83,5.83,0,0,0,3.09-.65,2.1,2.1,0,0,0,1-1.84,1.68,1.68,0,0,0-.55-1.32,3.6,3.6,0,0,0-1.39-.72,18,18,0,0,0-2.23-.48,25.79,25.79,0,0,1-3-.71,4.36,4.36,0,0,1-1.92-1.23,3.43,3.43,0,0,1-.8-2.4,3.76,3.76,0,0,1,1.59-3.13,7.18,7.18,0,0,1,4.43-1.22,11.57,11.57,0,0,1,3,.39,8.3,8.3,0,0,1,2.43,1l-.9,1.65a7.67,7.67,0,0,0-4.49-1.3,5.2,5.2,0,0,0-3,.69,2.14,2.14,0,0,0-1,1.83,1.82,1.82,0,0,0,.56,1.39,3.56,3.56,0,0,0,1.41.77,23.16,23.16,0,0,0,2.31.5,26.78,26.78,0,0,1,2.93.7,4.27,4.27,0,0,1,1.88,1.18,3.29,3.29,0,0,1,.78,2.32,3.68,3.68,0,0,1-1.66,3.17,7.93,7.93,0,0,1-4.62,1.17A11.6,11.6,0,0,1,467.92,604.9Z" transform="translate(-340.18 14.88)"/><path class="cls-11" d="M494.81,598.31H482.07a5.44,5.44,0,0,0,1.82,3.84,6.08,6.08,0,0,0,4.17,1.46,6.57,6.57,0,0,0,2.61-.51,5.56,5.56,0,0,0,2.05-1.49l1.16,1.33a6.65,6.65,0,0,1-2.53,1.86,8.69,8.69,0,0,1-3.35.63,8.49,8.49,0,0,1-4.15-1,7.25,7.25,0,0,1-2.83-2.77,8,8,0,0,1-1-4,8.13,8.13,0,0,1,1-4,7,7,0,0,1,2.66-2.75,7.81,7.81,0,0,1,7.61,0,7,7,0,0,1,2.63,2.73,8.23,8.23,0,0,1,1,4Zm-11.05-5.2a5.52,5.52,0,0,0-1.69,3.67h10.8a5.53,5.53,0,0,0-1.7-3.67,5.6,5.6,0,0,0-7.41,0Z" transform="translate(-340.18 14.88)"/><path class="cls-11" d="M503.16,590.72a7.37,7.37,0,0,1,3.55-.78v2l-.49,0a4.85,4.85,0,0,0-3.77,1.48,5.85,5.85,0,0,0-1.36,4.14v7.76h-2V590.06h2v3A5.12,5.12,0,0,1,503.16,590.72Z" transform="translate(-340.18 14.88)"/><path class="cls-11" d="M523.88,590.06l-6.78,15.23H515l-6.75-15.23h2.15l5.7,13,5.76-13Z" transform="translate(-340.18 14.88)"/><path class="cls-11" d="M539.6,598.31H526.86a5.49,5.49,0,0,0,1.83,3.84,6.08,6.08,0,0,0,4.17,1.46,6.52,6.52,0,0,0,2.6-.51,5.59,5.59,0,0,0,2.06-1.49l1.16,1.33a6.6,6.6,0,0,1-2.54,1.86,8.64,8.64,0,0,1-3.34.63,8.53,8.53,0,0,1-4.16-1,7.29,7.29,0,0,1-2.82-2.77,7.85,7.85,0,0,1-1-4,8.13,8.13,0,0,1,1-4,6.91,6.91,0,0,1,2.66-2.75,7.41,7.41,0,0,1,3.81-1,7.32,7.32,0,0,1,3.79,1,7,7,0,0,1,2.64,2.73,8.34,8.34,0,0,1,1,4Zm-11-5.2a5.53,5.53,0,0,0-1.7,3.67h10.8a5.52,5.52,0,0,0-1.69-3.67,5.26,5.26,0,0,0-3.72-1.4A5.19,5.19,0,0,0,528.56,593.11Z" transform="translate(-340.18 14.88)"/><path class="cls-11" d="M479.13,337.76v27h-6.25v-22h-5.41v-5Z" transform="translate(-340.18 14.88)"/><path class="cls-11" d="M501.54,350.19a7.55,7.55,0,0,1,2.72,6.11,8.49,8.49,0,0,1-1.23,4.49,8.64,8.64,0,0,1-3.76,3.25,14.38,14.38,0,0,1-6.24,1.21,21.32,21.32,0,0,1-5.62-.75,14.59,14.59,0,0,1-4.69-2.14l2.47-4.79a11.73,11.73,0,0,0,3.55,1.79,13.45,13.45,0,0,0,4.13.64,6.55,6.55,0,0,0,3.71-.92,3,3,0,0,0,1.35-2.59,2.92,2.92,0,0,0-1.41-2.63c-.94-.59-2.56-.88-4.88-.88h-6.91l1.39-15.22H502.6v5H491.33l-.42,5.14h2.2Q498.83,347.92,501.54,350.19Z" transform="translate(-340.18 14.88)"/><path class="cls-11" d="M519.15,350.33a8.77,8.77,0,0,1,0-10.85,6.77,6.77,0,0,1,9.67,0,8.88,8.88,0,0,1,0,10.85,6.77,6.77,0,0,1-9.67,0Zm6.91-2.22a7.22,7.22,0,0,0,0-6.41,2.48,2.48,0,0,0-4.11,0,7,7,0,0,0,0,6.37,2.48,2.48,0,0,0,4.11,0Zm14-10.35h4.6l-18.46,27h-4.59Zm-1.21,26.43a6.13,6.13,0,0,1-2.38-2.6,9.56,9.56,0,0,1,0-7.88,6.22,6.22,0,0,1,2.38-2.61,6.66,6.66,0,0,1,3.45-.91,6.32,6.32,0,0,1,4.85,2,8.8,8.8,0,0,1,0,10.85,6.32,6.32,0,0,1-4.85,2A6.56,6.56,0,0,1,538.88,364.19Zm5.52-3.36a7.14,7.14,0,0,0,0-6.37,2.48,2.48,0,0,0-4.11,0,7,7,0,0,0,0,6.41,2.48,2.48,0,0,0,4.11,0Z" transform="translate(-340.18 14.88)"/><path class="cls-11" d="M474.44,381.12h-7.12v-1.85h16.39v1.85h-7.13v18.42h-2.14Z" transform="translate(-340.18 14.88)"/><path class="cls-11" d="M498.36,392.56H485.62a5.44,5.44,0,0,0,1.82,3.84,6.08,6.08,0,0,0,4.17,1.46,6.57,6.57,0,0,0,2.61-.51,5.56,5.56,0,0,0,2-1.49l1.16,1.33a6.65,6.65,0,0,1-2.53,1.86,8.69,8.69,0,0,1-3.35.63,8.39,8.39,0,0,1-4.15-1,7.16,7.16,0,0,1-2.83-2.76,8,8,0,0,1-1-4,8.13,8.13,0,0,1,1-4,7,7,0,0,1,2.66-2.75,7.81,7.81,0,0,1,7.61,0,7,7,0,0,1,2.63,2.73,8.23,8.23,0,0,1,1,4Zm-11.05-5.2a5.52,5.52,0,0,0-1.69,3.67h10.8a5.53,5.53,0,0,0-1.7-3.67,5.6,5.6,0,0,0-7.41,0Z" transform="translate(-340.18 14.88)"/><path class="cls-11" d="M512.05,385.68a5.79,5.79,0,0,1,1.6,4.42v9.44h-2v-2.37a4.83,4.83,0,0,1-2,1.85,7.22,7.22,0,0,1-3.2.66,6.3,6.3,0,0,1-4.06-1.21,4,4,0,0,1-1.5-3.22,3.87,3.87,0,0,1,1.4-3.12,6.83,6.83,0,0,1,4.47-1.19h4.84V390a3.93,3.93,0,0,0-1.1-3,4.55,4.55,0,0,0-3.21-1,8.32,8.32,0,0,0-2.78.47,7.06,7.06,0,0,0-2.29,1.32l-.93-1.53a8,8,0,0,1,2.78-1.52,10.74,10.74,0,0,1,3.42-.54A6.45,6.45,0,0,1,512.05,385.68Zm-2.31,11.59a4.71,4.71,0,0,0,1.85-2.31v-2.49h-4.78c-2.6,0-3.91.91-3.91,2.73a2.48,2.48,0,0,0,1,2.09,4.54,4.54,0,0,0,2.83.77A5.44,5.44,0,0,0,509.74,397.27Z" transform="translate(-340.18 14.88)"/><path class="cls-11" d="M542.73,385.84a6.64,6.64,0,0,1,1.64,4.87v8.83h-2.06v-8.63a5.19,5.19,0,0,0-1.14-3.62,4.17,4.17,0,0,0-3.23-1.25,4.82,4.82,0,0,0-3.73,1.47,5.68,5.68,0,0,0-1.36,4v8h-2.06v-8.63a5.19,5.19,0,0,0-1.14-3.62,4.22,4.22,0,0,0-3.26-1.25,4.83,4.83,0,0,0-3.72,1.47,5.64,5.64,0,0,0-1.38,4v8h-2V384.31h2v2.78a5.57,5.57,0,0,1,2.26-2.15,7.16,7.16,0,0,1,3.33-.75,6.53,6.53,0,0,1,3.32.81,5,5,0,0,1,2.1,2.41,5.86,5.86,0,0,1,2.42-2.36,7.43,7.43,0,0,1,3.6-.86A6,6,0,0,1,542.73,385.84Z" transform="translate(-340.18 14.88)"/><path class="cls-3" d="M395.52,94.66h-4.41v5.68H385V94.66H370.46V90.45L383.2,73.31h6.56L378,89.56h7.26v-5h5.9v5h4.41Z" transform="translate(-340.18 14.88)"/><path class="cls-3" d="M409.7,85.88a8.8,8.8,0,0,1,0-10.85,6.78,6.78,0,0,1,9.68,0,8.88,8.88,0,0,1,0,10.85,6.81,6.81,0,0,1-9.68,0Zm6.92-2.22a7.22,7.22,0,0,0,0-6.41,2.41,2.41,0,0,0-2.07-1.08,2.38,2.38,0,0,0-2.05,1.1,5.53,5.53,0,0,0-.77,3.18,5.59,5.59,0,0,0,.77,3.19,2.49,2.49,0,0,0,4.12,0Zm14-10.35h4.59l-18.45,27h-4.6Zm-1.22,26.43a6.2,6.2,0,0,1-2.37-2.61,9.53,9.53,0,0,1,0-7.87,6.2,6.2,0,0,1,2.37-2.61,6.69,6.69,0,0,1,3.46-.91,6.28,6.28,0,0,1,4.84,2,8.77,8.77,0,0,1,0,10.85,6.28,6.28,0,0,1-4.84,2A6.69,6.69,0,0,1,429.43,99.74ZM435,96.38A7.14,7.14,0,0,0,435,90a2.49,2.49,0,0,0-4.12,0,7.06,7.06,0,0,0,0,6.41,2.49,2.49,0,0,0,4.12,0Z" transform="translate(-340.18 14.88)"/><path class="cls-3" d="M385.28,129.67H374l-2.43,5.42h-2.23l9.27-20.27h2.11L390,135.09h-2.26Zm-.79-1.74-4.86-10.88-4.87,10.88Z" transform="translate(-340.18 14.88)"/><path class="cls-3" d="M406.65,113.6v21.49h-2v-3a6.28,6.28,0,0,1-2.45,2.35,7.18,7.18,0,0,1-3.43.81,7.79,7.79,0,0,1-3.88-1,7,7,0,0,1-2.72-2.75,8.68,8.68,0,0,1,0-8,6.89,6.89,0,0,1,2.72-2.74,7.79,7.79,0,0,1,3.88-1,7.21,7.21,0,0,1,3.34.77,6.34,6.34,0,0,1,2.45,2.24V113.6Zm-4.8,19.07a5.2,5.2,0,0,0,2-2.1,6.86,6.86,0,0,0,0-6.2,5.33,5.33,0,0,0-2-2.1,5.72,5.72,0,0,0-2.88-.74,5.78,5.78,0,0,0-2.91.74,5.4,5.4,0,0,0-2,2.1,6.95,6.95,0,0,0,0,6.2,5.27,5.27,0,0,0,2,2.1,5.78,5.78,0,0,0,2.91.74A5.72,5.72,0,0,0,401.85,132.67Z" transform="translate(-340.18 14.88)"/><path class="cls-3" d="M425.18,119.85l-6.78,15.24h-2.11l-6.75-15.24h2.14l5.71,13,5.76-13Z" transform="translate(-340.18 14.88)"/><path class="cls-3" d="M428.05,116.09a1.43,1.43,0,0,1-.44-1,1.4,1.4,0,0,1,.44-1,1.42,1.42,0,0,1,1.07-.43,1.49,1.49,0,0,1,1.07.42,1.33,1.33,0,0,1,.43,1,1.47,1.47,0,0,1-1.5,1.5A1.42,1.42,0,0,1,428.05,116.09Zm0,3.76h2.06v15.24h-2.06Z" transform="translate(-340.18 14.88)"/><path class="cls-3" d="M436.4,134.7a7.71,7.71,0,0,1-2.65-1.35l.93-1.62a7.72,7.72,0,0,0,2.4,1.23,9.49,9.49,0,0,0,3,.48,5.72,5.72,0,0,0,3.09-.66,2.06,2.06,0,0,0,1-1.83,1.65,1.65,0,0,0-.55-1.32,3.67,3.67,0,0,0-1.39-.73,19.84,19.84,0,0,0-2.23-.47,27.77,27.77,0,0,1-3-.71,4.44,4.44,0,0,1-1.92-1.23,3.39,3.39,0,0,1-.8-2.41,3.76,3.76,0,0,1,1.59-3.12,7.16,7.16,0,0,1,4.43-1.22,11.57,11.57,0,0,1,3,.39,8,8,0,0,1,2.43,1l-.9,1.65a7.67,7.67,0,0,0-4.49-1.3,5.26,5.26,0,0,0-3,.69,2.13,2.13,0,0,0-1,1.82,1.77,1.77,0,0,0,.56,1.39,3.4,3.4,0,0,0,1.4.77,20.53,20.53,0,0,0,2.32.51,27.1,27.1,0,0,1,2.93.69,4.38,4.38,0,0,1,1.88,1.19,3.27,3.27,0,0,1,.78,2.32,3.66,3.66,0,0,1-1.67,3.17,7.9,7.9,0,0,1-4.61,1.17A11.92,11.92,0,0,1,436.4,134.7Z" transform="translate(-340.18 14.88)"/><path class="cls-3" d="M452.28,134.23a7.3,7.3,0,0,1-2.78-2.76,8.41,8.41,0,0,1,0-8,7.23,7.23,0,0,1,2.78-2.76,8.53,8.53,0,0,1,7.94,0,7.11,7.11,0,0,1,2.76,2.76,8.48,8.48,0,0,1,0,8,7.18,7.18,0,0,1-2.76,2.76,8.38,8.38,0,0,1-7.94,0Zm6.88-1.56a5.09,5.09,0,0,0,2-2.1,6.95,6.95,0,0,0,0-6.2,5.21,5.21,0,0,0-2-2.1,6.09,6.09,0,0,0-5.82,0,5.33,5.33,0,0,0-2,2.1,6.86,6.86,0,0,0,0,6.2,5.2,5.2,0,0,0,2,2.1,6.09,6.09,0,0,0,5.82,0Z" transform="translate(-340.18 14.88)"/><path class="cls-3" d="M472.31,120.52a7.3,7.3,0,0,1,3.54-.78v2l-.49,0a4.83,4.83,0,0,0-3.76,1.48,5.86,5.86,0,0,0-1.37,4.14v7.76h-2.05V119.85h2v3A4.92,4.92,0,0,1,472.31,120.52Z" transform="translate(-340.18 14.88)"/><path class="cls-3" d="M480.21,134.7a7.71,7.71,0,0,1-2.65-1.35l.93-1.62a7.83,7.83,0,0,0,2.4,1.23,9.53,9.53,0,0,0,3,.48,5.72,5.72,0,0,0,3.09-.66,2.07,2.07,0,0,0,1-1.83,1.68,1.68,0,0,0-.55-1.32,3.83,3.83,0,0,0-1.39-.73,20.87,20.87,0,0,0-2.23-.47,28,28,0,0,1-3-.71,4.44,4.44,0,0,1-1.92-1.23,3.44,3.44,0,0,1-.8-2.41A3.76,3.76,0,0,1,479.7,121a7.18,7.18,0,0,1,4.43-1.22,11.57,11.57,0,0,1,3,.39,8,8,0,0,1,2.43,1l-.9,1.65a7.67,7.67,0,0,0-4.49-1.3,5.2,5.2,0,0,0-3,.69,2.11,2.11,0,0,0-1,1.82,1.77,1.77,0,0,0,.56,1.39,3.44,3.44,0,0,0,1.41.77,20.27,20.27,0,0,0,2.31.51,27.1,27.1,0,0,1,2.93.69,4.38,4.38,0,0,1,1.88,1.19,3.27,3.27,0,0,1,.78,2.32,3.68,3.68,0,0,1-1.66,3.17,7.93,7.93,0,0,1-4.62,1.17A11.92,11.92,0,0,1,480.21,134.7Z" transform="translate(-340.18 14.88)"/><path class="cls-2" d="M668.31,6.78h-4.4v5.68h-6.1V6.78H643.25V2.57L656-14.57h6.57L650.74,1.69H658V-3.37h5.91V1.69h4.4Z" transform="translate(-340.18 14.88)"/><path class="cls-2" d="M682.5-2a7.68,7.68,0,0,1-1.88-5.43,7.67,7.67,0,0,1,1.88-5.42,6.3,6.3,0,0,1,4.84-2,6.26,6.26,0,0,1,4.83,2A7.75,7.75,0,0,1,694-7.43,7.76,7.76,0,0,1,692.17-2a6.25,6.25,0,0,1-4.83,2A6.29,6.29,0,0,1,682.5-2Zm6.91-2.22a5.64,5.64,0,0,0,.75-3.21,5.62,5.62,0,0,0-.75-3.2,2.38,2.38,0,0,0-2.07-1.08,2.35,2.35,0,0,0-2,1.1,5.45,5.45,0,0,0-.78,3.18,5.5,5.5,0,0,0,.78,3.19,2.38,2.38,0,0,0,2,1.1A2.38,2.38,0,0,0,689.41-4.22Zm14-10.35H708l-18.46,27H685Zm-1.21,26.43a6.16,6.16,0,0,1-2.38-2.61A8.76,8.76,0,0,1,699,5.31a8.75,8.75,0,0,1,.85-3.93,6.16,6.16,0,0,1,2.38-2.61,6.63,6.63,0,0,1,3.45-.91,6.32,6.32,0,0,1,4.85,2,7.66,7.66,0,0,1,1.87,5.42,7.67,7.67,0,0,1-1.87,5.43,6.32,6.32,0,0,1-4.85,2A6.63,6.63,0,0,1,702.23,11.86Zm5.52-3.36a5.65,5.65,0,0,0,.75-3.19,5.64,5.64,0,0,0-.75-3.18,2.48,2.48,0,0,0-4.11,0,5.45,5.45,0,0,0-.78,3.2,5.47,5.47,0,0,0,.78,3.21,2.48,2.48,0,0,0,4.11,0Z" transform="translate(-340.18 14.88)"/><path class="cls-2" d="M666.41,26.94V47.21h-2.06V31l-8,13.64h-1l-8-13.55V47.21h-2V26.94h1.76l8.8,15,8.72-15Z" transform="translate(-340.18 14.88)"/><path class="cls-2" d="M682.48,33.35a5.79,5.79,0,0,1,1.59,4.42v9.44h-2V44.83a4.74,4.74,0,0,1-2,1.86,7.19,7.19,0,0,1-3.2.66,6.25,6.25,0,0,1-4.05-1.21,4.18,4.18,0,0,1-.1-6.35,6.85,6.85,0,0,1,4.47-1.18H682v-.93a3.9,3.9,0,0,0-1.1-3,4.55,4.55,0,0,0-3.21-1,8.13,8.13,0,0,0-2.78.48,7.06,7.06,0,0,0-2.29,1.32l-.92-1.53a7.94,7.94,0,0,1,2.78-1.52,10.73,10.73,0,0,1,3.41-.54A6.47,6.47,0,0,1,682.48,33.35Zm-2.32,11.58a4.68,4.68,0,0,0,1.85-2.3V40.14h-4.77q-3.91,0-3.91,2.72a2.5,2.5,0,0,0,1,2.1,4.63,4.63,0,0,0,2.84.77A5.41,5.41,0,0,0,680.16,44.93Z" transform="translate(-340.18 14.88)"/><path class="cls-2" d="M693.79,32.64a7.3,7.3,0,0,1,3.54-.78v2l-.49,0a4.83,4.83,0,0,0-3.76,1.48,5.85,5.85,0,0,0-1.36,4.14v7.76h-2.06V32h2v3A5,5,0,0,1,693.79,32.64Z" transform="translate(-340.18 14.88)"/><path class="cls-2" d="M706.69,39.56l-3.59,3.3v4.35H701V25.72h2.06V40.29L712.19,32h2.55l-6.52,6.22,7.12,9h-2.51Z" transform="translate(-340.18 14.88)"/><path class="cls-2" d="M731.1,40.23H718.36a5.4,5.4,0,0,0,1.82,3.83,6,6,0,0,0,4.17,1.47A6.57,6.57,0,0,0,727,45a5.67,5.67,0,0,0,2-1.49l1.16,1.33a6.52,6.52,0,0,1-2.53,1.85,8.51,8.51,0,0,1-3.35.64,8.39,8.39,0,0,1-4.15-1,7.22,7.22,0,0,1-2.83-2.76,8,8,0,0,1-1-4,8.07,8.07,0,0,1,1-4,7.06,7.06,0,0,1,2.66-2.76,7.88,7.88,0,0,1,7.61,0,7.08,7.08,0,0,1,2.63,2.74,8.23,8.23,0,0,1,1,4ZM720.05,35a5.52,5.52,0,0,0-1.69,3.66h10.8a5.53,5.53,0,0,0-1.7-3.66,5.6,5.6,0,0,0-7.41,0Z" transform="translate(-340.18 14.88)"/><path class="cls-2" d="M743.35,46.28a4,4,0,0,1-1.44.8,5.86,5.86,0,0,1-1.78.27,4,4,0,0,1-4.46-4.43V33.71H733V32h2.72V28.65h2.06V32h4.63v1.73h-4.63v9.1a2.92,2.92,0,0,0,.68,2.07,2.57,2.57,0,0,0,2,.7,3.61,3.61,0,0,0,1.23-.2,3,3,0,0,0,1-.58Z" transform="translate(-340.18 14.88)"/><path class="cls-2" d="M747.05,28.21a1.42,1.42,0,0,1-.43-1,1.39,1.39,0,0,1,.43-1,1.56,1.56,0,0,1,2.14,0,1.34,1.34,0,0,1,.44,1,1.46,1.46,0,0,1-.44,1.07,1.43,1.43,0,0,1-1.07.44A1.46,1.46,0,0,1,747.05,28.21Zm0,3.77h2.06V47.21h-2.06Z" transform="translate(-340.18 14.88)"/><path class="cls-2" d="M767.19,33.52a6.5,6.5,0,0,1,1.69,4.85v8.84h-2V38.58A5,5,0,0,0,765.64,35a4.46,4.46,0,0,0-3.39-1.25,5.17,5.17,0,0,0-3.89,1.47,5.48,5.48,0,0,0-1.43,4v8h-2.06V32h2v2.8a5.76,5.76,0,0,1,2.33-2.15,7.48,7.48,0,0,1,3.46-.77A6.22,6.22,0,0,1,767.19,33.52Z" transform="translate(-340.18 14.88)"/><path class="cls-2" d="M788.63,32V45.35q0,3.88-1.89,5.75C785.47,52.35,783.57,53,781,53a12.9,12.9,0,0,1-4-.62,8.21,8.21,0,0,1-3.09-1.73L775,49.06a7.6,7.6,0,0,0,2.67,1.53,10,10,0,0,0,3.32.56,5.85,5.85,0,0,0,4.26-1.35,5.7,5.7,0,0,0,1.36-4.19V43.67a6.13,6.13,0,0,1-2.51,2.2,7.61,7.61,0,0,1-3.43.76,8.16,8.16,0,0,1-3.89-.94A6.92,6.92,0,0,1,774,43.05a7.83,7.83,0,0,1,0-7.66,6.77,6.77,0,0,1,2.73-2.6,8.15,8.15,0,0,1,3.91-.93,7.8,7.8,0,0,1,3.51.78,6.38,6.38,0,0,1,2.52,2.26V32Zm-4.8,12.11a5.13,5.13,0,0,0,2.07-2,5.69,5.69,0,0,0,.74-2.9,5.61,5.61,0,0,0-.74-2.88,5.21,5.21,0,0,0-2.06-2,6.65,6.65,0,0,0-6,0,5,5,0,0,0-2.06,2,6,6,0,0,0,0,5.79,5.1,5.1,0,0,0,2.06,2,6,6,0,0,0,3,.71A6.2,6.2,0,0,0,783.83,44.09Z" transform="translate(-340.18 14.88)"/><path class="cls-2" d="M813.74,47.47l-2.26-2.23A8.14,8.14,0,0,1,803,46.83,4.94,4.94,0,0,1,801,45.3a3.69,3.69,0,0,1-.74-2.26,4.07,4.07,0,0,1,1-2.6,10.21,10.21,0,0,1,3.11-2.35,8.71,8.71,0,0,1-1.54-2,3.92,3.92,0,0,1-.43-1.81,3.31,3.31,0,0,1,1.16-2.62,4.65,4.65,0,0,1,3.13-1,4.44,4.44,0,0,1,2.91.91A3.05,3.05,0,0,1,810.61,34a3.46,3.46,0,0,1-.81,2.26A9.61,9.61,0,0,1,807,38.35l4.34,4.34a10.21,10.21,0,0,0,1.13-3.07l1.6.46a11.25,11.25,0,0,1-1.51,3.8l2.32,2.31Zm-3.42-3.39-4.89-4.87a10.22,10.22,0,0,0-2.54,1.87,2.8,2.8,0,0,0-.71,1.87,2.43,2.43,0,0,0,1.08,2,4.63,4.63,0,0,0,2.83.8A5.62,5.62,0,0,0,810.32,44.08Zm-5.53-11.32a1.91,1.91,0,0,0-.67,1.5,2.5,2.5,0,0,0,.35,1.29,9.78,9.78,0,0,0,1.42,1.67,10.91,10.91,0,0,0,2.38-1.61,2.13,2.13,0,0,0,.66-1.52,1.78,1.78,0,0,0-.59-1.39,2.49,2.49,0,0,0-1.7-.52A2.7,2.7,0,0,0,804.79,32.76Z" transform="translate(-340.18 14.88)"/><path class="cls-2" d="M659.63,71.82h2.06v7.73a9.91,9.91,0,0,1-3.36,1.91,12.34,12.34,0,0,1-4.08.67,11.31,11.31,0,0,1-5.48-1.33A9.85,9.85,0,0,1,645,77.1a10.74,10.74,0,0,1,0-10.57,9.89,9.89,0,0,1,3.82-3.69,11.36,11.36,0,0,1,5.5-1.33,11.91,11.91,0,0,1,4.26.74,8.35,8.35,0,0,1,3.27,2.19l-1.33,1.36a8.31,8.31,0,0,0-6.11-2.38,9,9,0,0,0-4.44,1.09,8,8,0,0,0-3.12,3,8.37,8.37,0,0,0-1.13,4.3,8.2,8.2,0,0,0,4.23,7.3,9,9,0,0,0,4.43,1.1,8.78,8.78,0,0,0,5.3-1.57Z" transform="translate(-340.18 14.88)"/><path class="cls-2" d="M671.43,67.39a7.37,7.37,0,0,1,3.55-.78v2l-.49,0a4.88,4.88,0,0,0-3.77,1.47,5.89,5.89,0,0,0-1.36,4.14V82h-2.05V66.72h2v3A5,5,0,0,1,671.43,67.39Z" transform="translate(-340.18 14.88)"/><path class="cls-2" d="M680.8,81.1A7.32,7.32,0,0,1,678,78.33a8.41,8.41,0,0,1,0-8,7.27,7.27,0,0,1,2.78-2.75,8.51,8.51,0,0,1,7.93,0,7.18,7.18,0,0,1,2.77,2.75,8.48,8.48,0,0,1,0,8,7.23,7.23,0,0,1-2.77,2.77,8.36,8.36,0,0,1-7.93,0Zm6.88-1.56a5.15,5.15,0,0,0,2-2.1,7,7,0,0,0,0-6.2,5.09,5.09,0,0,0-2-2.1,6.09,6.09,0,0,0-5.82,0,5.2,5.2,0,0,0-2,2.1,6.86,6.86,0,0,0,0,6.2,5.26,5.26,0,0,0,2,2.1,6.17,6.17,0,0,0,5.82,0Z" transform="translate(-340.18 14.88)"/><path class="cls-2" d="M718.62,66.72,712.85,82h-1.94l-4.8-12.48L701.3,82h-1.94l-5.73-15.23h2l4.77,13,4.9-13H707l4.87,13,4.84-13Z" transform="translate(-340.18 14.88)"/><path class="cls-2" d="M730.17,81a3.74,3.74,0,0,1-1.43.79,5.62,5.62,0,0,1-1.78.28,4.47,4.47,0,0,1-3.3-1.16,4.38,4.38,0,0,1-1.16-3.27V68.46h-2.72V66.72h2.72V63.39h2v3.33h4.64v1.74h-4.64v9.09a2.88,2.88,0,0,0,.68,2.07,2.58,2.58,0,0,0,2,.71,3.69,3.69,0,0,0,1.23-.2,3.06,3.06,0,0,0,1-.58Z" transform="translate(-340.18 14.88)"/><path class="cls-2" d="M746.23,68.27a6.5,6.5,0,0,1,1.69,4.85V82h-2V73.33a5,5,0,0,0-1.19-3.62,4.46,4.46,0,0,0-3.39-1.25,5.2,5.2,0,0,0-3.89,1.46A5.51,5.51,0,0,0,736,74v8h-2.05V60.47H736v8.92a5.53,5.53,0,0,1,2.32-2.06,7.61,7.61,0,0,1,3.39-.72A6.22,6.22,0,0,1,746.23,68.27Z" transform="translate(-340.18 14.88)"/><polyline class="cls-12" points="29.08 167.35 195.7 167.35 245.12 247.64"/><polyline class="cls-12" points="415.93 124.77 301.88 124.77 301.88 232.66"/></g></g></svg>