<?xml version="1.0" encoding="utf-8"?>
<!-- Generator: Adobe Illustrator 22.0.1, SVG Export Plug-In . SVG Version: 6.00 Build 0)  -->
<svg version="1.1" id="Layer_1" xmlns="http://www.w3.org/2000/svg" xmlns:xlink="http://www.w3.org/1999/xlink" x="0px" y="0px"
	 viewBox="0 0 903 576" style="enable-background:new 0 0 903 576;" xml:space="preserve">
<style type="text/css">
	.st0{fill:none;stroke:#3B184F;}
	.st1{fill:#3B184F;}
	.st2{fill:#A53AD5;}
	.st3{fill:#3B184F;stroke:#4D2CA9;}
	.st4{fill:none;stroke:#A53AD5;stroke-width:3;}
	.st5{fill:none;}
	.st6{fill:#3B184F;stroke:#3B184F;}
	.st7{fill:none;stroke:#3B184F;stroke-width:3;}
	.st8{fill:#FFFFFF;}
	.st9{fill:#040404;}
	.st10{fill:#E4127C;}
</style>
<path class="st0" d="M118,470.8h223.9v35c0,12,13,18.6,22.7,10.9l85.4-67.8c6.5-5.5,6.5-16.4,0-21.9l-84.4-67.8
	c-8.7-7.7-22.7-1.1-22.7,10.9v35h-90.6"/>
<path class="st1" d="M328,182.6c-0.1-0.1-0.1-0.2-0.1-0.3s0.1-0.2,0.1-0.3l8.3-8.3c0.1-0.1,0.2-0.1,0.3-0.1c0.1,0,0.2,0,0.3,0.1
	l5.2,5.2c0.1,0.1,0.1,0.2,0.1,0.3s0,0.2-0.1,0.3l-0.5,0.5c-0.1,0.1-0.2,0.1-0.3,0.1c-0.1,0-0.2,0-0.3-0.1l-4.3-4.3l-3,3l4,4
	c0.1,0.1,0.1,0.2,0.1,0.3s0,0.2-0.1,0.3l-0.5,0.5c-0.1,0.1-0.2,0.1-0.3,0.1c-0.1,0-0.2-0.1-0.3-0.1l-4-4l-3.5,3.5
	c-0.1,0.1-0.2,0.1-0.3,0.1c-0.1,0-0.2-0.1-0.3-0.1L328,182.6z M337.4,192.2c-0.9-0.9-1.3-1.8-1.3-2.9c0-1.1,0.5-2.1,1.4-3.1l0.4-0.4
	l0.4-0.4c1-0.9,2-1.3,3-1.3c1.1,0,2,0.4,2.9,1.3c0.9,0.9,1.4,2,1.3,3.1s-0.6,2.2-1.6,3.2l-0.2,0.2c-0.1,0.1-0.2,0.1-0.3,0.1
	c-0.1,0-0.2,0-0.3-0.1l-4.4-4.4l-0.1,0.1c-0.5,0.6-0.8,1.2-0.9,1.9s0.1,1.3,0.7,1.8c0.4,0.4,0.8,0.6,1.2,0.7
	c0.4,0.1,0.8,0.1,1.1,0.1c0.2,0,0.3,0,0.4,0s0.2,0.1,0.3,0.2l0.6,0.6c0.1,0.1,0.1,0.2,0.1,0.3s0,0.2-0.1,0.3c-0.2,0.2-0.5,0.3-1,0.3
	s-1-0.1-1.7-0.3C338.5,193.1,337.9,192.7,337.4,192.2z M343.1,190.1L343.1,190.1c0.6-0.6,1-1.3,1-2s-0.2-1.3-0.7-1.9
	c-0.6-0.6-1.2-0.8-1.9-0.7c-0.7,0.1-1.3,0.4-1.9,1l0,0L343.1,190.1z M344.5,199.3c-0.9-0.9-1.3-1.8-1.3-2.9c0-1.1,0.5-2.1,1.4-3.1
	l0.4-0.4l0.4-0.4c1-0.9,2-1.3,3-1.3c1.1,0,2,0.4,2.9,1.3c0.9,0.9,1.4,2,1.3,3.1s-0.6,2.2-1.6,3.2l-0.2,0.2c-0.1,0.1-0.2,0.1-0.3,0.1
	c-0.1,0-0.2,0-0.3-0.1l-4.4-4.4l-0.1,0.1c-0.5,0.6-0.8,1.2-0.9,1.9s0.1,1.3,0.7,1.8c0.4,0.4,0.8,0.6,1.2,0.7
	c0.4,0.1,0.8,0.1,1.1,0.1c0.2,0,0.3,0,0.4,0s0.2,0.1,0.3,0.2l0.6,0.6c0.1,0.1,0.1,0.2,0.1,0.3s0,0.2-0.1,0.3c-0.2,0.2-0.5,0.3-1,0.3
	s-1-0.1-1.7-0.3C345.6,200.2,345,199.8,344.5,199.3z M350.2,197.2L350.2,197.2c0.6-0.6,1-1.3,1-2c0.1-0.7-0.2-1.3-0.7-1.9
	c-0.6-0.6-1.2-0.8-1.9-0.7c-0.7,0.1-1.3,0.4-1.9,1l0,0L350.2,197.2z M351.2,206c-0.6-0.6-1-1.2-1.2-1.8s-0.3-1.1-0.2-1.6
	c0-0.4,0.2-0.7,0.3-0.9c0.1-0.1,0.2-0.1,0.3-0.1c0.1,0,0.2,0,0.3,0.1l0.5,0.5c0.1,0.1,0.1,0.1,0.1,0.1c0,0.1,0,0.1,0,0.2
	c0,0.4,0,0.8,0.1,1.2s0.4,0.8,0.8,1.2c0.5,0.5,0.9,0.7,1.3,0.8c0.5,0.1,0.8,0,1.2-0.3c0.2-0.2,0.3-0.4,0.3-0.7
	c0-0.2-0.1-0.6-0.3-0.9c-0.2-0.4-0.5-0.9-0.9-1.6c-0.6-0.9-0.9-1.7-0.9-2.3s0.2-1.2,0.7-1.6c0.3-0.3,0.7-0.5,1.2-0.6s1-0.1,1.5,0.1
	c0.6,0.2,1.1,0.5,1.6,1s0.9,1.1,1.1,1.6c0.2,0.6,0.3,1.1,0.2,1.5c0,0.4-0.1,0.7-0.3,0.9c-0.1,0.1-0.2,0.1-0.3,0.1
	c-0.1,0-0.2,0-0.3-0.1l-0.5-0.5c-0.1-0.1-0.2-0.3-0.1-0.4c0-0.3,0-0.6,0-0.7c0-0.2-0.1-0.4-0.2-0.6c-0.1-0.3-0.3-0.5-0.6-0.8
	c-0.4-0.4-0.8-0.6-1.2-0.7c-0.4-0.1-0.7,0.1-1,0.4c-0.2,0.2-0.3,0.4-0.3,0.6c0,0.2,0,0.5,0.2,0.9s0.4,0.9,0.9,1.5c0.6,1,1,1.8,1,2.4
	c0,0.7-0.2,1.2-0.7,1.7c-0.4,0.4-0.8,0.6-1.3,0.7c-0.5,0.1-1,0-1.6-0.2C352.4,207,351.8,206.6,351.2,206z"/>
<path class="st1" d="M516.9,94c0,0.1,0,0.2-0.1,0.3c-0.1,0.1-0.2,0.1-0.3,0.1h-11.8c-0.1,0-0.2,0-0.3-0.1c-0.1-0.1-0.1-0.2-0.1-0.3
	v-7.3c0-0.1,0-0.2,0.1-0.3c0.1-0.1,0.2-0.1,0.3-0.1h0.7c0.1,0,0.2,0,0.3,0.1c0.1,0.1,0.1,0.2,0.1,0.3v6h4.3V87c0-0.1,0-0.2,0.1-0.3
	c0.1-0.1,0.2-0.1,0.3-0.1h0.7c0.1,0,0.2,0,0.3,0.1c0.1,0.1,0.1,0.2,0.1,0.3v5.7h4.9c0.1,0,0.2,0,0.3,0.1s0.1,0.2,0.1,0.3V94z
	 M517.1,80.6c0,1.2-0.4,2.2-1.1,2.9c-0.8,0.7-1.8,1.1-3.1,1.2h-0.6h-0.6c-1.3-0.1-2.3-0.5-3.1-1.2c-0.8-0.7-1.2-1.7-1.2-2.9
	c0-1.3,0.4-2.3,1.3-3.1c0.8-0.7,2-1.1,3.4-1.1h0.3c0.1,0,0.2,0,0.3,0.1s0.1,0.2,0.1,0.3V83h0.2c0.8,0,1.4-0.3,2-0.7s0.8-1,0.8-1.8
	c0-0.6-0.1-1-0.3-1.4s-0.5-0.6-0.7-0.8c-0.1-0.1-0.2-0.2-0.3-0.3c0-0.1-0.1-0.2-0.1-0.3v-0.8c0-0.1,0-0.2,0.1-0.3
	c0.1-0.1,0.1-0.1,0.2-0.1c0.3,0,0.6,0.2,1,0.5s0.7,0.8,1,1.4C517,79.2,517.1,79.9,517.1,80.6z M511.6,78.1L511.6,78.1
	c-0.9,0-1.6,0.2-2.1,0.7s-0.8,1.1-0.8,1.8c0,0.8,0.3,1.4,0.8,1.8s1.2,0.7,2.1,0.7h0.1v-5H511.6z M517.1,70.6c0,1.2-0.4,2.2-1.1,2.9
	c-0.8,0.7-1.8,1.1-3.1,1.2h-0.6h-0.6c-1.3-0.1-2.3-0.5-3.1-1.2s-1.2-1.7-1.2-2.9c0-1.3,0.4-2.3,1.3-3.1c0.8-0.7,2-1.1,3.4-1.1h0.3
	c0.1,0,0.2,0,0.3,0.1s0.1,0.2,0.1,0.3V73h0.2c0.8,0,1.4-0.3,2-0.7s0.8-1,0.8-1.8c0-0.6-0.1-1-0.3-1.4s-0.5-0.6-0.7-0.8
	c-0.1-0.1-0.2-0.2-0.3-0.3c0-0.1-0.1-0.2-0.1-0.3v-0.8c0-0.1,0-0.2,0.1-0.3c0.1-0.1,0.1-0.1,0.2-0.1c0.3,0,0.6,0.2,1,0.5
	s0.7,0.8,1,1.4C517,69.1,517.1,69.8,517.1,70.6z M511.6,68.1L511.6,68.1c-0.9,0-1.6,0.2-2.1,0.7s-0.8,1.1-0.8,1.8
	c0,0.8,0.3,1.4,0.8,1.8s1.2,0.7,2.1,0.7h0.1v-5H511.6z M517.1,61c0,0.8-0.1,1.5-0.4,2.1c-0.3,0.6-0.6,1-0.9,1.3
	c-0.3,0.3-0.6,0.4-0.9,0.4c-0.1,0-0.2,0-0.3-0.1s-0.1-0.2-0.1-0.3v-0.8c0-0.1,0-0.1,0-0.2c0,0,0.1-0.1,0.2-0.2
	c0.3-0.3,0.6-0.6,0.8-0.9c0.2-0.3,0.3-0.8,0.3-1.4c0-0.6-0.1-1.2-0.4-1.5c-0.2-0.4-0.6-0.6-1-0.6c-0.3,0-0.5,0.1-0.7,0.3
	s-0.3,0.5-0.5,0.8c-0.1,0.4-0.3,1-0.5,1.7c-0.2,1-0.6,1.8-1,2.2c-0.4,0.4-1,0.6-1.7,0.6c-0.4,0-0.9-0.1-1.3-0.4
	c-0.4-0.3-0.8-0.7-1-1.2c-0.3-0.5-0.4-1.2-0.4-1.9c0-0.8,0.1-1.4,0.4-1.9s0.5-0.9,0.9-1.2c0.3-0.3,0.6-0.4,0.8-0.4
	c0.1,0,0.2,0,0.3,0.1c0.1,0.1,0.1,0.2,0.1,0.3v0.7c0,0.2-0.1,0.3-0.2,0.4c-0.2,0.2-0.4,0.4-0.5,0.5s-0.2,0.3-0.3,0.6
	c-0.1,0.3-0.1,0.6-0.1,1c0,0.6,0.1,1,0.4,1.3c0.2,0.3,0.6,0.5,1,0.5c0.3,0,0.5-0.1,0.6-0.2c0.2-0.1,0.3-0.4,0.5-0.8
	c0.1-0.4,0.3-0.9,0.4-1.7c0.2-1.1,0.6-1.9,1-2.4s1-0.7,1.7-0.7c0.5,0,1,0.1,1.4,0.4c0.4,0.3,0.8,0.7,1,1.3
	C517,59.5,517.1,60.2,517.1,61z"/>
<path class="st1" d="M706.7,113.4c-0.1,0.1-0.2,0.1-0.3,0.1s-0.2-0.1-0.3-0.1l-8.5-8.1c-0.1-0.1-0.1-0.2-0.1-0.3
	c0-0.1,0-0.2,0.1-0.3l5-5.3c0.1-0.1,0.2-0.1,0.3-0.1s0.2,0,0.3,0.1l0.5,0.5c0.1,0.1,0.1,0.2,0.1,0.3c0,0.1,0,0.2-0.1,0.3l-4.1,4.4
	l3.1,2.9l3.9-4.1c0.1-0.1,0.2-0.1,0.3-0.1s0.2,0,0.3,0.1l0.5,0.5c0.1,0.1,0.1,0.2,0.1,0.3c0,0.1-0.1,0.2-0.1,0.3l-3.9,4.1l3.6,3.4
	c0.1,0.1,0.1,0.2,0.1,0.3c0,0.1,0,0.2-0.1,0.3L706.7,113.4z M716,103.8c-0.8,0.9-1.8,1.3-2.8,1.4c-1.1,0-2.1-0.4-3.1-1.3l-0.5-0.4
	l-0.4-0.4c-0.9-0.9-1.4-1.9-1.4-3c-0.1-1.1,0.3-2,1.2-2.9c0.9-1,1.9-1.4,3-1.4s2.2,0.6,3.2,1.6l0.2,0.2c0.1,0.1,0.1,0.2,0.1,0.3
	c0,0.1,0,0.2-0.1,0.3l-4.3,4.5l0.1,0.1c0.6,0.5,1.2,0.8,1.9,0.9s1.3-0.2,1.8-0.7c0.4-0.4,0.6-0.8,0.7-1.2c0.1-0.4,0.1-0.8,0-1.1
	c0-0.2,0-0.3,0-0.4s0.1-0.2,0.2-0.3l0.5-0.6c0.1-0.1,0.2-0.1,0.3-0.1s0.2,0,0.3,0.1c0.2,0.2,0.3,0.5,0.4,1c0,0.5,0,1.1-0.2,1.7
	S716.5,103.2,716,103.8z M713.7,98.2L713.7,98.2c-0.6-0.6-1.3-0.9-2-1c-0.7,0-1.3,0.2-1.8,0.8c-0.5,0.6-0.8,1.2-0.7,1.9
	c0.1,0.7,0.4,1.3,1,1.9l0,0L713.7,98.2z M722.9,96.5c-0.8,0.9-1.8,1.3-2.8,1.4c-1.1,0-2.1-0.4-3.1-1.3l-0.5-0.4l-0.4-0.4
	c-0.9-0.9-1.4-1.9-1.4-3c-0.1-1.1,0.3-2,1.2-2.9c0.9-1,1.9-1.4,3-1.4s2.2,0.6,3.2,1.6l0.2,0.2c0.1,0.1,0.1,0.2,0.1,0.3
	c0,0.1,0,0.2-0.1,0.3l-4.3,4.5l0.1,0.1c0.6,0.5,1.2,0.8,1.9,0.9s1.3-0.2,1.8-0.7c0.4-0.4,0.6-0.8,0.7-1.2c0.1-0.4,0.1-0.8,0-1.1
	c0-0.2,0-0.3,0-0.4s0.1-0.2,0.2-0.3l0.5-0.6c0.1-0.1,0.2-0.1,0.3-0.1s0.2,0,0.3,0.1c0.2,0.2,0.3,0.5,0.4,1c0,0.5,0,1-0.2,1.7
	C723.8,95.4,723.4,95.9,722.9,96.5z M720.6,90.9L720.6,90.9c-0.7-0.6-1.3-0.9-2-1s-1.3,0.2-1.8,0.8c-0.5,0.6-0.8,1.2-0.7,1.9
	c0.1,0.7,0.4,1.3,1,1.9l0,0L720.6,90.9z M729.5,89.6c-0.6,0.6-1.1,1-1.7,1.3c-0.6,0.2-1.1,0.3-1.5,0.3s-0.7-0.1-0.9-0.3
	c-0.1-0.1-0.1-0.2-0.1-0.3c0-0.1,0-0.2,0.1-0.3l0.5-0.5c0-0.1,0.1-0.1,0.1-0.1s0.1,0,0.2,0c0.4,0,0.8,0,1.2-0.1s0.8-0.4,1.2-0.8
	c0.4-0.5,0.7-0.9,0.8-1.4s0-0.8-0.3-1.1c-0.2-0.2-0.5-0.3-0.7-0.3s-0.6,0.1-0.9,0.3c-0.4,0.2-0.9,0.5-1.5,0.9
	c-0.9,0.6-1.6,0.9-2.2,0.9c-0.6,0-1.2-0.2-1.7-0.7c-0.3-0.3-0.5-0.7-0.7-1.2c-0.1-0.5-0.1-1,0.1-1.5c0.2-0.6,0.5-1.1,1-1.6
	s1.1-0.9,1.6-1.1c0.6-0.2,1-0.3,1.5-0.3c0.4,0,0.7,0.1,0.9,0.3c0.1,0.1,0.1,0.2,0.1,0.3c0,0.1,0,0.2-0.1,0.3l-0.5,0.5
	c-0.1,0.1-0.2,0.2-0.4,0.1c-0.3,0-0.6,0-0.7,0c-0.2,0-0.4,0.1-0.6,0.2c-0.3,0.1-0.5,0.3-0.8,0.6c-0.4,0.4-0.6,0.8-0.7,1.2
	c0,0.4,0.1,0.7,0.4,1c0.2,0.2,0.4,0.3,0.6,0.3c0.2,0,0.5-0.1,0.9-0.2c0.4-0.2,0.8-0.5,1.5-0.9c1-0.7,1.8-1,2.4-1
	c0.7,0,1.2,0.2,1.7,0.7c0.4,0.4,0.6,0.8,0.7,1.3c0.1,0.5,0,1-0.2,1.6C730.4,88.4,730,89,729.5,89.6z"/>
<path class="st1" d="M383.3,120.1c-0.7-0.7-1.2-1.4-1.5-2.2c-0.3-0.7-0.4-1.4-0.3-2s0.4-1.2,0.8-1.6c0.1-0.1,0.2-0.1,0.3-0.1
	c0.1,0,0.2,0,0.3,0.1l0.6,0.6c0.2,0.2,0.2,0.3,0.1,0.6c-0.3,0.4-0.4,1-0.3,1.6s0.5,1.3,1.2,1.9c0.7,0.7,1.4,1.1,2,1.2
	s1.1-0.1,1.6-0.5c0.3-0.3,0.4-0.6,0.4-1s-0.1-0.8-0.3-1.3c-0.2-0.5-0.5-1.2-1-2.1c-0.5-0.8-0.8-1.6-1-2.2s-0.2-1.1-0.1-1.6
	s0.4-1,0.9-1.5s1-0.7,1.6-0.9c0.6-0.1,1.3,0,1.9,0.2c0.7,0.3,1.3,0.7,2,1.3c0.7,0.7,1.1,1.3,1.3,2c0.2,0.7,0.3,1.4,0.2,2
	c-0.1,0.6-0.3,1.1-0.7,1.5c-0.1,0.1-0.2,0.1-0.3,0.1s-0.2,0-0.3-0.1l-0.6-0.6c-0.1-0.1-0.1-0.2-0.1-0.3s0-0.2,0.1-0.3
	c0.3-0.4,0.4-0.9,0.3-1.5s-0.4-1.2-1-1.7c-0.6-0.6-1.1-0.9-1.7-1s-1.1,0-1.5,0.5c-0.3,0.3-0.5,0.6-0.5,1c0,0.3,0.1,0.8,0.2,1.2
	c0.2,0.5,0.5,1.1,0.9,1.9c0.5,0.9,0.9,1.7,1.1,2.3c0.2,0.6,0.3,1.2,0.2,1.7c-0.1,0.5-0.4,1-0.9,1.5c-0.8,0.8-1.7,1.1-2.8,1
	C385.4,121.7,384.3,121.1,383.3,120.1z M390.8,127.6c-0.9-0.9-1.3-1.8-1.3-2.9s0.5-2.1,1.4-3.1l0.4-0.4l0.4-0.4c1-0.9,2-1.3,3-1.3
	c1.1,0,2,0.4,2.9,1.3s1.4,2,1.3,3.1s-0.6,2.2-1.6,3.2l-0.2,0.2c-0.1,0.1-0.2,0.1-0.3,0.1c-0.1,0-0.2,0-0.3-0.1l-4.4-4.4L392,123
	c-0.5,0.6-0.8,1.2-0.9,1.9c-0.1,0.7,0.1,1.3,0.7,1.8c0.4,0.4,0.8,0.6,1.2,0.7c0.4,0.1,0.8,0.1,1.1,0.1c0.2,0,0.3,0,0.4,0
	s0.2,0.1,0.3,0.2l0.6,0.6c0.1,0.1,0.1,0.2,0.1,0.3s0,0.2-0.1,0.3c-0.2,0.2-0.5,0.3-1,0.3s-1-0.1-1.7-0.3
	C391.9,128.5,391.4,128.2,390.8,127.6z M396.5,125.5L396.5,125.5c0.6-0.6,1-1.3,1-2c0.1-0.7-0.2-1.3-0.7-1.9
	c-0.6-0.6-1.2-0.8-1.9-0.7c-0.7,0.1-1.3,0.4-1.9,1l0,0L396.5,125.5z M398,134.8c-0.9-0.9-1.4-1.9-1.4-2.9s0.5-2,1.4-3l0.5-0.5
	l0.5-0.5c1-0.9,1.9-1.3,3-1.3c1,0,2,0.4,2.9,1.3c0.6,0.6,1,1.2,1.2,1.9c0.2,0.6,0.3,1.2,0.1,1.7c-0.1,0.5-0.3,1-0.6,1.3
	c-0.1,0.1-0.2,0.1-0.3,0.1c-0.1,0-0.2,0-0.3-0.1l-0.6-0.6c-0.1-0.1-0.1-0.2-0.1-0.2c0-0.1,0-0.2,0.1-0.3c0.3-0.6,0.3-1.1,0.2-1.5
	c-0.1-0.4-0.3-0.9-0.7-1.3c-0.5-0.5-1.1-0.8-1.8-0.8c-0.6,0-1.3,0.4-2,1l-0.5,0.4l-0.4,0.5c-0.7,0.7-1,1.4-1,2s0.2,1.2,0.8,1.8
	c0.4,0.4,0.8,0.7,1.3,0.8c0.4,0.1,0.9,0,1.5-0.3c0.1-0.1,0.3-0.1,0.3-0.1c0.1,0,0.2,0,0.3,0.1l0.6,0.6c0.1,0.1,0.1,0.2,0.1,0.3
	s0,0.2-0.1,0.3c-0.3,0.3-0.8,0.5-1.3,0.6s-1.1,0.1-1.8-0.1C399.2,135.8,398.6,135.4,398,134.8z M404.8,141.6
	c-0.8-0.8-1.2-1.7-1.1-2.6c0.1-1,0.6-1.9,1.4-2.7l3.6-3.6c0.1-0.1,0.2-0.1,0.3-0.1c0.1,0,0.2,0,0.3,0.1l0.6,0.6
	c0.1,0.1,0.1,0.2,0.1,0.3s0,0.2-0.1,0.3l-3.5,3.5c-1.3,1.3-1.4,2.5-0.3,3.6c0.5,0.5,1.1,0.8,1.8,0.8c0.7,0,1.3-0.3,1.9-0.9l3.5-3.5
	c0.1-0.1,0.2-0.1,0.3-0.1c0.1,0,0.2,0,0.3,0.1l0.6,0.6c0.1,0.1,0.1,0.2,0.1,0.3s0,0.2-0.1,0.3l-6,6c-0.1,0.1-0.2,0.1-0.3,0.1
	c-0.1,0-0.2,0-0.3-0.1l-0.5-0.5c-0.1-0.1-0.1-0.2-0.1-0.3s0.1-0.2,0.1-0.3l0.6-0.6c-0.6,0.1-1.1,0-1.6-0.1
	C405.8,142.4,405.3,142.1,404.8,141.6z M410.4,146.9c-0.1-0.1-0.1-0.2-0.1-0.3s0.1-0.2,0.1-0.3l6-6c0.1-0.1,0.2-0.1,0.3-0.1
	c0.1,0,0.2,0,0.3,0.1l0.5,0.5c0.1,0.1,0.1,0.2,0.1,0.3s0,0.2-0.1,0.3L417,142c0.9-0.2,1.8,0.1,2.6,0.9l0.5,0.5
	c0.1,0.1,0.1,0.2,0.1,0.3s0,0.2-0.1,0.3l-0.5,0.5c-0.1,0.1-0.2,0.1-0.3,0.1c-0.1,0-0.2,0-0.3-0.1l-0.7-0.7c-0.5-0.5-1-0.7-1.5-0.7
	s-1,0.2-1.5,0.7l-3.8,3.8c-0.1,0.1-0.2,0.1-0.3,0.1c-0.1,0-0.2-0.1-0.3-0.1L410.4,146.9z M422.9,143.7c-0.1-0.1-0.1-0.2-0.1-0.3
	s0.1-0.2,0.1-0.3l0.7-0.7c0.1-0.1,0.2-0.1,0.3-0.1c0.1,0,0.2,0,0.3,0.1l0.8,0.8c0.1,0.1,0.1,0.2,0.1,0.3s0,0.2-0.1,0.3l-0.7,0.7
	c-0.1,0.1-0.2,0.1-0.3,0.1c-0.1,0-0.2-0.1-0.3-0.1L422.9,143.7z M415.1,151.7c-0.1-0.1-0.1-0.2-0.1-0.3s0.1-0.2,0.1-0.3l6-6
	c0.1-0.1,0.2-0.1,0.3-0.1c0.1,0,0.2,0,0.3,0.1l0.6,0.6c0.1,0.1,0.1,0.2,0.1,0.3s0,0.2-0.1,0.3l-6,6c-0.1,0.1-0.2,0.1-0.3,0.1
	c-0.1,0-0.2,0-0.3-0.1L415.1,151.7z M420.5,157c-1.3-1.3-1.2-2.7,0.3-4.2l3.4-3.4l-1-1c-0.1-0.1-0.1-0.2-0.1-0.3s0-0.2,0.1-0.3
	l0.4-0.4c0.1-0.1,0.2-0.1,0.3-0.1c0.1,0,0.2,0,0.3,0.1l1,1l2.1-2.1c0.1-0.1,0.2-0.1,0.3-0.1c0.1,0,0.2,0,0.3,0.1l0.6,0.6
	c0.1,0.1,0.1,0.2,0.1,0.3s0,0.2-0.1,0.3l-2.1,2.1l1.6,1.6c0.1,0.1,0.1,0.2,0.1,0.3s0,0.2-0.1,0.3l-0.4,0.4c-0.1,0.1-0.2,0.1-0.3,0.1
	c-0.1,0-0.2,0-0.3-0.1l-1.6-1.6l-3.3,3.3c-0.4,0.4-0.7,0.8-0.8,1.2c-0.1,0.4,0.1,0.7,0.4,1.1l0.8,0.8c0.1,0.1,0.1,0.2,0.1,0.3
	s0,0.2-0.1,0.3l-0.4,0.4c-0.1,0.1-0.2,0.1-0.3,0.1c-0.1,0-0.2,0-0.3-0.1L420.5,157z M421.6,163c-0.1-0.1-0.1-0.2-0.1-0.3
	s0-0.2,0.1-0.3c0,0,0.1-0.1,0.3-0.2l3.3-1.3l3.3-8.2c0.1-0.2,0.1-0.3,0.1-0.3c0.1-0.1,0.2-0.1,0.3-0.1s0.2,0,0.3,0.1l0.6,0.6
	c0.1,0.1,0.2,0.3,0.1,0.5l-2.7,6.6l6.7-2.7c0.2-0.1,0.4,0,0.5,0.1l0.6,0.6c0.1,0.1,0.1,0.2,0.1,0.3s0,0.2-0.1,0.3s-0.2,0.1-0.3,0.2
	l-12,4.7c-0.1,0-0.2,0-0.3,0c-0.1,0-0.2-0.1-0.2-0.1L421.6,163z"/>
<path class="st1" d="M776.3,200.4c-0.7,0.7-1.4,1.2-2.2,1.5c-0.7,0.3-1.4,0.4-2,0.3c-0.6-0.1-1.2-0.4-1.6-0.8
	c-0.1-0.1-0.1-0.2-0.1-0.3s0-0.2,0.1-0.3l0.6-0.6c0.2-0.2,0.3-0.2,0.6-0.1c0.4,0.3,1,0.4,1.6,0.3c0.6-0.1,1.3-0.5,1.9-1.2
	c0.7-0.7,1.1-1.4,1.2-2c0.1-0.6-0.1-1.1-0.5-1.6c-0.3-0.3-0.6-0.4-1-0.4s-0.8,0.1-1.3,0.3s-1.2,0.5-2.1,1c-0.8,0.5-1.6,0.8-2.2,1
	c-0.6,0.2-1.1,0.2-1.6,0.1c-0.5-0.1-1-0.4-1.5-0.9s-0.7-1-0.9-1.6c-0.1-0.6,0-1.3,0.2-1.9c0.3-0.7,0.7-1.3,1.3-2
	c0.7-0.7,1.3-1.1,2-1.3s1.4-0.3,2-0.2s1.1,0.3,1.5,0.7c0.1,0.1,0.1,0.2,0.1,0.3s0,0.2-0.1,0.3l-0.6,0.6c-0.1,0.1-0.2,0.1-0.3,0.1
	s-0.2,0-0.3-0.1c-0.4-0.3-0.9-0.4-1.5-0.3c-0.6,0.1-1.2,0.4-1.7,1c-0.6,0.6-0.9,1.1-1,1.7c-0.1,0.6,0,1.1,0.5,1.5
	c0.3,0.3,0.6,0.5,1,0.5c0.3,0,0.8-0.1,1.2-0.2c0.5-0.2,1.1-0.5,1.9-0.9c0.9-0.5,1.7-0.9,2.3-1.1c0.6-0.2,1.2-0.3,1.7-0.2
	s1,0.4,1.5,0.9c0.8,0.8,1.1,1.7,1,2.8C778,198.3,777.4,199.4,776.3,200.4z M783.9,192.9c-0.9,0.9-1.8,1.3-2.9,1.3
	c-1.1,0-2.1-0.5-3.1-1.4l-0.4-0.4l-0.4-0.4c-0.9-1-1.3-2-1.3-3c0-1.1,0.4-2,1.3-2.9c0.9-0.9,2-1.4,3.1-1.3c1.1,0.1,2.2,0.6,3.2,1.6
	l0.2,0.2c0.1,0.1,0.1,0.2,0.1,0.3s0,0.2-0.1,0.3l-4.4,4.4l0.1,0.1c0.6,0.5,1.2,0.8,1.9,0.9c0.7,0.1,1.3-0.1,1.8-0.7
	c0.4-0.4,0.6-0.8,0.7-1.2c0.1-0.4,0.1-0.8,0.1-1.1c0-0.2,0-0.3,0-0.4c0-0.1,0.1-0.2,0.2-0.3l0.6-0.6c0.1-0.1,0.2-0.1,0.3-0.1
	s0.2,0,0.3,0.1c0.2,0.2,0.3,0.5,0.3,1s-0.1,1-0.3,1.7C784.8,191.8,784.4,192.3,783.9,192.9z M781.7,187.2L781.7,187.2
	c-0.6-0.6-1.3-1-2-1c-0.7-0.1-1.3,0.2-1.9,0.7c-0.6,0.6-0.8,1.2-0.7,1.9s0.4,1.3,1,1.9l0,0L781.7,187.2z M791,185.7
	c-0.9,0.9-1.9,1.4-2.9,1.4s-2-0.5-3-1.4l-0.5-0.5l-0.5-0.5c-0.9-0.9-1.4-1.9-1.4-3c0-1,0.4-2,1.4-2.9c0.6-0.6,1.2-1,1.9-1.2
	c0.6-0.2,1.2-0.3,1.7-0.1c0.5,0.1,1,0.3,1.3,0.6c0.1,0.1,0.1,0.2,0.1,0.3s0,0.2-0.1,0.3l-0.6,0.6c-0.1,0.1-0.2,0.1-0.2,0.1
	c-0.1,0-0.2,0-0.3-0.1c-0.6-0.3-1.1-0.3-1.5-0.2s-0.9,0.3-1.3,0.7c-0.5,0.5-0.8,1.1-0.8,1.8c0,0.6,0.4,1.3,1,2l0.4,0.5l0.5,0.4
	c0.7,0.7,1.4,1,2,1s1.2-0.2,1.8-0.8c0.4-0.4,0.7-0.8,0.8-1.3c0.1-0.4,0-0.9-0.3-1.5c-0.1-0.1-0.1-0.3-0.1-0.3c0-0.1,0-0.2,0.1-0.3
	l0.6-0.6c0.1-0.1,0.2-0.1,0.3-0.1s0.2,0,0.3,0.1c0.3,0.3,0.5,0.8,0.6,1.3s0.1,1.1-0.1,1.8C792,184.5,791.6,185.1,791,185.7z
	 M797.8,178.9c-0.8,0.8-1.7,1.2-2.6,1.1c-1-0.1-1.9-0.6-2.7-1.4l-3.6-3.6c-0.1-0.1-0.1-0.2-0.1-0.3s0-0.2,0.1-0.3l0.6-0.6
	c0.1-0.1,0.2-0.1,0.3-0.1s0.2,0,0.3,0.1l3.5,3.5c1.3,1.3,2.5,1.4,3.6,0.3c0.5-0.5,0.8-1.1,0.8-1.8s-0.3-1.3-0.9-1.9l-3.5-3.5
	c-0.1-0.1-0.1-0.2-0.1-0.3s0-0.2,0.1-0.3l0.6-0.6c0.1-0.1,0.2-0.1,0.3-0.1s0.2,0,0.3,0.1l6,6c0.1,0.1,0.1,0.2,0.1,0.3s0,0.2-0.1,0.3
	l-0.5,0.5c-0.1,0.1-0.2,0.1-0.3,0.1s-0.2-0.1-0.3-0.1l-0.6-0.6c0.1,0.6,0,1.1-0.1,1.6C798.7,177.9,798.3,178.4,797.8,178.9z
	 M803.1,173.3c-0.1,0.1-0.2,0.1-0.3,0.1s-0.2-0.1-0.3-0.1l-6-6c-0.1-0.1-0.1-0.2-0.1-0.3s0-0.2,0.1-0.3l0.5-0.5
	c0.1-0.1,0.2-0.1,0.3-0.1s0.2,0,0.3,0.1l0.6,0.6c-0.2-0.9,0.1-1.8,0.9-2.6l0.5-0.5c0.1-0.1,0.2-0.1,0.3-0.1s0.2,0,0.3,0.1l0.5,0.5
	c0.1,0.1,0.1,0.2,0.1,0.3s0,0.2-0.1,0.3l-0.7,0.7c-0.5,0.5-0.7,1-0.7,1.5s0.2,1,0.7,1.5l3.8,3.8c0.1,0.1,0.1,0.2,0.1,0.3
	s-0.1,0.2-0.1,0.3L803.1,173.3z M800,160.8c-0.1,0.1-0.2,0.1-0.3,0.1s-0.2-0.1-0.3-0.1l-0.7-0.7c-0.1-0.1-0.1-0.2-0.1-0.3
	s0-0.2,0.1-0.3l0.8-0.8c0.1-0.1,0.2-0.1,0.3-0.1s0.2,0,0.3,0.1l0.7,0.7c0.1,0.1,0.1,0.2,0.1,0.3s-0.1,0.2-0.1,0.3L800,160.8z
	 M807.9,168.6c-0.1,0.1-0.2,0.1-0.3,0.1s-0.2-0.1-0.3-0.1l-6-6c-0.1-0.1-0.1-0.2-0.1-0.3s0-0.2,0.1-0.3l0.6-0.6
	c0.1-0.1,0.2-0.1,0.3-0.1s0.2,0,0.3,0.1l6,6c0.1,0.1,0.1,0.2,0.1,0.3s0,0.2-0.1,0.3L807.9,168.6z M813.2,163.2
	c-1.3,1.3-2.7,1.2-4.2-0.3l-3.4-3.4l-1,1c-0.1,0.1-0.2,0.1-0.3,0.1s-0.2,0-0.3-0.1l-0.4-0.4c-0.1-0.1-0.1-0.2-0.1-0.3s0-0.2,0.1-0.3
	l1-1l-2.1-2.1c-0.1-0.1-0.1-0.2-0.1-0.3s0-0.2,0.1-0.3l0.6-0.6c0.1-0.1,0.2-0.1,0.3-0.1s0.2,0,0.3,0.1l2.1,2.1l1.6-1.6
	c0.1-0.1,0.2-0.1,0.3-0.1s0.2,0,0.3,0.1l0.4,0.4c0.1,0.1,0.1,0.2,0.1,0.3s0,0.2-0.1,0.3l-1.6,1.6l3.3,3.3c0.4,0.4,0.8,0.7,1.2,0.8
	s0.7-0.1,1.1-0.4l0.8-0.8c0.1-0.1,0.2-0.1,0.3-0.1s0.2,0,0.3,0.1l0.4,0.4c0.1,0.1,0.1,0.2,0.1,0.3s0,0.2-0.1,0.3L813.2,163.2z
	 M819.2,162.1c-0.1,0.1-0.2,0.1-0.3,0.1s-0.2,0-0.3-0.1c0,0-0.1-0.1-0.2-0.3l-1.3-3.3l-8.2-3.3c-0.2-0.1-0.3-0.1-0.3-0.1
	c-0.1-0.1-0.1-0.2-0.1-0.3s0-0.2,0.1-0.3l0.6-0.6c0.1-0.1,0.3-0.2,0.5-0.1l6.6,2.7l-2.7-6.7c-0.1-0.2,0-0.4,0.1-0.5l0.6-0.6
	c0.1-0.1,0.2-0.1,0.3-0.1s0.2,0,0.3,0.1s0.1,0.2,0.2,0.3l4.7,12c0,0.1,0,0.2,0,0.3s-0.1,0.2-0.1,0.2L819.2,162.1z"/>
<path class="st1" d="M610.1,103.4c0,1-0.2,1.8-0.5,2.6c-0.3,0.7-0.7,1.3-1.2,1.7c-0.5,0.4-1.1,0.6-1.7,0.6c-0.1,0-0.2,0-0.3-0.1
	s-0.1-0.2-0.1-0.3V107c0-0.2,0.1-0.4,0.4-0.5c0.5-0.1,0.9-0.4,1.3-0.9c0.4-0.5,0.5-1.2,0.5-2.2s-0.2-1.8-0.5-2.3
	c-0.4-0.5-0.9-0.8-1.5-0.8c-0.4,0-0.7,0.1-1,0.4c-0.3,0.2-0.5,0.6-0.7,1.1s-0.5,1.2-0.7,2.2c-0.3,0.9-0.5,1.7-0.8,2.2
	s-0.7,0.9-1.1,1.2c-0.4,0.3-1,0.4-1.7,0.4c-0.6,0-1.2-0.2-1.7-0.5s-0.9-0.9-1.2-1.5c-0.3-0.7-0.4-1.4-0.4-2.3s0.2-1.7,0.5-2.4
	c0.3-0.7,0.7-1.2,1.2-1.5s1-0.5,1.5-0.6c0.1,0,0.2,0,0.3,0.1s0.1,0.2,0.1,0.3v0.9c0,0.1,0,0.2-0.1,0.3s-0.1,0.1-0.3,0.2
	c-0.5,0.1-0.9,0.4-1.3,0.9c-0.3,0.5-0.5,1.1-0.5,1.9s0.2,1.5,0.5,1.9c0.3,0.5,0.8,0.7,1.4,0.7c0.4,0,0.8-0.1,1-0.3
	c0.3-0.2,0.5-0.6,0.7-1c0.2-0.5,0.4-1.1,0.7-2c0.3-1,0.6-1.8,0.9-2.4c0.3-0.6,0.6-1,1.1-1.3c0.4-0.3,1-0.4,1.6-0.4
	c1.1,0,2,0.4,2.6,1.3C609.8,100.8,610.1,101.9,610.1,103.4z M610.1,92.8c0,1.2-0.4,2.2-1.1,2.9c-0.8,0.7-1.8,1.1-3.1,1.2h-0.6h-0.6
	c-1.3-0.1-2.3-0.5-3.1-1.2s-1.2-1.7-1.2-2.9c0-1.3,0.4-2.3,1.3-3.1c0.8-0.7,2-1.1,3.4-1.1h0.3c0.1,0,0.2,0,0.3,0.1s0.1,0.2,0.1,0.3
	v6.2h0.2c0.8,0,1.4-0.3,2-0.7s0.8-1,0.8-1.8c0-0.6-0.1-1-0.3-1.4s-0.5-0.6-0.7-0.8c-0.1-0.1-0.2-0.2-0.3-0.3c0-0.1-0.1-0.2-0.1-0.3
	v-0.8c0-0.1,0-0.2,0.1-0.3c0.1-0.1,0.1-0.1,0.2-0.1c0.3,0,0.6,0.2,1,0.5s0.7,0.8,1,1.4C610,91.3,610.1,92,610.1,92.8z M604.6,90.3
	L604.6,90.3c-0.9,0-1.6,0.2-2.1,0.7s-0.8,1.1-0.8,1.8c0,0.8,0.3,1.4,0.8,1.8s1.2,0.7,2.1,0.7h0.1L604.6,90.3L604.6,90.3z
	 M610.1,82.7c0,1.3-0.4,2.3-1.1,3c-0.7,0.7-1.8,1.1-3.1,1.1h-0.7h-0.7c-1.3,0-2.3-0.4-3-1.1s-1.1-1.7-1.1-3c0-0.9,0.2-1.6,0.5-2.2
	s0.7-1,1.1-1.3c0.5-0.3,0.9-0.5,1.4-0.5c0.1,0,0.2,0,0.3,0.1s0.1,0.2,0.1,0.3v0.8c0,0.1,0,0.2-0.1,0.3c-0.1,0.1-0.2,0.1-0.3,0.2
	c-0.6,0.2-1,0.5-1.2,0.9c-0.3,0.4-0.4,0.8-0.4,1.4c0,0.8,0.2,1.4,0.7,1.8s1.2,0.7,2.1,0.7h0.6h0.6c1,0,1.7-0.3,2.1-0.7
	c0.5-0.4,0.7-1,0.7-1.8c0-0.6-0.1-1.1-0.4-1.4c-0.3-0.4-0.7-0.7-1.3-0.9c-0.1-0.1-0.2-0.1-0.3-0.2s-0.1-0.1-0.1-0.3v-0.8
	c0-0.1,0-0.2,0.1-0.3c0.1-0.1,0.2-0.1,0.3-0.1c0.4,0,0.9,0.2,1.3,0.5c0.5,0.3,0.8,0.7,1.2,1.3C610,81.1,610.1,81.8,610.1,82.7z
	 M610.1,73c0,1.1-0.4,2-1.1,2.6c-0.7,0.6-1.7,0.9-3,0.9h-5c-0.1,0-0.2,0-0.3-0.1s-0.1-0.2-0.1-0.3v-0.8c0-0.1,0-0.2,0.1-0.3
	c0.1-0.1,0.2-0.1,0.3-0.1h5c1.8,0,2.7-0.8,2.7-2.4c0-0.8-0.2-1.4-0.7-1.8c-0.5-0.5-1.2-0.7-2-0.7h-5c-0.1,0-0.2,0-0.3-0.1
	s-0.1-0.2-0.1-0.3v-0.8c0-0.1,0-0.2,0.1-0.3c0.1-0.1,0.2-0.1,0.3-0.1h8.5c0.1,0,0.2,0,0.3,0.1s0.1,0.2,0.1,0.3v0.8
	c0,0.1,0,0.2-0.1,0.3c-0.1,0.1-0.2,0.1-0.3,0.1h-0.8c0.5,0.3,0.8,0.8,1.1,1.2C610,71.7,610.1,72.3,610.1,73z M609.9,65.3
	c0,0.1,0,0.2-0.1,0.3c-0.1,0.1-0.2,0.1-0.3,0.1H601c-0.1,0-0.2,0-0.3-0.1s-0.1-0.2-0.1-0.3v-0.8c0-0.1,0-0.2,0.1-0.3
	c0.1-0.1,0.2-0.1,0.3-0.1h0.8c-0.8-0.5-1.2-1.3-1.2-2.5v-0.7c0-0.1,0-0.2,0.1-0.3s0.2-0.1,0.3-0.1h0.7c0.1,0,0.2,0,0.3,0.1
	s0.1,0.2,0.1,0.3v1c0,0.7,0.2,1.2,0.6,1.6c0.4,0.4,0.9,0.6,1.6,0.6h5.3c0.1,0,0.2,0,0.3,0.1s0.1,0.2,0.1,0.3L609.9,65.3L609.9,65.3z
	 M598.8,58.7c0,0.1,0,0.2-0.1,0.3s-0.2,0.1-0.3,0.1h-0.9c-0.1,0-0.2,0-0.3-0.1s-0.1-0.2-0.1-0.3v-1.1c0-0.1,0-0.2,0.1-0.3
	s0.2-0.1,0.3-0.1h0.9c0.1,0,0.2,0,0.3,0.1s0.1,0.2,0.1,0.3V58.7z M609.9,58.6c0,0.1,0,0.2-0.1,0.3s-0.2,0.1-0.3,0.1H601
	c-0.1,0-0.2,0-0.3-0.1s-0.1-0.2-0.1-0.3v-0.8c0-0.1,0-0.2,0.1-0.3s0.2-0.1,0.3-0.1h8.5c0.1,0,0.2,0,0.3,0.1s0.1,0.2,0.1,0.3
	L609.9,58.6L609.9,58.6z M609.9,51.1c0,1.9-1,2.8-3.1,2.8H602v1.4c0,0.1,0,0.2-0.1,0.3s-0.2,0.1-0.3,0.1H601c-0.1,0-0.2,0-0.3-0.1
	s-0.1-0.2-0.1-0.3v-1.4h-3c-0.1,0-0.2,0-0.3-0.1s-0.1-0.2-0.1-0.3v-0.8c0-0.1,0-0.2,0.1-0.3s0.2-0.1,0.3-0.1h3V50
	c0-0.1,0-0.2,0.1-0.3s0.2-0.1,0.3-0.1h0.6c0.1,0,0.2,0,0.3,0.1s0.1,0.2,0.1,0.3v2.2h4.7c0.6,0,1.1-0.1,1.4-0.3
	c0.3-0.2,0.5-0.5,0.5-1v-1.1c0-0.1,0-0.2,0.1-0.3s0.2-0.1,0.3-0.1h0.6c0.1,0,0.2,0,0.3,0.1s0.1,0.2,0.1,0.3L609.9,51.1L609.9,51.1z
	 M613.4,46c0,0.1,0,0.2-0.1,0.3s-0.2,0.1-0.3,0.1c0,0-0.1,0-0.3-0.1l-3.3-1.4l-8.1,3.4c-0.1,0.1-0.2,0.1-0.3,0.1s-0.2-0.1-0.3-0.1
	c-0.1-0.1-0.1-0.2-0.1-0.3v-0.8c0-0.2,0.1-0.3,0.3-0.4l6.6-2.8l-6.6-2.8c-0.2-0.1-0.3-0.2-0.3-0.4V40c0-0.1,0-0.2,0.1-0.3
	s0.2-0.1,0.3-0.1s0.2,0,0.3,0.1l11.8,5.1c0.1,0.1,0.2,0.1,0.2,0.2c0,0.1,0.1,0.1,0.1,0.3L613.4,46L613.4,46z"/>
<path class="st1" d="M365.5,136l-0.3-0.3c-2.4-2.3-2.6-6.2-0.2-8.6c2.3-2.4,6.2-2.5,8.6-0.2l0.3,0.3c2.5,2.3,2.6,6.2,0.2,8.6
	C371.8,138.2,367.9,138.3,365.5,136z M547.1,151.7c0.8-0.9,1.9-1.5,3.2-1.7l0.4-0.1c3.3-0.6,6.5,1.7,7,5c0.6,3.3-1.7,6.5-5,7
	c-3.3,0.6-6.7-1.6-7.2-4.9C545.2,155,545.9,153.1,547.1,151.7z M398,307.2c1.3-1.4,3.2-2.1,5.2-1.9c3.3,0.4,5.7,3.4,5.3,6.8
	l-0.1,0.5c-0.5,3.3-3.5,5.7-6.9,5.2c-3.3-0.5-5.7-3.5-5.2-6.9v-0.3C396.5,309.3,397.1,308.1,398,307.2z M519.1,159.1
	c0.7-0.7,1.5-1.3,2.5-1.6l1.9,5.8l-1.8-5.8c3.1-1.2,6.7,0.4,7.8,3.6c1.2,3.1-0.4,6.6-3.5,7.8l-0.6,0.2c-3.2,1.1-6.6-0.6-7.7-3.8
	C517,163,517.6,160.7,519.1,159.1z M404,279.1c1.5-1.6,3.9-2.3,6.1-1.7c3.2,0.9,5.1,4.3,4.2,7.5c0,0-0.1,0.4-0.1,0.5
	c-1,3.2-4.4,5-7.6,4.1c-3.2-1-5-4.4-4.1-7.6l5.8,1.8l-5.7-2.1C402.9,280.6,403.4,279.8,404,279.1z M492.7,170.7
	c0.4-0.5,1-0.9,1.5-1.2l0.3-0.1c2.9-1.6,6.7-0.6,8.3,2.3c1.6,2.9,0.6,6.6-2.3,8.3l-0.5,0.3c-3,1.6-6.7,0.5-8.2-2.5
	C490.5,175.3,490.9,172.5,492.7,170.7z M414.4,252.3c1.7-1.8,4.5-2.5,7-1.4c3,1.4,4.4,5,3,8l-0.3,0.6c-1.5,3-5.2,4.2-8.2,2.7
	s-4.2-5.2-2.7-8.2l5.5,2.7l-5.4-2.9C413.6,253.3,414,252.7,414.4,252.3z M468.5,186.2c0.2-0.2,0.4-0.4,0.6-0.6c0,0,0.2-0.2,0.3-0.2
	c2.7-2,6.5-1.6,8.6,1.1c2.1,2.7,1.6,6.4-1,8.5s-6.6,1.7-8.7-0.9C466.4,191.7,466.4,188.4,468.5,186.2z M429,227.4
	c2-2.1,5.4-2.5,7.9-0.8c2.8,1.9,3.5,5.7,1.5,8.5c0,0-0.2,0.3-0.3,0.4c-1.9,2.7-5.7,3.4-8.5,1.5s-3.4-5.7-1.5-8.5l5,3.5l-4.8-3.8
	C428.6,227.9,428.8,227.6,429,227.4z M447,205.4l0.3-0.3c2.3-2.4,6.2-2.5,8.6-0.2s2.6,6.2,0.2,8.6c-2.3,2.4-6.3,2.7-8.8,0.4
	C444.9,211.6,444.7,207.9,447,205.4z M386.7,156l-0.3-0.3c-2.4-2.3-2.6-6.2-0.2-8.6c2.3-2.4,6.2-2.6,8.6-0.2l0.3,0.3
	c2.4,2.3,2.6,6.2,0.2,8.6C393,158.2,389.1,158.3,386.7,156z M407.9,176l-0.3-0.3c-2.4-2.3-2.6-6.2-0.2-8.6c2.3-2.4,6.2-2.6,8.6-0.2
	l0.3,0.3c2.4,2.3,2.6,6.2,0.2,8.6C414.2,178.2,410.3,178.3,407.9,176z M429.1,196l-0.3-0.3c-5.8-5.5,2.5-14.3,8.4-8.8l0.3,0.3
	c2.4,2.3,2.6,6.2,0.2,8.6C435.4,198.2,431.5,198.3,429.1,196z"/>
<path class="st1" d="M371.4,102.1l-32.7,0.9l0.9,32.6L371.4,102.1z"/>
<path class="st1" d="M574.8,42.2v-0.4c0-3.4,2.7-6.1,6.1-6.1c3.4,0,6.1,2.7,6.1,6.1v0.4c0,3.4-2.7,6.1-6.1,6.1
	S574.8,45.5,574.8,42.2z M688.2,184.6c1.2,0,2.4,0.4,3.5,1.2c0,0,0.3,0.3,0.4,0.3c2.7,2,3.2,5.8,1.2,8.5s-5.8,3.2-8.5,1.2
	s-3.4-5.9-1.4-8.6C684.5,185.5,686.4,184.6,688.2,184.6z M472.5,183.3c1.9,0,3.7,0.8,4.9,2.5c2,2.7,1.4,6.5-1.3,8.5l-0.4,0.3
	c-2.7,2-6.6,1.3-8.5-1.4c-2-2.7-1.3-6.5,1.4-8.5l0.2-0.2C470,183.6,471.3,183.3,472.5,183.3z M663.6,169.4c1,0,2,0.2,2.9,0.7
	l-2.9,5.4l3-5.3c3,1.5,4.3,5.1,2.8,8.1s-5.1,4.3-8.1,2.8l-0.6-0.3c-3-1.6-4.1-5.3-2.5-8.2C659.3,170.5,661.4,169.4,663.6,169.4z
	 M497.1,168.4c2.2,0,4.3,1.2,5.4,3.3c1.5,3,0.4,6.7-2.6,8.2l-0.4,0.2c-3,1.5-6.7,0.3-8.2-2.7s-0.3-6.7,2.7-8.2l2.7,5.4l-2.4-5.6
	C495.3,168.6,496.2,168.4,497.1,168.4z M637,158.2c0.6,0,1.3,0.1,1.9,0.3l0.3,0.1c3.2,1,5,4.4,4,7.6c-1,3.2-4.4,5-7.6,4l-0.5-0.2
	c-3.2-1.1-4.9-4.5-3.9-7.7C632.1,159.8,634.4,158.2,637,158.2z M523.8,157.5c2.5,0,4.9,1.6,5.8,4.1c1.1,3.2-0.6,6.6-3.8,7.7
	l-0.6,0.2c-3.2,1-6.6-0.8-7.6-4.1c-1-3.2,0.8-6.6,4.1-7.6l1.8,5.8l-1.6-5.9C522.5,157.6,523.2,157.5,523.8,157.5z M609,151.3
	c0.3,0,0.6,0,0.9,0.1h0.3c3.3,0.5,5.7,3.7,5.1,7c-0.5,3.3-3.5,5.6-6.8,5.1s-5.8-3.6-5.3-6.9C603.6,153.5,606.1,151.3,609,151.3z
	 M551.9,151c3,0,5.6,2.2,6,5.2c0.5,3.3-1.8,6.4-5.1,6.9l-0.4,0.1c-3.3,0.5-6.4-1.8-6.9-5.1s1.8-6.4,5.2-6.9l0.9,6l-0.5-6.1
	C551.3,151,551.6,151,551.9,151z M580.3,149h0.4c3.4,0,6.1,2.7,6.1,6.1c0,3.4-2.7,6.1-6.1,6.1c-3.4,0-6.3-2.7-6.3-6.1
	S576.9,149,580.3,149z M574.8,71.3v-0.4c0-3.4,2.7-6.1,6.1-6.1c3.4,0,6.1,2.7,6.1,6.1v0.4c0,3.4-2.7,6.1-6.1,6.1
	S574.8,74.6,574.8,71.3z M574.8,100.4V100c0-3.4,2.7-6.1,6.1-6.1c3.4,0,6.1,2.7,6.1,6.1v0.4c0,3.4-2.7,6.1-6.1,6.1
	S574.8,103.8,574.8,100.4z M574.8,129.5v-0.4c0-8,12.2-8,12.2,0v0.4c0,3.4-2.7,6.1-6.1,6.1C577.5,135.6,574.8,132.9,574.8,129.5z"/>
<path class="st1" d="M603,23.1L579.9,0l-23.1,23.1H603z"/>
<path class="st1" d="M783.1,121.6l0.3-0.3c2.3-2.4,6.2-2.5,8.6-0.2c2.5,2.3,2.6,6.2,0.3,8.6L792,130c-2.3,2.4-6.2,2.6-8.6,0.2
	C780.9,127.9,780.8,124,783.1,121.6z M768.2,303.1c0.9,0.8,1.5,1.9,1.7,3.2l0.1,0.4c0.6,3.3-1.6,6.5-4.9,7c-3.3,0.6-6.5-1.7-7-5
	c-0.6-3.3,1.6-6.7,4.9-7.2C764.9,301.2,766.8,301.9,768.2,303.1z M612.1,153.8c1.4,1.3,2.1,3.2,1.9,5.2c-0.4,3.3-3.4,5.7-6.7,5.3
	l-0.5-0.1c-3.3-0.5-5.7-3.5-5.2-6.9c0.5-3.3,3.5-5.7,6.8-5.2h0.3C610,152.4,611.2,153,612.1,153.8z M760.7,275.1
	c0.7,0.7,1.3,1.5,1.6,2.5l-5.8,1.9l5.8-1.8c1.2,3.1-0.4,6.7-3.5,7.8c-3.1,1.2-6.6-0.4-7.8-3.5l-0.2-0.6c-1.1-3.2,0.6-6.6,3.8-7.7
	C756.8,273,759.1,273.6,760.7,275.1z M640.2,159.9c1.6,1.5,2.3,3.9,1.7,6.1c-0.9,3.2-4.3,5.1-7.5,4.2c0,0-0.4-0.1-0.5-0.1
	c-3.2-1-5.1-4.4-4.1-7.6c1-3.2,4.3-5,7.6-4.1l-1.7,5.8l2.1-5.7C638.7,158.8,639.5,159.3,640.2,159.9z M749,248.7
	c0.5,0.4,0.9,1,1.2,1.5l0.1,0.3c1.7,2.9,0.6,6.6-2.3,8.3c-2.9,1.6-6.6,0.6-8.3-2.4l-0.3-0.5c-1.6-3-0.5-6.7,2.5-8.2
	C744.3,246.5,747.1,246.9,749,248.7z M667,170.4c1.9,1.7,2.5,4.5,1.4,7c-1.4,3-5,4.4-8,3l-0.6-0.3c-3-1.5-4.2-5.2-2.8-8.2
	c1.5-3,5.1-4.2,8.2-2.7l-2.7,5.4l2.9-5.4C666,169.6,666.6,169.9,667,170.4z M733.3,224.5c0.2,0.2,0.4,0.4,0.6,0.6
	c0,0,0.2,0.2,0.2,0.3c2,2.7,1.6,6.5-1,8.6c-2.6,2-6.4,1.6-8.5-1c-2.1-2.7-1.8-6.6,0.9-8.7C727.9,222.4,731.2,222.4,733.3,224.5z
	 M692,185c2.2,2,2.6,5.4,0.8,7.9c-1.9,2.8-5.7,3.4-8.5,1.5c0,0-0.3-0.2-0.4-0.3c-2.7-1.9-3.4-5.7-1.5-8.5c1.9-2.7,5.7-3.4,8.5-1.5
	l-3.5,5l3.8-4.8C691.5,184.6,691.8,184.8,692,185z M714,203l0.3,0.3c2.5,2.3,2.6,6.2,0.3,8.6c-2.3,2.4-6.2,2.5-8.6,0.2
	c-2.5-2.3-2.7-6.3-0.4-8.8C707.8,200.9,711.6,200.7,714,203z M763.2,142.8l0.3-0.3c2.3-2.4,6.2-2.5,8.6-0.2c2.5,2.3,2.6,6.2,0.3,8.6
	l-0.3,0.3c-2.3,2.4-6.1,2.5-8.6,0.2S760.9,145.2,763.2,142.8z M743.3,163.9l0.3-0.3c2.3-2.4,6.1-2.5,8.6-0.2s2.6,6.2,0.3,8.6
	l-0.3,0.3c-2.3,2.4-6.1,2.5-8.6,0.2S741,166.4,743.3,163.9z M723.3,185.1l0.3-0.3c5.5-5.8,14.4,2.6,8.9,8.4l-0.3,0.3
	c-2.3,2.4-6.1,2.5-8.6,0.2C721.2,191.4,721,187.5,723.3,185.1z"/>
<path class="st1" d="M817.2,127.3l-1-32.7l-32.6,0.9L817.2,127.3z"/>
<path class="st1" d="M720,136.9l-0.3,0.3c-2.3,2.4-6.2,2.5-8.6,0.2c-2.4-2.3-2.5-6.2-0.2-8.6l0.3-0.3c2.3-2.4,6.2-2.5,8.6-0.2
	C722.2,130.6,722.3,134.5,720,136.9z M740.1,115.8l-0.3,0.3c-2.3,2.4-6.2,2.5-8.6,0.2c-2.4-2.3-2.5-6.2-0.2-8.6l0.3-0.3
	c2.3-2.4,6.2-2.5,8.6-0.2C742.3,109.5,742.4,113.4,740.1,115.8z M760.1,94.7l-0.3,0.3c-2.3,2.4-6.2,2.5-8.6,0.2
	c-2.4-2.3-2.5-6.2-0.2-8.6l0.3-0.3c2.3-2.4,6.2-2.5,8.6-0.2C762.3,88.4,762.4,92.3,760.1,94.7z M780.2,73.6l-0.3,0.3
	c-5.5,5.8-14.4-2.6-8.8-8.4l0.3-0.3c2.3-2.4,6.2-2.5,8.6-0.2C782.4,67.3,782.5,71.2,780.2,73.6z"/>
<path class="st1" d="M686.4,131.3l0.9,32.6l32.6-0.8L686.4,131.3z"/>
<path class="st1" d="M546.1,102v0.4c0.1,3.4-2.5,6.2-5.9,6.3c-3.4,0.1-6.2-2.5-6.3-5.9v-0.4c-0.1-3.4,2.5-6.2,5.9-6.3
	C543.1,96,546,98.7,546.1,102z M545,72.9v0.4c0.1,3.4-2.5,6.2-5.9,6.3c-3.4,0.1-6.2-2.5-6.3-5.9v-0.4c-0.1-3.4,2.5-6.2,5.9-6.3
	C542.1,66.9,544.9,69.6,545,72.9z M544,43.8v0.4c0.1,3.4-2.5,6.2-5.9,6.3s-6.2-2.5-6.3-5.9v-0.4c-0.1-3.4,2.5-6.2,5.9-6.3
	C541,37.9,543.9,40.5,544,43.8z M542.9,14.7v0.4c0.3,8-11.9,8.4-12.2,0.4v-0.4c-0.1-3.4,2.5-6.2,5.9-6.3
	C540,8.8,542.8,11.4,542.9,14.7z"/>
<path class="st1" d="M518.6,122.1l23.9,22.2l22.3-23.9L518.6,122.1z"/>
<path class="st1" d="M387.3,195.4l0.3,0.3c2.5,2.2,2.7,6.1,0.5,8.6c-2.3,2.5-6.1,2.7-8.6,0.5l-0.3-0.3c-2.5-2.2-2.7-6.1-0.5-8.6
	C381,193.4,384.8,193.2,387.3,195.4z M365.6,176l0.3,0.3c2.5,2.2,2.7,6.1,0.5,8.6c-2.3,2.5-6.1,2.7-8.6,0.5l-0.3-0.3
	c-2.5-2.2-2.7-6.1-0.5-8.6C359.3,173.9,363.1,173.7,365.6,176z M344,156.5l0.3,0.3c2.5,2.2,2.7,6.1,0.5,8.6
	c-2.3,2.5-6.1,2.7-8.6,0.5l-0.3-0.3c-2.5-2.2-2.7-6.1-0.5-8.6S341.5,154.3,344,156.5z M322.3,137.1l0.3,0.3c6,5.3-2.2,14.4-8.1,9.1
	l-0.3-0.3c-2.5-2.2-2.7-6.1-0.5-8.6C316,135.1,319.8,134.8,322.3,137.1z"/>
<path class="st1" d="M382.7,229.1l32.6-1.8l-1.7-32.6L382.7,229.1z"/>
<path class="st2" d="M475.3,514v-32.6h6.3v15.5l13.7-15.5h7l-12.5,14.5l13.3,18.2H496L485.8,500l-4.2,4.4v9.8h-6.3V514z M506.1,514
	v-32.7h6.3V514H506.1z M519.3,514v-32.7h14.4c1.5,0,2.9,0.3,4.1,1c1.3,0.6,2.4,1.4,3.3,2.5c0.9,1,1.6,2.2,2.2,3.5
	c0.5,1.3,0.8,2.6,0.8,3.9c0,2.1-0.5,4-1.6,5.8c-1,1.7-2.5,3-4.3,3.7l7.5,12.3h-7.1l-6.7-10.9h-6.3V514H519.3z M525.6,497.5h8
	c0.6,0,1.1-0.1,1.6-0.4s1-0.6,1.3-1.1c0.4-0.5,0.7-1.1,0.9-1.7s0.3-1.3,0.3-2.1c0-0.8-0.1-1.5-0.4-2.1c-0.2-0.6-0.6-1.2-1-1.7
	s-0.9-0.9-1.4-1.1c-0.5-0.3-1.1-0.4-1.6-0.4h-7.7L525.6,497.5L525.6,497.5z M558.7,481.3h5.6l12.4,32.7h-6.5l-3-8.1h-11.4l-3,8.1
	h-6.5L558.7,481.3z M566,501.4l-4.5-12.8l-4.7,12.8H566z M617.4,481.3V514h-6.3v-13.9h-14.8V514H590v-32.7h6.3v13.2h14.8v-13.2
	H617.4z M638,508.6c1.5,0,2.8-0.3,3.8-0.9s1.9-1.4,2.5-2.4s1.1-2.1,1.3-3.4c0.3-1.3,0.4-2.6,0.4-4v-16.7h6.3V498
	c0,2.2-0.3,4.3-0.8,6.3s-1.4,3.7-2.5,5.2s-2.6,2.6-4.4,3.5c-1.8,0.9-4,1.3-6.5,1.3c-2.6,0-4.8-0.4-6.7-1.3c-1.8-0.9-3.3-2.1-4.4-3.6
	c-1.1-1.5-2-3.2-2.5-5.2s-0.7-4-0.7-6.1v-16.7h6.3V498c0,1.4,0.1,2.7,0.4,4c0.3,1.3,0.7,2.4,1.3,3.4s1.5,1.8,2.5,2.4
	C635.3,508.3,636.5,508.6,638,508.6z M685,505.6c0,1.4-0.3,2.6-0.8,3.6s-1.3,1.9-2.3,2.6c-1,0.7-2.1,1.2-3.4,1.6
	c-1.3,0.4-2.6,0.6-4,0.6h-15.8v-32.7h17.5c1.1,0,2.2,0.2,3.1,0.7c0.9,0.5,1.7,1.1,2.3,1.9s1.1,1.7,1.5,2.7s0.6,2,0.6,3
	c0,1.6-0.4,3.1-1.2,4.5s-2,2.4-3.5,3.1c1.9,0.6,3.3,1.5,4.4,3C684.4,501.7,685,503.4,685,505.6z M678.6,504.4c0-0.6-0.1-1.1-0.3-1.7
	s-0.4-1-0.8-1.4c-0.3-0.4-0.7-0.7-1.2-0.9c-0.5-0.2-1-0.4-1.5-0.4H665v8.6h9.4c0.6,0,1.1-0.1,1.6-0.3c0.5-0.2,1-0.5,1.3-0.9
	c0.4-0.4,0.7-0.9,0.9-1.4C678.5,505.5,678.6,505,678.6,504.4z M665,486.8v8.2h8.5c1.1,0,2-0.4,2.7-1.1c0.8-0.7,1.2-1.7,1.2-3
	s-0.4-2.3-1.1-3c-0.7-0.7-1.5-1.1-2.5-1.1H665z"/>
<path class="st1" d="M458.8,569.4c-1.6,0-2.9-0.3-4-0.8s-1.9-1.1-2.4-1.8s-0.8-1.2-0.8-1.6c0-0.2,0.1-0.4,0.3-0.5
	c0.2-0.1,0.3-0.2,0.5-0.2h0.5c0.2,0,0.3,0,0.4,0.1c0.1,0,0.3,0.2,0.4,0.4c0.5,0.7,1.2,1.3,1.9,1.8c0.8,0.4,1.8,0.6,3.1,0.6
	c1.5,0,2.7-0.3,3.6-0.8c0.9-0.6,1.4-1.4,1.4-2.4c0-0.6-0.2-1.2-0.6-1.6c-0.4-0.4-1-0.8-1.8-1c-0.8-0.3-2-0.7-3.7-1
	c-2.1-0.5-3.6-1.1-4.4-2c-0.8-0.8-1.2-1.9-1.2-3.2c0-0.9,0.2-1.7,0.7-2.5s1.2-1.4,2.2-1.9s2.2-0.8,3.5-0.8c1.4,0,2.7,0.3,3.6,0.8
	c1,0.5,1.8,1,2.2,1.7c0.5,0.6,0.8,1.2,0.8,1.6c0,0.2-0.1,0.4-0.3,0.5c-0.1,0.1-0.3,0.2-0.5,0.2h-0.5c-0.3,0-0.6-0.2-0.8-0.5
	c-0.5-0.7-1-1.3-1.7-1.6c-0.6-0.4-1.5-0.6-2.8-0.6c-1.4,0-2.4,0.3-3.2,0.9s-1.1,1.3-1.1,2.3c0,0.6,0.1,1.1,0.4,1.4
	c0.3,0.4,0.8,0.7,1.6,1.1c0.8,0.3,1.9,0.6,3.5,1c2.2,0.5,3.8,1.2,4.7,2c0.9,0.8,1.4,2,1.4,3.3c0,1-0.3,1.9-0.8,2.7
	c-0.6,0.8-1.4,1.5-2.4,1.9C461.6,569.1,460.3,569.4,458.8,569.4z M477.5,569.4c-2.3,0-4.1-0.7-5.5-2.2s-2.2-3.5-2.4-6v-1.4v-1.4
	c0.2-2.5,1-4.5,2.3-6c1.4-1.5,3.2-2.3,5.5-2.3c2.5,0,4.4,0.8,5.8,2.5s2.1,3.9,2.1,6.8v0.5c0,0.2-0.1,0.4-0.3,0.6
	c-0.1,0.1-0.3,0.2-0.6,0.2h-12.8v0.4c0,1.1,0.3,2.2,0.8,3.2s1.1,1.7,2,2.3c0.8,0.6,1.8,0.9,3,0.9c1.3,0,2.4-0.3,3.2-0.8
	c0.8-0.5,1.4-1.1,1.8-1.6c0.2-0.3,0.4-0.5,0.5-0.5c0.1-0.1,0.3-0.1,0.6-0.1h0.6c0.2,0,0.4,0.1,0.5,0.2c0.1,0.1,0.2,0.3,0.2,0.5
	c0,0.5-0.3,1.1-1,1.8c-0.6,0.7-1.5,1.3-2.6,1.8C480.2,569.1,478.9,569.4,477.5,569.4z M483.3,558.5L483.3,558.5
	c0-1.9-0.5-3.5-1.6-4.7c-1-1.2-2.4-1.8-4.2-1.8c-1.8,0-3.1,0.6-4.2,1.8c-1,1.2-1.5,2.7-1.5,4.6v0.1H483.3z M496.4,569
	c-1.8,0-3-0.5-3.8-1.6c-0.7-1.1-1.1-2.6-1.1-4.4v-10.6h-2.8c-0.2,0-0.4-0.1-0.6-0.2c-0.1-0.1-0.2-0.3-0.2-0.6v-0.5
	c0-0.2,0.1-0.4,0.2-0.6c0.1-0.1,0.3-0.2,0.6-0.2h2.8v-6c0-0.2,0.1-0.4,0.2-0.6c0.1-0.1,0.3-0.2,0.6-0.2h0.6c0.2,0,0.4,0.1,0.6,0.2
	c0.1,0.1,0.2,0.3,0.2,0.6v6h4.5c0.2,0,0.4,0.1,0.6,0.2c0.1,0.1,0.2,0.3,0.2,0.6v0.5c0,0.2-0.1,0.4-0.2,0.6c-0.1,0.1-0.3,0.2-0.6,0.2
	h-4.5v10.5c0,1.3,0.2,2.4,0.6,3.1c0.5,0.7,1.2,1,2.2,1h1.9c0.2,0,0.4,0.1,0.6,0.2c0.1,0.1,0.2,0.3,0.2,0.6v0.5
	c0,0.2-0.1,0.4-0.2,0.6c-0.1,0.1-0.3,0.2-0.6,0.2L496.4,569L496.4,569z M509.3,569c-1.8,0-3-0.5-3.8-1.6c-0.7-1.1-1.1-2.6-1.1-4.4
	v-10.6h-2.8c-0.2,0-0.4-0.1-0.6-0.2c-0.1-0.1-0.2-0.3-0.2-0.6v-0.5c0-0.2,0.1-0.4,0.2-0.6c0.1-0.1,0.3-0.2,0.6-0.2h2.8v-6
	c0-0.2,0.1-0.4,0.2-0.6c0.1-0.1,0.3-0.2,0.6-0.2h0.6c0.2,0,0.4,0.1,0.6,0.2c0.1,0.1,0.2,0.3,0.2,0.6v6h4.5c0.2,0,0.4,0.1,0.6,0.2
	c0.1,0.1,0.2,0.3,0.2,0.6v0.5c0,0.2-0.1,0.4-0.2,0.6c-0.1,0.1-0.3,0.2-0.6,0.2h-4.5v10.5c0,1.3,0.2,2.4,0.6,3.1c0.5,0.7,1.2,1,2.2,1
	h1.9c0.2,0,0.4,0.1,0.6,0.2c0.1,0.1,0.2,0.3,0.2,0.6v0.5c0,0.2-0.1,0.4-0.2,0.6c-0.1,0.1-0.3,0.2-0.6,0.2L509.3,569L509.3,569z
	 M516.8,569c-0.2,0-0.4-0.1-0.6-0.2c-0.1-0.1-0.2-0.3-0.2-0.6v-24c0-0.2,0.1-0.4,0.2-0.6s0.3-0.2,0.6-0.2h0.6c0.2,0,0.4,0.1,0.6,0.2
	c0.1,0.1,0.2,0.3,0.2,0.6v24c0,0.2-0.1,0.4-0.2,0.6c-0.1,0.1-0.3,0.2-0.6,0.2H516.8z M531,569.4c-2.3,0-4.1-0.7-5.5-2.2
	s-2.2-3.5-2.4-6v-1.4v-1.4c0.2-2.5,1-4.5,2.3-6c1.4-1.5,3.2-2.3,5.5-2.3c2.5,0,4.4,0.8,5.8,2.5c1.4,1.7,2.1,3.9,2.1,6.8v0.5
	c0,0.2-0.1,0.4-0.3,0.6c-0.1,0.1-0.3,0.2-0.6,0.2h-12.8v0.4c0,1.1,0.3,2.2,0.8,3.2s1.1,1.7,2,2.3c0.8,0.6,1.8,0.9,3,0.9
	c1.3,0,2.4-0.3,3.2-0.8s1.4-1.1,1.8-1.6c0.2-0.3,0.4-0.5,0.5-0.5c0.1-0.1,0.3-0.1,0.6-0.1h0.6c0.2,0,0.4,0.1,0.5,0.2
	s0.2,0.3,0.2,0.5c0,0.5-0.3,1.1-1,1.8c-0.6,0.7-1.5,1.3-2.6,1.8C533.7,569.1,532.4,569.4,531,569.4z M536.8,558.5L536.8,558.5
	c0-1.9-0.5-3.5-1.6-4.7c-1-1.2-2.4-1.8-4.2-1.8s-3.1,0.6-4.2,1.8c-1,1.2-1.5,2.7-1.5,4.6v0.1H536.8z M544.5,569
	c-0.2,0-0.4-0.1-0.6-0.2c-0.1-0.1-0.2-0.3-0.2-0.6v-17.1c0-0.2,0.1-0.4,0.2-0.6c0.1-0.1,0.3-0.2,0.6-0.2h0.6c0.2,0,0.4,0.1,0.6,0.2
	c0.1,0.1,0.2,0.3,0.2,0.6v1.3c0.6-0.8,1.3-1.4,2.2-1.8c0.8-0.4,1.8-0.6,3-0.6c2.7,0,4.6,1.1,5.8,3.4c0.6-1,1.4-1.8,2.4-2.4
	c1.1-0.6,2.3-0.9,3.7-0.9c2,0,3.6,0.7,4.9,2.1c1.2,1.3,1.9,3.3,1.9,5.8v10.5c0,0.2-0.1,0.4-0.2,0.6c-0.1,0.1-0.3,0.2-0.6,0.2h-0.6
	c-0.2,0-0.4-0.1-0.6-0.2c-0.1-0.1-0.2-0.3-0.2-0.6v-10.1c0-2.2-0.5-3.7-1.4-4.7c-0.9-0.9-2.1-1.4-3.5-1.4c-1.3,0-2.4,0.5-3.4,1.4
	c-0.9,0.9-1.4,2.5-1.4,4.6v10.1c0,0.2-0.1,0.4-0.2,0.6c-0.1,0.1-0.3,0.2-0.6,0.2h-0.6c-0.2,0-0.4-0.1-0.6-0.2
	c-0.1-0.1-0.2-0.3-0.2-0.6v-10.1c0-2.2-0.5-3.7-1.4-4.6c-0.9-1-2.1-1.4-3.5-1.4c-1.3,0-2.4,0.5-3.4,1.4c-0.9,0.9-1.4,2.5-1.4,4.6
	v10.2c0,0.2-0.1,0.4-0.2,0.6c-0.1,0.1-0.3,0.2-0.6,0.2h-0.7V569z M582.3,569.4c-2.3,0-4.1-0.7-5.5-2.2s-2.2-3.5-2.4-6v-1.4v-1.4
	c0.2-2.5,1-4.5,2.3-6c1.4-1.5,3.2-2.3,5.5-2.3c2.5,0,4.4,0.8,5.8,2.5c1.4,1.7,2.1,3.9,2.1,6.8v0.5c0,0.2-0.1,0.4-0.3,0.6
	c-0.1,0.1-0.3,0.2-0.6,0.2h-12.8v0.4c0,1.1,0.3,2.2,0.8,3.2s1.1,1.7,2,2.3c0.8,0.6,1.8,0.9,3,0.9c1.3,0,2.4-0.3,3.2-0.8
	s1.4-1.1,1.8-1.6c0.2-0.3,0.4-0.5,0.5-0.5c0.1-0.1,0.3-0.1,0.6-0.1h0.6c0.2,0,0.4,0.1,0.5,0.2s0.2,0.3,0.2,0.5c0,0.5-0.3,1.1-1,1.8
	c-0.6,0.7-1.5,1.3-2.6,1.8C584.9,569.1,583.7,569.4,582.3,569.4z M588,558.5L588,558.5c0-1.9-0.5-3.5-1.6-4.7
	c-1-1.2-2.4-1.8-4.2-1.8s-3.1,0.6-4.2,1.8c-1,1.2-1.5,2.7-1.5,4.6v0.1H588z M595.8,569c-0.2,0-0.4-0.1-0.6-0.2
	c-0.1-0.1-0.2-0.3-0.2-0.6v-17.1c0-0.2,0.1-0.4,0.2-0.6c0.1-0.1,0.3-0.2,0.6-0.2h0.6c0.2,0,0.4,0.1,0.6,0.2c0.1,0.1,0.2,0.3,0.2,0.6
	v1.7c0.7-0.9,1.5-1.6,2.4-2.1s2.1-0.7,3.6-0.7c2.4,0,4.2,0.8,5.4,2.3c1.3,1.5,1.9,3.4,1.9,5.8v10.2c0,0.2-0.1,0.4-0.2,0.6
	c-0.1,0.1-0.3,0.2-0.6,0.2h-0.6c-0.2,0-0.4-0.1-0.6-0.2c-0.1-0.1-0.2-0.3-0.2-0.6v-10c0-1.9-0.5-3.5-1.4-4.5
	c-0.9-1.1-2.3-1.6-4.1-1.6c-1.7,0-3.1,0.6-4.1,1.7c-1,1.1-1.5,2.6-1.5,4.5v10c0,0.2-0.1,0.4-0.2,0.6c-0.1,0.1-0.3,0.2-0.6,0.2h-0.6
	V569z M622.2,569c-1.8,0-3-0.5-3.8-1.6c-0.7-1.1-1.1-2.6-1.1-4.4v-10.6h-2.8c-0.2,0-0.4-0.1-0.6-0.2c-0.1-0.1-0.2-0.3-0.2-0.6v-0.5
	c0-0.2,0.1-0.4,0.2-0.6c0.1-0.1,0.3-0.2,0.6-0.2h2.8v-6c0-0.2,0.1-0.4,0.2-0.6c0.1-0.1,0.3-0.2,0.6-0.2h0.6c0.2,0,0.4,0.1,0.6,0.2
	s0.2,0.3,0.2,0.6v6h4.5c0.2,0,0.4,0.1,0.6,0.2c0.1,0.1,0.2,0.3,0.2,0.6v0.5c0,0.2-0.1,0.4-0.2,0.6c-0.1,0.1-0.3,0.2-0.6,0.2h-4.5
	v10.5c0,1.3,0.2,2.4,0.6,3.1c0.5,0.7,1.2,1,2.2,1h1.9c0.2,0,0.4,0.1,0.6,0.2c0.1,0.1,0.2,0.3,0.2,0.6v0.5c0,0.2-0.1,0.4-0.2,0.6
	c-0.1,0.1-0.3,0.2-0.6,0.2L622.2,569L622.2,569z M639,569c-0.2,0-0.4-0.1-0.6-0.2c-0.1-0.1-0.2-0.3-0.2-0.6v-24
	c0-0.2,0.1-0.4,0.2-0.6c0.1-0.1,0.3-0.2,0.6-0.2h0.6c0.2,0,0.4,0.1,0.6,0.2s0.2,0.3,0.2,0.6v24c0,0.2-0.1,0.4-0.2,0.6
	c-0.1,0.1-0.3,0.2-0.6,0.2H639z M651.3,569.4c-1.2,0-2.2-0.2-3.2-0.7s-1.8-1.1-2.4-1.9c-0.6-0.8-0.9-1.7-0.9-2.7
	c0-1.6,0.6-2.9,1.9-3.9c1.3-1,3-1.7,5.2-1.9l5.7-0.8v-1.3c0-1.3-0.4-2.3-1.2-3s-2-1.1-3.7-1.1c-1.2,0-2.2,0.2-3,0.7
	s-1.3,1.1-1.5,1.7c-0.1,0.3-0.2,0.5-0.4,0.6c-0.1,0.1-0.3,0.1-0.5,0.1h-0.5c-0.2,0-0.4-0.1-0.6-0.2c-0.1-0.2-0.2-0.4-0.2-0.6
	c0-0.5,0.2-1.1,0.7-1.8s1.2-1.3,2.2-1.9c1-0.5,2.2-0.8,3.7-0.8c2.6,0,4.4,0.6,5.5,1.8s1.6,2.7,1.6,4.5v12c0,0.2-0.1,0.4-0.2,0.6
	c-0.1,0.1-0.3,0.2-0.6,0.2h-0.6c-0.2,0-0.4-0.1-0.6-0.2c-0.1-0.1-0.2-0.3-0.2-0.6v-1.7c-0.5,0.8-1.3,1.5-2.3,2
	C654.3,569.1,652.9,569.4,651.3,569.4z M651.6,567.3c1.8,0,3.2-0.6,4.3-1.7s1.7-2.8,1.7-5v-1.2L653,560c-2,0.3-3.5,0.7-4.5,1.4
	c-1,0.6-1.5,1.5-1.5,2.4c0,1.1,0.5,2,1.4,2.6C649.3,567,650.4,567.3,651.6,567.3z M668.4,575.8c-0.2,0-0.4-0.1-0.5-0.2
	c-0.1-0.1-0.2-0.3-0.2-0.5c0-0.1,0.1-0.4,0.2-0.7l2.8-6.5l-6.9-16.2c-0.1-0.4-0.2-0.6-0.2-0.7c0-0.2,0.1-0.4,0.2-0.5
	c0.1-0.1,0.3-0.2,0.5-0.2h0.8c0.4,0,0.7,0.2,0.8,0.5l6,14.3l6.2-14.3c0.2-0.4,0.5-0.5,0.8-0.5h0.7c0.2,0,0.4,0.1,0.5,0.2
	c0.1,0.1,0.2,0.3,0.2,0.5c0,0.1-0.1,0.4-0.2,0.7l-10.2,23.6c-0.2,0.4-0.4,0.5-0.8,0.5L668.4,575.8L668.4,575.8z M690.7,569.4
	c-2.3,0-4.1-0.7-5.5-2.2s-2.2-3.5-2.4-6v-1.4v-1.4c0.2-2.5,1-4.5,2.3-6c1.4-1.5,3.2-2.3,5.5-2.3c2.5,0,4.4,0.8,5.8,2.5
	c1.4,1.7,2.1,3.9,2.1,6.8v0.5c0,0.2-0.1,0.4-0.3,0.6c-0.1,0.1-0.3,0.2-0.6,0.2H685v0.4c0,1.1,0.3,2.2,0.8,3.2s1.1,1.7,2,2.3
	c0.8,0.6,1.8,0.9,3,0.9c1.3,0,2.4-0.3,3.2-0.8s1.4-1.1,1.8-1.6c0.2-0.3,0.4-0.5,0.5-0.5c0.1-0.1,0.3-0.1,0.6-0.1h0.6
	c0.2,0,0.4,0.1,0.5,0.2c0.1,0.1,0.2,0.3,0.2,0.5c0,0.5-0.3,1.1-1,1.8c-0.6,0.7-1.5,1.3-2.6,1.8C693.4,569.1,692.1,569.4,690.7,569.4
	z M696.5,558.5L696.5,558.5c0-1.9-0.5-3.5-1.6-4.7c-1-1.2-2.4-1.8-4.2-1.8s-3.1,0.6-4.2,1.8c-1,1.2-1.5,2.7-1.5,4.6v0.1H696.5z
	 M704.2,569c-0.2,0-0.4-0.1-0.6-0.2c-0.1-0.1-0.2-0.3-0.2-0.6v-17.1c0-0.2,0.1-0.4,0.2-0.6c0.1-0.2,0.3-0.3,0.6-0.3h0.6
	c0.2,0,0.4,0.1,0.6,0.3c0.2,0.1,0.3,0.3,0.3,0.6v1.7c0.9-1.7,2.5-2.5,4.9-2.5h1.3c0.2,0,0.4,0.1,0.6,0.2c0.1,0.1,0.2,0.3,0.2,0.6
	v0.5c0,0.2-0.1,0.4-0.2,0.6c-0.1,0.1-0.3,0.2-0.6,0.2h-1.5c-1.4,0-2.6,0.4-3.4,1.3c-0.8,0.8-1.3,2-1.3,3.4v11.2
	c0,0.2-0.1,0.4-0.3,0.6c-0.1,0.1-0.3,0.2-0.6,0.2h-0.6V569z"/>
<path class="st1" d="M786.1,433c-0.2,0-0.3-0.1-0.4-0.2s-0.2-0.2-0.2-0.4v-17c0-0.2,0.1-0.3,0.2-0.4c0.1-0.1,0.2-0.2,0.4-0.2h6.1
	c1.9,0,3.3,0.4,4.4,1.3s1.6,2.2,1.6,3.9c0,1.4-0.3,2.5-1,3.3s-1.6,1.4-2.9,1.7l4.2,7.1c0.1,0.1,0.1,0.2,0.1,0.3
	c0,0.1-0.1,0.3-0.2,0.4s-0.2,0.2-0.4,0.2h-0.3c-0.3,0-0.5-0.1-0.6-0.2s-0.3-0.3-0.4-0.5l-4.1-7h-5.4v7.1c0,0.2-0.1,0.3-0.2,0.4
	c-0.1,0.1-0.2,0.2-0.4,0.2L786.1,433L786.1,433z M792.1,423.7c1.5,0,2.6-0.3,3.4-0.9c0.7-0.6,1.1-1.6,1.1-2.8c0-1.2-0.4-2.1-1.1-2.8
	c-0.7-0.6-1.8-0.9-3.4-0.9h-4.9v7.4L792.1,423.7L792.1,423.7z M806.7,433.3c-1.6,0-3-0.5-4-1.6s-1.6-2.5-1.7-4.4v-1v-1
	c0.1-1.8,0.7-3.3,1.7-4.3c1-1.1,2.3-1.6,4-1.6c1.8,0,3.2,0.6,4.2,1.8c1,1.2,1.5,2.8,1.5,4.9v0.4c0,0.2-0.1,0.3-0.2,0.4
	c-0.1,0.1-0.2,0.2-0.4,0.2h-9.3v0.3c0,0.8,0.2,1.6,0.5,2.3c0.3,0.7,0.8,1.3,1.4,1.7c0.6,0.4,1.3,0.6,2.1,0.6c1,0,1.7-0.2,2.3-0.5
	c0.6-0.4,1-0.8,1.3-1.1c0.2-0.2,0.3-0.3,0.3-0.4c0.1-0.1,0.2-0.1,0.4-0.1h0.4c0.2,0,0.3,0,0.4,0.1c0.1,0.1,0.2,0.2,0.2,0.3
	c0,0.4-0.2,0.8-0.7,1.3s-1.1,0.9-1.9,1.3C808.7,433.1,807.7,433.3,806.7,433.3z M810.9,425.4v-0.1c0-1.3-0.4-2.4-1.1-3.3
	c-0.7-0.9-1.8-1.3-3-1.3c-1.3,0-2.3,0.4-3,1.3s-1.1,2-1.1,3.3v0.1H810.9z M819.5,433.3c-0.8,0-1.6-0.2-2.3-0.5s-1.3-0.8-1.7-1.4
	s-0.6-1.2-0.6-2c0-1.1,0.5-2.1,1.4-2.8c0.9-0.7,2.2-1.2,3.8-1.4l4.1-0.6v-0.9c0-1-0.3-1.7-0.9-2.2c-0.6-0.5-1.5-0.8-2.7-0.8
	c-0.9,0-1.6,0.2-2.2,0.5c-0.6,0.3-0.9,0.8-1.1,1.2c-0.1,0.2-0.2,0.4-0.3,0.4c-0.1,0.1-0.2,0.1-0.4,0.1h-0.4c-0.2,0-0.3-0.1-0.4-0.2
	c-0.1-0.1-0.2-0.3-0.2-0.4c0-0.4,0.2-0.8,0.5-1.3s0.9-1,1.6-1.4c0.7-0.4,1.6-0.6,2.7-0.6c1.9,0,3.2,0.4,4,1.3s1.2,2,1.2,3.2v8.7
	c0,0.2-0.1,0.3-0.2,0.4s-0.2,0.2-0.4,0.2h-0.4c-0.2,0-0.3-0.1-0.4-0.2s-0.2-0.2-0.2-0.4V431c-0.4,0.6-0.9,1.1-1.7,1.5
	C821.7,433.1,820.8,433.3,819.5,433.3z M819.8,431.8c1.3,0,2.3-0.4,3.1-1.2s1.2-2,1.2-3.6v-1l-3.4,0.5c-1.4,0.2-2.5,0.5-3.2,1
	s-1.1,1.1-1.1,1.8c0,0.8,0.3,1.4,1,1.8C818.1,431.5,818.9,431.8,819.8,431.8z M830.4,433c-0.2,0-0.3-0.1-0.4-0.2s-0.2-0.2-0.2-0.4
	v-17.3c0-0.2,0.1-0.3,0.2-0.4s0.2-0.2,0.4-0.2h0.4c0.2,0,0.3,0.1,0.4,0.2s0.2,0.2,0.2,0.4v17.3c0,0.2-0.1,0.3-0.2,0.4
	s-0.2,0.2-0.4,0.2H830.4z M847.5,433c-0.4,0-0.7-0.2-0.9-0.6l-6-16.8l-0.1-0.3c0-0.1,0.1-0.3,0.2-0.4s0.2-0.2,0.4-0.2h0.5
	c0.2,0,0.3,0,0.4,0.1c0.1,0.1,0.2,0.2,0.2,0.3l5.7,15.9l5.7-15.9c0-0.1,0.1-0.2,0.2-0.3c0.1-0.1,0.2-0.1,0.4-0.1h0.5
	c0.1,0,0.3,0.1,0.4,0.2c0.1,0.1,0.2,0.2,0.2,0.4l-0.1,0.3l-6,16.8c-0.2,0.4-0.5,0.6-0.9,0.6H847.5z M860.4,433.3
	c-0.8,0-1.6-0.2-2.3-0.5s-1.3-0.8-1.7-1.4s-0.6-1.2-0.6-2c0-1.1,0.5-2.1,1.4-2.8c0.9-0.7,2.2-1.2,3.8-1.4l4.1-0.6v-0.9
	c0-1-0.3-1.7-0.9-2.2c-0.6-0.5-1.5-0.8-2.7-0.8c-0.9,0-1.6,0.2-2.2,0.5c-0.6,0.3-0.9,0.8-1.1,1.2c-0.1,0.2-0.2,0.4-0.3,0.4
	c-0.1,0.1-0.2,0.1-0.4,0.1h-0.4c-0.2,0-0.3-0.1-0.4-0.2c-0.1-0.1-0.2-0.3-0.2-0.4c0-0.4,0.2-0.8,0.5-1.3s0.9-1,1.6-1.4
	c0.7-0.4,1.6-0.6,2.7-0.6c1.9,0,3.2,0.4,4,1.3s1.2,2,1.2,3.2v8.7c0,0.2-0.1,0.3-0.2,0.4s-0.2,0.2-0.4,0.2h-0.4
	c-0.2,0-0.3-0.1-0.4-0.2s-0.2-0.2-0.2-0.4V431c-0.4,0.6-0.9,1.1-1.7,1.5C862.6,433.1,861.7,433.3,860.4,433.3z M860.7,431.8
	c1.3,0,2.3-0.4,3.1-1.2c0.8-0.8,1.2-2,1.2-3.6v-1l-3.4,0.5c-1.4,0.2-2.5,0.5-3.2,1s-1.1,1.1-1.1,1.8c0,0.8,0.3,1.4,1,1.8
	C859,431.5,859.8,431.8,860.7,431.8z M871.3,433c-0.2,0-0.3-0.1-0.4-0.2s-0.2-0.2-0.2-0.4v-17.3c0-0.2,0.1-0.3,0.2-0.4
	s0.2-0.2,0.4-0.2h0.4c0.2,0,0.3,0.1,0.4,0.2s0.2,0.2,0.2,0.4v17.3c0,0.2-0.1,0.3-0.2,0.4s-0.2,0.2-0.4,0.2H871.3z M881.7,433.3
	c-1.7,0-3-0.5-3.9-1.6s-1.3-2.5-1.3-4.2V420c0-0.2,0.1-0.3,0.2-0.4s0.2-0.2,0.4-0.2h0.4c0.2,0,0.3,0.1,0.4,0.2s0.2,0.2,0.2,0.4v7.3
	c0,3,1.3,4.4,3.9,4.4c1.2,0,2.2-0.4,3-1.2c0.7-0.8,1.1-1.9,1.1-3.3V420c0-0.2,0.1-0.3,0.2-0.4s0.2-0.2,0.4-0.2h0.4
	c0.2,0,0.3,0.1,0.4,0.2s0.2,0.2,0.2,0.4v12.4c0,0.2-0.1,0.3-0.2,0.4s-0.2,0.2-0.4,0.2h-0.4c-0.2,0-0.3-0.1-0.4-0.2s-0.2-0.2-0.2-0.4
	v-1.2c-0.5,0.7-1.1,1.2-1.8,1.5C883.5,433.1,882.7,433.3,881.7,433.3z M896.8,433.3c-1.6,0-3-0.5-4-1.6s-1.6-2.5-1.7-4.4v-1v-1
	c0.1-1.8,0.7-3.3,1.7-4.3c1-1.1,2.3-1.6,4-1.6c1.8,0,3.2,0.6,4.2,1.8c1,1.2,1.5,2.8,1.5,4.9v0.4c0,0.2-0.1,0.3-0.2,0.4
	c-0.1,0.1-0.2,0.2-0.4,0.2h-9.3v0.3c0,0.8,0.2,1.6,0.5,2.3c0.3,0.7,0.8,1.3,1.4,1.7c0.6,0.4,1.3,0.6,2.1,0.6c1,0,1.7-0.2,2.3-0.5
	c0.6-0.4,1-0.8,1.3-1.1c0.2-0.2,0.3-0.3,0.3-0.4c0.1-0.1,0.2-0.1,0.4-0.1h0.4c0.2,0,0.3,0,0.4,0.1c0.1,0.1,0.2,0.2,0.2,0.3
	c0,0.4-0.2,0.8-0.7,1.3s-1.1,0.9-1.9,1.3C898.8,433.1,897.8,433.3,896.8,433.3z M901,425.4v-0.1c0-1.3-0.4-2.4-1.1-3.3
	c-0.7-0.9-1.8-1.3-3-1.3c-1.3,0-2.3,0.4-3,1.3s-1.1,2-1.1,3.3v0.1H901z M801.7,465.3c-0.8,0-1.6-0.2-2.3-0.5s-1.3-0.8-1.7-1.4
	s-0.6-1.2-0.6-2c0-1.1,0.5-2.1,1.4-2.8c0.9-0.7,2.2-1.2,3.8-1.4l4.1-0.6v-0.9c0-1-0.3-1.7-0.9-2.2c-0.6-0.5-1.5-0.8-2.7-0.8
	c-0.9,0-1.6,0.2-2.2,0.5c-0.6,0.3-0.9,0.8-1.1,1.2c-0.1,0.2-0.2,0.4-0.3,0.4c-0.1,0.1-0.2,0.1-0.4,0.1h-0.4c-0.2,0-0.3-0.1-0.4-0.2
	c-0.1-0.1-0.2-0.3-0.2-0.4c0-0.4,0.2-0.8,0.5-1.3s0.9-1,1.6-1.4c0.7-0.4,1.6-0.6,2.7-0.6c1.9,0,3.2,0.4,4,1.3s1.2,2,1.2,3.2v8.7
	c0,0.2-0.1,0.3-0.2,0.4s-0.2,0.2-0.4,0.2h-0.4c-0.2,0-0.3-0.1-0.4-0.2s-0.2-0.2-0.2-0.4V463c-0.4,0.6-0.9,1.1-1.7,1.5
	C803.9,465.1,802.9,465.3,801.7,465.3z M802,463.8c1.3,0,2.3-0.4,3.1-1.2c0.8-0.8,1.2-2,1.2-3.6v-1l-3.4,0.5c-1.4,0.2-2.5,0.5-3.2,1
	s-1.1,1.1-1.1,1.8c0,0.8,0.3,1.4,1,1.8C800.3,463.5,801.1,463.8,802,463.8z M816.4,465c-1.3,0-2.2-0.4-2.7-1.1
	c-0.5-0.8-0.8-1.8-0.8-3.2V453h-2c-0.2,0-0.3-0.1-0.4-0.2c-0.1-0.1-0.2-0.2-0.2-0.4V452c0-0.2,0.1-0.3,0.2-0.4s0.2-0.2,0.4-0.2h2
	V447c0-0.2,0.1-0.3,0.2-0.4s0.2-0.2,0.4-0.2h0.4c0.2,0,0.3,0.1,0.4,0.2c0.1,0.1,0.2,0.2,0.2,0.4v4.4h3.2c0.2,0,0.3,0.1,0.4,0.2
	s0.2,0.2,0.2,0.4v0.4c0,0.2-0.1,0.3-0.2,0.4c-0.1,0.1-0.2,0.2-0.4,0.2h-3.2v7.6c0,1,0.2,1.7,0.5,2.2s0.9,0.7,1.6,0.7h1.4
	c0.2,0,0.3,0.1,0.4,0.2s0.2,0.2,0.2,0.4v0.4c0,0.2-0.1,0.3-0.2,0.4s-0.2,0.2-0.4,0.2h-1.6V465z M833.7,465.3c-1.4,0-2.5-0.2-3.5-0.6
	c-1-0.5-1.8-1-2.3-1.7s-0.8-1.5-0.8-2.3c0-0.1,0.1-0.3,0.2-0.4s0.2-0.2,0.4-0.2h0.5c0.3,0,0.5,0.2,0.6,0.5c0.1,0.8,0.6,1.6,1.4,2.2
	c0.8,0.6,2,0.9,3.6,0.9s2.9-0.3,3.7-0.9s1.2-1.4,1.2-2.5c0-0.7-0.2-1.2-0.6-1.6c-0.4-0.4-0.9-0.8-1.7-1.1c-0.7-0.3-1.9-0.7-3.4-1.2
	c-1.3-0.4-2.4-0.9-3.1-1.3c-0.7-0.4-1.3-0.9-1.7-1.5s-0.5-1.4-0.5-2.3s0.2-1.7,0.7-2.4c0.5-0.7,1.2-1.3,2.1-1.7
	c0.9-0.4,2-0.6,3.2-0.6c1.3,0,2.4,0.2,3.3,0.7c0.9,0.5,1.6,1,2.1,1.7s0.7,1.4,0.8,2.1c0,0.1-0.1,0.3-0.2,0.4
	c-0.1,0.1-0.2,0.2-0.4,0.2h-0.5c-0.1,0-0.2,0-0.4-0.1c-0.1-0.1-0.2-0.2-0.2-0.4c-0.1-0.9-0.6-1.6-1.4-2.1c-0.8-0.6-1.8-0.9-3.1-0.9
	s-2.4,0.3-3.2,0.8s-1.2,1.3-1.2,2.3c0,0.7,0.2,1.2,0.5,1.7c0.4,0.4,0.9,0.8,1.6,1.1c0.7,0.3,1.8,0.7,3.1,1.1
	c1.4,0.5,2.5,0.9,3.3,1.3s1.4,0.9,1.8,1.5c0.4,0.6,0.6,1.4,0.6,2.3c0,1.6-0.6,2.8-1.7,3.7C837.3,464.8,835.7,465.3,833.7,465.3z
	 M848.2,465c-1.3,0-2.2-0.4-2.7-1.1c-0.5-0.8-0.8-1.8-0.8-3.2V453h-2c-0.2,0-0.3-0.1-0.4-0.2c-0.1-0.1-0.2-0.2-0.2-0.4V452
	c0-0.2,0.1-0.3,0.2-0.4s0.2-0.2,0.4-0.2h2V447c0-0.2,0.1-0.3,0.2-0.4s0.2-0.2,0.4-0.2h0.4c0.2,0,0.3,0.1,0.4,0.2
	c0.1,0.1,0.2,0.2,0.2,0.4v4.4h3.2c0.2,0,0.3,0.1,0.4,0.2s0.2,0.2,0.2,0.4v0.4c0,0.2-0.1,0.3-0.2,0.4c-0.1,0.1-0.2,0.2-0.4,0.2h-3.2
	v7.6c0,1,0.2,1.7,0.5,2.2s0.9,0.7,1.6,0.7h1.4c0.2,0,0.3,0.1,0.4,0.2s0.2,0.2,0.2,0.4v0.4c0,0.2-0.1,0.3-0.2,0.4s-0.2,0.2-0.4,0.2
	h-1.6V465z M856.6,465.3c-0.8,0-1.6-0.2-2.3-0.5s-1.3-0.8-1.7-1.4s-0.6-1.2-0.6-2c0-1.1,0.5-2.1,1.4-2.8c0.9-0.7,2.2-1.2,3.8-1.4
	l4.1-0.6v-0.9c0-1-0.3-1.7-0.9-2.2c-0.6-0.5-1.5-0.8-2.7-0.8c-0.9,0-1.6,0.2-2.2,0.5c-0.6,0.3-0.9,0.8-1.1,1.2
	c-0.1,0.2-0.2,0.4-0.3,0.4c-0.1,0.1-0.2,0.1-0.4,0.1h-0.4c-0.2,0-0.3-0.1-0.4-0.2c-0.1-0.1-0.2-0.3-0.2-0.4c0-0.4,0.2-0.8,0.5-1.3
	s0.9-1,1.6-1.4c0.7-0.4,1.6-0.6,2.7-0.6c1.9,0,3.2,0.4,4,1.3s1.2,2,1.2,3.2v8.7c0,0.2-0.1,0.3-0.2,0.4s-0.2,0.2-0.4,0.2h-0.4
	c-0.2,0-0.3-0.1-0.4-0.2c-0.1-0.1-0.2-0.2-0.2-0.4V463c-0.4,0.6-0.9,1.1-1.7,1.5C858.8,465.1,857.9,465.3,856.6,465.3z M856.9,463.8
	c1.3,0,2.3-0.4,3.1-1.2c0.8-0.8,1.2-2,1.2-3.6v-1l-3.4,0.5c-1.4,0.2-2.5,0.5-3.2,1s-1.1,1.1-1.1,1.8c0,0.8,0.3,1.4,1,1.8
	C855.2,463.5,856,463.8,856.9,463.8z M867.5,465c-0.2,0-0.3-0.1-0.4-0.2c-0.1-0.1-0.2-0.2-0.2-0.4v-17.3c0-0.2,0.1-0.3,0.2-0.4
	c0.1-0.1,0.2-0.2,0.4-0.2h0.4c0.2,0,0.3,0.1,0.4,0.2s0.2,0.2,0.2,0.4v9.2l5.8-4.4c0.3-0.2,0.5-0.3,0.6-0.4s0.3-0.1,0.5-0.1h0.5
	c0.2,0,0.3,0.1,0.4,0.2c0.1,0.1,0.2,0.2,0.2,0.4c0,0.2-0.1,0.4-0.3,0.5l-6.6,5l7.2,6.4c0.2,0.2,0.3,0.4,0.3,0.5
	c0,0.2-0.1,0.3-0.2,0.4c-0.1,0.1-0.2,0.1-0.4,0.1h-0.4c-0.3,0-0.5,0-0.6-0.1s-0.3-0.2-0.5-0.4l-6.5-5.8v5.7c0,0.2-0.1,0.3-0.2,0.4
	s-0.2,0.2-0.4,0.2L867.5,465L867.5,465z M884,465.3c-1.6,0-3-0.5-4-1.6s-1.6-2.5-1.7-4.4v-1v-1c0.1-1.8,0.7-3.3,1.7-4.3
	c1-1.1,2.3-1.6,4-1.6c1.8,0,3.2,0.6,4.2,1.8c1,1.2,1.5,2.8,1.5,4.9v0.4c0,0.2-0.1,0.3-0.2,0.4c-0.1,0.1-0.2,0.2-0.4,0.2h-9.3v0.3
	c0,0.8,0.2,1.6,0.5,2.3c0.3,0.7,0.8,1.3,1.4,1.7c0.6,0.4,1.3,0.6,2.1,0.6c1,0,1.7-0.2,2.3-0.5c0.6-0.4,1-0.8,1.3-1.1
	c0.2-0.2,0.3-0.3,0.3-0.4c0.1-0.1,0.2-0.1,0.4-0.1h0.4c0.2,0,0.3,0,0.4,0.1c0.1,0.1,0.2,0.2,0.2,0.3c0,0.4-0.2,0.8-0.7,1.3
	s-1.1,0.9-1.9,1.3C885.9,465.1,885,465.3,884,465.3z M888.1,457.4v-0.1c0-1.3-0.4-2.4-1.1-3.3c-0.7-0.9-1.8-1.3-3-1.3
	c-1.3,0-2.3,0.4-3,1.3s-1.1,2-1.1,3.3v0.1H888.1z"/>
<path class="st3" d="M841.6,342.7c-7.9,0-14.4-6.4-14.4-14.4c0-7.9,6.4-14.4,14.4-14.4c7.9,0,14.4,6.4,14.4,14.4
	C856,336.3,849.6,342.7,841.6,342.7z M841.6,320.4c-4.4,0-7.9,3.6-7.9,7.9c0,4.4,3.6,7.9,7.9,7.9c4.4,0,7.9-3.6,7.9-7.9
	C849.6,324,846,320.4,841.6,320.4z"/>
<path class="st3" d="M898.8,347.1v0.2l0.1,0.1c2.2,2.3,3.6,5.3,3.6,8.7c0,3.4-1.4,6.5-3.6,8.7l-0.1,0.1v0.2v23
	c0,5.6-4.6,10.2-10.2,10.2h-93.9c-5.6,0-10.2-4.6-10.2-10.2v-97.6c0-5.6,4.6-10.2,10.2-10.2h93.9c5.6,0,10.2,4.6,10.2,10.2v23v0.2
	l0.1,0.1c2.2,2.3,3.6,5.3,3.6,8.7s-1.4,6.5-3.6,8.7l-0.1,0.1v0.2V347.1z M885.8,328.3v0.5h0.5h3.7c3.4,0,6.1-2.7,6.1-6.1
	s-2.7-6.1-6.1-6.1h-3.7h-0.5v0.5V328.3z M886.3,335.3h-0.5v0.5v7.4v0.5h0.5h3.7c0.6,0,1.2,0,1.8,0.1l0.6,0.1v-0.6v-7.7V335l-0.6,0.1
	c-0.6,0.1-1.2,0.1-1.8,0.1h-3.7V335.3z M886.3,350.2h-0.5v0.5v11.2v0.5h0.5h3.7c3.4,0,6.1-2.7,6.1-6.1s-2.7-6.1-6.1-6.1H886.3z
	 M891.8,310.4l0.6,0.1v-0.6v-19.2c0-2.1-1.7-3.8-3.8-3.8h-93.9c-2.1,0-3.8,1.7-3.8,3.8v97.6c0,2.1,1.7,3.8,3.8,3.8h93.9
	c2.1,0,3.8-1.7,3.8-3.8v-19.2v-0.6l-0.6,0.1c-0.6,0.1-1.2,0.1-1.8,0.1h-3.7h-0.5v0.5v6c0,5.6-4.6,10.2-10.2,10.2h-67.9
	c-5.6,0-10.2-4.6-10.2-10.2v-71.6c0-5.6,4.6-10.2,10.2-10.2h67.9c5.6,0,10.2,4.6,10.2,10.2v6v0.5h0.5h3.7
	C890.6,310.2,891.2,310.3,891.8,310.4z M879.3,332.1v-18.6v-9.8c0-2.1-1.7-3.8-3.8-3.8h-67.9c-2.1,0-3.8,1.7-3.8,3.8v71.6
	c0,2.1,1.7,3.8,3.8,3.8h67.9c2.1,0,3.8-1.7,3.8-3.8v-9.8v-18.6V332.1z"/>
<path class="st3" d="M817.5,361.3c-1.8,0-3.2-1.4-3.2-3.2v-14.9c0-1.8,1.4-3.2,3.2-3.2s3.2,1.4,3.2,3.2v14.9
	C820.7,359.9,819.2,361.3,817.5,361.3z"/>
<path class="st4" d="M669.5,410.6c-46.5,49.2-124.1,51.3-173.3,4.8s-51.4-124.2-4.9-173.4s124.1-51.3,173.3-4.8
	C713.9,283.8,716,361.4,669.5,410.6z M655.1,396.9c39-41.2,37.2-106.3-4.1-145.3c-41.2-39-106.3-37.2-145.3,4s-37.2,106.3,4.1,145.3
	C551.1,440,616.1,438.2,655.1,396.9z"/>
<path class="st2" d="M642,385c-32.5,34.1-86.4,35.4-120.4,3s-35.2-86.3-2.7-120.4s86.4-35.4,120.4-3S674.5,350.9,642,385z"/>
<rect x="521.9" y="271" class="st5" width="116" height="119"/>
<path class="st1" d="M116.6,422.9c5.7-5.5,9-11.2,6.6-15.3c-0.9-1.5-3-3.4-7.9-3.4c-2.4,0-5.2,0.4-8.3,1.3c-2-7.3-5.3-12.5-9.8-12.5
	c-4.6,0-8,5.5-9.9,13c-3.2-0.9-6.2-1.4-8.8-1.4c-4.9,0-7,1.8-7.9,3.4c-1.7,3-0.4,7.4,3.8,12.3c0.8,0.9,1.6,1.8,2.5,2.7
	c-0.8,0.8-1.6,1.6-2.3,2.4c-4.2,4.9-5.5,9.3-3.8,12.3c0.9,1.5,3,3.4,7.9,3.4c2.5,0,5.3-0.5,8.4-1.3c1.9,7.7,5.3,13.3,10,13.3
	c4.6,0,7.9-5.4,9.9-12.9c2.9,0.8,5.6,1.2,8,1.2c4.9,0,7-1.8,7.9-3.4c1.7-3,0.4-7.4-3.8-12.3C118.4,424.8,117.6,423.8,116.6,422.9z
	 M115.4,407.5c2.6,0,4.4,0.6,5.1,1.7c1,1.7-0.3,4.9-3.4,8.6c-0.8,1-1.7,1.9-2.7,2.9c-1.6-1.4-3.4-2.8-5.3-4.1
	c-0.2-2.7-0.6-5.4-1.1-7.9C110.6,407.9,113.2,407.5,115.4,407.5z M101.4,430.1c-1.6,0.9-3.2,1.8-4.8,2.5c-1.4-0.7-2.7-1.4-4.1-2.2
	c-1.3-0.7-2.5-1.5-3.8-2.3c-0.1-1.7-0.2-3.4-0.2-5.2c0-1.8,0.1-3.7,0.2-5.4c1.3-0.8,2.6-1.7,4-2.4c1.3-0.7,2.6-1.4,3.9-2.1
	c1.5,0.7,3.1,1.6,4.6,2.4c1.6,0.9,3.1,1.9,4.6,2.9c0.1,1.5,0.1,3.1,0.1,4.6s0,2.9-0.1,4.4C104.4,428.3,103,429.2,101.4,430.1z
	 M105.5,431.4c-0.2,1.6-0.4,3.2-0.7,4.6c-1.4-0.5-2.9-1.1-4.4-1.7c0.9-0.5,1.8-1,2.7-1.5C103.9,432.4,104.7,431.9,105.5,431.4z
	 M92.9,434.3c-1.1,0.4-2.1,0.8-3.2,1.2c-0.2-1.1-0.4-2.2-0.5-3.3c0.6,0.3,1.2,0.7,1.7,1C91.6,433.6,92.2,434,92.9,434.3z
	 M85.4,425.8c-1.3-1-2.5-1.9-3.7-2.9c1.1-1,2.4-2,3.7-3c0,1-0.1,2.1-0.1,3.1C85.4,423.9,85.4,424.9,85.4,425.8z M89.2,413.5
	c0.2-1.1,0.3-2.3,0.5-3.4c1,0.4,2.1,0.8,3.2,1.2c-0.6,0.3-1.2,0.6-1.8,1C90.5,412.7,89.8,413.1,89.2,413.5z M100.3,411.3
	c1.5-0.6,3-1.2,4.4-1.7c0.3,1.5,0.5,3,0.7,4.7c-0.9-0.5-1.7-1.1-2.6-1.6C102,412.2,101.2,411.8,100.3,411.3z M109.2,420.8
	c0.9,0.7,1.8,1.4,2.7,2.1c-0.8,0.7-1.7,1.4-2.7,2.1c0-0.7,0-1.3,0-2S109.2,421.5,109.2,420.8z M91.5,403.5c1.6-4.5,3.8-7.3,5.8-7.3
	s4.1,2.7,5.8,7.3c0.3,0.9,0.7,2,0.9,3c-2.4,0.8-4.9,1.8-7.4,3c-2.1-1-4.2-1.8-6.2-2.5C90.8,405.7,91.1,404.6,91.5,403.5z
	 M73.5,409.6c0.7-1.1,2.5-1.7,5.1-1.7c2.3,0,5,0.5,8,1.3c-0.4,2.1-0.7,4.3-0.9,6.6c-2.3,1.6-4.5,3.3-6.4,4.9
	c-0.9-0.8-1.7-1.7-2.4-2.5C73.8,414.5,72.6,411.3,73.5,409.6z M78.8,437.8c-2.6,0-4.4-0.6-5.1-1.7c-1-1.7,0.3-4.9,3.4-8.6
	c0.7-0.8,1.4-1.5,2.1-2.3c1.9,1.7,4,3.3,6.3,4.9c0.2,2.2,0.5,4.4,0.9,6.5C83.7,437.3,81.1,437.8,78.8,437.8z M103.1,442.5
	c-1.6,4.5-3.8,7.3-5.8,7.3s-4.1-2.7-5.8-7.3c-0.4-1.2-0.8-2.5-1.2-3.8c2-0.7,4.1-1.5,6.2-2.5c2.5,1.2,5.1,2.2,7.5,3
	C103.8,440.4,103.4,441.5,103.1,442.5z M120.2,436.4c-0.7,1.1-2.5,1.7-5.1,1.7c-2.1,0-4.5-0.4-7.2-1.1c0.5-2.5,0.9-5.2,1.1-7.9
	c1.9-1.3,3.6-2.7,5.3-4.1c0.9,0.9,1.8,1.8,2.5,2.7C119.9,431.5,121.2,434.7,120.2,436.4z"/>
<path class="st1" d="M97.3,426.1c1.8,0,3.2-1.4,3.2-3.2c0-1.8-1.4-3.2-3.2-3.2c-1.8,0-3.2,1.4-3.2,3.2
	C94.1,424.7,95.5,426.1,97.3,426.1z"/>
<path class="st6" d="M195,402.6c0.6,0,1.2-0.5,1.2-1.2v-2.2c0-0.6-0.5-1.2-1.2-1.2s-1.2,0.5-1.2,1.2v2.2
	C193.8,402.1,194.4,402.6,195,402.6z"/>
<path class="st6" d="M195,443.9c-0.6,0-1.2,0.5-1.2,1.2v2.2c0,0.6,0.5,1.2,1.2,1.2s1.2-0.5,1.2-1.2v-2.2
	C196.2,444.4,195.6,443.9,195,443.9z"/>
<path class="st6" d="M219,422.1h-2.2c-0.6,0-1.2,0.5-1.2,1.2s0.5,1.2,1.2,1.2h2.2c0.6,0,1.2-0.5,1.2-1.2S219.7,422.1,219,422.1z"/>
<path class="st6" d="M173.2,422.1H171c-0.6,0-1.2,0.5-1.2,1.2s0.5,1.2,1.2,1.2h2.2c0.6,0,1.2-0.5,1.2-1.2S173.8,422.1,173.2,422.1z"
	/>
<path class="st6" d="M210.4,409c0.3,0,0.6-0.1,0.8-0.3l1.6-1.6c0.5-0.5,0.5-1.2,0-1.7s-1.2-0.5-1.7,0l-1.6,1.6
	c-0.5,0.5-0.5,1.2,0,1.7C209.8,408.9,210.1,409,210.4,409z"/>
<path class="st6" d="M178.8,437.9l-1.6,1.6c-0.5,0.5-0.5,1.2,0,1.7c0.2,0.2,0.5,0.3,0.8,0.3s0.6-0.1,0.8-0.3l1.6-1.6
	c0.5-0.5,0.5-1.2,0-1.7C179.9,437.4,179.2,437.4,178.8,437.9z"/>
<path class="st6" d="M211.3,437.9c-0.5-0.5-1.2-0.5-1.7,0s-0.5,1.2,0,1.7l1.6,1.6c0.2,0.2,0.5,0.3,0.8,0.3s0.6-0.1,0.8-0.3
	c0.5-0.5,0.5-1.2,0-1.7L211.3,437.9z"/>
<path class="st6" d="M178.8,408.7c0.2,0.2,0.5,0.3,0.8,0.3s0.6-0.1,0.8-0.3c0.5-0.5,0.5-1.2,0-1.7l-1.6-1.6c-0.5-0.5-1.2-0.5-1.7,0
	s-0.5,1.2,0,1.7L178.8,408.7z"/>
<path class="st6" d="M195,404.6c-10.2,0-18.4,8.3-18.4,18.4s8.3,18.4,18.4,18.4s18.4-8.3,18.4-18.4S205.2,404.6,195,404.6z
	 M195,439.1c-8.9,0-16.1-7.2-16.1-16.1s7.2-16.1,16.1-16.1s16.1,7.2,16.1,16.1S203.9,439.1,195,439.1z"/>
<path class="st6" d="M216.2,401.8c-5.7-5.7-13.2-8.8-21.2-8.8s-15.5,3.1-21.2,8.8c-5.7,5.7-8.8,13.2-8.8,21.2s3.1,15.5,8.8,21.2
	S187,453,195,453s15.5-3.1,21.2-8.8c5.7-5.7,8.8-13.2,8.8-21.2S221.9,407.5,216.2,401.8z M195,450.7c-15.3,0-27.7-12.4-27.7-27.7
	s12.4-27.7,27.7-27.7s27.7,12.4,27.7,27.7S210.3,450.7,195,450.7z"/>
<path class="st6" d="M199.5,421.9c0.9-0.9,1.5-2.2,1.5-3.6c0-2.4-1.6-4.4-3.8-5V412c0-0.6-0.5-1.2-1.2-1.2s-1.2,0.5-1.2,1.2v1h-3v-1
	c0-0.6-0.5-1.2-1.2-1.2c-0.6,0-1.2,0.5-1.2,1.2v1h-0.8c-0.6,0-1.2,0.5-1.2,1.2s0.5,1.2,1.2,1.2h0.8v15.4h-0.8
	c-0.6,0-1.2,0.5-1.2,1.2s0.5,1.2,1.2,1.2h0.8v0.9c0,0.6,0.5,1.2,1.2,1.2c0.6,0,1.2-0.5,1.2-1.2v-0.9c0.1,0,0.3,0,0.4-0.1
	c0.8,0,1.8,0,2.7,0v1c0,0.6,0.5,1.2,1.2,1.2s1.2-0.5,1.2-1.2v-1c3-0.3,5.3-2.8,5.3-5.9C202.5,424.8,201.3,422.9,199.5,421.9z
	 M198.6,418.2c0,1.6-1.3,2.9-2.9,2.9h-3.9v-5.8h3.9C197.3,415.4,198.6,416.6,198.6,418.2z M196.6,430.6c-0.9,0-3.3,0-4.8,0v-7.2h4.8
	c2,0,3.6,1.6,3.6,3.6C200.2,429,198.6,430.6,196.6,430.6z"/>
<path class="st7" d="M16.7,432.5L2,423.9l14.7-24.5v17.3V432.5z"/>
<path class="st7" d="M19.7,432.5l14.7-8.6l-14.7-24.5v17.3V432.5z"/>
<path class="st7" d="M16.5,439.5v9.9L5.1,432.7L16.5,439.5z"/>
<path class="st7" d="M19.7,439.5v9.9l11.5-16.6L19.7,439.5z"/>
<path class="st1" d="M78.7,500c-0.1,0-0.2,0-0.3-0.1c-0.1-0.1-0.1-0.2-0.1-0.3v-11.7c0-0.1,0-0.2,0.1-0.3c0.1-0.1,0.2-0.1,0.3-0.1
	h2.6c0.1,0,0.2,0,0.3,0.1c0.1,0.1,0.1,0.2,0.1,0.3v11.7c0,0.1,0,0.2-0.1,0.3c-0.1,0.1-0.2,0.1-0.3,0.1H78.7z M84.6,500
	c-0.1,0-0.2,0-0.3-0.1c-0.1-0.1-0.1-0.2-0.1-0.3v-11.7c0-0.1,0-0.2,0.1-0.3c0.1-0.1,0.2-0.1,0.3-0.1h5.6c1.5,0,2.7,0.3,3.4,0.9
	c0.7,0.6,1.1,1.5,1.1,2.7c0,0.6-0.2,1.1-0.5,1.5s-0.6,0.7-1,0.9c0.5,0.2,0.9,0.6,1.2,1.1c0.3,0.5,0.5,1,0.5,1.7
	c0,1.2-0.4,2.2-1.2,2.8c-0.8,0.7-1.9,1-3.4,1h-5.7V500z M89.8,492.4c0.4,0,0.8-0.1,1-0.4s0.4-0.6,0.4-0.9c0-0.4-0.1-0.7-0.4-0.9
	c-0.2-0.2-0.6-0.4-1-0.4h-2.3v2.6L89.8,492.4L89.8,492.4z M89.9,497.6c0.5,0,0.8-0.1,1.1-0.4c0.3-0.3,0.4-0.6,0.4-1s-0.1-0.7-0.4-1
	s-0.6-0.4-1.1-0.4h-2.4v2.8H89.9z M102.1,500.2c-1.7,0-3.1-0.4-4-1.2c-1-0.8-1.5-2-1.5-3.6c0-0.3,0-0.9,0-1.6s0-1.3,0-1.6
	c0.1-1.6,0.6-2.8,1.6-3.6c1-0.9,2.3-1.3,4-1.3c1.1,0,2,0.2,2.9,0.5s1.5,0.9,2,1.5s0.8,1.4,0.8,2.3c0,0.1,0,0.2-0.1,0.3
	c-0.1,0.1-0.2,0.1-0.3,0.1h-2.6c-0.2,0-0.3,0-0.4-0.1s-0.1-0.2-0.2-0.4c-0.2-0.6-0.4-1-0.8-1.2c-0.3-0.2-0.8-0.4-1.3-0.4
	c-1.4,0-2.1,0.8-2.1,2.3c0,0.3,0,0.8,0,1.5s0,1.2,0,1.5c0,1.5,0.7,2.3,2.1,2.3c0.6,0,1-0.1,1.3-0.4c0.4-0.2,0.6-0.6,0.8-1.2
	c0-0.2,0.1-0.3,0.2-0.4s0.2-0.1,0.4-0.1h2.6c0.1,0,0.2,0,0.3,0.1c0.1,0.1,0.1,0.2,0.1,0.3c0,0.9-0.3,1.7-0.8,2.3s-1.2,1.2-2,1.5
	C104.1,500,103.2,500.2,102.1,500.2z M112.9,501.5c-0.1,0-0.2,0-0.3-0.1c-0.1-0.1-0.1-0.2-0.1-0.3c0-0.1,0-0.1,0-0.2l6.1-14.7
	c0.1-0.3,0.4-0.5,0.7-0.5h1.7c0.1,0,0.2,0,0.3,0.1c0.1,0.1,0.1,0.2,0.1,0.3c0,0.1,0,0.1,0,0.2l-6.1,14.7c-0.1,0.3-0.3,0.4-0.7,0.4
	h-1.7V501.5z M126.2,500c-0.1,0-0.2,0-0.3-0.1c-0.1-0.1-0.1-0.2-0.1-0.3c0-0.1,0-0.1,0.1-0.2l3.9-5.8l-3.6-5.6
	c0-0.1-0.1-0.1-0.1-0.2s0-0.2,0.1-0.3c0.1-0.1,0.2-0.1,0.3-0.1h2.8c0.3,0,0.5,0.1,0.6,0.4l2,3.1l2.1-3.1c0.2-0.3,0.4-0.4,0.6-0.4
	h2.6c0.1,0,0.2,0,0.3,0.1s0.1,0.2,0.1,0.3c0,0.1,0,0.1-0.1,0.2l-3.7,5.5l4,5.9c0,0.1,0.1,0.1,0.1,0.2s0,0.2-0.1,0.3
	c-0.1,0.1-0.2,0.1-0.3,0.1h-2.8c-0.3,0-0.5-0.1-0.6-0.4l-2.3-3.3l-2.3,3.3c-0.2,0.2-0.4,0.4-0.6,0.4H126.2z M144,500.2
	c-1.7,0-3.1-0.4-4.1-1.2c-1-0.8-1.5-2-1.5-3.6c0-0.3,0-0.9,0-1.6s0-1.3,0-1.6c0.1-1.6,0.6-2.8,1.6-3.6c1-0.9,2.3-1.3,4-1.3
	c1.1,0,2,0.2,2.9,0.5s1.5,0.9,2,1.5c0.5,0.7,0.8,1.4,0.8,2.3c0,0.1,0,0.2-0.1,0.3c-0.1,0.1-0.2,0.1-0.3,0.1h-2.6
	c-0.2,0-0.3,0-0.4-0.1c-0.1-0.1-0.1-0.2-0.2-0.4c-0.2-0.6-0.4-1-0.8-1.2c-0.3-0.2-0.8-0.4-1.3-0.4c-1.4,0-2.1,0.8-2.1,2.3
	c0,0.3,0,0.8,0,1.5s0,1.2,0,1.5c0,1.5,0.8,2.3,2.1,2.3c0.6,0,1-0.1,1.3-0.4c0.4-0.2,0.6-0.6,0.8-1.2c0-0.2,0.1-0.3,0.2-0.4
	c0.1-0.1,0.2-0.1,0.4-0.1h2.6c0.1,0,0.2,0,0.3,0.1s0.1,0.2,0.1,0.3c0,0.9-0.3,1.7-0.8,2.3c-0.5,0.7-1.2,1.2-2,1.5
	C146,500,145.1,500.2,144,500.2z M152,500c-0.1,0-0.2,0-0.3-0.1s-0.1-0.2-0.1-0.3v-11.7c0-0.1,0-0.2,0.1-0.3
	c0.1-0.1,0.2-0.1,0.3-0.1h2c0.3,0,0.5,0.1,0.6,0.4l3.1,5.5l3.1-5.5c0.1-0.3,0.3-0.4,0.6-0.4h2c0.1,0,0.2,0,0.3,0.1s0.1,0.2,0.1,0.3
	v11.7c0,0.1,0,0.2-0.1,0.3c-0.1,0.1-0.2,0.1-0.3,0.1h-2.3c-0.1,0-0.2,0-0.3-0.1s-0.1-0.2-0.1-0.3V493l-1.9,3.6
	c-0.2,0.3-0.4,0.4-0.6,0.4h-1c-0.2,0-0.4-0.1-0.6-0.4l-1.9-3.6v6.6c0,0.1,0,0.2-0.1,0.3c-0.1,0.1-0.2,0.1-0.3,0.1H152z M166.9,500
	c-0.1,0-0.2,0-0.3-0.1s-0.1-0.2-0.1-0.3v-11.7c0-0.1,0-0.2,0.1-0.3c0.1-0.1,0.2-0.1,0.3-0.1h5.1c1.6,0,2.8,0.4,3.7,1.1
	s1.3,1.7,1.3,3.1s-0.4,2.4-1.3,3.1c-0.9,0.7-2.1,1-3.7,1h-2v3.9c0,0.1,0,0.2-0.1,0.3c-0.1,0.1-0.2,0.1-0.3,0.1h-2.7V500z
	 M171.9,493.1c0.5,0,0.9-0.1,1.2-0.4s0.4-0.6,0.4-1.2c0-0.5-0.1-0.8-0.4-1.1c-0.3-0.3-0.6-0.4-1.2-0.4h-2v3.1H171.9z M81.8,527
	c-0.1,0-0.2,0-0.3-0.1c-0.1-0.1-0.1-0.2-0.1-0.3V516h-3.5c-0.1,0-0.2,0-0.3-0.1c-0.1-0.1-0.1-0.2-0.1-0.3v-0.7c0-0.1,0-0.2,0.1-0.3
	s0.2-0.1,0.3-0.1h8.6c0.1,0,0.2,0,0.3,0.1c0.1,0.1,0.1,0.2,0.1,0.3v0.7c0,0.1,0,0.2-0.1,0.3s-0.2,0.1-0.3,0.1H83v10.6
	c0,0.1,0,0.2-0.1,0.3s-0.2,0.1-0.3,0.1H81.8z M87.7,527c-0.1,0-0.2,0-0.3-0.1c-0.1-0.1-0.1-0.2-0.1-0.3v-8.5c0-0.1,0-0.2,0.1-0.3
	s0.2-0.1,0.3-0.1h0.8c0.1,0,0.2,0,0.3,0.1c0.1,0.1,0.1,0.2,0.1,0.3v0.8c0.5-0.8,1.3-1.2,2.5-1.2h0.7c0.1,0,0.2,0,0.3,0.1
	c0.1,0.1,0.1,0.2,0.1,0.3v0.7c0,0.1,0,0.2-0.1,0.3s-0.2,0.1-0.3,0.1h-1c-0.7,0-1.2,0.2-1.6,0.6c-0.4,0.4-0.6,0.9-0.6,1.6v5.3
	c0,0.1,0,0.2-0.1,0.3s-0.2,0.1-0.3,0.1L87.7,527L87.7,527z M97.5,527.2c-1.1,0-2-0.4-2.6-1.1c-0.6-0.7-0.9-1.7-0.9-3V518
	c0-0.1,0-0.2,0.1-0.3s0.2-0.1,0.3-0.1h0.8c0.1,0,0.2,0,0.3,0.1c0.1,0.1,0.1,0.2,0.1,0.3v5c0,1.8,0.8,2.7,2.4,2.7
	c0.8,0,1.4-0.2,1.8-0.7c0.5-0.5,0.7-1.2,0.7-2v-5c0-0.1,0-0.2,0.1-0.3s0.2-0.1,0.3-0.1h0.8c0.1,0,0.2,0,0.3,0.1
	c0.1,0.1,0.1,0.2,0.1,0.3v8.5c0,0.1,0,0.2-0.1,0.3s-0.2,0.1-0.3,0.1h-0.8c-0.1,0-0.2,0-0.3-0.1c-0.1-0.1-0.1-0.2-0.1-0.3v-0.8
	c-0.3,0.5-0.8,0.8-1.2,1.1C98.8,527.1,98.2,527.2,97.5,527.2z M108,527.2c-0.8,0-1.5-0.1-2.1-0.4c-0.6-0.3-1-0.6-1.3-0.9
	c-0.3-0.3-0.4-0.6-0.4-0.9c0-0.1,0-0.2,0.1-0.3s0.2-0.1,0.3-0.1h0.8c0.1,0,0.1,0,0.2,0c0,0,0.1,0.1,0.2,0.2c0.3,0.3,0.6,0.6,0.9,0.8
	s0.8,0.3,1.4,0.3s1.2-0.1,1.5-0.4c0.4-0.2,0.6-0.6,0.6-1c0-0.3-0.1-0.5-0.3-0.7s-0.4-0.3-0.8-0.5c-0.4-0.1-1-0.3-1.7-0.5
	c-1-0.2-1.8-0.6-2.2-1s-0.6-1-0.6-1.7c0-0.4,0.1-0.9,0.4-1.3c0.3-0.4,0.7-0.8,1.2-1c0.5-0.3,1.2-0.4,1.9-0.4c0.8,0,1.4,0.1,1.9,0.4
	c0.5,0.3,0.9,0.5,1.2,0.9c0.3,0.3,0.4,0.6,0.4,0.8c0,0.1,0,0.2-0.1,0.3s-0.2,0.1-0.3,0.1h-0.7c-0.2,0-0.3-0.1-0.4-0.2
	c-0.2-0.2-0.4-0.4-0.5-0.5s-0.3-0.2-0.6-0.3c-0.3-0.1-0.6-0.1-1-0.1c-0.6,0-1,0.1-1.3,0.4c-0.3,0.2-0.5,0.6-0.5,1
	c0,0.3,0.1,0.5,0.2,0.6c0.1,0.2,0.4,0.3,0.8,0.5c0.4,0.1,0.9,0.3,1.7,0.5c1.1,0.2,1.9,0.6,2.4,1s0.7,1,0.7,1.7c0,0.5-0.2,1-0.5,1.4
	s-0.7,0.8-1.3,1C109.5,527.1,108.8,527.2,108,527.2z M117.5,527c-1.9,0-2.8-1-2.8-3.2V519h-1.4c-0.1,0-0.2,0-0.3-0.1
	c-0.1-0.1-0.1-0.2-0.1-0.3V518c0-0.1,0-0.2,0.1-0.3s0.2-0.1,0.3-0.1h1.4v-3c0-0.1,0-0.2,0.1-0.3s0.2-0.1,0.3-0.1h0.8
	c0.1,0,0.2,0,0.3,0.1c0.1,0.1,0.1,0.2,0.1,0.3v3h2.2c0.1,0,0.2,0,0.3,0.1c0.1,0.1,0.1,0.2,0.1,0.3v0.6c0,0.1,0,0.2-0.1,0.3
	s-0.2,0.1-0.3,0.1h-2.2v4.7c0,0.6,0.1,1.1,0.3,1.4c0.2,0.3,0.5,0.5,1,0.5h1.1c0.1,0,0.2,0,0.3,0.1c0.1,0.1,0.1,0.2,0.1,0.3v0.6
	c0,0.1,0,0.2-0.1,0.3s-0.2,0.1-0.3,0.1L117.5,527L117.5,527z M121.3,527c-0.1,0-0.2,0-0.3-0.1c-0.1-0.1-0.1-0.2-0.1-0.3v-12
	c0-0.1,0-0.2,0.1-0.3s0.2-0.1,0.3-0.1h0.8c0.1,0,0.2,0,0.3,0.1c0.1,0.1,0.1,0.2,0.1,0.3v12c0,0.1,0,0.2-0.1,0.3s-0.2,0.1-0.3,0.1
	H121.3z M129,527.2c-1.2,0-2.2-0.4-2.9-1.1c-0.7-0.8-1.1-1.8-1.2-3.1v-0.6v-0.6c0.1-1.3,0.5-2.3,1.2-3.1s1.7-1.2,2.9-1.2
	c1.3,0,2.3,0.4,3.1,1.3c0.7,0.8,1.1,2,1.1,3.4v0.3c0,0.1,0,0.2-0.1,0.3s-0.2,0.1-0.3,0.1h-6.2v0.2c0,0.8,0.3,1.4,0.7,2
	c0.4,0.6,1,0.8,1.8,0.8c0.6,0,1-0.1,1.4-0.3s0.6-0.5,0.8-0.7c0.1-0.1,0.2-0.2,0.3-0.3c0.1,0,0.2-0.1,0.3-0.1h0.8
	c0.1,0,0.2,0,0.3,0.1s0.1,0.1,0.1,0.2c0,0.3-0.2,0.6-0.5,1s-0.8,0.7-1.4,1C130.4,527,129.7,527.2,129,527.2z M131.5,521.7
	L131.5,521.7c0-0.9-0.2-1.6-0.7-2.1s-1.1-0.8-1.8-0.8c-0.8,0-1.4,0.3-1.8,0.8s-0.7,1.2-0.7,2.1v0.1L131.5,521.7L131.5,521.7z
	 M138.5,527.2c-0.8,0-1.5-0.1-2.1-0.4c-0.6-0.3-1-0.6-1.3-0.9c-0.3-0.3-0.4-0.6-0.4-0.9c0-0.1,0-0.2,0.1-0.3s0.2-0.1,0.3-0.1h0.8
	c0.1,0,0.1,0,0.2,0c0,0,0.1,0.1,0.2,0.2c0.3,0.3,0.6,0.6,0.9,0.8c0.3,0.2,0.8,0.3,1.4,0.3c0.6,0,1.2-0.1,1.5-0.4
	c0.4-0.2,0.6-0.6,0.6-1c0-0.3-0.1-0.5-0.3-0.7s-0.4-0.3-0.8-0.5c-0.4-0.1-1-0.3-1.7-0.5c-1-0.2-1.8-0.6-2.2-1s-0.6-1-0.6-1.7
	c0-0.4,0.1-0.9,0.4-1.3c0.3-0.4,0.7-0.8,1.2-1c0.5-0.3,1.2-0.4,1.9-0.4c0.8,0,1.4,0.1,1.9,0.4c0.5,0.3,0.9,0.5,1.2,0.9
	c0.3,0.3,0.4,0.6,0.4,0.8c0,0.1,0,0.2-0.1,0.3s-0.2,0.1-0.3,0.1H141c-0.2,0-0.3-0.1-0.4-0.2c-0.2-0.2-0.4-0.4-0.5-0.5
	s-0.3-0.2-0.6-0.3s-0.6-0.1-1-0.1c-0.6,0-1,0.1-1.4,0.4c-0.3,0.2-0.5,0.6-0.5,1c0,0.3,0.1,0.5,0.2,0.6c0.1,0.2,0.4,0.3,0.8,0.5
	c0.4,0.1,0.9,0.3,1.7,0.5c1.1,0.2,1.9,0.6,2.4,1s0.7,1,0.7,1.7c0,0.5-0.2,1-0.4,1.4c-0.3,0.4-0.7,0.8-1.3,1
	C140,527.1,139.3,527.2,138.5,527.2z M147.6,527.2c-0.8,0-1.5-0.1-2.1-0.4c-0.6-0.3-1-0.6-1.3-0.9c-0.3-0.3-0.4-0.6-0.4-0.9
	c0-0.1,0-0.2,0.1-0.3s0.2-0.1,0.3-0.1h0.8c0.1,0,0.1,0,0.2,0c0,0,0.1,0.1,0.2,0.2c0.3,0.3,0.6,0.6,0.9,0.8c0.3,0.2,0.8,0.3,1.4,0.3
	c0.6,0,1.2-0.1,1.5-0.4c0.4-0.2,0.6-0.6,0.6-1c0-0.3-0.1-0.5-0.3-0.7s-0.4-0.3-0.8-0.5c-0.4-0.1-1-0.3-1.7-0.5c-1-0.2-1.8-0.6-2.2-1
	s-0.6-1-0.6-1.7c0-0.4,0.1-0.9,0.4-1.3c0.3-0.4,0.7-0.8,1.2-1c0.5-0.3,1.2-0.4,1.9-0.4c0.8,0,1.4,0.1,1.9,0.4
	c0.5,0.3,0.9,0.5,1.2,0.9c0.3,0.3,0.4,0.6,0.4,0.8c0,0.1,0,0.2-0.1,0.3s-0.2,0.1-0.3,0.1H150c-0.2,0-0.3-0.1-0.4-0.2
	c-0.2-0.2-0.4-0.4-0.5-0.5s-0.3-0.2-0.6-0.3s-0.6-0.1-1-0.1c-0.6,0-1,0.1-1.4,0.4c-0.3,0.2-0.5,0.6-0.5,1c0,0.3,0.1,0.5,0.2,0.6
	c0.1,0.2,0.4,0.3,0.8,0.5c0.4,0.1,0.9,0.3,1.7,0.5c1.1,0.2,1.9,0.6,2.4,1s0.7,1,0.7,1.7c0,0.5-0.1,1-0.4,1.4c-0.3,0.4-0.7,0.8-1.3,1
	C149.1,527.1,148.5,527.2,147.6,527.2z M160.6,527.2c-0.6,0-1.1-0.1-1.6-0.4c-0.5-0.2-0.9-0.6-1.2-1s-0.4-0.9-0.4-1.4
	c0-0.8,0.3-1.4,1-1.9c0.6-0.5,1.5-0.8,2.6-1l2.7-0.4v-0.5c0-1.2-0.7-1.9-2.1-1.9c-0.6,0-1,0.1-1.3,0.3s-0.6,0.5-0.7,0.8
	c0,0.1-0.1,0.2-0.2,0.3c0,0-0.1,0.1-0.2,0.1h-0.7c-0.1,0-0.2,0-0.3-0.1s-0.1-0.2-0.1-0.3c0-0.3,0.1-0.6,0.4-1c0.3-0.4,0.7-0.7,1.2-1
	s1.2-0.4,2-0.4c1.3,0,2.3,0.3,2.9,0.9c0.6,0.6,0.9,1.4,0.9,2.3v5.8c0,0.1,0,0.2-0.1,0.3s-0.2,0.1-0.3,0.1h-0.8c-0.1,0-0.2,0-0.3-0.1
	s-0.1-0.2-0.1-0.3v-0.8c-0.3,0.4-0.6,0.7-1.2,1S161.4,527.2,160.6,527.2z M161,525.9c0.8,0,1.4-0.3,1.9-0.8s0.8-1.3,0.8-2.3v-0.5
	l-2.1,0.3c-0.9,0.1-1.5,0.3-2,0.6c-0.4,0.3-0.7,0.6-0.7,1.1s0.2,0.9,0.6,1.1C159.9,525.7,160.4,525.9,161,525.9z M171.1,527.2
	c-0.8,0-1.5-0.1-2.1-0.4c-0.6-0.3-1-0.6-1.3-0.9c-0.3-0.3-0.4-0.6-0.4-0.9c0-0.1,0-0.2,0.1-0.3s0.2-0.1,0.3-0.1h0.8
	c0.1,0,0.1,0,0.2,0c0,0,0.1,0.1,0.2,0.2c0.3,0.3,0.6,0.6,0.9,0.8c0.3,0.2,0.8,0.3,1.4,0.3c0.6,0,1.2-0.1,1.5-0.4
	c0.4-0.2,0.6-0.6,0.6-1c0-0.3-0.1-0.5-0.3-0.7s-0.4-0.3-0.8-0.5c-0.4-0.1-1-0.3-1.7-0.5c-1-0.2-1.8-0.6-2.2-1s-0.6-1-0.6-1.7
	c0-0.4,0.1-0.9,0.4-1.3c0.3-0.4,0.7-0.8,1.2-1c0.5-0.3,1.2-0.4,1.9-0.4c0.8,0,1.4,0.1,1.9,0.4c0.5,0.3,0.9,0.5,1.2,0.9
	c0.3,0.3,0.4,0.6,0.4,0.8c0,0.1,0,0.2-0.1,0.3s-0.2,0.1-0.3,0.1h-0.7c-0.2,0-0.3-0.1-0.4-0.2c-0.2-0.2-0.4-0.4-0.5-0.5
	s-0.3-0.2-0.6-0.3s-0.6-0.1-1-0.1c-0.6,0-1,0.1-1.3,0.4c-0.3,0.2-0.5,0.6-0.5,1c0,0.3,0.1,0.5,0.2,0.6c0.1,0.2,0.4,0.3,0.8,0.5
	c0.4,0.1,0.9,0.3,1.7,0.5c1.1,0.2,1.9,0.6,2.4,1s0.7,1,0.7,1.7c0,0.5-0.2,1-0.5,1.4s-0.7,0.8-1.3,1
	C172.6,527.1,171.9,527.2,171.1,527.2z M180.3,527.2c-0.8,0-1.5-0.1-2.1-0.4c-0.6-0.3-1-0.6-1.3-0.9c-0.3-0.3-0.4-0.6-0.4-0.9
	c0-0.1,0-0.2,0.1-0.3s0.2-0.1,0.3-0.1h0.8c0.1,0,0.1,0,0.2,0c0,0,0.1,0.1,0.2,0.2c0.3,0.3,0.6,0.6,0.9,0.8c0.3,0.2,0.8,0.3,1.4,0.3
	c0.6,0,1.2-0.1,1.5-0.4c0.4-0.2,0.6-0.6,0.6-1c0-0.3-0.1-0.5-0.3-0.7s-0.4-0.3-0.8-0.5c-0.4-0.1-1-0.3-1.7-0.5c-1-0.2-1.8-0.6-2.2-1
	s-0.6-1-0.6-1.7c0-0.4,0.1-0.9,0.4-1.3c0.3-0.4,0.7-0.8,1.2-1c0.5-0.3,1.2-0.4,1.9-0.4c0.8,0,1.4,0.1,1.9,0.4
	c0.5,0.3,0.9,0.5,1.2,0.9c0.3,0.3,0.4,0.6,0.4,0.8c0,0.1,0,0.2-0.1,0.3s-0.2,0.1-0.3,0.1h-0.7c-0.2,0-0.3-0.1-0.4-0.2
	c-0.2-0.2-0.4-0.4-0.5-0.5s-0.3-0.2-0.6-0.3s-0.6-0.1-1-0.1c-0.6,0-1,0.1-1.3,0.4c-0.3,0.2-0.5,0.6-0.5,1c0,0.3,0.1,0.5,0.2,0.6
	c0.1,0.2,0.4,0.3,0.8,0.5c0.4,0.1,0.9,0.3,1.7,0.5c1.1,0.2,1.9,0.6,2.4,1s0.7,1,0.7,1.7c0,0.5-0.2,1-0.4,1.4c-0.3,0.4-0.7,0.8-1.3,1
	C181.7,527.1,181.1,527.2,180.3,527.2z M189.9,527.2c-1.2,0-2.2-0.4-2.9-1.1c-0.7-0.8-1.1-1.8-1.2-3.1v-0.6v-0.6
	c0.1-1.3,0.5-2.3,1.2-3.1s1.7-1.2,2.9-1.2c1.3,0,2.3,0.4,3.1,1.3c0.7,0.8,1.1,2,1.1,3.4v0.3c0,0.1,0,0.2-0.1,0.3s-0.2,0.1-0.3,0.1
	h-6.2v0.2c0,0.8,0.3,1.4,0.7,2s1,0.8,1.8,0.8c0.6,0,1-0.1,1.4-0.3s0.6-0.5,0.8-0.7c0.1-0.1,0.2-0.2,0.3-0.3c0.1,0,0.2-0.1,0.3-0.1
	h0.8c0.1,0,0.2,0,0.3,0.1s0.1,0.1,0.1,0.2c0,0.3-0.2,0.6-0.5,1s-0.8,0.7-1.4,1C191.3,527,190.7,527.2,189.9,527.2z M192.4,521.7
	L192.4,521.7c0-0.9-0.2-1.6-0.7-2.1s-1.1-0.8-1.8-0.8c-0.8,0-1.4,0.3-1.8,0.8c-0.4,0.5-0.7,1.2-0.7,2.1v0.1L192.4,521.7L192.4,521.7
	z M199.8,527c-1.9,0-2.8-1-2.8-3.2V519h-1.4c-0.1,0-0.2,0-0.3-0.1s-0.1-0.2-0.1-0.3V518c0-0.1,0-0.2,0.1-0.3s0.2-0.1,0.3-0.1h1.4v-3
	c0-0.1,0-0.2,0.1-0.3s0.2-0.1,0.3-0.1h0.8c0.1,0,0.2,0,0.3,0.1s0.1,0.2,0.1,0.3v3h2.2c0.1,0,0.2,0,0.3,0.1s0.1,0.2,0.1,0.3v0.6
	c0,0.1,0,0.2-0.1,0.3s-0.2,0.1-0.3,0.1h-2.2v4.7c0,0.6,0.1,1.1,0.3,1.4c0.2,0.3,0.5,0.5,1,0.5h1.1c0.1,0,0.2,0,0.3,0.1
	s0.1,0.2,0.1,0.3v0.6c0,0.1,0,0.2-0.1,0.3s-0.2,0.1-0.3,0.1L199.8,527L199.8,527z M81.9,549c-1.9,0-2.8-1-2.8-3.2V541h-1.4
	c-0.1,0-0.2,0-0.3-0.1c-0.1-0.1-0.1-0.2-0.1-0.3V540c0-0.1,0-0.2,0.1-0.3s0.2-0.1,0.3-0.1h1.4v-3c0-0.1,0-0.2,0.1-0.3
	s0.2-0.1,0.3-0.1h0.8c0.1,0,0.2,0,0.3,0.1c0.1,0.1,0.1,0.2,0.1,0.3v3H83c0.1,0,0.2,0,0.3,0.1c0.1,0.1,0.1,0.2,0.1,0.3v0.6
	c0,0.1,0,0.2-0.1,0.3S83.1,541,83,541h-2.2v4.7c0,0.6,0.1,1.1,0.3,1.4c0.2,0.3,0.5,0.5,1,0.5h1.1c0.1,0,0.2,0,0.3,0.1
	c0.1,0.1,0.1,0.2,0.1,0.3v0.6c0,0.1,0,0.2-0.1,0.3s-0.2,0.1-0.3,0.1L81.9,549L81.9,549z M85.7,549c-0.1,0-0.2,0-0.3-0.1
	c-0.1-0.1-0.1-0.2-0.1-0.3v-8.5c0-0.1,0-0.2,0.1-0.3s0.2-0.1,0.3-0.1h0.8c0.1,0,0.2,0,0.3,0.1c0.1,0.1,0.1,0.2,0.1,0.3v0.8
	c0.5-0.8,1.3-1.2,2.5-1.2h0.7c0.1,0,0.2,0,0.3,0.1c0.1,0.1,0.1,0.2,0.1,0.3v0.7c0,0.1,0,0.2-0.1,0.3s-0.2,0.1-0.3,0.1h-1
	c-0.7,0-1.2,0.2-1.6,0.6c-0.4,0.4-0.6,0.9-0.6,1.6v5.3c0,0.1,0,0.2-0.1,0.3s-0.2,0.1-0.3,0.1L85.7,549L85.7,549z M94.5,549.2
	c-0.6,0-1.1-0.1-1.6-0.4c-0.5-0.2-0.9-0.6-1.2-1c-0.3-0.4-0.4-0.9-0.4-1.4c0-0.8,0.3-1.4,1-1.9c0.6-0.5,1.5-0.8,2.6-1l2.7-0.4v-0.5
	c0-1.2-0.7-1.9-2.1-1.9c-0.6,0-1,0.1-1.3,0.3s-0.6,0.5-0.7,0.8c0,0.1-0.1,0.2-0.2,0.3c0,0-0.1,0.1-0.2,0.1h-0.7
	c-0.1,0-0.2,0-0.3-0.1c-0.1-0.1-0.1-0.2-0.1-0.3c0-0.3,0.1-0.6,0.4-1s0.7-0.7,1.2-1s1.2-0.4,2-0.4c1.3,0,2.3,0.3,2.9,0.9
	c0.6,0.6,0.9,1.4,0.9,2.3v5.8c0,0.1,0,0.2-0.1,0.3C99,549,99,549,98.8,549H98c-0.1,0-0.2,0-0.3-0.1c-0.1-0.1-0.1-0.2-0.1-0.3v-0.8
	c-0.3,0.4-0.6,0.7-1.2,1S95.3,549.2,94.5,549.2z M94.9,547.9c0.8,0,1.4-0.3,1.9-0.8s0.8-1.3,0.8-2.3v-0.5l-2.1,0.3
	c-0.9,0.1-1.5,0.3-2,0.6c-0.4,0.3-0.7,0.6-0.7,1.1s0.2,0.9,0.6,1.1C93.9,547.7,94.4,547.9,94.9,547.9z M102.3,549
	c-0.1,0-0.2,0-0.3-0.1c-0.1-0.1-0.1-0.2-0.1-0.3v-8.5c0-0.1,0-0.2,0.1-0.3s0.2-0.1,0.3-0.1h0.8c0.1,0,0.2,0,0.3,0.1
	c0.1,0.1,0.1,0.2,0.1,0.3v0.8c0.4-0.4,0.8-0.8,1.2-1c0.5-0.2,1.1-0.4,1.8-0.4c1.2,0,2,0.4,2.7,1.1c0.6,0.7,1,1.7,1,2.9v5.1
	c0,0.1,0,0.2-0.1,0.3s-0.2,0.1-0.3,0.1H109c-0.1,0-0.2,0-0.3-0.1c-0.1-0.1-0.1-0.2-0.1-0.3v-5c0-0.9-0.2-1.5-0.6-2s-1-0.7-1.8-0.7
	s-1.4,0.2-1.8,0.7c-0.5,0.5-0.7,1.1-0.7,2v5c0,0.1,0,0.2-0.1,0.3s-0.2,0.1-0.3,0.1L102.3,549L102.3,549z M115.9,549.2
	c-0.8,0-1.5-0.1-2.1-0.4c-0.6-0.3-1-0.6-1.3-0.9c-0.3-0.3-0.4-0.6-0.4-0.9c0-0.1,0-0.2,0.1-0.3s0.2-0.1,0.3-0.1h0.8
	c0.1,0,0.1,0,0.2,0c0,0,0.1,0.1,0.2,0.2c0.3,0.3,0.6,0.6,0.9,0.8s0.8,0.3,1.4,0.3s1.2-0.1,1.5-0.4c0.4-0.2,0.6-0.6,0.6-1
	c0-0.3-0.1-0.5-0.3-0.7c-0.2-0.2-0.5-0.3-0.8-0.5c-0.4-0.1-1-0.3-1.7-0.5c-1-0.2-1.8-0.6-2.2-1s-0.6-1-0.6-1.7
	c0-0.4,0.1-0.9,0.4-1.3c0.3-0.4,0.7-0.8,1.2-1c0.5-0.3,1.2-0.4,1.9-0.4c0.8,0,1.4,0.1,1.9,0.4c0.5,0.3,0.9,0.5,1.2,0.9
	c0.3,0.3,0.4,0.6,0.4,0.8c0,0.1,0,0.2-0.1,0.3s-0.2,0.1-0.3,0.1h-0.7c-0.2,0-0.3-0.1-0.4-0.2c-0.2-0.2-0.4-0.4-0.5-0.5
	s-0.3-0.2-0.6-0.3c-0.3-0.1-0.6-0.1-1-0.1c-0.6,0-1,0.1-1.4,0.4c-0.3,0.2-0.5,0.6-0.5,1c0,0.3,0.1,0.5,0.2,0.6
	c0.1,0.2,0.4,0.3,0.8,0.5c0.4,0.1,0.9,0.3,1.7,0.5c1.1,0.2,1.9,0.6,2.4,1s0.7,1,0.7,1.7c0,0.5-0.2,1-0.4,1.4c-0.3,0.4-0.7,0.8-1.3,1
	C117.4,549.1,116.7,549.2,115.9,549.2z M123.2,549c-0.1,0-0.2,0-0.3-0.1c-0.1-0.1-0.1-0.2-0.1-0.3V541h-1.5c-0.1,0-0.2,0-0.3-0.1
	c-0.1-0.1-0.1-0.2-0.1-0.3V540c0-0.1,0-0.2,0.1-0.3s0.2-0.1,0.3-0.1h1.5v-0.9c0-1,0.2-1.7,0.7-2.3c0.5-0.5,1.3-0.8,2.3-0.8h1.1
	c0.1,0,0.2,0,0.3,0.1c0.1,0.1,0.1,0.2,0.1,0.3v0.6c0,0.1,0,0.2-0.1,0.3s-0.2,0.1-0.3,0.1h-1c-0.6,0-0.9,0.1-1.2,0.4
	c-0.2,0.3-0.3,0.7-0.3,1.3v0.8h2.3c0.1,0,0.2,0,0.3,0.1c0.1,0.1,0.1,0.2,0.1,0.3v0.6c0,0.1,0,0.2-0.1,0.3s-0.2,0.1-0.3,0.1h-2.3v7.6
	c0,0.1,0,0.2-0.1,0.3s-0.2,0.1-0.3,0.1h-0.8V549z M132.2,549.2c-1.2,0-2.2-0.4-2.9-1.1c-0.7-0.8-1.1-1.8-1.2-3.1v-0.6v-0.6
	c0.1-1.3,0.5-2.3,1.2-3.1s1.7-1.2,2.9-1.2c1.3,0,2.3,0.4,3.1,1.3c0.7,0.8,1.1,2,1.1,3.4v0.3c0,0.1,0,0.2-0.1,0.3s-0.2,0.1-0.3,0.1
	h-6.2v0.2c0,0.8,0.3,1.4,0.7,2s1,0.8,1.8,0.8c0.6,0,1-0.1,1.4-0.3s0.6-0.5,0.8-0.7c0.1-0.1,0.2-0.2,0.3-0.3c0.1,0,0.2-0.1,0.3-0.1
	h0.8c0.1,0,0.2,0,0.3,0.1s0.1,0.1,0.1,0.2c0,0.3-0.2,0.6-0.5,1s-0.8,0.7-1.4,1C133.7,549,133,549.2,132.2,549.2z M134.8,543.7
	L134.8,543.7c0-0.9-0.2-1.6-0.7-2.1s-1.1-0.8-1.8-0.8c-0.8,0-1.4,0.3-1.8,0.8c-0.4,0.5-0.7,1.2-0.7,2.1v0.1L134.8,543.7L134.8,543.7
	z M139,549c-0.1,0-0.2,0-0.3-0.1s-0.1-0.2-0.1-0.3v-8.5c0-0.1,0-0.2,0.1-0.3s0.2-0.1,0.3-0.1h0.8c0.1,0,0.2,0,0.3,0.1
	s0.1,0.2,0.1,0.3v0.8c0.5-0.8,1.3-1.2,2.5-1.2h0.7c0.1,0,0.2,0,0.3,0.1s0.1,0.2,0.1,0.3v0.7c0,0.1,0,0.2-0.1,0.3s-0.2,0.1-0.3,0.1
	h-1c-0.7,0-1.2,0.2-1.6,0.6c-0.4,0.4-0.6,0.9-0.6,1.6v5.3c0,0.1,0,0.2-0.1,0.3s-0.2,0.1-0.3,0.1L139,549L139,549z M153.2,549.2
	c-0.8,0-1.5-0.1-2.1-0.5c-0.6-0.3-1.1-0.7-1.5-1.3c-0.3-0.5-0.5-1.2-0.5-1.8c0-0.8,0.2-1.4,0.7-1.9c0.4-0.5,1.1-1,1.9-1.5
	c-0.6-0.6-1-1.1-1.2-1.6s-0.3-0.9-0.3-1.4s0.1-1,0.4-1.5c0.3-0.5,0.7-0.8,1.2-1.1s1.1-0.4,1.8-0.4c0.6,0,1.2,0.1,1.7,0.4
	c0.5,0.3,0.9,0.6,1.2,1s0.4,0.9,0.4,1.5c0,0.7-0.2,1.4-0.7,1.9s-1.1,1-2,1.5l3.1,3c0.5-0.8,0.8-1.7,1-2.8c0-0.1,0-0.2,0.1-0.3
	s0.2-0.1,0.3-0.1h0.7c0.1,0,0.2,0,0.3,0.1s0.1,0.2,0.1,0.3c0,0.5-0.2,1.1-0.4,1.8s-0.6,1.3-1,2l1.8,1.8c0.1,0.1,0.1,0.2,0.1,0.3
	c0,0.2-0.1,0.3-0.3,0.3h-1c-0.2,0-0.4-0.1-0.5-0.2l-1.2-1.2C156,548.7,154.7,549.2,153.2,549.2z M152.9,541.5
	c0.7-0.4,1.3-0.7,1.6-1.1c0.4-0.3,0.6-0.7,0.6-1.2s-0.2-0.9-0.5-1.2s-0.8-0.5-1.3-0.5s-0.9,0.1-1.2,0.5c-0.3,0.3-0.5,0.7-0.5,1.2
	c0,0.3,0.1,0.6,0.3,1C152,540.5,152.4,540.9,152.9,541.5z M153.2,547.8c0.5,0,1-0.1,1.5-0.3s0.9-0.5,1.3-0.9l-3.4-3.3
	c-0.6,0.3-1.1,0.7-1.4,1.1s-0.5,0.8-0.5,1.3c0,0.7,0.2,1.2,0.7,1.6C151.9,547.6,152.5,547.8,153.2,547.8z M170.5,549.2
	c-1,0-1.8-0.2-2.6-0.5c-0.7-0.3-1.3-0.7-1.7-1.2s-0.6-1.1-0.6-1.7c0-0.1,0-0.2,0.1-0.3s0.2-0.1,0.3-0.1h0.9c0.2,0,0.4,0.1,0.4,0.4
	c0.1,0.5,0.4,0.9,0.9,1.3c0.5,0.4,1.2,0.5,2.2,0.5s1.8-0.2,2.3-0.5c0.5-0.4,0.8-0.9,0.8-1.5c0-0.4-0.1-0.7-0.4-1
	c-0.2-0.3-0.6-0.5-1.1-0.7s-1.2-0.5-2.2-0.7c-0.9-0.3-1.7-0.5-2.2-0.8s-0.9-0.7-1.2-1.1c-0.3-0.4-0.4-1-0.4-1.7
	c0-0.6,0.2-1.2,0.5-1.7s0.9-0.9,1.5-1.2c0.7-0.3,1.4-0.5,2.3-0.5c0.9,0,1.7,0.2,2.4,0.5s1.2,0.7,1.5,1.2s0.5,1,0.6,1.5
	c0,0.1,0,0.2-0.1,0.3s-0.2,0.1-0.3,0.1h-0.9c-0.1,0-0.2,0-0.3-0.1s-0.1-0.1-0.2-0.3c-0.1-0.5-0.4-0.9-0.9-1.3s-1.1-0.5-1.9-0.5
	c-0.8,0-1.5,0.2-1.9,0.5c-0.5,0.3-0.7,0.8-0.7,1.4c0,0.4,0.1,0.8,0.3,1c0.2,0.3,0.6,0.5,1,0.7c0.5,0.2,1.1,0.4,2,0.7
	c1,0.3,1.8,0.6,2.4,0.9c0.6,0.3,1,0.6,1.3,1.1c0.3,0.4,0.4,1,0.4,1.6c0,1.1-0.4,2-1.3,2.6C173.1,548.9,172,549.2,170.5,549.2z
	 M181,549c-1.9,0-2.8-1-2.8-3.2V541h-1.4c-0.1,0-0.2,0-0.3-0.1s-0.1-0.2-0.1-0.3V540c0-0.1,0-0.2,0.1-0.3s0.2-0.1,0.3-0.1h1.4v-3
	c0-0.1,0-0.2,0.1-0.3s0.2-0.1,0.3-0.1h0.8c0.1,0,0.2,0,0.3,0.1s0.1,0.2,0.1,0.3v3h2.2c0.1,0,0.2,0,0.3,0.1s0.1,0.2,0.1,0.3v0.6
	c0,0.1,0,0.2-0.1,0.3s-0.2,0.1-0.3,0.1h-2.2v4.7c0,0.6,0.1,1.1,0.3,1.4c0.2,0.3,0.5,0.5,1,0.5h1.1c0.1,0,0.2,0,0.3,0.1
	s0.1,0.2,0.1,0.3v0.6c0,0.1,0,0.2-0.1,0.3s-0.2,0.1-0.3,0.1L181,549L181,549z M187,549.2c-0.6,0-1.1-0.1-1.6-0.4
	c-0.5-0.2-0.9-0.6-1.2-1s-0.4-0.9-0.4-1.4c0-0.8,0.3-1.4,1-1.9c0.6-0.5,1.5-0.8,2.6-1l2.7-0.4v-0.5c0-1.2-0.7-1.9-2.1-1.9
	c-0.6,0-1,0.1-1.3,0.3s-0.6,0.5-0.7,0.8c0,0.1-0.1,0.2-0.2,0.3c0,0-0.1,0.1-0.2,0.1h-0.7c-0.1,0-0.2,0-0.3-0.1s-0.1-0.2-0.1-0.3
	c0-0.3,0.1-0.6,0.4-1c0.3-0.4,0.7-0.7,1.2-1s1.2-0.4,2-0.4c1.3,0,2.3,0.3,2.9,0.9c0.6,0.6,0.9,1.4,0.9,2.3v5.8c0,0.1,0,0.2-0.1,0.3
	s-0.2,0.1-0.3,0.1h-0.8c-0.1,0-0.2,0-0.3-0.1s-0.1-0.2-0.1-0.3v-0.8c-0.3,0.4-0.6,0.7-1.2,1S187.8,549.2,187,549.2z M187.4,547.9
	c0.8,0,1.4-0.3,1.9-0.8s0.8-1.3,0.8-2.3v-0.5l-2.1,0.3c-0.9,0.1-1.5,0.3-2,0.6c-0.4,0.3-0.7,0.6-0.7,1.1s0.2,0.9,0.6,1.1
	C186.3,547.7,186.8,547.9,187.4,547.9z M194.7,549c-0.1,0-0.2,0-0.3-0.1s-0.1-0.2-0.1-0.3v-12c0-0.1,0-0.2,0.1-0.3s0.2-0.1,0.3-0.1
	h0.8c0.1,0,0.2,0,0.3,0.1s0.1,0.2,0.1,0.3v6.3l3.6-3c0.2-0.1,0.3-0.2,0.4-0.3c0.1,0,0.2-0.1,0.3-0.1h0.9c0.1,0,0.2,0,0.3,0.1
	s0.1,0.2,0.1,0.3s-0.1,0.2-0.2,0.3l-4.2,3.5l4.7,4.5c0.1,0.1,0.2,0.2,0.2,0.3s0,0.2-0.1,0.3s-0.1,0.1-0.3,0.1h-0.9
	c-0.2,0-0.3,0-0.4-0.1c-0.1,0-0.2-0.1-0.3-0.3l-4.1-3.9v3.7c0,0.1,0,0.2-0.1,0.3s-0.2,0.1-0.3,0.1h-0.8V549z M203.8,537.9
	c-0.1,0-0.2,0-0.3-0.1s-0.1-0.2-0.1-0.3v-0.9c0-0.1,0-0.2,0.1-0.3s0.2-0.1,0.3-0.1h1.1c0.1,0,0.2,0,0.3,0.1s0.1,0.2,0.1,0.3v0.9
	c0,0.1,0,0.2-0.1,0.3s-0.2,0.1-0.3,0.1H203.8z M203.9,549c-0.1,0-0.2,0-0.3-0.1s-0.1-0.2-0.1-0.3v-8.5c0-0.1,0-0.2,0.1-0.3
	s0.2-0.1,0.3-0.1h0.8c0.1,0,0.2,0,0.3,0.1s0.1,0.2,0.1,0.3v8.5c0,0.1,0,0.2-0.1,0.3s-0.2,0.1-0.3,0.1H203.9z M208.3,549
	c-0.1,0-0.2,0-0.3-0.1s-0.1-0.2-0.1-0.3v-8.5c0-0.1,0-0.2,0.1-0.3s0.2-0.1,0.3-0.1h0.8c0.1,0,0.2,0,0.3,0.1s0.1,0.2,0.1,0.3v0.8
	c0.4-0.4,0.8-0.8,1.2-1c0.5-0.2,1.1-0.4,1.8-0.4c1.2,0,2,0.4,2.7,1.1c0.6,0.7,1,1.7,1,2.9v5.1c0,0.1,0,0.2-0.1,0.3s-0.2,0.1-0.3,0.1
	H215c-0.1,0-0.2,0-0.3-0.1s-0.1-0.2-0.1-0.3v-5c0-0.9-0.2-1.5-0.6-2c-0.4-0.5-1-0.7-1.8-0.7s-1.4,0.2-1.8,0.7
	c-0.5,0.5-0.7,1.1-0.7,2v5c0,0.1,0,0.2-0.1,0.3s-0.2,0.1-0.3,0.1L208.3,549L208.3,549z M222.5,553c-1,0-1.8-0.2-2.4-0.5
	c-0.6-0.3-1-0.7-1.3-1.2c-0.2-0.4-0.4-0.8-0.4-1.1c0-0.1,0-0.2,0.1-0.3s0.2-0.1,0.3-0.1h0.8c0.1,0,0.2,0,0.3,0.1s0.1,0.2,0.2,0.3
	c0.3,1,1.1,1.4,2.3,1.4c0.9,0,1.6-0.2,2-0.6c0.4-0.4,0.6-1.1,0.6-2v-1.2c-0.7,0.9-1.7,1.3-2.9,1.3c-1.3,0-2.2-0.4-2.9-1.2
	c-0.6-0.8-1-1.8-1-3.1v-0.5v-0.5c0-1.2,0.4-2.3,1-3.1s1.6-1.2,2.9-1.2c1.3,0,2.2,0.5,3,1.4v-0.8c0-0.1,0-0.2,0.1-0.3
	s0.2-0.1,0.3-0.1h0.8c0.1,0,0.2,0,0.3,0.1s0.1,0.2,0.1,0.3v8.7C226.7,551.6,225.3,553,222.5,553z M222.5,547.7
	c0.8,0,1.5-0.3,1.9-0.8c0.4-0.6,0.7-1.2,0.7-2c0-0.1,0-0.3,0-0.6s0-0.5,0-0.6c0-0.8-0.3-1.4-0.7-2s-1.1-0.8-1.9-0.8
	c-0.9,0-1.5,0.3-1.9,0.8s-0.6,1.2-0.6,2.1v0.5v0.5c0,0.9,0.2,1.6,0.6,2.1C221,547.4,221.6,547.7,222.5,547.7z"/>
<path class="st1" d="M79.4,323c-0.2,0-0.3-0.1-0.5-0.2c-0.1-0.1-0.2-0.3-0.2-0.5v-16.9c0-0.2,0.1-0.3,0.2-0.5
	c0.1-0.1,0.3-0.2,0.5-0.2h3.7c0.2,0,0.3,0.1,0.5,0.2c0.1,0.1,0.2,0.3,0.2,0.5v16.9c0,0.2-0.1,0.3-0.2,0.5c-0.1,0.1-0.3,0.2-0.5,0.2
	H79.4z M87.7,323c-0.2,0-0.3-0.1-0.5-0.2c-0.1-0.1-0.2-0.3-0.2-0.5v-12.2c0-0.2,0.1-0.3,0.2-0.5c0.1-0.1,0.3-0.2,0.5-0.2h3.2
	c0.2,0,0.3,0.1,0.5,0.2c0.1,0.1,0.2,0.3,0.2,0.5v1c0.5-0.6,1.1-1,1.8-1.4c0.7-0.3,1.6-0.5,2.5-0.5c1,0,1.9,0.2,2.6,0.7
	c0.8,0.5,1.4,1.1,1.8,2c0.5,0.9,0.7,1.9,0.7,3.2v7.3c0,0.2-0.1,0.3-0.2,0.5c-0.1,0.1-0.3,0.2-0.5,0.2h-3.5c-0.2,0-0.4-0.1-0.5-0.2
	s-0.2-0.3-0.2-0.5v-7.1c0-0.8-0.2-1.4-0.6-1.8s-0.9-0.6-1.6-0.6s-1.2,0.2-1.6,0.6s-0.6,1-0.6,1.8v7.1c0,0.2-0.1,0.3-0.2,0.5
	c-0.1,0.1-0.3,0.2-0.5,0.2h-3.3V323z M110.8,323c-3.7,0-5.5-1.7-5.5-5.2V313h-2.1c-0.2,0-0.3-0.1-0.5-0.2c-0.1-0.1-0.2-0.3-0.2-0.5
	v-2.2c0-0.2,0.1-0.3,0.2-0.5c0.1-0.1,0.3-0.2,0.5-0.2h2.1v-4.3c0-0.2,0.1-0.3,0.2-0.5c0.1-0.1,0.3-0.2,0.5-0.2h3.2
	c0.2,0,0.3,0.1,0.5,0.2c0.1,0.1,0.2,0.3,0.2,0.5v4.3h3.3c0.2,0,0.3,0.1,0.5,0.2c0.1,0.1,0.2,0.3,0.2,0.5v2.2c0,0.2-0.1,0.3-0.2,0.5
	c-0.1,0.1-0.3,0.2-0.5,0.2h-3.3v4.4c0,0.6,0.1,1.1,0.3,1.4c0.2,0.3,0.6,0.5,1.1,0.5h2.1c0.2,0,0.3,0.1,0.5,0.2
	c0.1,0.1,0.2,0.3,0.2,0.5v2.4c0,0.2-0.1,0.3-0.2,0.5c-0.1,0.1-0.3,0.2-0.5,0.2h-2.6V323z M122.4,323.3c-2.1,0-3.8-0.6-5-1.7
	s-1.8-2.8-1.9-5v-0.8c0.1-2.1,0.7-3.7,1.9-4.8c1.2-1.2,2.9-1.7,4.9-1.7c1.5,0,2.7,0.3,3.8,0.9c1,0.6,1.8,1.4,2.3,2.5
	c0.5,1,0.8,2.2,0.8,3.6v0.7c0,0.2-0.1,0.4-0.2,0.5c-0.1,0.1-0.3,0.2-0.5,0.2h-8.2v0.2c0,0.8,0.2,1.4,0.5,1.9s0.8,0.7,1.5,0.7
	c0.4,0,0.7-0.1,1-0.2c0.3-0.2,0.5-0.4,0.7-0.7c0.2-0.2,0.3-0.3,0.4-0.3c0.1-0.1,0.3-0.1,0.5-0.1h3.4c0.2,0,0.3,0.1,0.4,0.2
	c0.1,0.1,0.2,0.2,0.2,0.3c0,0.5-0.3,1-0.8,1.6s-1.2,1.1-2.2,1.6C124.9,323,123.7,323.3,122.4,323.3z M124.4,314.8L124.4,314.8
	c0-0.9-0.2-1.5-0.5-2c-0.4-0.5-0.9-0.7-1.5-0.7c-0.7,0-1.2,0.2-1.5,0.7s-0.5,1.1-0.5,1.9v0.1H124.4z M132.2,323
	c-0.2,0-0.3-0.1-0.5-0.2c-0.1-0.1-0.2-0.3-0.2-0.5v-12.2c0-0.2,0.1-0.3,0.2-0.5c0.1-0.1,0.3-0.2,0.5-0.2h3.2c0.2,0,0.3,0.1,0.5,0.2
	c0.1,0.1,0.2,0.3,0.2,0.5v1c0.5-0.5,1-0.9,1.7-1.2c0.7-0.3,1.4-0.4,2.2-0.4h1.2c0.2,0,0.3,0.1,0.5,0.2c0.1,0.1,0.2,0.3,0.2,0.5v2.8
	c0,0.2-0.1,0.3-0.2,0.5c-0.1,0.1-0.3,0.2-0.5,0.2h-2.6c-0.7,0-1.2,0.2-1.6,0.6c-0.4,0.4-0.5,0.9-0.5,1.6v6.6c0,0.2-0.1,0.3-0.2,0.5
	c-0.1,0.1-0.3,0.2-0.5,0.2h-3.6V323z M144.2,323c-0.2,0-0.3-0.1-0.5-0.2c-0.1-0.1-0.2-0.3-0.2-0.5v-12.2c0-0.2,0.1-0.3,0.2-0.5
	c0.1-0.1,0.3-0.2,0.5-0.2h3.2c0.2,0,0.3,0.1,0.5,0.2c0.1,0.1,0.2,0.3,0.2,0.5v1c0.5-0.6,1.1-1,1.8-1.4c0.7-0.3,1.6-0.5,2.5-0.5
	c1,0,1.9,0.2,2.6,0.7c0.8,0.5,1.4,1.1,1.8,2c0.4,0.9,0.7,1.9,0.7,3.2v7.3c0,0.2-0.1,0.3-0.2,0.5c-0.1,0.1-0.3,0.2-0.5,0.2h-3.5
	c-0.2,0-0.4-0.1-0.5-0.2s-0.2-0.3-0.2-0.5v-7.1c0-0.8-0.2-1.4-0.6-1.8c-0.4-0.4-0.9-0.6-1.6-0.6c-0.7,0-1.2,0.2-1.6,0.6
	c-0.4,0.4-0.6,1-0.6,1.8v7.1c0,0.2-0.1,0.3-0.2,0.5c-0.1,0.1-0.3,0.2-0.5,0.2h-3.3V323z M166.7,323.3c-2.1,0-3.8-0.6-5-1.7
	s-1.8-2.8-1.9-5v-0.8c0.1-2.1,0.7-3.7,1.9-4.8c1.2-1.2,2.9-1.7,4.9-1.7c1.5,0,2.7,0.3,3.8,0.9c1,0.6,1.8,1.4,2.3,2.5
	c0.5,1,0.8,2.2,0.8,3.6v0.7c0,0.2-0.1,0.4-0.2,0.5c-0.1,0.1-0.3,0.2-0.5,0.2h-8.2v0.2c0,0.8,0.2,1.4,0.5,1.9s0.8,0.7,1.5,0.7
	c0.4,0,0.7-0.1,1-0.2c0.3-0.2,0.5-0.4,0.7-0.7c0.2-0.2,0.3-0.3,0.4-0.3c0.1-0.1,0.3-0.1,0.5-0.1h3.4c0.2,0,0.3,0.1,0.4,0.2
	c0.1,0.1,0.2,0.2,0.2,0.3c0,0.5-0.3,1-0.8,1.6s-1.2,1.1-2.2,1.6C169.2,323,168,323.3,166.7,323.3z M168.7,314.8L168.7,314.8
	c0-0.9-0.2-1.5-0.5-2c-0.4-0.5-0.9-0.7-1.5-0.7c-0.7,0-1.2,0.2-1.5,0.7s-0.5,1.1-0.5,1.9v0.1H168.7z M182.9,323
	c-3.7,0-5.5-1.7-5.5-5.2V313h-2.1c-0.2,0-0.3-0.1-0.5-0.2c-0.1-0.1-0.2-0.3-0.2-0.5v-2.2c0-0.2,0.1-0.3,0.2-0.5
	c0.1-0.1,0.3-0.2,0.5-0.2h2.1v-4.3c0-0.2,0.1-0.3,0.2-0.5c0.1-0.1,0.3-0.2,0.5-0.2h3.2c0.2,0,0.3,0.1,0.5,0.2
	c0.1,0.1,0.2,0.3,0.2,0.5v4.3h3.3c0.2,0,0.3,0.1,0.5,0.2c0.1,0.1,0.2,0.3,0.2,0.5v2.2c0,0.2-0.1,0.3-0.2,0.5
	c-0.1,0.1-0.3,0.2-0.5,0.2H182v4.4c0,0.6,0.1,1.1,0.3,1.4s0.6,0.5,1.1,0.5h2.1c0.2,0,0.3,0.1,0.5,0.2c0.1,0.1,0.2,0.3,0.2,0.5v2.4
	c0,0.2-0.1,0.3-0.2,0.5c-0.1,0.1-0.3,0.2-0.5,0.2h-2.6V323z M85,355.3c-2.2,0-3.9-0.5-5-1.5c-1.2-1-1.8-2.5-1.9-4.3
	c0-0.2,0-0.6,0-1.2s0-0.9,0-1.2c0.1-1.8,0.8-3.3,1.9-4.3c1.2-1,2.9-1.6,5-1.6s3.8,0.5,5,1.6c1.2,1,1.9,2.5,2,4.3
	c0,0.5,0.1,0.8,0.1,1.2c0,0.3,0,0.7-0.1,1.2c-0.1,1.9-0.7,3.3-1.9,4.3C88.8,354.8,87.2,355.3,85,355.3z M85,352
	c0.7,0,1.2-0.2,1.6-0.6c0.3-0.5,0.5-1.1,0.6-2.1c0-0.2,0-0.5,0-1s0-0.9,0-1c-0.1-0.9-0.3-1.6-0.6-2s-0.9-0.7-1.6-0.7
	s-1.2,0.2-1.6,0.7c-0.3,0.5-0.5,1.1-0.6,2v1v1c0.1,0.9,0.3,1.6,0.6,2.1C83.7,351.8,84.3,352,85,352z M96.6,355
	c-0.2,0-0.4-0.1-0.5-0.2s-0.2-0.3-0.2-0.5V345h-2c-0.2,0-0.4-0.1-0.5-0.2s-0.2-0.3-0.2-0.5v-2.2c0-0.2,0.1-0.3,0.2-0.5
	c0.1-0.1,0.3-0.2,0.5-0.2h2v-0.8c0-1.7,0.5-3,1.5-3.8s2.4-1.2,4.3-1.2h2.1c0.2,0,0.3,0.1,0.5,0.2c0.1,0.1,0.2,0.3,0.2,0.5v2.2
	c0,0.2-0.1,0.3-0.2,0.5c-0.1,0.1-0.3,0.2-0.5,0.2H102c-0.6,0-1,0.1-1.2,0.4c-0.2,0.2-0.3,0.6-0.3,1.1v0.7h3.1c0.2,0,0.3,0.1,0.5,0.2
	c0.1,0.1,0.2,0.3,0.2,0.5v2.2c0,0.2-0.1,0.3-0.2,0.5c-0.1,0.1-0.3,0.2-0.5,0.2h-3.1v9.3c0,0.2-0.1,0.3-0.2,0.5
	c-0.1,0.1-0.3,0.2-0.5,0.2L96.6,355L96.6,355z M111.9,355c-0.2,0-0.3-0.1-0.5-0.2c-0.1-0.1-0.2-0.3-0.2-0.5v-16.9
	c0-0.2,0.1-0.3,0.2-0.5c0.1-0.1,0.3-0.2,0.5-0.2h8c2.2,0,3.8,0.5,4.9,1.4s1.6,2.2,1.6,3.8c0,0.8-0.2,1.6-0.7,2.2
	c-0.4,0.6-0.9,1-1.5,1.3c0.7,0.3,1.3,0.8,1.8,1.6c0.5,0.7,0.7,1.5,0.7,2.4c0,1.8-0.6,3.1-1.7,4.1s-2.8,1.5-4.9,1.5L111.9,355
	L111.9,355z M119.4,344c0.6,0,1.1-0.2,1.5-0.5c0.3-0.3,0.5-0.8,0.5-1.4c0-0.5-0.2-1-0.5-1.3s-0.8-0.5-1.5-0.5h-3.3v3.7L119.4,344
	L119.4,344z M119.6,351.5c0.7,0,1.2-0.2,1.6-0.6s0.6-0.9,0.6-1.5s-0.2-1.1-0.6-1.5s-0.9-0.6-1.6-0.6h-3.5v4.1h3.5V351.5z M130,355
	c-0.2,0-0.4-0.1-0.5-0.2s-0.2-0.3-0.2-0.5v-17.2c0-0.2,0.1-0.3,0.2-0.5c0.1-0.1,0.3-0.2,0.5-0.2h3.3c0.2,0,0.3,0.1,0.5,0.2
	c0.1,0.1,0.2,0.3,0.2,0.5v17.2c0,0.2-0.1,0.3-0.2,0.5c-0.1,0.1-0.3,0.2-0.5,0.2H130z M143.4,355.3c-2.2,0-3.9-0.5-5-1.5
	c-1.2-1-1.8-2.5-1.9-4.3c0-0.2,0-0.6,0-1.2s0-0.9,0-1.2c0.1-1.8,0.8-3.3,2-4.3s2.9-1.6,5-1.6s3.8,0.5,5,1.6c1.2,1,1.9,2.5,2,4.3
	c0,0.5,0.1,0.8,0.1,1.2c0,0.3,0,0.7-0.1,1.2c-0.1,1.9-0.7,3.3-1.9,4.3C147.2,354.8,145.5,355.3,143.4,355.3z M143.4,352
	c0.7,0,1.2-0.2,1.6-0.6c0.3-0.5,0.5-1.1,0.6-2.1c0-0.2,0-0.5,0-1s0-0.9,0-1c-0.1-0.9-0.3-1.6-0.6-2s-0.9-0.7-1.6-0.7
	s-1.2,0.2-1.6,0.7s-0.5,1.1-0.6,2v1v1c0.1,0.9,0.3,1.6,0.6,2.1C142.1,351.8,142.6,352,143.4,352z M159.1,355.3c-2,0-3.6-0.5-4.8-1.6
	s-1.9-2.5-1.9-4.4v-1v-1.1c0.1-1.9,0.7-3.3,1.9-4.4s2.8-1.6,4.8-1.6c1.5,0,2.8,0.3,3.8,0.8s1.8,1.2,2.3,1.9c0.5,0.7,0.8,1.4,0.8,2
	c0,0.2,0,0.4-0.2,0.5c-0.1,0.1-0.3,0.2-0.5,0.2h-3.5c-0.2,0-0.3,0-0.4-0.1c-0.1-0.1-0.2-0.2-0.3-0.4c-0.2-0.5-0.4-0.8-0.8-1.1
	c-0.3-0.2-0.7-0.3-1.1-0.3c-1.3,0-2,0.9-2.1,2.7v1v0.9c0,0.9,0.2,1.6,0.5,2s0.9,0.6,1.5,0.6c0.5,0,0.9-0.1,1.2-0.3
	c0.3-0.2,0.5-0.6,0.7-1.1c0.1-0.2,0.2-0.3,0.3-0.4s0.3-0.1,0.4-0.1h3.5c0.2,0,0.3,0.1,0.5,0.2c0.1,0.1,0.2,0.3,0.2,0.4
	c0,0.5-0.2,1.2-0.7,1.9c-0.5,0.7-1.2,1.4-2.3,2C162,355,160.7,355.3,159.1,355.3z M168.9,355c-0.2,0-0.4-0.1-0.5-0.2
	s-0.2-0.3-0.2-0.5v-17.2c0-0.2,0.1-0.3,0.2-0.5c0.1-0.1,0.3-0.2,0.5-0.2h3.2c0.2,0,0.3,0.1,0.5,0.2c0.1,0.1,0.2,0.3,0.2,0.5v8.7
	l3.5-4c0,0,0.1-0.1,0.2-0.2c0.1-0.1,0.2-0.1,0.3-0.2s0.2-0.1,0.4-0.1h3.7c0.2,0,0.3,0.1,0.4,0.2c0.1,0.1,0.2,0.2,0.2,0.4
	c0,0.2-0.1,0.3-0.2,0.4l-4.6,5l5.2,6.5c0.1,0.2,0.2,0.3,0.2,0.4c0,0.2-0.1,0.3-0.2,0.4c-0.1,0.1-0.2,0.2-0.4,0.2h-3.8
	c-0.2,0-0.4,0-0.5-0.1s-0.2-0.2-0.4-0.3l-4-4.9v4.7c0,0.2-0.1,0.3-0.2,0.5c-0.1,0.1-0.3,0.2-0.5,0.2h-3.2V355z M189.3,355.3
	c-2,0-3.6-0.5-4.8-1.6s-1.9-2.5-1.9-4.4v-1v-1.1c0.1-1.9,0.7-3.3,1.9-4.4s2.8-1.6,4.8-1.6c1.5,0,2.8,0.3,3.8,0.8s1.8,1.2,2.3,1.9
	c0.5,0.7,0.8,1.4,0.8,2c0,0.2,0,0.4-0.2,0.5c-0.1,0.1-0.3,0.2-0.5,0.2H192c-0.2,0-0.3,0-0.4-0.1c-0.1-0.1-0.2-0.2-0.3-0.4
	c-0.2-0.5-0.4-0.8-0.8-1.1c-0.3-0.2-0.7-0.3-1.1-0.3c-1.3,0-2,0.9-2.1,2.7v1v0.9c0,0.9,0.2,1.6,0.5,2s0.9,0.6,1.5,0.6
	c0.5,0,0.9-0.1,1.2-0.3c0.3-0.2,0.5-0.6,0.7-1.1c0.1-0.2,0.2-0.3,0.3-0.4s0.3-0.1,0.4-0.1h3.5c0.2,0,0.3,0.1,0.5,0.2
	c0.1,0.1,0.2,0.3,0.2,0.4c0,0.5-0.2,1.2-0.7,1.9c-0.5,0.7-1.2,1.4-2.3,2C192.1,355,190.8,355.3,189.3,355.3z M199.1,355
	c-0.2,0-0.4-0.1-0.5-0.2s-0.2-0.3-0.2-0.5v-17.2c0-0.2,0.1-0.3,0.2-0.5c0.1-0.1,0.3-0.2,0.5-0.2h3.5c0.2,0,0.3,0.1,0.5,0.2
	c0.1,0.1,0.2,0.3,0.2,0.5v5.8c1-1.2,2.4-1.8,4.1-1.8c1,0,1.9,0.2,2.7,0.7s1.4,1.1,1.9,2s0.7,1.9,0.7,3.2v7.3c0,0.2-0.1,0.3-0.2,0.5
	c-0.1,0.1-0.3,0.2-0.5,0.2h-3.5c-0.2,0-0.3-0.1-0.5-0.2c-0.1-0.1-0.2-0.3-0.2-0.5v-7.1c0-0.8-0.2-1.4-0.6-1.8
	c-0.4-0.4-0.9-0.6-1.6-0.6c-0.7,0-1.2,0.2-1.6,0.6c-0.4,0.4-0.6,1-0.6,1.8v7.1c0,0.2-0.1,0.3-0.2,0.5c-0.1,0.1-0.3,0.2-0.5,0.2
	H199.1z M219.5,355.3c-0.9,0-1.8-0.2-2.5-0.5c-0.7-0.4-1.3-0.9-1.8-1.5c-0.4-0.6-0.6-1.3-0.6-2.1c0-1.2,0.5-2.1,1.5-2.9
	c1-0.7,2.3-1.3,4.1-1.5l3.2-0.5V346c0-0.6-0.1-1.1-0.4-1.4c-0.3-0.3-0.7-0.4-1.3-0.4c-0.3,0-0.6,0.1-0.9,0.2
	c-0.2,0.1-0.5,0.3-0.8,0.5c-0.2,0.2-0.4,0.3-0.6,0.4c-0.1,0.1-0.2,0.2-0.3,0.2h-3c-0.2,0-0.3-0.1-0.4-0.2c-0.1-0.1-0.1-0.3-0.1-0.4
	c0-0.5,0.3-1,0.7-1.6s1.1-1.1,2.1-1.5c0.9-0.4,2.1-0.6,3.4-0.6c2.1,0,3.7,0.5,4.8,1.4c1,0.9,1.6,2.2,1.6,3.8v7.9
	c0,0.2-0.1,0.3-0.2,0.5c-0.1,0.1-0.3,0.2-0.5,0.2h-3.2c-0.2,0-0.3-0.1-0.5-0.2c-0.1-0.1-0.2-0.3-0.2-0.5v-0.9
	c-0.4,0.5-0.9,1-1.6,1.3C221.2,355.1,220.4,355.3,219.5,355.3z M220.8,352.2c0.8,0,1.4-0.3,1.8-0.8c0.5-0.5,0.7-1.2,0.7-2.2v-0.3
	l-2.2,0.4c-1.5,0.3-2.2,0.8-2.2,1.6c0,0.4,0.2,0.7,0.5,1C219.9,352.1,220.3,352.2,220.8,352.2z M231.5,339.6c-0.2,0-0.3-0.1-0.5-0.2
	c-0.1-0.1-0.2-0.3-0.2-0.5v-2.4c0-0.2,0.1-0.3,0.2-0.5c0.1-0.1,0.3-0.2,0.5-0.2h3.3c0.2,0,0.3,0.1,0.5,0.2c0.1,0.1,0.2,0.3,0.2,0.5
	v2.4c0,0.2-0.1,0.4-0.2,0.5c-0.1,0.1-0.3,0.2-0.5,0.2H231.5z M231.5,355c-0.2,0-0.3-0.1-0.5-0.2c-0.1-0.1-0.2-0.3-0.2-0.5v-12.2
	c0-0.2,0.1-0.3,0.2-0.5c0.1-0.1,0.3-0.2,0.5-0.2h3.3c0.2,0,0.3,0.1,0.5,0.2c0.1,0.1,0.2,0.3,0.2,0.5v12.2c0,0.2-0.1,0.3-0.2,0.5
	c-0.1,0.1-0.3,0.2-0.5,0.2H231.5z M239,355c-0.2,0-0.3-0.1-0.5-0.2c-0.1-0.1-0.2-0.3-0.2-0.5v-12.2c0-0.2,0.1-0.3,0.2-0.5
	c0.1-0.1,0.3-0.2,0.5-0.2h3.2c0.2,0,0.3,0.1,0.5,0.2c0.1,0.1,0.2,0.3,0.2,0.5v1c0.5-0.6,1.1-1,1.8-1.4c0.7-0.3,1.6-0.5,2.5-0.5
	c1,0,1.9,0.2,2.6,0.7c0.8,0.5,1.4,1.1,1.8,2c0.4,0.9,0.7,1.9,0.7,3.2v7.3c0,0.2-0.1,0.3-0.2,0.5c-0.1,0.1-0.3,0.2-0.5,0.2h-3.5
	c-0.2,0-0.4-0.1-0.5-0.2s-0.2-0.3-0.2-0.5v-7.1c0-0.8-0.2-1.4-0.6-1.8c-0.4-0.4-0.9-0.6-1.6-0.6c-0.7,0-1.2,0.2-1.6,0.6
	c-0.4,0.4-0.6,1-0.6,1.8v7.1c0,0.2-0.1,0.3-0.2,0.5c-0.1,0.1-0.3,0.2-0.5,0.2H239V355z M260.8,355.3c-1.4,0-2.6-0.2-3.6-0.6
	s-1.7-0.9-2.1-1.4c-0.4-0.6-0.7-1.1-0.7-1.5c0-0.2,0.1-0.3,0.2-0.4c0.1-0.1,0.3-0.2,0.4-0.2h3.1c0.1,0,0.2,0,0.3,0.1
	c0.3,0.2,0.5,0.3,0.5,0.3c0.3,0.2,0.6,0.4,0.9,0.6c0.3,0.1,0.6,0.2,1,0.2c0.5,0,0.9-0.1,1.1-0.3c0.3-0.2,0.5-0.5,0.5-0.8
	s-0.1-0.5-0.3-0.7c-0.2-0.2-0.5-0.3-0.9-0.5c-0.5-0.2-1.1-0.3-2.1-0.5c-3-0.6-4.5-2-4.5-4.2c0-0.7,0.2-1.4,0.7-2
	c0.5-0.7,1.1-1.2,2-1.6c0.9-0.4,2-0.6,3.2-0.6c1.3,0,2.4,0.2,3.3,0.6s1.6,0.8,2.1,1.4c0.5,0.5,0.7,1,0.7,1.5c0,0.2-0.1,0.3-0.2,0.4
	s-0.2,0.2-0.4,0.2h-2.9c-0.2,0-0.3,0-0.4-0.1c-0.2-0.1-0.4-0.2-0.6-0.4c-0.3-0.2-0.6-0.4-0.8-0.5c-0.2-0.1-0.5-0.2-0.9-0.2
	s-0.8,0.1-1,0.3c-0.2,0.2-0.4,0.4-0.4,0.7c0,0.3,0.1,0.5,0.2,0.6c0.2,0.2,0.5,0.3,0.9,0.5c0.5,0.2,1.2,0.3,2.1,0.5
	c1.7,0.3,2.9,0.8,3.7,1.6c0.8,0.7,1.2,1.6,1.2,2.6c0,1.3-0.6,2.3-1.7,3.1C264.5,354.9,262.9,355.3,260.8,355.3z"/>
<g>
	<path class="st8" d="M636.8,310.4c0,4.8,0,9.5,0,14.3c0,3.3-1.3,5.6-4.2,7.3c-10.7,6.1-21.4,12.4-32.1,18.5
		c-5.4,3.1-10.7,0-10.7-6.2c0-7.2,0-14.4,0-21.6c0-4.1,2.6-6,5.6-7.7c9.1-5.2,18.3-10.4,27.3-15.8c4.1-2.4,2.9-6.4,0.1-7.8
		c-1.1-0.5-2.1-1.2-3.2-1.8c-2.2-1.3-2.7-2.8-1.9-4.6c0.7-1.5,3.3-2.4,4.9-1.5c4,2.1,8,4.3,11.8,6.7c1.9,1.2,2.4,3.3,2.4,5.4
		C636.9,300.5,636.9,305.5,636.8,310.4C636.9,310.4,636.9,310.4,636.8,310.4z"/>
	<path class="st8" d="M578.7,354.7c0,5.6,0,11.2,0,16.9c0,1.9,0.8,3.2,2.4,4.1c1.5,0.9,3,0.7,4.5-0.3c1.3-0.9,2.7-1.5,4.1-2.3
		c1.2-0.7,2.5-0.4,3.3,0.5c0.7,0.8,1.3,2.1,1,3c-0.4,1.3-1.3,2.7-2.4,3.4c-3,2-6.3,3.7-9.4,5.6c-2.5,1.4-4.8,1.4-7.2,0
		c-8.5-5-17-9.9-25.6-14.8c-2.5-1.5-3.7-3.6-3.8-6.4c0-12.7-0.1-25.4,0-38.1c0-5.6,5.2-8.8,10.1-6.1c6.7,3.7,13.3,7.6,19.9,11.4
		c2.4,1.4,3.3,3.5,3.3,6.2C578.7,343.3,578.7,349,578.7,354.7z"/>
	<path class="st8" d="M524.9,298.5c0-1.6,0.1-3.2,0-4.8c-0.3-3.6,1.7-5.8,4.5-7.4c6-3.5,12.1-6.8,18.1-10.2c2.1-1.2,4.3-2.5,6.4-3.7
		c3.1-1.9,6-1.3,9,0.4c7,4.1,14,8.1,21,12.2c4,2.3,7.9,4.6,11.8,6.9c3.2,1.8,3.7,8.7-0.7,11.1c-3,1.7-6,3.4-9,5.2
		c-3.5,2.1-7.1,4.1-10.6,6.1c-2.5,1.5-4.9,1.4-7.4,0c-9.5-5.5-19-11-28.5-16.4c-1.1-0.7-2.6-1.2-3.9-1.1c-2.3,0.3-3.6,2.1-3.7,4.5
		c0,1.4,0,2.8,0,4.2c0,1.7-0.8,3-2.5,3.4c-1.6,0.4-2.9-0.5-3.6-1.9c-0.5-0.9-0.7-2.1-0.8-3.1C524.8,302,525,300.2,524.9,298.5
		C525,298.5,524.9,298.5,524.9,298.5z"/>
</g>
<circle class="st8" cx="295.6" cy="423.8" r="35"/>
<g>
	<path class="st9" d="M308.6,417.6c-0.1-6.9-5.4-12.4-12.4-12.9c-6.6-0.4-12.7,4.6-13.5,11.1c-0.2,2-0.1,4,0.6,5.9
		c0.5,1.4-0.2,2.9-1.6,3.3c-1.4,0.4-2.8-0.3-3.2-1.7c-3.3-10.3,2.7-20.8,13.2-23.3c9.7-2.3,19.9,4.5,21.5,14.3
		c1.6,9.8-4.2,18.6-13.9,20.8c-1.7,0.4-3.5,0.4-5.2,0.6c-2.9,0.4-4.8,2.4-5.4,5.5c-0.2,1-0.4,2-0.6,3c-0.3,1.5-1.6,2.4-2.9,2.1
		c-1.5-0.3-2.3-1.6-2-3.1c1.9-8.7,3.7-17.5,5.6-26.2c0.3-1.4,1.6-2.3,3-2c1.3,0.3,2.2,1.6,1.9,3c-0.9,4.2-1.8,8.4-2.7,12.6
		c-0.1,0.5,0,0.5,0.4,0.4c2-0.2,4-0.4,5.9-0.6c5.4-0.7,10-5,10.9-10.4C308.4,419.2,308.5,418.4,308.6,417.6z"/>
	<path class="st10" d="M293.2,443.9c0-1.7,1.3-3,3-3c1.7,0,3,1.3,3,3c0,1.7-1.3,3-3,3C294.5,446.9,293.2,445.6,293.2,443.9z"/>
</g>
</svg>
