<?xml version="1.0" encoding="utf-8"?>
<!-- Generator: Adobe Illustrator 22.0.1, SVG Export Plug-In . SVG Version: 6.00 Build 0)  -->
<svg version="1.1" id="Layer_1" xmlns="http://www.w3.org/2000/svg" xmlns:xlink="http://www.w3.org/1999/xlink" x="0px" y="0px"
	 viewBox="0 0 944 826" style="enable-background:new 0 0 944 826;" xml:space="preserve">
<style type="text/css">
	.st0{fill:#FFFFFF;}
	.st1{fill:#A53AD5;}
	.st2{clip-path:url(#SVGID_2_);}
	.st3{fill:#FFFFFF;stroke:#FFFFFF;}
	.st4{fill:none;stroke:#FFFFFF;stroke-width:3;}
	.st5{fill:none;stroke:#FFFFFF;stroke-width:2;}
	.st6{fill:#F2F2F2;}
	.st7{fill:none;}
	.st8{fill:#040404;}
	.st9{fill:#E4127C;}
</style>
<path class="st0" d="M741.9,752v-32.6h6.3v15.5l13.7-15.5h7l-12.5,14.5l13.3,18.2h-7.2l-10.2-14.1l-4.1,4.3v9.8H741.9z M772.7,752
	v-32.7h6.3V752H772.7z M785.8,752v-32.7h14.4c1.5,0,2.9,0.3,4.1,0.9c1.3,0.6,2.4,1.4,3.3,2.5c1,1,1.7,2.2,2.2,3.5
	c0.5,1.3,0.8,2.6,0.8,4c0,2.1-0.5,4-1.6,5.8c-1,1.7-2.5,3-4.3,3.8l7.5,12.3h-7l-6.7-10.9h-6.3V752H785.8z M792.2,735.5h8
	c1.2,0,2.2-0.5,2.9-1.5c0.8-1,1.2-2.3,1.2-3.8c0-1-0.2-1.9-0.6-2.7c-0.4-0.8-1-1.4-1.7-1.9c-0.6-0.5-1.3-0.7-2.1-0.7h-7.7V735.5z
	 M825.3,719.3h6.4l12,32.7h-6.5l-3-8.1h-11.4l-3,8.1h-6.5L825.3,719.3z M833,739.4l-4.5-13.5l-4.7,13.5H833z M683,782v21h-6.3v-32.7
	h5.1l16.9,21.5v-21.5h6.3V803h-5.3L683,782z M734.4,797.4v5.6h-22.7v-32.7H734v5.6h-15.9v7.9h13.8v5.2h-13.8v8.5H734.4z
	 M763.8,775.9h-10.4V803h-6.3v-27.1h-10.4v-5.6h27.2V775.9z M779,770.4h5.9l3.7,10.8l3.8-10.8h5.8l-5.6,14.9l4.1,10.4l9.2-25.3h6.9
	L799.9,803h-5.5l-5.8-13.7l-5.7,13.7h-5.5l-13-32.7h6.8l9.3,25.3l4-10.4L779,770.4z M829,803.2c-2.4,0-4.6-0.5-6.5-1.4
	c-1.9-0.9-3.6-2.2-5-3.7c-1.4-1.6-2.5-3.4-3.2-5.3c-0.8-2-1.2-4-1.2-6.1c0-2.2,0.4-4.2,1.2-6.2c0.8-2,1.9-3.8,3.4-5.3
	c1.4-1.6,3.1-2.8,5.1-3.7c2-0.9,4.1-1.4,6.4-1.4c2.4,0,4.5,0.5,6.4,1.4c2,1,3.6,2.2,5,3.8c1.4,1.6,2.5,3.4,3.2,5.4
	c0.8,2,1.1,4,1.1,6c0,2.1-0.4,4.2-1.2,6.2c-0.8,2-1.9,3.7-3.4,5.3c-1.4,1.5-3.1,2.7-5.1,3.6C833.4,802.8,831.3,803.2,829,803.2z
	 M819.5,786.7c0,1.9,0.4,3.7,1.1,5.3c0.8,1.7,1.9,3,3.3,4c1.4,1,3.2,1.6,5.2,1.6c2.1,0,3.8-0.5,5.2-1.6c1.4-1.1,2.5-2.5,3.2-4.1
	c0.7-1.7,1.1-3.4,1.1-5.2c0-1.9-0.4-3.7-1.2-5.3c-0.8-1.7-1.9-3-3.3-4c-1.4-1-3.1-1.6-5.1-1.6c-2.1,0-3.8,0.5-5.2,1.6
	c-1.4,1.1-2.5,2.5-3.2,4.1C819.8,783.2,819.5,784.9,819.5,786.7z M849.8,803v-32.7h14.4c1.5,0,2.9,0.3,4.1,0.9
	c1.3,0.6,2.4,1.4,3.3,2.5c1,1,1.7,2.2,2.2,3.5c0.5,1.3,0.8,2.6,0.8,4c0,2.1-0.5,4-1.6,5.8c-1,1.7-2.5,3-4.3,3.8l7.5,12.3h-7
	l-6.7-10.9h-6.3V803H849.8z M856.1,786.5h8c1.2,0,2.2-0.5,2.9-1.5c0.8-1,1.2-2.3,1.2-3.8c0-1-0.2-1.9-0.6-2.7
	c-0.4-0.8-1-1.4-1.7-1.9c-0.6-0.5-1.3-0.7-2.1-0.7h-7.7V786.5z M880.4,803v-32.6h6.3v15.5l13.7-15.5h7l-12.5,14.5l13.3,18.2H901
	l-10.2-14.1l-4.1,4.3v9.8H880.4z"/>
<path class="st0" d="M53.7,719.3l8.8,25.1l8.7-25.1h6.7L65.5,752h-6.1L47,719.3H53.7z M87.6,719.3H94l12,32.7h-6.5l-3-8.1H85.1
	l-3,8.1h-6.5L87.6,719.3z M95.3,739.4l-4.5-13.5l-4.7,13.5H95.3z M109.6,752v-32.7h6.3v27.1h16.7v5.6H109.6z M136.5,752v-32.7h6.3
	V752H136.5z M149.7,752v-32.7h11.9c3.6,0,6.5,0.7,8.9,2.2c2.4,1.4,4.2,3.4,5.4,5.9c1.2,2.5,1.8,5.2,1.8,8.2c0,3.3-0.7,6.2-2,8.6
	s-3.2,4.4-5.6,5.7c-2.4,1.3-5.3,2-8.5,2H149.7z M171.2,735.6c0-2.1-0.4-4-1.1-5.6c-0.8-1.6-1.9-2.9-3.3-3.8
	c-1.4-0.9-3.2-1.4-5.2-1.4H156v21.5h5.5c2.1,0,3.8-0.5,5.3-1.4c1.4-1,2.5-2.2,3.3-3.9C170.9,739.5,171.2,737.7,171.2,735.6z
	 M190.2,719.3h6.4l12,32.7h-6.5l-3-8.1h-11.4l-3,8.1h-6.5L190.2,719.3z M197.9,739.4l-4.5-13.5l-4.7,13.5H197.9z M233.6,724.9h-10.4
	V752h-6.3v-27.1h-10.4v-5.6h27.2V724.9z M250.9,752.2c-2.4,0-4.6-0.5-6.5-1.4c-1.9-0.9-3.6-2.2-5-3.7c-1.4-1.6-2.5-3.4-3.2-5.3
	c-0.8-2-1.2-4-1.2-6.1c0-2.2,0.4-4.2,1.2-6.2c0.8-2,1.9-3.8,3.4-5.3c1.4-1.6,3.1-2.8,5.1-3.7c2-0.9,4.1-1.4,6.4-1.4
	c2.4,0,4.5,0.5,6.4,1.4c2,1,3.6,2.2,5,3.8c1.4,1.6,2.5,3.4,3.2,5.4c0.8,2,1.1,4,1.1,6c0,2.1-0.4,4.2-1.2,6.2c-0.8,2-1.9,3.7-3.4,5.3
	c-1.4,1.5-3.1,2.7-5.1,3.6C255.3,751.8,253.2,752.2,250.9,752.2z M241.4,735.7c0,1.9,0.4,3.7,1.1,5.3c0.8,1.7,1.9,3,3.3,4
	c1.4,1,3.2,1.6,5.2,1.6c2.1,0,3.8-0.5,5.2-1.6c1.4-1.1,2.5-2.5,3.2-4.1c0.7-1.7,1.1-3.4,1.1-5.2c0-1.9-0.4-3.7-1.1-5.3s-1.9-3-3.3-4
	c-1.4-1-3.1-1.6-5.1-1.6c-2.1,0-3.8,0.5-5.2,1.6c-1.4,1.1-2.5,2.5-3.2,4.1C241.8,732.2,241.4,733.9,241.4,735.7z M271.7,752v-32.7
	h14.4c1.5,0,2.9,0.3,4.1,0.9c1.3,0.6,2.4,1.4,3.3,2.5c0.9,1,1.7,2.2,2.2,3.5c0.5,1.3,0.8,2.6,0.8,4c0,2.1-0.5,4-1.6,5.8
	c-1,1.7-2.5,3-4.3,3.8l7.5,12.3h-7l-6.7-10.9h-6.3V752H271.7z M278.1,735.5h8c1.2,0,2.2-0.5,2.9-1.5c0.8-1,1.2-2.3,1.2-3.8
	c0-1-0.2-1.9-0.6-2.7c-0.4-0.8-1-1.4-1.7-1.9c-0.6-0.5-1.4-0.7-2.1-0.7h-7.7V735.5z M321.8,727.9c-0.3-0.3-0.9-0.7-1.7-1.2
	c-0.9-0.5-2-1-3.2-1.4c-1.2-0.4-2.5-0.6-3.8-0.6c-3.5,0-5.2,1.2-5.2,3.7c0,0.9,0.3,1.6,0.8,2.1s1.4,1,2.5,1.3
	c1.1,0.4,2.5,0.8,4.1,1.2c2.1,0.6,4,1.2,5.6,1.9c1.6,0.7,2.8,1.7,3.6,2.9c0.9,1.2,1.3,2.8,1.3,4.8c0,2.3-0.6,4.2-1.7,5.7
	c-1.1,1.4-2.6,2.4-4.4,3.1c-1.8,0.6-3.8,1-6,1c-2.5,0-4.9-0.4-7.3-1.1c-2.4-0.8-4.5-1.8-6.4-3.1l2.8-5.5c0.3,0.3,0.8,0.6,1.5,1.1
	c0.7,0.4,1.6,0.9,2.6,1.3c1,0.4,2.1,0.8,3.3,1.1c1.2,0.3,2.4,0.5,3.6,0.5c3.5,0,5.2-1.1,5.2-3.4c0-1-0.4-1.7-1.1-2.3
	c-0.7-0.6-1.7-1.1-3-1.5c-1.3-0.4-2.7-0.8-4.4-1.3c-2.1-0.6-3.8-1.2-5.2-1.9c-1.3-0.7-2.4-1.6-3-2.7c-0.7-1.1-1-2.5-1-4.2
	c0-2.2,0.5-4.1,1.6-5.6c1.1-1.5,2.5-2.7,4.3-3.4c1.8-0.8,3.8-1.2,6-1.2c2.3,0,4.4,0.4,6.3,1.1c2,0.7,3.6,1.6,5.1,2.5L321.8,727.9z"
	/>
<path class="st1" d="M368.5,42V9.3h11.9c3.6,0,6.5,0.7,8.9,2.2c2.4,1.4,4.2,3.4,5.4,5.9c1.2,2.5,1.8,5.2,1.8,8.2
	c0,3.3-0.7,6.2-2,8.6c-1.3,2.5-3.2,4.4-5.6,5.7c-2.4,1.3-5.3,2-8.5,2H368.5z M390,25.6c0-2.1-0.4-4-1.2-5.6
	c-0.8-1.6-1.9-2.9-3.3-3.8c-1.4-0.9-3.2-1.4-5.2-1.4h-5.5v21.5h5.5c2.1,0,3.8-0.5,5.3-1.4c1.4-1,2.5-2.2,3.3-3.9
	C389.7,29.5,390,27.7,390,25.6z M400.7,14.5V8.4h6.2v6.1H400.7z M400.7,42V17.9h6.2V42H400.7z M421.9,42.1c-2.1,0-4-0.6-5.7-1.7
	s-2.9-2.6-3.8-4.4c-0.9-1.9-1.4-3.9-1.4-6.1c0-2.3,0.5-4.4,1.4-6.3c1-1.9,2.3-3.4,4-4.5c1.7-1.1,3.6-1.7,5.8-1.7
	c1.9,0,3.5,0.4,4.9,1.3c1.4,0.8,2.6,1.9,3.5,3.4v-4.2h5.4v23c0,2.4-0.6,4.4-1.7,6.1c-1.1,1.7-2.7,3-4.7,3.9c-2,0.9-4.3,1.4-6.9,1.4
	c-2.6,0-4.9-0.4-6.7-1.3c-1.8-0.9-3.3-2.1-4.6-3.7l3.4-3.3c0.9,1.1,2.1,2,3.4,2.7c1.4,0.6,2.9,1,4.5,1c1.3,0,2.5-0.2,3.5-0.7
	c1.1-0.5,2-1.2,2.7-2.2c0.7-1,1-2.3,1-3.8v-3c-0.8,1.4-1.9,2.5-3.4,3.2C425,41.8,423.5,42.1,421.9,42.1z M423.9,37.2
	c1.3,0,2.6-0.4,3.6-1.2c1.1-0.8,1.9-1.7,2.3-2.9v-5.8c-0.6-1.4-1.4-2.5-2.6-3.4c-1.2-0.9-2.4-1.3-3.7-1.3c-1.3,0-2.4,0.4-3.3,1.1
	c-0.9,0.7-1.6,1.6-2.2,2.8c-0.5,1.1-0.8,2.3-0.8,3.6c0,1.3,0.3,2.5,0.9,3.6s1.4,1.9,2.3,2.6C421.5,36.9,422.7,37.2,423.9,37.2z
	 M441.6,14.5V8.4h6.2v6.1H441.6z M441.6,42V17.9h6.2V42H441.6z M467.7,40.8c-0.8,0.4-1.9,0.7-3.1,1.1c-1.2,0.4-2.4,0.6-3.7,0.6
	c-1.1,0-2.2-0.2-3.1-0.6c-1-0.4-1.7-1-2.3-1.9c-0.6-0.9-0.8-2-0.8-3.5V22.6h-3.2v-4.7h3.2v-7.8h6.2v7.8h5.1v4.7h-5.1v11.8
	c0,0.8,0.2,1.4,0.6,1.8c0.5,0.4,1,0.6,1.7,0.6c0.6,0,1.3-0.1,1.9-0.3c0.6-0.2,1.1-0.4,1.5-0.6L467.7,40.8z M469.3,34.9
	c0-1.6,0.4-2.9,1.3-4.1c0.9-1.2,2.1-2.1,3.7-2.8c1.6-0.6,3.4-1,5.4-1c1,0,2,0.1,3.1,0.3c1,0.2,1.9,0.4,2.7,0.7v-1.3
	c0-1.5-0.5-2.7-1.4-3.5c-0.9-0.8-2.2-1.2-4-1.2c-1.3,0-2.6,0.2-3.8,0.7c-1.2,0.5-2.5,1.1-3.8,2l-2-4c1.6-1,3.2-1.8,4.9-2.3
	c1.7-0.5,3.5-0.8,5.3-0.8c3.4,0,6.1,0.9,8,2.6c1.9,1.7,2.9,4.2,2.9,7.4v7.7c0,0.7,0.1,1.2,0.3,1.4c0.2,0.2,0.6,0.4,1.1,0.5v5
	c-0.6,0.1-1.1,0.2-1.5,0.2c-0.4,0.1-0.8,0.1-1.1,0.1c-1.2,0-2.2-0.3-2.8-0.8c-0.6-0.6-1-1.2-1.2-2l-0.1-1.2c-1.1,1.4-2.4,2.4-4,3.2
	c-1.5,0.7-3.1,1.1-4.7,1.1c-1.6,0-3.1-0.3-4.3-1c-1.3-0.7-2.3-1.6-3-2.7C469.7,37.6,469.3,36.3,469.3,34.9z M484.3,36.1
	c0.8-0.7,1.1-1.4,1.1-2.1v-2.4c-1.6-0.6-3.2-1-4.8-1c-1.6,0-2.9,0.4-4,1.1c-1,0.7-1.5,1.6-1.5,2.7c0,0.9,0.4,1.7,1.1,2.5
	s1.8,1.1,3.2,1.1c0.9,0,1.8-0.2,2.7-0.5C483,37.1,483.7,36.7,484.3,36.1z M497.3,8.4h6.2v25.9c0,1.1,0.2,1.9,0.6,2.3
	s0.9,0.6,1.5,0.6c0.5,0,1-0.1,1.5-0.2c0.5-0.1,1-0.3,1.4-0.5l0.8,4.7c-0.8,0.4-1.8,0.7-2.9,0.9c-1.1,0.2-2.1,0.3-3,0.3
	c-1.9,0-3.4-0.5-4.5-1.5c-1-1-1.6-2.5-1.6-4.4V8.4z M522.4,42V9.3h21.9v5.6h-15.6v8.4h13v5.2h-13V42H522.4z M548.2,14.5V8.4h6.2v6.1
	H548.2z M548.2,42V17.9h6.2V42H548.2z M558.2,34.9c0-1.6,0.4-2.9,1.3-4.1c0.9-1.2,2.1-2.1,3.7-2.8c1.6-0.6,3.4-1,5.4-1
	c1,0,2,0.1,3.1,0.3c1,0.2,1.9,0.4,2.7,0.7v-1.3c0-1.5-0.5-2.7-1.4-3.5c-0.9-0.8-2.2-1.2-4-1.2c-1.3,0-2.6,0.2-3.8,0.7
	c-1.2,0.5-2.5,1.1-3.8,2l-2-4c1.6-1,3.2-1.8,4.9-2.3c1.7-0.5,3.5-0.8,5.3-0.8c3.4,0,6.1,0.9,8,2.6c1.9,1.7,2.9,4.2,2.9,7.4v7.7
	c0,0.7,0.1,1.2,0.3,1.4c0.2,0.2,0.6,0.4,1.2,0.5v5c-0.6,0.1-1.1,0.2-1.5,0.2c-0.4,0.1-0.8,0.1-1.1,0.1c-1.2,0-2.2-0.3-2.8-0.8
	c-0.6-0.6-1-1.2-1.2-2l-0.1-1.2c-1.1,1.4-2.4,2.4-4,3.2c-1.5,0.7-3.1,1.1-4.7,1.1c-1.6,0-3.1-0.3-4.3-1c-1.3-0.7-2.3-1.6-3-2.7
	C558.6,37.6,558.2,36.3,558.2,34.9z M573.2,36.1c0.8-0.7,1.2-1.4,1.2-2.1v-2.4c-1.6-0.6-3.2-1-4.8-1c-1.6,0-2.9,0.4-4,1.1
	c-1,0.7-1.5,1.6-1.5,2.7c0,0.9,0.4,1.7,1.1,2.5s1.8,1.1,3.2,1.1c0.9,0,1.8-0.2,2.7-0.5C571.9,37.1,572.7,36.7,573.2,36.1z
	 M600.5,40.8c-0.8,0.4-1.9,0.7-3.1,1.1c-1.2,0.4-2.4,0.6-3.7,0.6c-1.1,0-2.2-0.2-3.1-0.6c-1-0.4-1.7-1-2.3-1.9
	c-0.6-0.9-0.8-2-0.8-3.5V22.6h-3.2v-4.7h3.2v-7.8h6.2v7.8h5.1v4.7h-5.1v11.8c0,0.8,0.2,1.4,0.6,1.8c0.5,0.4,1,0.6,1.7,0.6
	s1.3-0.1,1.9-0.3c0.6-0.2,1.1-0.4,1.5-0.6L600.5,40.8z"/>
<path class="st1" d="M732.9,88v21h-6.3V76.3h5.1l16.9,21.5V76.4h6.3V109h-5.3L732.9,88z M761.6,109V76.3h21.9v5.6H768v8.4h13v5.2
	h-13V109H761.6z M812.5,81.9H802V109h-6.3V81.9h-10.4v-5.6h27.2V81.9z M820.8,109.5c-2.1,0-4-0.3-5.9-1c-1.9-0.7-3.5-1.7-4.8-3
	l2.2-4c1.4,1.2,2.9,2,4.2,2.6c1.4,0.6,2.7,0.8,4,0.8c1.2,0,2.1-0.2,2.9-0.6c0.7-0.4,1.1-1.1,1.1-1.9c0-0.9-0.4-1.5-1.3-1.8
	c-0.9-0.3-2.1-0.8-3.7-1.2c-1.8-0.6-3.3-1.1-4.5-1.7c-1.2-0.6-2.1-1.3-2.7-2.1c-0.6-0.8-0.9-1.9-0.9-3.2c0-2.4,0.9-4.2,2.7-5.7
	c1.8-1.4,4.1-2.1,7.1-2.1c1.7,0,3.3,0.3,4.9,0.8c1.5,0.5,2.9,1.4,4.2,2.6l-2.5,3.9c-2.4-1.8-4.6-2.8-6.9-2.8c-1,0-1.9,0.2-2.6,0.6
	c-0.7,0.4-1.1,1-1.1,1.9c0,0.9,0.4,1.5,1.1,1.8c0.7,0.4,1.8,0.8,3.3,1.2c1.9,0.6,3.5,1.2,4.8,1.7c1.3,0.6,2.4,1.3,3,2.1
	c0.7,0.9,1.1,2,1.1,3.5c0,2.4-0.9,4.3-2.6,5.6C826.1,108.8,823.8,109.5,820.8,109.5z"/>
<g>
	<defs>
		<rect id="SVGID_1_" x="698" y="153" width="55.9" height="52"/>
	</defs>
	<clipPath id="SVGID_2_">
		<use xlink:href="#SVGID_1_"  style="overflow:visible;"/>
	</clipPath>
	<g class="st2">
		<path class="st3" d="M753.9,185.5c-0.1-3-0.7-6.3-1.5-9.4c-0.8-3-1.9-5.8-3.1-7.9c-4.9-8-10.2-6.7-16.5-5.2c-2,0.5-4.2,1-6.4,1.2
			h-0.7c-2.2-0.2-4.4-0.7-6.4-1.2c-6.3-1.5-11.6-2.8-16.5,5.2c-1.3,2.1-2.4,4.9-3.1,7.9c-0.8,3.1-1.4,6.4-1.5,9.4
			c-0.1,3.3,0.2,5.7,1,7.4c0.8,1.6,1.9,2.5,3.3,2.9c1.3,0.3,2.9,0.2,4.5-0.5c2.7-1,5.8-3.2,8.9-5.9c2.2-1.9,6.2-2.9,10.2-2.9
			c4,0,8.1,1,10.2,2.9c3.1,2.7,6.2,4.9,8.9,5.9c1.6,0.6,3.1,0.8,4.5,0.5c1.4-0.4,2.6-1.3,3.3-3C753.7,191.3,754,188.9,753.9,185.5z
			 M750.5,192c-0.4,0.9-1,1.4-1.7,1.6c-0.8,0.2-1.7,0.1-2.9-0.3c-2.4-0.9-5.3-2.9-8.1-5.4c-2.6-2.5-7.3-3.7-12-3.7
			c-4.7,0-9.3,1.2-12,3.6c-2.9,2.5-5.7,4.5-8.1,5.4c-1.1,0.4-2.1,0.6-2.9,0.3c-0.7-0.2-1.3-0.7-1.7-1.6c-0.6-1.2-0.8-3.2-0.7-6.2
			c0.1-2.8,0.6-6,1.5-8.9c0.8-2.8,1.7-5.4,2.9-7.3c3.8-6.4,8.3-5.4,13.6-4.1c2.2,0.5,4.4,1,6.8,1.2c0.1,0,0.1,0,0.1,0h0.8
			c0.1,0,0.1,0,0.1,0c2.5-0.2,4.7-0.7,6.9-1.2c5.3-1.2,9.7-2.3,13.6,4.1c1.2,1.9,2.2,4.5,2.9,7.3c0.8,3,1.3,6.1,1.5,8.9
			C751.4,188.7,751.2,190.7,750.5,192z"/>
		<path class="st3" d="M719.5,172.9c-0.7-0.6-1.5-1-2.5-1.1c-0.1-0.8-0.5-1.7-1.1-2.3l-0.1-0.1c-0.8-0.7-1.7-1.1-2.9-1.1
			s-2.2,0.5-2.9,1.1c-0.6,0.6-1.1,1.4-1.2,2.3c-1,0.1-1.8,0.5-2.5,1l-0.1,0.1c-0.8,0.7-1.2,1.6-1.2,2.7s0.5,2,1.2,2.7
			c0.7,0.6,1.5,1,2.6,1.1c0.1,0.9,0.5,1.7,1.2,2.3c0.8,0.7,1.7,1.1,2.9,1.1s2.2-0.5,2.9-1.1c0.6-0.6,1.1-1.4,1.2-2.3
			c1-0.1,1.9-0.5,2.5-1.1c0.8-0.7,1.2-1.6,1.2-2.7S720.2,173.6,719.5,172.9z M717.8,176.5c-0.3,0.3-0.6,0.4-1,0.4h-1
			c-0.7,0-1.3,0.5-1.3,1.2v0.8c0,0.4-0.1,0.7-0.4,1c-0.3,0.3-0.6,0.4-1,0.4c-0.4,0-0.8-0.1-1-0.4c-0.3-0.3-0.4-0.6-0.4-1v-0.9
			c0-0.6-0.6-1.2-1.3-1.2h-1c-0.4,0-0.8-0.1-1-0.4c-0.2-0.2-0.4-0.5-0.4-0.9c0-0.4,0.1-0.7,0.4-1c0,0,0,0,0.1-0.1
			c0.3-0.2,0.6-0.3,1-0.3h1c0.7,0,1.3-0.5,1.3-1.2v-0.9c0-0.4,0.1-0.7,0.4-1c0.3-0.3,0.6-0.4,1-0.4c0.4,0,0.8,0.1,1,0.4
			c0,0,0,0,0.1,0.1c0.2,0.3,0.3,0.6,0.3,0.9v0.9c0,0.6,0.6,1.2,1.3,1.2h1c0.4,0,0.8,0.1,1,0.4c0.3,0.3,0.4,0.6,0.4,1
			C718.2,176,718.1,176.3,717.8,176.5z"/>
		<path class="st3" d="M738.1,173.2c1.3,0,2.4-1,2.4-2.3s-1.1-2.3-2.4-2.3s-2.4,1-2.4,2.3S736.7,173.2,738.1,173.2z"/>
		<path class="st3" d="M738.1,182.4c1.3,0,2.4-1,2.4-2.3s-1.1-2.3-2.4-2.3s-2.4,1-2.4,2.3S736.7,182.4,738.1,182.4z"/>
		<path class="st3" d="M733.1,177.8c1.3,0,2.4-1,2.4-2.3c0-1.3-1.1-2.3-2.4-2.3c-1.3,0-2.4,1-2.4,2.3
			C730.7,176.8,731.8,177.8,733.1,177.8z"/>
		<path class="st3" d="M743,177.8c1.3,0,2.4-1,2.4-2.3c0-1.3-1.1-2.3-2.4-2.3c-1.3,0-2.4,1-2.4,2.3
			C740.6,176.8,741.7,177.8,743,177.8z"/>
	</g>
</g>
<path class="st3" d="M802.2,246.7c-0.1-1.1-0.6-2-1.5-2.7l-4.2-3.4V231c0-0.7-0.6-1.3-1.4-1.3h-5.7c-0.8,0-1.4,0.6-1.4,1.3v2.7
	L781,228c-1.6-1.3-3.9-1.3-5.5,0l-20,16c-1.8,1.4-2,4-0.5,5.7c1.2,1.3,3,1.7,4.7,1.2v20.5c0,0.7,0.6,1.3,1.4,1.3h34.1
	c0.8,0,1.4-0.6,1.4-1.3v-20.5c1.7,0.6,3.5,0.1,4.6-1.2C802,248.8,802.3,247.8,802.2,246.7z M790.9,232.3h2.8v6l-2.8-2.3V232.3z
	 M783.9,269.9h-11.5v-10.7h11.5V269.9z M793.8,269.9h-7.1v-12c0-0.7-0.6-1.3-1.4-1.3H771c-0.8,0-1.4,0.6-1.4,1.3v12h-7.1v-21
	l15.7-12.6l15.6,12.6V269.9L793.8,269.9z M799.1,247.9c-0.5,0.6-1.4,0.6-2,0.1l-18-14.5c-0.5-0.4-1.3-0.4-1.8,0
	c-0.4,0.3-18.1,14.5-18.1,14.5c-0.6,0.5-1.5,0.4-2-0.1c-0.5-0.6-0.4-1.4,0.1-1.9l20-16c0.5-0.4,1.3-0.4,1.8,0l19.8,16
	C799.5,246.5,799.6,247.3,799.1,247.9z"/>
<path class="st0" d="M850.8,156.3h-46.6c-2.4,0-4.2,1.9-4.2,4.2v37.1c0,2.4,1.9,4.2,4.2,4.2h46.6c2.4,0,4.2-1.9,4.2-4.2v-37.1
	C855.1,158.1,853.2,156.3,850.8,156.3z M850.8,197.6h-46.6l0-37.1c0,0,0,0,0,0h46.6L850.8,197.6L850.8,197.6z"/>
<path class="st0" d="M821,169.7c-0.7-0.9-2-1-2.9-0.4l-17.3,12.7l2.5,3.4l15.7-11.5l22.3,26.9l3.3-2.7L821,169.7z"/>
<path class="st0" d="M841.4,171.6c-0.8-0.6-1.9-0.6-2.6,0l-10,8l2.6,3.3l8.7-6.9l11.5,9.1l2.6-3.3L841.4,171.6z"/>
<path class="st1" d="M87.6,92.4c0-2,0.4-4,1.1-5.9c0.7-1.9,1.8-3.7,3.2-5.2c1.4-1.6,3.1-2.8,5.1-3.7c2-1,4.3-1.4,6.8-1.4
	c3,0,5.6,0.7,7.8,2c2.2,1.3,3.8,3,4.9,5.2l-4.9,3.4c-0.6-1.2-1.3-2.2-2.2-2.9c-0.9-0.7-1.9-1.2-2.9-1.5c-1-0.3-2-0.5-2.9-0.5
	c-1.6,0-3,0.3-4.2,1c-1.2,0.6-2.1,1.5-2.9,2.5c-0.8,1-1.4,2.2-1.8,3.5C94.2,90,94,91.3,94,92.6c0,1.9,0.4,3.7,1.2,5.4
	c0.8,1.7,1.9,3,3.4,4c1.4,1,3.1,1.6,5,1.6c1,0,2-0.2,3-0.5c1.1-0.3,2.1-0.9,2.9-1.6c0.9-0.7,1.6-1.7,2.1-2.9l5.2,3
	c-0.7,1.6-1.7,3-3.2,4.1c-1.4,1.1-3.1,2-4.9,2.6c-1.8,0.6-3.6,0.9-5.4,0.9c-2.3,0-4.5-0.5-6.4-1.4c-1.9-1-3.6-2.3-5-3.9
	c-1.4-1.6-2.5-3.4-3.3-5.4C88,96.5,87.6,94.5,87.6,92.4z M134.8,90.2c-1.9,0-3.5,0.4-5,1.1c-1.5,0.7-2.5,1.7-3.2,3.1V109h-6.2V84.9
	h5.7V90c0.8-1.7,1.9-3,3.2-3.9c1.4-1,2.8-1.5,4.2-1.6c0.6,0,1.1,0,1.2,0V90.2z M138.8,113.7c1.1,0.3,2.1,0.5,2.8,0.5
	c0.8,0,1.5-0.4,2-1.1c0.5-0.7,1.1-2,1.7-4.1l-9.5-24.1h6.4l6.5,17.8l5.7-17.8h5.9l-10.1,28.9c-0.6,1.7-1.5,3-3,4.1
	c-1.4,1.1-3.2,1.7-5.2,1.7c-1,0-2-0.2-3.1-0.5V113.7z M178,109.5c-1.9,0-3.6-0.4-5-1.3c-1.4-0.9-2.5-2-3.3-3.4v14h-6.2V84.9h5.4V89
	c0.9-1.4,2-2.5,3.5-3.3c1.4-0.8,3.1-1.2,4.9-1.2c2.2,0,4.1,0.6,5.8,1.7c1.7,1.1,3,2.6,4,4.5c1,1.9,1.5,3.9,1.5,6.2
	c0,2.4-0.5,4.5-1.4,6.4c-0.9,1.9-2.1,3.4-3.7,4.5C181.9,108.9,180.1,109.5,178,109.5z M175.9,104.2c1.3,0,2.3-0.3,3.3-1
	c0.9-0.7,1.7-1.6,2.2-2.7c0.6-1.1,0.8-2.3,0.8-3.6c0-1.3-0.3-2.6-0.9-3.6c-0.6-1.1-1.4-2-2.4-2.6c-1-0.6-2.1-1-3.4-1
	c-1.2,0-2.3,0.4-3.5,1.2c-1.2,0.8-1.9,1.7-2.3,2.9v5.7c0.6,1.3,1.4,2.5,2.5,3.4C173.4,103.8,174.6,104.2,175.9,104.2z M206.9,107.8
	c-0.8,0.4-1.9,0.7-3.1,1.1c-1.2,0.4-2.4,0.6-3.7,0.6c-1.1,0-2.2-0.2-3.1-0.6c-0.9-0.4-1.7-1-2.3-1.9c-0.6-0.9-0.8-2-0.8-3.4V89.6
	h-3.2v-4.7h3.2v-7.8h6.2v7.8h5.1v4.7H200v11.8c0,0.8,0.2,1.4,0.6,1.8c0.5,0.4,1,0.6,1.7,0.6s1.3-0.1,1.9-0.3
	c0.6-0.2,1.1-0.4,1.5-0.6L206.9,107.8z M220.9,109.5c-2.6,0-4.9-0.6-6.8-1.7c-1.9-1.2-3.3-2.7-4.3-4.6c-1-1.9-1.5-4-1.5-6.2
	c0-2.2,0.5-4.3,1.5-6.2c1-1.9,2.5-3.4,4.4-4.6c1.9-1.2,4.2-1.7,6.8-1.7c2.6,0,4.8,0.6,6.7,1.7c1.9,1.1,3.4,2.7,4.4,4.6
	c1,1.9,1.5,4,1.5,6.2c0,2.2-0.5,4.3-1.5,6.2c-1,1.9-2.5,3.4-4.4,4.6C225.7,108.9,223.5,109.5,220.9,109.5z M214.6,97
	c0,1.4,0.3,2.7,0.8,3.8c0.6,1.1,1.3,1.9,2.3,2.5c1,0.6,2,0.9,3.2,0.9c1.2,0,2.2-0.3,3.2-0.9c1-0.6,1.7-1.5,2.3-2.6
	c0.6-1.1,0.9-2.4,0.9-3.8c0-1.4-0.3-2.6-0.9-3.7c-0.6-1.1-1.3-2-2.3-2.6c-1-0.6-2-1-3.2-1c-1.2,0-2.3,0.3-3.2,1
	c-1,0.6-1.7,1.5-2.3,2.6C214.9,94.3,214.6,95.6,214.6,97z"/>
<path class="st0" d="M134.6,182.9c5.7-5.5,9-11.2,6.6-15.3c-0.9-1.5-3-3.4-7.9-3.4c-2.4,0-5.2,0.4-8.3,1.3c-2-7.3-5.3-12.5-9.8-12.5
	c-4.6,0-8,5.5-9.9,13c-3.2-0.9-6.2-1.4-8.8-1.4c-4.9,0-7,1.8-7.9,3.4c-1.7,3-0.4,7.4,3.8,12.3c0.8,0.9,1.6,1.8,2.5,2.7
	c-0.8,0.8-1.6,1.6-2.3,2.4c-4.2,4.9-5.5,9.3-3.8,12.3c0.9,1.5,3,3.4,7.9,3.4c2.5,0,5.3-0.5,8.4-1.3c1.9,7.7,5.3,13.3,10,13.3
	c4.6,0,7.9-5.4,9.9-12.9c2.9,0.8,5.6,1.2,8,1.2c4.9,0,7-1.8,7.9-3.4c1.7-3,0.4-7.4-3.8-12.3C136.4,184.8,135.6,183.8,134.6,182.9z
	 M133.4,167.5c2.6,0,4.4,0.6,5.1,1.7c1,1.7-0.3,4.9-3.4,8.6c-0.8,1-1.7,1.9-2.7,2.9c-1.6-1.4-3.4-2.8-5.3-4.1
	c-0.2-2.7-0.6-5.4-1.1-7.9C128.6,167.9,131.2,167.5,133.4,167.5z M119.4,190.1c-1.6,0.9-3.2,1.8-4.8,2.5c-1.4-0.7-2.7-1.4-4.1-2.2
	c-1.3-0.7-2.5-1.5-3.8-2.3c-0.1-1.7-0.2-3.4-0.2-5.2c0-1.8,0.1-3.7,0.2-5.4c1.3-0.8,2.6-1.7,4-2.4c1.3-0.7,2.6-1.4,3.9-2.1
	c1.5,0.7,3.1,1.6,4.6,2.4c1.6,0.9,3.1,1.9,4.6,2.9c0.1,1.5,0.1,3.1,0.1,4.6c0,1.5,0,2.9-0.1,4.4C122.4,188.3,121,189.2,119.4,190.1z
	 M123.5,191.4c-0.2,1.6-0.4,3.2-0.7,4.6c-1.4-0.5-2.9-1.1-4.4-1.7c0.9-0.5,1.8-1,2.7-1.5C121.9,192.4,122.7,191.9,123.5,191.4z
	 M110.9,194.3c-1.1,0.4-2.1,0.8-3.2,1.2c-0.2-1.1-0.4-2.2-0.5-3.3c0.6,0.3,1.2,0.7,1.7,1C109.6,193.6,110.2,194,110.9,194.3z
	 M103.4,185.8c-1.3-1-2.5-1.9-3.7-2.9c1.1-1,2.4-2,3.7-3c0,1-0.1,2.1-0.1,3.1C103.4,183.9,103.4,184.9,103.4,185.8z M107.2,173.5
	c0.2-1.2,0.3-2.3,0.5-3.4c1,0.4,2.1,0.8,3.2,1.2c-0.6,0.3-1.2,0.6-1.8,1C108.5,172.7,107.8,173.1,107.2,173.5z M118.3,171.3
	c1.5-0.6,3-1.2,4.4-1.7c0.3,1.5,0.5,3,0.7,4.7c-0.9-0.5-1.7-1.1-2.6-1.6C120,172.2,119.2,171.8,118.3,171.3z M127.2,180.8
	c0.9,0.7,1.8,1.4,2.7,2.1c-0.8,0.7-1.7,1.4-2.7,2.1c0-0.7,0-1.3,0-2C127.2,182.3,127.2,181.5,127.2,180.8z M109.5,163.5
	c1.6-4.5,3.8-7.3,5.8-7.3c2,0,4.1,2.7,5.8,7.3c0.3,0.9,0.7,2,0.9,3c-2.4,0.8-4.9,1.8-7.4,3c-2.1-1-4.2-1.8-6.2-2.5
	C108.8,165.7,109.1,164.6,109.5,163.5z M91.5,169.6c0.7-1.1,2.5-1.7,5.1-1.7c2.3,0,5,0.5,8,1.3c-0.4,2.1-0.7,4.3-0.9,6.6
	c-2.3,1.6-4.5,3.3-6.4,4.9c-0.9-0.8-1.7-1.7-2.4-2.5C91.8,174.5,90.6,171.3,91.5,169.6z M96.8,197.8c-2.6,0-4.4-0.6-5.1-1.7
	c-1-1.7,0.3-4.9,3.4-8.6c0.7-0.8,1.4-1.5,2.1-2.3c1.9,1.7,4,3.3,6.3,4.9c0.2,2.2,0.5,4.4,0.9,6.5C101.7,197.3,99.1,197.8,96.8,197.8
	z M121.1,202.5c-1.6,4.5-3.8,7.3-5.8,7.3c-2,0-4.1-2.7-5.8-7.3c-0.4-1.2-0.8-2.5-1.2-3.8c2-0.7,4.1-1.5,6.2-2.5
	c2.5,1.2,5.1,2.2,7.5,3C121.8,200.4,121.4,201.5,121.1,202.5z M138.2,196.4c-0.7,1.1-2.5,1.7-5.1,1.7c-2.1,0-4.5-0.4-7.2-1.1
	c0.5-2.5,0.9-5.2,1.1-7.9c1.9-1.3,3.6-2.7,5.3-4.1c0.9,0.9,1.8,1.8,2.5,2.7C137.9,191.5,139.2,194.7,138.2,196.4z"/>
<path class="st0" d="M115.3,186.1c1.8,0,3.2-1.4,3.2-3.2s-1.4-3.2-3.2-3.2c-1.8,0-3.2,1.4-3.2,3.2S113.5,186.1,115.3,186.1z"/>
<path class="st3" d="M213,162.6c0.6,0,1.2-0.5,1.2-1.2v-2.2c0-0.6-0.5-1.2-1.2-1.2s-1.2,0.5-1.2,1.2v2.2
	C211.8,162.1,212.4,162.6,213,162.6z"/>
<path class="st3" d="M213,203.9c-0.6,0-1.2,0.5-1.2,1.2v2.2c0,0.6,0.5,1.2,1.2,1.2s1.2-0.5,1.2-1.2v-2.2
	C214.2,204.4,213.6,203.9,213,203.9z"/>
<path class="st3" d="M237,182.1h-2.2c-0.6,0-1.2,0.5-1.2,1.2s0.5,1.2,1.2,1.2h2.2c0.6,0,1.2-0.5,1.2-1.2S237.7,182.1,237,182.1
	L237,182.1z"/>
<path class="st3" d="M191.2,182.1H189c-0.6,0-1.2,0.5-1.2,1.2s0.5,1.2,1.2,1.2h2.2c0.6,0,1.2-0.5,1.2-1.2S191.8,182.1,191.2,182.1
	L191.2,182.1z"/>
<path class="st3" d="M228.4,169c0.3,0,0.6-0.1,0.8-0.3l1.6-1.6c0.5-0.5,0.5-1.2,0-1.7c-0.5-0.5-1.2-0.5-1.7,0l-1.6,1.6
	c-0.5,0.5-0.5,1.2,0,1.7C227.8,168.9,228.1,169,228.4,169L228.4,169z"/>
<path class="st3" d="M196.8,197.9l-1.6,1.6c-0.5,0.5-0.5,1.2,0,1.7c0.2,0.2,0.5,0.3,0.8,0.3s0.6-0.1,0.8-0.3l1.6-1.6
	c0.5-0.5,0.5-1.2,0-1.7C197.9,197.4,197.2,197.4,196.8,197.9z"/>
<path class="st3" d="M229.3,197.9c-0.5-0.5-1.2-0.5-1.7,0c-0.5,0.5-0.5,1.2,0,1.7l1.6,1.6c0.2,0.2,0.5,0.3,0.8,0.3s0.6-0.1,0.8-0.3
	c0.5-0.5,0.5-1.2,0-1.7L229.3,197.9z"/>
<path class="st3" d="M196.8,168.7c0.2,0.2,0.5,0.3,0.8,0.3c0.3,0,0.6-0.1,0.8-0.3c0.5-0.5,0.5-1.2,0-1.7l-1.6-1.6
	c-0.5-0.5-1.2-0.5-1.7,0c-0.5,0.5-0.5,1.2,0,1.7L196.8,168.7z"/>
<path class="st3" d="M213,164.6c-10.2,0-18.4,8.3-18.4,18.4s8.3,18.4,18.4,18.4s18.4-8.3,18.4-18.4S223.2,164.6,213,164.6L213,164.6
	z M213,199.1c-8.9,0-16.1-7.2-16.1-16.1c0-8.9,7.2-16.1,16.1-16.1s16.1,7.2,16.1,16.1C229.1,191.9,221.9,199.1,213,199.1z"/>
<path class="st3" d="M234.2,161.8c-5.7-5.7-13.2-8.8-21.2-8.8s-15.5,3.1-21.2,8.8c-5.7,5.7-8.8,13.2-8.8,21.2s3.1,15.5,8.8,21.2
	c5.7,5.7,13.2,8.8,21.2,8.8s15.5-3.1,21.2-8.8c5.7-5.7,8.8-13.2,8.8-21.2S239.9,167.5,234.2,161.8L234.2,161.8z M213,210.7
	c-15.3,0-27.7-12.4-27.7-27.7s12.4-27.7,27.7-27.7s27.7,12.4,27.7,27.7S228.3,210.7,213,210.7z"/>
<path class="st3" d="M217.5,181.9c0.9-0.9,1.5-2.2,1.5-3.6c0-2.4-1.6-4.4-3.8-5V172c0-0.6-0.5-1.2-1.2-1.2s-1.2,0.5-1.2,1.2v1h-3v-1
	c0-0.6-0.5-1.2-1.2-1.2c-0.6,0-1.2,0.5-1.2,1.2v1h-0.8c-0.6,0-1.2,0.5-1.2,1.2c0,0.6,0.5,1.2,1.2,1.2h0.8v15.4h-0.8
	c-0.6,0-1.2,0.5-1.2,1.2s0.5,1.2,1.2,1.2h0.8v0.9c0,0.6,0.5,1.2,1.2,1.2c0.6,0,1.2-0.5,1.2-1.2v-0.9c0.1,0,0.3,0,0.4-0.1
	c0.8,0,1.8,0,2.7,0v1c0,0.6,0.5,1.2,1.2,1.2s1.2-0.5,1.2-1.2v-1c3-0.3,5.3-2.8,5.3-5.9C220.5,184.8,219.3,182.9,217.5,181.9
	L217.5,181.9z M216.6,178.2c0,1.6-1.3,2.9-2.9,2.9h-3.9v-5.8h3.9C215.3,175.4,216.6,176.6,216.6,178.2z M214.6,190.6
	c-0.9,0-3.3,0-4.8,0v-7.2h4.8c2,0,3.6,1.6,3.6,3.6C218.2,189,216.6,190.6,214.6,190.6z"/>
<path class="st4" d="M211.7,289.5l-13.4-7.9l13.4-5.7V289.5z M211.7,256.4v16.3l-13.1,5.5L211.7,256.4z"/>
<path class="st4" d="M214.7,289.5l13.4-7.9l-13.4-5.7V289.5z M214.7,256.4v16.3l13.1,5.5L214.7,256.4z"/>
<path class="st4" d="M211.5,296.5v9.9l-11.5-16.6L211.5,296.5z"/>
<path class="st4" d="M214.7,296.5v9.9l11.5-16.6L214.7,296.5z"/>
<path class="st0" d="M394.2,113.5c-1.4-1.2-2.1-2.7-2.1-4.6c0-1.2-1-2.2-2.3-2.2c-1.3,0-2.3,1-2.3,2.2c0,3.1,1.3,6,3.7,8
	c2.1,1.7,4.8,2.7,8,3v1.9c0,1.2,1,2.2,2.3,2.2c1.3,0,2.3-1,2.3-2.2v-2c2.6-0.3,5-0.9,7-2.1c1.4-0.9,2.6-2,3.4-3.5
	c0.8-1.5,1.2-3.3,1.2-5.2c0-2-0.4-3.8-1.3-5.3c-0.7-1.3-1.8-2.4-2.9-3.2c-2-1.4-4.3-2.2-6.6-2.9c-0.3-0.1-0.6-0.2-0.9-0.2V83.7
	c2.2,0.3,3.9,1,5,1.8c0.8,0.6,1.3,1.2,1.7,2c0.4,0.7,0.6,1.6,0.6,2.5c0,1.2,1,2.2,2.3,2.2c1.3,0,2.3-1,2.3-2.2c0-1.6-0.3-3.1-1-4.5
	c-1-2.1-2.8-3.8-5.1-4.9c-1.6-0.8-3.5-1.3-5.6-1.5v-2c0-1.2-1-2.2-2.3-2.2c-1.3,0-2.3,1-2.3,2.2v1.8c-1.6,0.1-3.1,0.4-4.4,0.9
	c-2.6,1-4.5,2.6-5.6,4.4c-1.2,1.8-1.7,3.8-1.7,5.6c0,1.9,0.5,3.6,1.3,5c0.8,1.2,1.8,2.2,2.9,2.9c2,1.3,4.3,2,6.5,2.6
	c0.3,0.1,0.6,0.2,0.9,0.2v14.6C397.1,115.1,395.4,114.4,394.2,113.5z M394,94c-0.6-0.5-1.1-1-1.4-1.5c-0.3-0.6-0.5-1.3-0.5-2.4
	c0-1.4,0.5-3,1.8-4.3c0.6-0.6,1.5-1.2,2.6-1.6c0.8-0.3,1.7-0.5,2.8-0.6v12.6C397,95.5,395.1,94.9,394,94z M407.5,103.2
	c1.2,0.6,2,1.3,2.5,2.1c0.6,0.8,0.9,1.9,0.9,3.5c0,1.3-0.3,2.3-0.7,3.1c-0.3,0.6-0.7,1.1-1.3,1.5c-0.8,0.6-1.9,1.1-3.3,1.5
	c-0.6,0.1-1.2,0.2-1.9,0.3v-13.4C405.2,102.3,406.5,102.7,407.5,103.2z"/>
<path class="st0" d="M484.8,97.2c1.8-1.9,2.9-4.5,2.9-7.3c0-4.8-3.1-8.9-7.4-10.1v-2.4c0-1.3-1-2.4-2.3-2.4s-2.3,1.1-2.3,2.4v2h-6
	v-2c0-1.3-1-2.4-2.3-2.4s-2.3,1.1-2.3,2.4v2h-1.5c-1.3,0-2.3,1.1-2.3,2.4c0,1.3,1,2.4,2.3,2.4h1.5v31h-1.5c-1.3,0-2.3,1.1-2.3,2.4
	c0,1.3,1,2.4,2.3,2.4h1.5v1.9c0,1.3,1,2.4,2.3,2.4s2.3-1.1,2.3-2.4v-1.9c0.3,0,0.5,0,0.8-0.1c1.6,0,3.5,0,5.2,0v2
	c0,1.3,1,2.4,2.3,2.4s2.3-1.1,2.3-2.4v-2.1c5.9-0.6,10.5-5.7,10.5-11.9C490.8,103.2,488.4,99.3,484.8,97.2L484.8,97.2z M483.1,89.9
	c0,3.2-2.5,5.8-5.6,5.8h-7.7V84.1h7.7C480.6,84.1,483.1,86.7,483.1,89.9z M479.2,114.9c-1.7,0-6.5,0-9.4,0v-14.5h9.4
	c3.8,0,7,3.2,7,7.2C486.2,111.6,483.1,114.9,479.2,114.9z"/>
<rect x="539.2" y="78.6" class="st0" width="37.4" height="8"/>
<rect x="553" y="86.6" class="st0" width="9.8" height="14.3"/>
<rect x="553" y="103.1" class="st0" width="9.8" height="20.1"/>
<path class="st5" d="M578.8,98.4C578.8,98.4,578.8,98.4,578.8,98.4c0,0.1-0.1,0.2-0.2,0.3c-0.2,0.2-0.5,0.4-1,0.7
	c-1,0.5-2.4,1-4.3,1.4c-3.8,0.8-9.1,1.3-14.9,1.3c-5.9,0-11.1-0.5-14.9-1.3c-1.9-0.4-3.4-0.9-4.3-1.4c-0.5-0.3-0.8-0.5-1-0.7
	c-0.1-0.1-0.1-0.2-0.1-0.2c0,0,0-0.1,0-0.1v0v0c0,0,0,0,0-0.1c0,0,0.1-0.1,0.1-0.2c0.2-0.2,0.5-0.4,1-0.7c1-0.5,2.4-1,4.3-1.4
	c3.8-0.8,9.1-1.3,14.9-1.3c5.9,0,11.1,0.5,14.9,1.3c1.9,0.4,3.4,0.9,4.3,1.4c0.5,0.3,0.8,0.5,1,0.7
	C578.7,98.2,578.7,98.3,578.8,98.4C578.8,98.4,578.8,98.4,578.8,98.4L578.8,98.4z"/>
<path class="st4" d="M798.3,441.4l-91.8-91.8l14.3-14.3c4.9-4.9,2.3-12.9-4.8-13.8l-62.8-7.2c-4.9-0.4-9.4,4.1-9,9l6.8,62.4
	c0.4,6.7,8.9,9.8,13.8,4.8l14.3-14.3l37.1,37.1"/>
<path class="st4" d="M293.4,303.2L201.5,395l-14.3-14.3c-4.9-4.9-12.9-2.3-13.8,4.8l-7.2,62.8c-0.4,4.9,4.1,9.4,9,9l62.4-6.8
	c6.7-0.4,9.8-8.9,4.8-13.8L228,422.3l37.1-37.1"/>
<path class="st0" d="M677,450c-0.2,0-0.3-0.1-0.4-0.2s-0.2-0.2-0.2-0.4v-17c0-0.2,0.1-0.3,0.2-0.4c0.1-0.1,0.2-0.2,0.4-0.2h6.1
	c1.9,0,3.3,0.4,4.4,1.3s1.6,2.2,1.6,3.9c0,1.4-0.3,2.5-1,3.3c-0.7,0.8-1.6,1.4-2.9,1.7l4.2,7.1c0.1,0.1,0.1,0.2,0.1,0.3
	c0,0.1-0.1,0.3-0.2,0.4s-0.2,0.2-0.4,0.2h-0.3c-0.3,0-0.5-0.1-0.6-0.2c-0.1-0.1-0.3-0.3-0.4-0.5l-4.1-7h-5.4v7.1
	c0,0.2-0.1,0.3-0.2,0.4c-0.1,0.1-0.2,0.2-0.4,0.2H677z M682.9,440.7c1.5,0,2.6-0.3,3.4-0.9c0.7-0.6,1.1-1.6,1.1-2.8
	s-0.4-2.1-1.1-2.8c-0.7-0.6-1.8-0.9-3.4-0.9h-4.9v7.4H682.9z M697.6,450.3c-1.6,0-3-0.5-4-1.6c-1-1.1-1.6-2.5-1.7-4.4l0-1l0-1
	c0.1-1.8,0.7-3.3,1.7-4.3c1-1.1,2.3-1.6,4-1.6c1.8,0,3.2,0.6,4.2,1.8c1,1.2,1.5,2.8,1.5,4.9v0.4c0,0.2-0.1,0.3-0.2,0.4
	c-0.1,0.1-0.2,0.2-0.4,0.2h-9.3v0.3c0,0.8,0.2,1.6,0.5,2.3c0.3,0.7,0.8,1.3,1.4,1.7c0.6,0.4,1.3,0.6,2.1,0.6c1,0,1.7-0.2,2.3-0.5
	c0.6-0.4,1-0.8,1.3-1.1c0.2-0.2,0.3-0.3,0.3-0.4c0.1-0.1,0.2-0.1,0.4-0.1h0.4c0.2,0,0.3,0,0.4,0.1s0.2,0.2,0.2,0.3
	c0,0.4-0.2,0.8-0.7,1.3c-0.5,0.5-1.1,0.9-1.9,1.3C699.5,450.1,698.6,450.3,697.6,450.3z M701.8,442.4v-0.1c0-1.3-0.4-2.4-1.1-3.3
	c-0.7-0.9-1.8-1.3-3-1.3c-1.3,0-2.3,0.4-3,1.3c-0.7,0.9-1.1,2-1.1,3.3v0.1H701.8z M710,450c-0.2,0-0.4-0.1-0.5-0.2
	c-0.1-0.1-0.2-0.3-0.3-0.5l-3.7-12.1l-0.1-0.3c0-0.1,0.1-0.3,0.2-0.4c0.1-0.1,0.2-0.2,0.4-0.2h0.5c0.2,0,0.3,0,0.4,0.1
	c0.1,0.1,0.2,0.2,0.2,0.3l3.2,10.8l3.4-10.7c0-0.1,0.1-0.3,0.2-0.4c0.1-0.1,0.3-0.2,0.5-0.2h0.5c0.2,0,0.3,0.1,0.5,0.2
	c0.1,0.1,0.2,0.2,0.2,0.4l3.4,10.7l3.2-10.8c0-0.1,0.1-0.2,0.2-0.3c0.1-0.1,0.2-0.1,0.4-0.1h0.5c0.1,0,0.3,0.1,0.4,0.2
	c0.1,0.1,0.2,0.2,0.2,0.4l-0.1,0.3l-3.7,12.1c-0.1,0.2-0.2,0.4-0.3,0.5c-0.1,0.1-0.3,0.2-0.5,0.2h-0.4c-0.5,0-0.8-0.2-0.9-0.6
	l-3.3-10.2l-3.3,10.2c-0.1,0.4-0.4,0.6-0.9,0.6H710z M730.2,450.3c-0.8,0-1.6-0.2-2.3-0.5c-0.7-0.3-1.3-0.8-1.7-1.4
	c-0.4-0.6-0.6-1.2-0.6-2c0-1.1,0.5-2.1,1.4-2.8c0.9-0.7,2.2-1.2,3.8-1.4l4.1-0.6v-0.9c0-1-0.3-1.7-0.9-2.2c-0.6-0.5-1.5-0.8-2.7-0.8
	c-0.9,0-1.6,0.2-2.2,0.5c-0.6,0.3-0.9,0.8-1.1,1.2c-0.1,0.2-0.2,0.4-0.3,0.4c-0.1,0.1-0.2,0.1-0.4,0.1H727c-0.2,0-0.3-0.1-0.4-0.2
	c-0.1-0.1-0.2-0.3-0.2-0.4c0-0.4,0.2-0.8,0.5-1.3c0.3-0.5,0.9-1,1.6-1.4c0.7-0.4,1.6-0.6,2.7-0.6c1.9,0,3.2,0.4,4,1.3
	c0.8,0.9,1.2,2,1.2,3.2v8.7c0,0.2-0.1,0.3-0.2,0.4s-0.2,0.2-0.4,0.2h-0.4c-0.2,0-0.3-0.1-0.4-0.2s-0.2-0.2-0.2-0.4v-1.2
	c-0.4,0.6-0.9,1.1-1.7,1.5C732.4,450.1,731.4,450.3,730.2,450.3z M730.4,448.8c1.3,0,2.3-0.4,3.1-1.2c0.8-0.8,1.2-2,1.2-3.6V443
	l-3.4,0.5c-1.4,0.2-2.5,0.5-3.2,1c-0.7,0.5-1.1,1.1-1.1,1.8c0,0.8,0.3,1.4,1,1.8C728.8,448.5,729.5,448.8,730.4,448.8z M741,450
	c-0.2,0-0.3-0.1-0.4-0.2s-0.2-0.2-0.2-0.4v-12.4c0-0.2,0.1-0.3,0.2-0.4c0.1-0.1,0.2-0.2,0.4-0.2h0.4c0.2,0,0.3,0.1,0.4,0.2
	c0.1,0.1,0.2,0.2,0.2,0.4v1.2c0.6-1.2,1.8-1.8,3.5-1.8h1c0.2,0,0.3,0.1,0.4,0.2c0.1,0.1,0.2,0.2,0.2,0.4v0.4c0,0.2-0.1,0.3-0.2,0.4
	s-0.2,0.2-0.4,0.2h-1.1c-1,0-1.9,0.3-2.5,0.9c-0.6,0.6-0.9,1.4-0.9,2.5v8.1c0,0.2-0.1,0.3-0.2,0.4c-0.1,0.1-0.2,0.2-0.4,0.2H741z
	 M754.1,450.3c-1.9,0-3.3-0.6-4.2-1.8c-0.9-1.2-1.4-2.7-1.4-4.5l0-0.7l0-0.7c0.1-1.8,0.5-3.2,1.4-4.4c0.9-1.2,2.3-1.8,4.2-1.8
	c1.9,0,3.3,0.7,4.4,2.1v-6.2c0-0.2,0.1-0.3,0.2-0.4c0.1-0.1,0.2-0.2,0.4-0.2h0.4c0.2,0,0.3,0.1,0.4,0.2c0.1,0.1,0.2,0.2,0.2,0.4
	v17.3c0,0.2-0.1,0.3-0.2,0.4c-0.1,0.1-0.2,0.2-0.4,0.2H759c-0.2,0-0.3-0.1-0.4-0.2s-0.2-0.2-0.2-0.4v-1.2
	C757.4,449.6,756,450.3,754.1,450.3z M754.2,448.8c1.4,0,2.4-0.5,3.1-1.4c0.7-0.9,1.1-2,1.1-3.2c0-0.2,0-0.5,0-1c0-0.5,0-0.8,0-1
	c0-0.7-0.2-1.4-0.5-2.1c-0.3-0.7-0.8-1.2-1.4-1.7c-0.6-0.4-1.4-0.6-2.3-0.6c-1.4,0-2.4,0.5-3.1,1.4c-0.6,0.9-1,2-1,3.4l0,0.7
	c0,1.6,0.3,2.9,0.9,4C751.6,448.2,752.7,448.8,754.2,448.8z M768.6,450.3c-1.1,0-2.1-0.2-2.9-0.6c-0.8-0.4-1.3-0.8-1.7-1.3
	c-0.4-0.5-0.6-0.9-0.6-1.2c0-0.2,0.1-0.3,0.2-0.4c0.1-0.1,0.3-0.2,0.4-0.2h0.4c0.1,0,0.2,0,0.3,0.1c0.1,0,0.2,0.1,0.3,0.3
	c0.4,0.5,0.8,1,1.4,1.3c0.6,0.3,1.3,0.4,2.3,0.4c1.1,0,1.9-0.2,2.6-0.6c0.7-0.4,1-1,1-1.8c0-0.5-0.1-0.8-0.4-1.1
	c-0.3-0.3-0.7-0.5-1.3-0.8c-0.6-0.2-1.5-0.5-2.7-0.8c-1.5-0.3-2.6-0.8-3.2-1.4c-0.6-0.6-0.8-1.4-0.8-2.3c0-0.6,0.2-1.2,0.5-1.8
	c0.4-0.6,0.9-1,1.6-1.4c0.7-0.4,1.6-0.5,2.5-0.5c1,0,1.9,0.2,2.6,0.5c0.7,0.3,1.3,0.8,1.6,1.2c0.4,0.5,0.5,0.8,0.5,1.1
	c0,0.2-0.1,0.3-0.2,0.4c-0.1,0.1-0.2,0.1-0.4,0.1h-0.4c-0.2,0-0.4-0.1-0.6-0.3c-0.3-0.5-0.7-0.9-1.2-1.2c-0.4-0.3-1.1-0.4-2.1-0.4
	c-1,0-1.8,0.2-2.3,0.6c-0.5,0.4-0.8,1-0.8,1.6c0,0.4,0.1,0.8,0.3,1s0.6,0.5,1.2,0.8c0.6,0.2,1.4,0.5,2.5,0.7
	c1.6,0.4,2.7,0.8,3.4,1.5c0.7,0.6,1,1.4,1,2.4c0,0.7-0.2,1.4-0.6,2c-0.4,0.6-1,1.1-1.8,1.4C770.6,450.1,769.6,450.3,768.6,450.3z"/>
<path class="st0" d="M287.9,380.3c-1.4,0-2.5-0.2-3.5-0.7c-1-0.5-1.8-1-2.3-1.7c-0.5-0.7-0.8-1.5-0.8-2.3c0-0.1,0.1-0.3,0.2-0.4
	s0.2-0.2,0.4-0.2h0.5c0.3,0,0.5,0.2,0.6,0.5c0.1,0.8,0.6,1.6,1.4,2.2s2,0.9,3.6,0.9c1.6,0,2.9-0.3,3.7-0.9c0.8-0.6,1.2-1.4,1.2-2.5
	c0-0.7-0.2-1.2-0.6-1.6c-0.4-0.4-0.9-0.8-1.7-1.1c-0.7-0.3-1.9-0.7-3.4-1.2c-1.3-0.4-2.4-0.9-3.1-1.3c-0.7-0.4-1.3-0.9-1.7-1.5
	c-0.4-0.6-0.5-1.4-0.5-2.3c0-0.9,0.2-1.7,0.7-2.4c0.5-0.7,1.2-1.3,2.1-1.7c0.9-0.4,2-0.6,3.2-0.6c1.3,0,2.4,0.2,3.3,0.7
	c0.9,0.5,1.6,1,2.1,1.7c0.5,0.7,0.7,1.4,0.8,2.1c0,0.1-0.1,0.3-0.2,0.4c-0.1,0.1-0.2,0.2-0.4,0.2h-0.5c-0.1,0-0.2,0-0.4-0.1
	c-0.1-0.1-0.2-0.2-0.2-0.4c-0.1-0.9-0.6-1.6-1.4-2.1c-0.8-0.6-1.8-0.9-3.1-0.9c-1.3,0-2.4,0.3-3.2,0.8c-0.8,0.5-1.2,1.3-1.2,2.3
	c0,0.7,0.2,1.2,0.5,1.7c0.4,0.4,0.9,0.8,1.6,1.1c0.7,0.3,1.8,0.7,3.1,1.1c1.4,0.5,2.5,0.9,3.3,1.3c0.8,0.4,1.4,0.9,1.8,1.5
	c0.4,0.6,0.6,1.4,0.6,2.3c0,1.6-0.6,2.8-1.7,3.7C291.5,379.8,289.9,380.3,287.9,380.3z M302.4,380c-1.3,0-2.2-0.4-2.7-1.1
	c-0.5-0.8-0.8-1.8-0.8-3.2V368h-2c-0.2,0-0.3-0.1-0.4-0.2s-0.2-0.2-0.2-0.4v-0.4c0-0.2,0.1-0.3,0.2-0.4c0.1-0.1,0.2-0.2,0.4-0.2h2
	v-4.4c0-0.2,0.1-0.3,0.2-0.4c0.1-0.1,0.2-0.2,0.4-0.2h0.4c0.2,0,0.3,0.1,0.4,0.2c0.1,0.1,0.2,0.2,0.2,0.4v4.4h3.2
	c0.2,0,0.3,0.1,0.4,0.2c0.1,0.1,0.2,0.2,0.2,0.4v0.4c0,0.2-0.1,0.3-0.2,0.4c-0.1,0.1-0.2,0.2-0.4,0.2h-3.2v7.6c0,1,0.2,1.7,0.5,2.2
	c0.3,0.5,0.9,0.7,1.6,0.7h1.4c0.2,0,0.3,0.1,0.4,0.2s0.2,0.2,0.2,0.4v0.4c0,0.2-0.1,0.3-0.2,0.4s-0.2,0.2-0.4,0.2H302.4z
	 M310.8,380.3c-0.8,0-1.6-0.2-2.3-0.5c-0.7-0.3-1.3-0.8-1.7-1.4c-0.4-0.6-0.6-1.2-0.6-2c0-1.1,0.5-2.1,1.4-2.8
	c0.9-0.7,2.2-1.2,3.8-1.4l4.1-0.6v-0.9c0-1-0.3-1.7-0.9-2.2c-0.6-0.5-1.5-0.8-2.7-0.8c-0.9,0-1.6,0.2-2.2,0.5
	c-0.6,0.3-0.9,0.8-1.1,1.2c-0.1,0.2-0.2,0.4-0.3,0.4c-0.1,0.1-0.2,0.1-0.4,0.1h-0.4c-0.2,0-0.3-0.1-0.4-0.2
	c-0.1-0.1-0.2-0.3-0.2-0.4c0-0.4,0.2-0.8,0.5-1.3c0.3-0.5,0.9-1,1.6-1.4c0.7-0.4,1.6-0.6,2.7-0.6c1.9,0,3.2,0.4,4,1.3s1.2,2,1.2,3.2
	v8.7c0,0.2-0.1,0.3-0.2,0.4c-0.1,0.1-0.2,0.2-0.4,0.2H316c-0.2,0-0.3-0.1-0.4-0.2s-0.2-0.2-0.2-0.4v-1.2c-0.4,0.6-0.9,1.1-1.7,1.5
	C313,380.1,312,380.3,310.8,380.3z M311.1,378.8c1.3,0,2.3-0.4,3.1-1.2s1.2-2,1.2-3.6V373l-3.4,0.5c-1.4,0.2-2.5,0.5-3.2,1
	c-0.7,0.5-1.1,1.1-1.1,1.8c0,0.8,0.3,1.4,1,1.8C309.4,378.5,310.2,378.8,311.1,378.8z M321.7,380c-0.2,0-0.3-0.1-0.4-0.2
	c-0.1-0.1-0.2-0.2-0.2-0.4v-17.3c0-0.2,0.1-0.3,0.2-0.4c0.1-0.1,0.2-0.2,0.4-0.2h0.4c0.2,0,0.3,0.1,0.4,0.2c0.1,0.1,0.2,0.2,0.2,0.4
	v9.2l5.8-4.4c0.3-0.2,0.5-0.3,0.6-0.4c0.1-0.1,0.3-0.1,0.5-0.1h0.5c0.2,0,0.3,0.1,0.4,0.2c0.1,0.1,0.2,0.2,0.2,0.4
	c0,0.2-0.1,0.4-0.3,0.5l-6.6,5l7.2,6.4c0.2,0.2,0.3,0.4,0.3,0.5c0,0.2-0.1,0.3-0.2,0.4c-0.1,0.1-0.2,0.1-0.4,0.1h-0.4
	c-0.3,0-0.4,0-0.6-0.1c-0.1-0.1-0.3-0.2-0.5-0.4l-6.5-5.8v5.7c0,0.2-0.1,0.3-0.2,0.4s-0.2,0.2-0.4,0.2H321.7z M334.1,363.7
	c-0.2,0-0.3-0.1-0.4-0.2s-0.2-0.2-0.2-0.4v-1c0-0.2,0.1-0.3,0.2-0.4c0.1-0.1,0.2-0.2,0.4-0.2h1c0.2,0,0.3,0.1,0.4,0.2
	c0.1,0.1,0.2,0.2,0.2,0.4v1c0,0.2-0.1,0.3-0.2,0.4c-0.1,0.1-0.2,0.2-0.4,0.2H334.1z M334.4,380c-0.2,0-0.3-0.1-0.4-0.2
	s-0.2-0.2-0.2-0.4v-12.4c0-0.2,0.1-0.3,0.2-0.4c0.1-0.1,0.2-0.2,0.4-0.2h0.4c0.2,0,0.3,0.1,0.4,0.2c0.1,0.1,0.2,0.2,0.2,0.4v12.4
	c0,0.2-0.1,0.3-0.2,0.4c-0.1,0.1-0.2,0.2-0.4,0.2H334.4z M340.2,380c-0.2,0-0.3-0.1-0.4-0.2s-0.2-0.2-0.2-0.4v-12.4
	c0-0.2,0.1-0.3,0.2-0.4c0.1-0.1,0.2-0.2,0.4-0.2h0.4c0.2,0,0.3,0.1,0.4,0.2c0.1,0.1,0.2,0.2,0.2,0.4v1.2c0.5-0.7,1.1-1.2,1.8-1.5
	c0.7-0.3,1.5-0.5,2.6-0.5c1.7,0,3,0.5,3.9,1.6c0.9,1.1,1.4,2.5,1.4,4.2v7.4c0,0.2-0.1,0.3-0.2,0.4c-0.1,0.1-0.2,0.2-0.4,0.2h-0.4
	c-0.2,0-0.3-0.1-0.4-0.2s-0.2-0.2-0.2-0.4v-7.3c0-1.4-0.3-2.5-1-3.3c-0.7-0.8-1.7-1.2-2.9-1.2c-1.2,0-2.2,0.4-3,1.2
	c-0.7,0.8-1.1,1.9-1.1,3.3v7.3c0,0.2-0.1,0.3-0.2,0.4s-0.2,0.2-0.4,0.2H340.2z M360,385.7c-1.4,0-2.4-0.2-3.3-0.7
	c-0.8-0.5-1.4-1-1.7-1.6c-0.3-0.6-0.5-1.1-0.5-1.6c0-0.2,0.1-0.3,0.2-0.4c0.1-0.1,0.3-0.2,0.4-0.2h0.4c0.2,0,0.3,0,0.4,0.1
	c0.1,0.1,0.2,0.2,0.3,0.4c0.5,1.6,1.8,2.4,3.7,2.4c1.5,0,2.6-0.3,3.3-0.9c0.7-0.6,1.1-1.7,1.1-3.3v-1.8c-1,1.4-2.5,2.1-4.4,2.1
	c-1.9,0-3.3-0.6-4.2-1.8c-0.9-1.2-1.4-2.7-1.4-4.5l0-0.7l0-0.7c0.1-1.8,0.5-3.2,1.4-4.4c0.9-1.2,2.3-1.8,4.2-1.8
	c1.9,0,3.3,0.7,4.4,2.1v-1.2c0-0.2,0.1-0.3,0.2-0.4c0.1-0.1,0.2-0.2,0.4-0.2h0.4c0.2,0,0.3,0.1,0.4,0.2c0.1,0.1,0.2,0.2,0.2,0.4
	v12.7c0,1.9-0.4,3.3-1.3,4.4C363.6,385.2,362.1,385.7,360,385.7z M360,378.8c1.4,0,2.4-0.5,3.1-1.4c0.7-0.9,1.1-2,1.1-3.2
	c0-0.2,0-0.5,0-0.9c0-0.5,0-0.8,0-0.9c-0.1-1.2-0.4-2.3-1.1-3.2c-0.7-0.9-1.7-1.4-3.1-1.4c-1.4,0-2.4,0.5-3.1,1.4
	c-0.6,0.9-1,2-1,3.4l0,0.7l0,0.7c0.1,1.4,0.4,2.6,1,3.5C357.6,378.3,358.6,378.8,360,378.8z"/>
<path class="st4" d="M418,649.6h129.8v20.3c0,7,7.5,10.8,13.2,6.3l49.6-39.3c3.8-3.2,3.8-9.5,0-12.7l-48.9-39.3
	c-5-4.4-13.2-0.6-13.2,6.3v20.3h-52.5"/>
<path class="st0" d="M357,599c-0.2,0-0.3-0.1-0.4-0.2s-0.2-0.2-0.2-0.4v-17c0-0.2,0.1-0.3,0.2-0.4c0.1-0.1,0.2-0.2,0.4-0.2h6.8
	c1.7,0,3,0.4,3.9,1.3c0.9,0.9,1.3,2,1.3,3.3c0,1-0.2,1.9-0.7,2.5c-0.5,0.7-1,1.1-1.6,1.4c0.7,0.4,1.4,1,1.9,1.7
	c0.5,0.8,0.8,1.7,0.8,2.7c0,0.9-0.2,1.8-0.6,2.5c-0.4,0.8-1,1.4-1.8,1.9c-0.8,0.5-1.8,0.7-2.9,0.7H357z M363.5,588.7
	c1.3,0,2.3-0.3,2.9-0.8c0.7-0.6,1-1.4,1-2.4c0-1-0.3-1.8-1-2.3c-0.7-0.5-1.6-0.8-2.9-0.8h-5.4v6.3H363.5z M363.7,597.4
	c1.3,0,2.3-0.3,3-1c0.7-0.7,1.1-1.5,1.1-2.6c0-1.1-0.4-1.9-1.1-2.6s-1.7-1-3-1h-5.6v7.2H363.7z M373.7,599c-0.2,0-0.3-0.1-0.4-0.2
	c-0.1-0.1-0.2-0.2-0.2-0.4v-17.3c0-0.2,0.1-0.3,0.2-0.4c0.1-0.1,0.2-0.2,0.4-0.2h0.4c0.2,0,0.3,0.1,0.4,0.2s0.2,0.2,0.2,0.4v17.3
	c0,0.2-0.1,0.3-0.2,0.4s-0.2,0.2-0.4,0.2H373.7z M384.1,599.3c-1.8,0-3.2-0.5-4.2-1.6c-1-1.1-1.5-2.5-1.6-4.3l0-1.1l0-1.1
	c0.1-1.8,0.6-3.2,1.6-4.3c1-1.1,2.4-1.7,4.2-1.7c1.8,0,3.2,0.6,4.2,1.7c1,1.1,1.5,2.5,1.6,4.3c0,0.2,0,0.5,0,1.1s0,0.9,0,1.1
	c-0.1,1.8-0.6,3.2-1.6,4.3C387.3,598.7,385.9,599.3,384.1,599.3z M384.1,597.8c1.2,0,2.2-0.4,3-1.2c0.8-0.8,1.2-1.9,1.2-3.4
	c0-0.2,0-0.5,0-1s0-0.8,0-1c-0.1-1.5-0.5-2.6-1.2-3.4c-0.7-0.8-1.7-1.2-3-1.2c-1.2,0-2.2,0.4-3,1.2c-0.7,0.8-1.1,1.9-1.2,3.4l0,1
	l0,1c0.1,1.5,0.5,2.6,1.2,3.4C381.9,597.4,382.9,597.8,384.1,597.8z M398.6,599.3c-1.8,0-3.2-0.5-4.2-1.6c-1-1.1-1.5-2.5-1.6-4.4
	l0-1l0-1c0.1-1.9,0.6-3.4,1.6-4.4c1-1.1,2.4-1.6,4.2-1.6c1.1,0,2.1,0.2,2.9,0.6c0.8,0.4,1.4,0.9,1.8,1.6c0.4,0.6,0.6,1.3,0.6,2
	c0,0.2,0,0.3-0.2,0.4c-0.1,0.1-0.3,0.2-0.4,0.2H403c-0.2,0-0.3,0-0.4-0.1c-0.1-0.1-0.1-0.2-0.2-0.4c-0.3-1-0.8-1.6-1.5-2
	c-0.6-0.4-1.4-0.6-2.4-0.6c-1.2,0-2.2,0.4-3,1.1c-0.7,0.7-1.1,1.9-1.2,3.5l0,0.9l0,0.9c0.1,1.6,0.4,2.7,1.2,3.5
	c0.7,0.7,1.7,1.1,3,1.1c1,0,1.7-0.2,2.4-0.6c0.6-0.4,1.1-1.1,1.5-2.1c0.1-0.2,0.2-0.3,0.2-0.4c0.1-0.1,0.2-0.1,0.4-0.1h0.4
	c0.2,0,0.3,0.1,0.4,0.2c0.1,0.1,0.2,0.2,0.2,0.4c0,0.7-0.3,1.3-0.6,2c-0.4,0.6-1,1.1-1.8,1.6C400.7,599.1,399.7,599.3,398.6,599.3z
	 M408,599c-0.2,0-0.3-0.1-0.4-0.2s-0.2-0.2-0.2-0.4v-17.3c0-0.2,0.1-0.3,0.2-0.4s0.2-0.2,0.4-0.2h0.4c0.2,0,0.3,0.1,0.4,0.2
	s0.2,0.2,0.2,0.4v9.2l5.8-4.4c0.3-0.2,0.5-0.3,0.6-0.4c0.1-0.1,0.3-0.1,0.5-0.1h0.5c0.2,0,0.3,0.1,0.4,0.2c0.1,0.1,0.2,0.2,0.2,0.4
	c0,0.2-0.1,0.4-0.3,0.5l-6.6,5l7.2,6.4c0.2,0.2,0.3,0.4,0.3,0.5c0,0.2-0.1,0.3-0.2,0.4c-0.1,0.1-0.2,0.1-0.4,0.1h-0.4
	c-0.3,0-0.5,0-0.6-0.1c-0.1-0.1-0.3-0.2-0.5-0.4l-6.5-5.8v5.7c0,0.2-0.1,0.3-0.2,0.4s-0.2,0.2-0.4,0.2H408z M356.7,635.9
	c-0.2,0-0.3-0.1-0.4-0.2s-0.2-0.2-0.2-0.4v-17.3c0-0.2,0.1-0.3,0.2-0.4s0.2-0.2,0.4-0.2h0.4c0.2,0,0.3,0.1,0.4,0.2
	c0.1,0.1,0.2,0.2,0.2,0.4v1.2c1-1.4,2.5-2.1,4.4-2.1c1.9,0,3.3,0.6,4.1,1.8c0.9,1.2,1.4,2.6,1.4,4.4c0,0.2,0,0.5,0,0.9s0,0.7,0,0.9
	c-0.1,1.7-0.5,3.2-1.4,4.4c-0.9,1.2-2.3,1.8-4.1,1.8c-1.9,0-3.3-0.7-4.4-2.1v6.2c0,0.2-0.1,0.3-0.2,0.4c-0.1,0.1-0.2,0.2-0.4,0.2
	H356.7z M361.9,629.8c1.4,0,2.4-0.4,3.1-1.3c0.7-0.9,1-2.1,1.1-3.5c0-0.2,0-0.4,0-0.7c0-1.6-0.3-2.9-0.9-4c-0.6-1-1.7-1.6-3.2-1.6
	c-1.4,0-2.4,0.5-3.1,1.4c-0.7,0.9-1.1,2-1.1,3.2l0,1l0,1c0,0.7,0.2,1.5,0.5,2.1c0.3,0.7,0.8,1.2,1.4,1.6S361,629.8,361.9,629.8z
	 M371.8,631c-0.2,0-0.3-0.1-0.4-0.2c-0.1-0.1-0.2-0.2-0.2-0.4v-12.3c0-0.2,0.1-0.3,0.2-0.4c0.1-0.1,0.2-0.2,0.4-0.2h0.4
	c0.2,0,0.3,0.1,0.4,0.2c0.1,0.1,0.2,0.2,0.2,0.4v1.2c0.6-1.2,1.8-1.8,3.5-1.8h1c0.2,0,0.3,0.1,0.4,0.2c0.1,0.1,0.2,0.2,0.2,0.4v0.4
	c0,0.2-0.1,0.3-0.2,0.4c-0.1,0.1-0.2,0.2-0.4,0.2h-1.1c-1,0-1.9,0.3-2.5,0.9c-0.6,0.6-0.9,1.4-0.9,2.5v8.1c0,0.2-0.1,0.3-0.2,0.4
	c-0.1,0.1-0.2,0.2-0.4,0.2H371.8z M385.1,631.3c-1.8,0-3.2-0.5-4.2-1.6c-1-1.1-1.5-2.5-1.6-4.3l0-1.1l0-1.1c0.1-1.8,0.6-3.2,1.6-4.3
	c1-1.1,2.4-1.7,4.2-1.7c1.8,0,3.2,0.6,4.2,1.7c1,1.1,1.5,2.5,1.6,4.3c0,0.2,0,0.5,0,1.1s0,0.9,0,1.1c-0.1,1.8-0.6,3.2-1.6,4.3
	C388.3,630.7,386.9,631.3,385.1,631.3z M385.1,629.8c1.2,0,2.2-0.4,3-1.2c0.8-0.8,1.2-1.9,1.2-3.4c0-0.2,0-0.5,0-1s0-0.8,0-1
	c-0.1-1.5-0.5-2.6-1.2-3.4c-0.7-0.8-1.7-1.2-3-1.2c-1.2,0-2.2,0.4-3,1.2c-0.7,0.8-1.1,1.9-1.2,3.4l0,1l0,1c0.1,1.5,0.4,2.6,1.2,3.4
	C382.9,629.4,383.9,629.8,385.1,629.8z M399.3,631.3c-1.9,0-3.3-0.6-4.2-1.8c-0.9-1.2-1.4-2.7-1.4-4.5l0-0.7l0-0.7
	c0.1-1.8,0.5-3.2,1.4-4.4c0.9-1.2,2.3-1.8,4.2-1.8c1.9,0,3.3,0.7,4.4,2.1v-6.2c0-0.2,0.1-0.3,0.2-0.4s0.2-0.2,0.4-0.2h0.4
	c0.2,0,0.3,0.1,0.4,0.2c0.1,0.1,0.2,0.2,0.2,0.4v17.3c0,0.2-0.1,0.3-0.2,0.4c-0.1,0.1-0.2,0.2-0.4,0.2h-0.4c-0.2,0-0.3-0.1-0.4-0.2
	s-0.2-0.2-0.2-0.4v-1.2C402.7,630.6,401.2,631.3,399.3,631.3z M399.5,629.8c1.4,0,2.4-0.5,3.1-1.4c0.7-0.9,1.1-2,1.1-3.2
	c0-0.2,0-0.5,0-1s0-0.8,0-1c0-0.7-0.2-1.4-0.5-2.1c-0.3-0.7-0.8-1.2-1.4-1.7c-0.6-0.4-1.4-0.6-2.3-0.6c-1.4,0-2.4,0.5-3.1,1.4
	c-0.6,0.9-1,2-1,3.4l0,0.7c0,1.6,0.3,2.9,0.9,4C396.9,629.2,398,629.8,399.5,629.8z M414.6,631.3c-1.7,0-3-0.5-3.9-1.6
	s-1.3-2.5-1.3-4.2v-7.4c0-0.2,0.1-0.3,0.2-0.4c0.1-0.1,0.2-0.2,0.4-0.2h0.4c0.2,0,0.3,0.1,0.4,0.2s0.2,0.2,0.2,0.4v7.3
	c0,3,1.3,4.4,3.9,4.4c1.2,0,2.2-0.4,3-1.2c0.7-0.8,1.1-1.9,1.1-3.3v-7.3c0-0.2,0.1-0.3,0.2-0.4s0.2-0.2,0.4-0.2h0.4
	c0.2,0,0.3,0.1,0.4,0.2s0.2,0.2,0.2,0.4v12.4c0,0.2-0.1,0.3-0.2,0.4s-0.2,0.2-0.4,0.2h-0.4c-0.2,0-0.3-0.1-0.4-0.2s-0.2-0.2-0.2-0.4
	v-1.2c-0.5,0.7-1.1,1.2-1.8,1.5C416.5,631.1,415.6,631.3,414.6,631.3z M429.9,631.3c-1.8,0-3.2-0.5-4.2-1.6c-1-1.1-1.5-2.5-1.6-4.4
	l0-1l0-1c0.1-1.9,0.6-3.4,1.6-4.4c1-1.1,2.4-1.6,4.2-1.6c1.1,0,2.1,0.2,2.9,0.6c0.8,0.4,1.4,0.9,1.8,1.6c0.4,0.6,0.6,1.3,0.6,2
	c0,0.2,0,0.3-0.2,0.4c-0.1,0.1-0.3,0.2-0.4,0.2h-0.4c-0.2,0-0.3,0-0.4-0.1c-0.1-0.1-0.1-0.2-0.2-0.4c-0.3-1-0.8-1.6-1.5-2
	c-0.6-0.4-1.4-0.6-2.4-0.6c-1.2,0-2.2,0.4-3,1.1c-0.7,0.7-1.1,1.9-1.2,3.5l0,0.9l0,0.9c0.1,1.6,0.4,2.7,1.2,3.5
	c0.7,0.7,1.7,1.1,3,1.1c1,0,1.7-0.2,2.4-0.6c0.6-0.4,1.1-1.1,1.5-2.1c0.1-0.2,0.2-0.3,0.2-0.4c0.1-0.1,0.2-0.1,0.4-0.1h0.4
	c0.2,0,0.3,0.1,0.4,0.2c0.1,0.1,0.2,0.2,0.2,0.4c0,0.7-0.3,1.3-0.6,2c-0.4,0.6-1,1.1-1.8,1.6C432,631.1,431,631.3,429.9,631.3z
	 M443.2,631c-1.3,0-2.2-0.4-2.7-1.1c-0.5-0.8-0.8-1.8-0.8-3.2V619h-2c-0.2,0-0.3-0.1-0.4-0.2c-0.1-0.1-0.2-0.2-0.2-0.4v-0.4
	c0-0.2,0.1-0.3,0.2-0.4s0.2-0.2,0.4-0.2h2v-4.4c0-0.2,0.1-0.3,0.2-0.4s0.2-0.2,0.4-0.2h0.4c0.2,0,0.3,0.1,0.4,0.2s0.2,0.2,0.2,0.4
	v4.4h3.2c0.2,0,0.3,0.1,0.4,0.2c0.1,0.1,0.2,0.2,0.2,0.4v0.4c0,0.2-0.1,0.3-0.2,0.4c-0.1,0.1-0.2,0.2-0.4,0.2h-3.2v7.6
	c0,1,0.2,1.7,0.5,2.2c0.3,0.5,0.9,0.7,1.6,0.7h1.4c0.2,0,0.3,0.1,0.4,0.2s0.2,0.2,0.2,0.4v0.4c0,0.2-0.1,0.3-0.2,0.4
	s-0.2,0.2-0.4,0.2H443.2z M448.3,614.7c-0.2,0-0.3-0.1-0.4-0.2c-0.1-0.1-0.2-0.2-0.2-0.4v-1c0-0.2,0.1-0.3,0.2-0.4
	c0.1-0.1,0.2-0.2,0.4-0.2h1c0.2,0,0.3,0.1,0.4,0.2c0.1,0.1,0.2,0.2,0.2,0.4v1c0,0.2-0.1,0.3-0.2,0.4c-0.1,0.1-0.2,0.2-0.4,0.2H448.3
	z M448.6,631c-0.2,0-0.3-0.1-0.4-0.2s-0.2-0.2-0.2-0.4v-12.4c0-0.2,0.1-0.3,0.2-0.4s0.2-0.2,0.4-0.2h0.4c0.2,0,0.3,0.1,0.4,0.2
	c0.1,0.1,0.2,0.2,0.2,0.4v12.4c0,0.2-0.1,0.3-0.2,0.4c-0.1,0.1-0.2,0.2-0.4,0.2H448.6z M459,631.3c-1.8,0-3.2-0.5-4.2-1.6
	c-1-1.1-1.5-2.5-1.6-4.3l0-1.1l0-1.1c0.1-1.8,0.6-3.2,1.6-4.3c1-1.1,2.4-1.7,4.2-1.7s3.2,0.6,4.2,1.7c1,1.1,1.5,2.5,1.6,4.3
	c0,0.2,0,0.5,0,1.1s0,0.9,0,1.1c-0.1,1.8-0.6,3.2-1.6,4.3C462.2,630.7,460.8,631.3,459,631.3z M459,629.8c1.2,0,2.2-0.4,3-1.2
	c0.8-0.8,1.2-1.9,1.2-3.4c0-0.2,0-0.5,0-1s0-0.8,0-1c-0.1-1.5-0.5-2.6-1.2-3.4c-0.7-0.8-1.7-1.2-3-1.2s-2.2,0.4-3,1.2
	c-0.7,0.8-1.1,1.9-1.2,3.4l0,1l0,1c0.1,1.5,0.5,2.6,1.2,3.4C456.7,629.4,457.7,629.8,459,629.8z M468.9,631c-0.2,0-0.3-0.1-0.4-0.2
	c-0.1-0.1-0.2-0.2-0.2-0.4v-12.4c0-0.2,0.1-0.3,0.2-0.4c0.1-0.1,0.2-0.2,0.4-0.2h0.4c0.2,0,0.3,0.1,0.4,0.2s0.2,0.2,0.2,0.4v1.2
	c0.5-0.7,1.1-1.2,1.8-1.5c0.7-0.3,1.5-0.5,2.6-0.5c1.7,0,3,0.5,3.9,1.6c0.9,1.1,1.4,2.5,1.4,4.2v7.4c0,0.2-0.1,0.3-0.2,0.4
	s-0.2,0.2-0.4,0.2h-0.4c-0.2,0-0.3-0.1-0.4-0.2s-0.2-0.2-0.2-0.4v-7.3c0-1.4-0.3-2.5-1-3.3c-0.7-0.8-1.7-1.2-2.9-1.2
	c-1.2,0-2.2,0.4-3,1.2c-0.7,0.8-1.1,1.9-1.1,3.3v7.3c0,0.2-0.1,0.3-0.2,0.4s-0.2,0.2-0.4,0.2H468.9z"/>
<path class="st1" d="M198.6,541.3c0-6.8-5.9-12.3-13.1-12.3s-13.1,5.5-13.1,12.3c0,6.8,5.9,12.3,13.1,12.3S198.6,548.1,198.6,541.3z
	 M185.5,545.4c-2.4,0-4.4-1.8-4.4-4.1c0-2.3,2-4.1,4.4-4.1s4.4,1.8,4.4,4.1C189.9,543.6,187.9,545.4,185.5,545.4z"/>
<path class="st1" d="M146.2,632.1c0-6.8-5.9-12.3-13.1-12.3c-7.2,0-13.4,5.5-13.4,12.3c0,6.8,6.1,12.3,13.4,12.3
	C140.3,644.4,146.2,638.9,146.2,632.1z M133.1,636.2c-2.5,0-4.7-1.9-4.7-4.1s2.2-4.1,4.7-4.1c2.4,0,4.4,1.8,4.4,4.1
	S135.5,636.2,133.1,636.2z"/>
<path class="st1" d="M251.3,632.1c0-6.8-5.9-12.3-13.1-12.3c-7.2,0-13.4,5.5-13.4,12.3c0,6.8,6.1,12.3,13.4,12.3
	C245.4,644.4,251.3,638.9,251.3,632.1z M238.2,636.2c-2.5,0-4.7-1.9-4.7-4.1s2.2-4.1,4.7-4.1c2.4,0,4.4,1.8,4.4,4.1
	S240.6,636.2,238.2,636.2z"/>
<path class="st1" d="M238.2,644.4c-2.6,0-5.2,0.4-7.6,1.3l-19.1-14.9c2.9-4.4,4.5-9.5,4.5-15c0-14.6-11.4-26.7-26.2-28.7v-8.8h17.5
	v-4.1c0-11.3-9.8-20.5-21.8-20.5s-21.8,9.2-21.8,20.5v4.1h17.5v8.8c-14.8,2-26.2,14.1-26.2,28.7c0,5.5,1.7,10.7,4.5,15l-19,14.9
	c-2.3-0.8-4.8-1.2-7.4-1.2c-12.1,0-22.1,9.2-22.1,20.5v4.1h43.9v-4.1c0-5.8-2.6-11-6.7-14.7l16.8-13.2c5.4,4.6,12.6,7.4,20.4,7.4
	s15-2.8,20.4-7.4l16.9,13.2c-0.1,0.1-0.1,0.1-0.2,0.1c-4.2,3.9-6.6,9.1-6.6,14.5v4.1H260v-4.1C260,653.6,250.2,644.4,238.2,644.4
	L238.2,644.4z M185.5,561.8c5.7,0,10.5,3.4,12.3,8.2h-24.7C175,565.2,179.8,561.8,185.5,561.8z M120.5,660.8
	c1.9-4.7,6.9-8.2,12.6-8.2c5.7,0,10.5,3.4,12.3,8.2H120.5z M185.5,636.2c-12,0-21.8-9.2-21.8-20.5c0-11.5,9.8-20.8,21.8-20.8
	s21.8,9.3,21.8,20.8C207.3,627,197.5,636.2,185.5,636.2z M225.6,660.8c1.9-4.7,6.9-8.2,12.6-8.2c5.7,0,10.5,3.4,12.3,8.2H225.6z"/>
<path class="st1" d="M195.5,604.6l-14.4,13.5l-5.6-5.3l-6.2,5.8l11.8,11.1l20.5-19.3L195.5,604.6z"/>
<path class="st0" d="M425.7,400.2c-2.7,0-5-0.4-7-1.3c-1.9-0.9-3.4-2.2-4.6-3.8c-1.2-1.6-2-3.4-2.5-5.4c-0.5-2-0.8-4.2-0.8-6.4
	v-17.4h6.6v17.4c0,1.9,0.3,3.7,0.8,5.4c0.5,1.7,1.4,3.1,2.6,4.1c1.2,1.1,2.8,1.6,4.9,1.6c2.1,0,3.8-0.5,5-1.6
	c1.2-1.1,2.1-2.5,2.6-4.2c0.5-1.7,0.8-3.5,0.8-5.3v-17.4h6.6v17.4c0,2.3-0.3,4.5-0.9,6.6c-0.5,2-1.4,3.9-2.6,5.4
	c-1.2,1.5-2.7,2.8-4.6,3.6C430.6,399.8,428.3,400.2,425.7,400.2z M467.5,374.8c-0.3-0.3-0.9-0.7-1.8-1.2c-0.9-0.5-2-1-3.4-1.4
	c-1.3-0.4-2.6-0.7-4-0.7c-3.6,0-5.4,1.3-5.4,3.8c0,0.9,0.3,1.7,0.9,2.2c0.6,0.5,1.4,1,2.6,1.4c1.2,0.4,2.6,0.8,4.3,1.2
	c2.2,0.6,4.2,1.2,5.8,2c1.7,0.8,2.9,1.8,3.8,3.1c0.9,1.2,1.3,2.9,1.3,5c0,2.4-0.6,4.4-1.8,5.9c-1.2,1.5-2.7,2.5-4.6,3.2
	c-1.9,0.7-4,1-6.2,1c-2.6,0-5.1-0.4-7.6-1.2c-2.5-0.8-4.7-1.9-6.7-3.3l2.9-5.7c0.3,0.3,0.8,0.7,1.5,1.2c0.7,0.4,1.6,0.9,2.7,1.4
	c1.1,0.4,2.2,0.8,3.5,1.2c1.2,0.3,2.5,0.5,3.8,0.5c3.6,0,5.5-1.2,5.5-3.5c0-1-0.4-1.8-1.1-2.4c-0.7-0.6-1.8-1.1-3.1-1.5
	c-1.3-0.4-2.8-0.9-4.6-1.4c-2.2-0.6-4-1.3-5.4-2c-1.4-0.8-2.5-1.7-3.2-2.8c-0.7-1.2-1.1-2.6-1.1-4.4c0-2.3,0.5-4.3,1.6-5.9
	c1.1-1.6,2.6-2.8,4.5-3.6c1.9-0.8,4-1.2,6.3-1.2c2.4,0,4.6,0.4,6.6,1.2c2,0.8,3.8,1.6,5.3,2.6L467.5,374.8z M500.3,394.2v5.8h-23.7
	v-34.1h23.2v5.8h-16.6v8.2h14.4v5.4h-14.4v8.9H500.3z M505.5,400v-34.1h15.1c1.6,0,3,0.3,4.3,1c1.3,0.6,2.5,1.5,3.5,2.6
	c1,1.1,1.7,2.3,2.3,3.6c0.5,1.3,0.8,2.7,0.8,4.1c0,2.2-0.6,4.2-1.7,6c-1.1,1.8-2.6,3.1-4.5,3.9l7.8,12.8h-7.3l-7-11.4h-6.6V400
	H505.5z M512.1,382.8h8.3c1.2,0,2.3-0.5,3.1-1.6c0.8-1.1,1.2-2.4,1.2-3.9c0-1.1-0.2-2-0.7-2.8c-0.4-0.8-1-1.5-1.7-2
	c-0.7-0.5-1.4-0.7-2.2-0.7h-8V382.8z M557.7,374.8c-0.3-0.3-0.9-0.7-1.8-1.2c-0.9-0.5-2-1-3.4-1.4c-1.3-0.4-2.6-0.7-4-0.7
	c-3.6,0-5.4,1.3-5.4,3.8c0,0.9,0.3,1.7,0.9,2.2c0.6,0.5,1.4,1,2.6,1.4c1.2,0.4,2.6,0.8,4.3,1.2c2.2,0.6,4.2,1.2,5.8,2
	c1.7,0.8,2.9,1.8,3.8,3.1c0.9,1.2,1.3,2.9,1.3,5c0,2.4-0.6,4.4-1.8,5.9c-1.2,1.5-2.7,2.5-4.6,3.2c-1.9,0.7-4,1-6.2,1
	c-2.6,0-5.1-0.4-7.6-1.2c-2.5-0.8-4.7-1.9-6.7-3.3l2.9-5.7c0.3,0.3,0.8,0.7,1.5,1.2c0.7,0.4,1.6,0.9,2.7,1.4
	c1.1,0.4,2.2,0.8,3.5,1.2s2.5,0.5,3.8,0.5c3.6,0,5.5-1.2,5.5-3.5c0-1-0.4-1.8-1.1-2.4c-0.7-0.6-1.8-1.1-3.1-1.5
	c-1.3-0.4-2.8-0.9-4.6-1.4c-2.2-0.6-4-1.3-5.4-2c-1.4-0.8-2.5-1.7-3.2-2.8c-0.7-1.2-1.1-2.6-1.1-4.4c0-2.3,0.5-4.3,1.6-5.9
	c1.1-1.6,2.6-2.8,4.5-3.6c1.9-0.8,4-1.2,6.3-1.2c2.4,0,4.6,0.4,6.6,1.2c2,0.8,3.8,1.6,5.3,2.6L557.7,374.8z"/>
<path class="st1" d="M485.5,196c-40.1,0-72.5,32.5-72.5,72.6c0,40.1,32.5,72.5,72.5,72.5c40.1,0,72.6-32.5,72.6-72.5
	C558.1,228.5,525.6,196,485.5,196z M485.5,217.7c13.3,0,24,10.7,24,24c0,13.3-10.8,24-24,24c-13.3,0-24-10.7-24-24
	C461.6,228.4,472.3,217.7,485.5,217.7z M520.2,309.3c-9.3,8-21.4,12.8-34.7,12.8c-13.2,0-25.3-4.8-34.7-12.8
	c-2.3-1.9-3.6-4.8-3.6-7.8c0-13.4,10.9-24.2,24.3-24.2h27.9c13.4,0,24.3,10.8,24.3,24.2C523.8,304.6,522.5,307.4,520.2,309.3z"/>
<path class="st0" d="M523.8,301.6c0,3-1.3,5.8-3.6,7.8c-9.3,8-21.4,12.8-34.7,12.8c-13.2,0-25.3-4.8-34.7-12.8
	c-2.3-1.9-3.6-4.8-3.6-7.8c0-13.4,10.9-24.2,24.3-24.2h27.9C513,277.4,523.8,288.1,523.8,301.6z"/>
<path class="st0" d="M509.6,241.7c0,13.3-10.8,24-24,24c-13.3,0-24-10.7-24-24c0-13.3,10.7-24,24-24
	C498.8,217.7,509.6,228.4,509.6,241.7z"/>
<path class="st1" d="M830.1,634c-22.4,23.5-59.6,24.4-83,2c-23.4-22.4-24.3-59.6-1.9-83c22.4-23.5,59.6-24.4,83-2
	C851.7,573.3,852.5,610.5,830.1,634z"/>
<path class="st1" d="M781.7,499h10.6c5.3,0,9.7,3.3,9.7,7.4v8.2c0,4.1-4.4,7.4-9.7,7.4h-10.6c-5.3,0-9.7-3.3-9.7-7.4v-8.2
	C772,502.3,776.3,499,781.7,499z"/>
<path class="st1" d="M781.7,665h10.6c5.3,0,9.7,3.3,9.7,7.4v8.2c0,4.1-4.4,7.4-9.7,7.4h-10.6c-5.3,0-9.7-3.3-9.7-7.4v-8.2
	C772,668.3,776.3,665,781.7,665z"/>
<path class="st1" d="M746.9,652.8l9.2,5.3c4.6,2.7,6.7,7.7,4.7,11.3l-4.1,7.1c-2,3.5-7.5,4.2-12.1,1.6l-9.2-5.3
	c-4.6-2.7-6.7-7.7-4.7-11.3l4.1-7.1C736.8,650.9,742.2,650.1,746.9,652.8z"/>
<path class="st1" d="M723.8,624.4l5.3,9.2c2.7,4.6,1.9,10.1-1.6,12.1l-7.1,4.1c-3.5,2-8.6-0.1-11.3-4.7l-5.3-9.2
	c-2.7-4.6-1.9-10,1.6-12.1l7.1-4.1C716,617.7,721,619.7,723.8,624.4z"/>
<path class="st1" d="M716,588.7v10.6c0,5.3-3.3,9.7-7.4,9.7h-8.2c-4.1,0-7.4-4.4-7.4-9.7v-10.6c0-5.3,3.3-9.7,7.4-9.7h8.2
	C712.7,579,716,583.3,716,588.7z"/>
<path class="st1" d="M729.1,553.9l-5.3,9.2c-2.7,4.6-7.7,6.7-11.3,4.7l-7.1-4.1c-3.5-2-4.2-7.5-1.6-12.1l5.3-9.2
	c2.7-4.6,7.7-6.7,11.3-4.7l7.1,4.1C731,543.8,731.8,549.2,729.1,553.9z"/>
<path class="st1" d="M757.1,528.8l-9.2,5.3c-4.6,2.7-10,1.9-12.1-1.6l-4.1-7.1c-2-3.5,0.1-8.6,4.7-11.3l9.2-5.3
	c4.6-2.7,10.1-1.9,12.1,1.6l4.1,7.1C763.8,521,761.8,526,757.1,528.8z"/>
<path class="st1" d="M830.9,509.8l9.2,5.3c4.6,2.7,6.7,7.7,4.7,11.3l-4.1,7.1c-2,3.5-7.5,4.2-12.1,1.6l-9.2-5.3
	c-4.6-2.7-6.7-7.7-4.7-11.3l4.1-7.1C820.8,507.9,826.2,507.1,830.9,509.8z"/>
<path class="st1" d="M867.8,542.4l5.3,9.2c2.7,4.6,1.9,10.1-1.6,12.1l-7.1,4.1c-3.5,2-8.6-0.1-11.3-4.7l-5.3-9.2
	c-2.7-4.6-1.9-10,1.6-12.1l7.1-4.1C860,535.7,865,537.7,867.8,542.4z"/>
<path class="st1" d="M882,588.7v10.6c0,5.3-3.3,9.7-7.4,9.7h-8.2c-4.1,0-7.4-4.4-7.4-9.7v-10.6c0-5.3,3.3-9.7,7.4-9.7h8.2
	C878.7,579,882,583.3,882,588.7z"/>
<path class="st1" d="M872.1,636.9l-5.3,9.2c-2.7,4.6-7.7,6.7-11.3,4.7l-7.1-4.1c-3.5-2-4.2-7.5-1.6-12.1l5.3-9.2
	c2.7-4.6,7.7-6.7,11.3-4.7l7.1,4.1C874,626.8,874.8,632.2,872.1,636.9z"/>
<path class="st1" d="M840.1,673.8l-9.2,5.3c-4.6,2.7-10,1.9-12.1-1.6l-4.1-7.1c-2-3.5,0.1-8.6,4.7-11.3l9.2-5.3
	c4.6-2.7,10.1-1.9,12.1,1.6l4.1,7.1C846.8,666,844.8,671,840.1,673.8z"/>
<path class="st6" d="M786.7,526.1h1.9c0.9,0,1.7,0.8,1.7,1.7v1.9c0,0.9-0.8,1.7-1.7,1.7h-1.9c-0.9,0-1.7-0.8-1.7-1.7v-1.9
	C785.1,526.9,785.8,526.1,786.7,526.1z"/>
<path class="st6" d="M821,534.7l1.6,0.9c0.8,0.5,1.1,1.5,0.6,2.3l-0.9,1.6c-0.5,0.8-1.5,1.1-2.3,0.6l-1.6-0.9
	c-0.8-0.5-1.1-1.5-0.6-2.3l0.9-1.6C819.1,534.4,820.1,534.1,821,534.7z"/>
<path class="st6" d="M846.3,559.1l0.9,1.7c0.5,0.8,0.2,1.9-0.6,2.3l-1.7,0.9c-0.8,0.5-1.9,0.2-2.3-0.6l-0.9-1.7
	c-0.5-0.8-0.2-1.9,0.6-2.3l1.7-0.9C844.8,558,845.8,558.3,846.3,559.1z"/>
<path class="st6" d="M855.9,593v1.9c0,0.9-0.8,1.7-1.7,1.7h-1.9c-0.9,0-1.7-0.8-1.7-1.7v-1.9c0-0.9,0.8-1.7,1.7-1.7h1.9
	C855.2,591.3,855.9,592,855.9,593z"/>
<path class="st6" d="M847.3,627.2l-1,1.6c-0.5,0.8-1.5,1.1-2.3,0.6l-1.6-1c-0.8-0.5-1.1-1.5-0.6-2.3l1-1.6c0.5-0.8,1.5-1.1,2.3-0.6
	l1.6,1C847.5,625.3,847.7,626.3,847.3,627.2z"/>
<path class="st6" d="M822.7,652.4l-1.7,0.9c-0.8,0.5-1.9,0.2-2.3-0.7l-0.9-1.7c-0.5-0.8-0.2-1.9,0.7-2.3l1.7-0.9
	c0.8-0.5,1.9-0.2,2.3,0.7l0.9,1.7C823.8,650.8,823.5,651.9,822.7,652.4z"/>
<path class="st6" d="M788.8,661.9h-1.9c-0.9,0-1.7-0.8-1.7-1.7v-1.9c0-0.9,0.8-1.7,1.7-1.7h1.9c0.9,0,1.7,0.8,1.7,1.7v1.9
	C790.5,661.1,789.7,661.9,788.8,661.9z"/>
<path class="st6" d="M754.6,653l-1.6-1c-0.8-0.5-1.1-1.5-0.6-2.3l1-1.6c0.5-0.8,1.5-1.1,2.3-0.6l1.6,1c0.8,0.5,1.1,1.5,0.6,2.3
	l-1,1.6C756.5,653.3,755.4,653.6,754.6,653z"/>
<path class="st6" d="M729.5,628.4l-0.9-1.7c-0.5-0.8-0.2-1.9,0.7-2.3l1.7-0.9c0.8-0.5,1.9-0.2,2.3,0.7l0.9,1.7
	c0.5,0.8,0.2,1.9-0.7,2.3l-1.7,0.9C731,629.4,729.9,629.1,729.5,628.4z"/>
<path class="st6" d="M720.2,594.4v-1.9c0-0.9,0.8-1.7,1.7-1.7h1.9c0.9,0,1.7,0.8,1.7,1.7v1.9c0,0.9-0.8,1.7-1.7,1.7h-1.9
	C720.9,596.1,720.1,595.3,720.2,594.4z"/>
<path class="st6" d="M729.1,560.3l1-1.6c0.5-0.8,1.5-1.1,2.3-0.6l1.6,1c0.8,0.5,1.1,1.5,0.6,2.3l-1,1.6c-0.5,0.8-1.5,1.1-2.3,0.6
	l-1.6-1C728.9,562.2,728.7,561.1,729.1,560.3z"/>
<path class="st6" d="M754,535.3l1.6-0.9c0.8-0.5,1.9-0.2,2.3,0.7l0.9,1.7c0.5,0.8,0.2,1.9-0.7,2.3l-1.7,0.9
	c-0.8,0.5-1.9,0.2-2.3-0.7l-0.8-1.7C752.9,536.8,753.2,535.8,754,535.3z"/>
<rect x="748" y="553.3" class="st7" width="80" height="82.1"/>
<g>
	<path class="st0" d="M827.3,582.6c0,3.3,0,6.6,0,9.9c0,2.3-0.9,3.9-2.9,5.1c-7.4,4.2-14.8,8.6-22.3,12.8c-3.7,2.1-7.4,0-7.4-4.3
		c0-5,0-10,0-15c0-2.8,1.8-4.1,3.9-5.4c6.3-3.6,12.7-7.2,18.9-10.9c2.8-1.7,2-4.4,0.1-5.4c-0.7-0.4-1.5-0.8-2.2-1.2
		c-1.5-0.9-1.9-1.9-1.3-3.2c0.5-1,2.3-1.7,3.4-1.1c2.8,1.5,5.5,3,8.2,4.6c1.3,0.8,1.7,2.3,1.7,3.8
		C827.3,575.8,827.3,579.2,827.3,582.6C827.3,582.6,827.3,582.6,827.3,582.6z"/>
	<path class="st0" d="M787,613.2c0,3.9,0,7.8,0,11.7c0,1.3,0.6,2.2,1.7,2.9c1.1,0.6,2.1,0.5,3.1-0.2c0.9-0.6,1.9-1,2.8-1.6
		c0.9-0.5,1.7-0.3,2.3,0.3c0.5,0.5,0.9,1.5,0.7,2.1c-0.3,0.9-0.9,1.9-1.7,2.4c-2.1,1.4-4.4,2.6-6.5,3.9c-1.7,1-3.3,1-5,0
		c-5.9-3.5-11.8-6.9-17.8-10.3c-1.8-1-2.6-2.5-2.6-4.4c0-8.8-0.1-17.6,0-26.4c0-3.9,3.6-6.1,7-4.2c4.6,2.6,9.2,5.3,13.8,7.9
		c1.7,0.9,2.3,2.4,2.3,4.3C787,605.4,787,609.3,787,613.2z"/>
	<path class="st0" d="M749.7,574.3c0-1.1,0.1-2.2,0-3.3c-0.2-2.5,1.2-4,3.1-5.2c4.2-2.4,8.4-4.7,12.6-7.1c1.5-0.8,3-1.7,4.4-2.6
		c2.2-1.3,4.2-0.9,6.2,0.3c4.8,2.8,9.7,5.6,14.5,8.4c2.7,1.6,5.5,3.2,8.2,4.7c2.2,1.2,2.6,6-0.5,7.7c-2.1,1.2-4.2,2.4-6.2,3.6
		c-2.4,1.4-4.9,2.8-7.3,4.2c-1.7,1-3.4,1-5.2,0c-6.6-3.8-13.1-7.6-19.8-11.4c-0.8-0.5-1.8-0.8-2.7-0.8c-1.6,0.2-2.5,1.5-2.5,3.1
		c0,1,0,2,0,2.9c0,1.2-0.5,2.1-1.7,2.3c-1.1,0.3-2-0.4-2.5-1.3c-0.4-0.6-0.5-1.4-0.6-2.2C749.7,576.8,749.8,575.5,749.7,574.3
		C749.8,574.3,749.7,574.3,749.7,574.3z"/>
</g>
<circle class="st0" cx="116.8" cy="281.1" r="30.1"/>
<g>
	<path class="st8" d="M128,276.2c-0.1-5.9-4.6-10.7-10.6-11.1c-5.6-0.3-10.9,4-11.6,9.6c-0.2,1.7-0.1,3.4,0.5,5.1
		c0.4,1.2-0.2,2.5-1.4,2.8c-1.2,0.4-2.4-0.3-2.8-1.5c-2.8-8.9,2.3-17.8,11.3-20c8.3-2,17.1,3.9,18.5,12.3c1.4,8.4-3.6,16-11.9,17.9
		c-1.4,0.3-3,0.3-4.5,0.5c-2.5,0.3-4.1,2.1-4.7,4.7c-0.2,0.9-0.4,1.7-0.5,2.6c-0.3,1.3-1.4,2-2.5,1.8c-1.3-0.3-2-1.4-1.7-2.7
		c1.6-7.5,3.2-15,4.8-22.5c0.3-1.2,1.4-1.9,2.5-1.7c1.1,0.2,1.9,1.4,1.6,2.5c-0.8,3.6-1.5,7.2-2.3,10.8c-0.1,0.4,0,0.4,0.4,0.4
		c1.7-0.2,3.4-0.4,5.1-0.6c4.6-0.6,8.6-4.3,9.4-8.9C127.9,277.6,127.9,276.9,128,276.2z"/>
	<path class="st9" d="M114.8,298.8c0-1.5,1.1-2.6,2.6-2.6c1.5,0,2.6,1.1,2.6,2.6c0,1.5-1.1,2.6-2.6,2.6
		C115.9,301.4,114.8,300.3,114.8,298.8z"/>
</g>
</svg>
