<?xml version="1.0" encoding="utf-8"?>
<!-- Generator: Adobe Illustrator 22.0.1, SVG Export Plug-In . SVG Version: 6.00 Build 0)  -->
<svg version="1.1" id="Layer_1" xmlns="http://www.w3.org/2000/svg" xmlns:xlink="http://www.w3.org/1999/xlink" x="0px" y="0px"
	 viewBox="0 0 2061.8 236.1" style="enable-background:new 0 0 2061.8 236.1;" xml:space="preserve">
<g>
	<path d="M496.1,0c5.1,0.7,10,1.5,10.6,1.6c15.6,0.9,27.8,9.2,38.3,19.4c8.2,8,13.5,18.4,17.6,29.4c4.7,12.6,4.8,25.5,3.4,38.1
		c-1.3,11.9-6.4,22.8-13.6,32.8c-6.7,9.3-15.3,15.7-25.3,20.7c-3,1.5-4.6,3.7-2.3,7.4c9.9,16.5,42.5,70.6,48.9,81
		c0.3,0.5,0.5,1.1,1,2.2c-1.7,0.1-2.9,0.2-4.2,0.2c-14.5,0-29-0.2-43.5,0.1c-3.5,0.1-5.9-1.2-7.5-3.8c-8.7-14.5-38.6-64.9-45.3-75.3
		c-1-1.6-3.8-2.8-5.8-2.8c-18.2-0.2-36.3,0-54.5-0.2c-4.3,0-5.3,1.6-5.3,5.6c0.2,21.8,0.1,43.6,0.1,65.5c0,7.9-3,10.9-11,10.9
		c-10.3,0-20.7-0.1-31,0.1c-3.1,0-3.9-0.9-3.9-4c0.1-73.8,0.1-147.6,0.2-221.4c0-2.5,1.1-5.1,1.7-7.6C411.6,0,449.5,0,496.1,0z
		 M408.9,105c2,0,3.6,0,5.2,0c26,0,51.9-0.2,77.9,0.1c13.2,0.1,22.2-5.7,27.8-17.5c4.9-10.2,2.3-24.4-5.3-32.6
		c-7.4-8.1-17.1-10.5-27-10.8c-22.3-0.6-44.6-0.1-66.9-0.2c-12.5-0.1-11.8,0.7-11.7,11.7C409,72,408.9,88.2,408.9,105z"/>
	<path d="M206,0c3.5,3.7,3.5,7,0,11c-5.9,6.8-70.5,90.9-78.1,100.8c-1.1,1.4-2.5,2.7-4.2,4.5c2.5,3.4,76.3,98,82.6,106.6
		c1.1,1.5,1.2,4.7,0.4,6.5c-0.7,1.6-3.2,3.4-4.9,3.4c-14.3,0.3-28.7,0.3-43-0.1c-2,0-4.5-2.1-5.9-3.8c-6.3-7.8-58.8-76.6-66.5-86
		c-1.3-1.6-4.1-2.7-6.3-2.8c-9.8-0.3-19.7,0-29.5-0.2c-4-0.1-5.1,1.4-5,5.3c0.2,26.7,0.3,53.3,0.3,80c0,4.9-3,7.7-8,7.7
		c-9.5,0-19-0.2-28.5,0.1c-3.6,0.1-6.8-0.3-9.4-3C0,153.3,0,76.7,0,0c14.4,0,28.7,0,43,0c0.9,2,2.7,3.9,2.7,5.9
		c0.1,27.6,0.1,55.3-0.2,82.9c0,4.2,1.3,5.6,5.4,5.5c9.5-0.2,19-0.3,28.5,0c3.7,0.1,5.6-1.3,7.7-4.2c5.4-7.4,64.8-84.3,68.9-90
		C172.6,0,189.3,0,206,0z"/>
	<path d="M757.9,0h-53c-1.6,3.1-3.3,6.1-4.6,9.3c-4.4,11.2-80.1,202.5-85.1,215.6c-1.7,4.5,0.9,8,5.7,8c11.7,0.1,23.3,0.3,35-0.1
		c2.1,0,4.7-1.9,6.1-3.7c1.7-2.2,2.5-5.3,3.6-8c1.8-4.6,9.4-23.8,18.6-47.3h94.9c9.8,25.1,17.8,45.6,19.1,49.4
		c2.5,7.1,5.7,9.7,13.3,9.7h40C848.7,226,760.9,6.1,757.9,0z M702.3,127.9c12.9-32.6,24.5-61.7,25.9-64.7c0.5-1.2,2.5-2.2,3.8-2.2
		c1.2,0,3,1.2,3.5,2.4c1,2.2,12.6,31.5,25.6,64.5H702.3z"/>
	<path d="M308,0c2.4,3.9,3,8.1,3,12.7c-0.1,70.4-0.1,140.9-0.1,211.3c0,6-2.8,8.8-8.7,8.8c-10,0-20,0-30,0c-5,0-7.2-2.2-7.2-7.2
		c0-72.9,0-145.9,0.1-218.8c0-2.3,1.1-4.9,2.8-6.9C281.3,0,294.6,0,308,0z"/>
	<path d="M1209.8,234.2c-9.3-1.3-17.2-5.6-24.8-10.7c-15.9-10.8-24.4-26.7-29.6-44.5c-2-7-2.8-14.4-3.2-21.7
		c-0.7-12.6-0.6-25.2,2.7-37.5c4.7-17.2,12.6-32.5,26.6-44.2c8.2-6.8,17.3-12.2,27.5-14c9.5-1.7,19.6-1.1,29.4-0.6
		c11.9,0.7,21.9,6.1,31.4,13.2c12.1,9,19.4,21.1,24.1,35c3,8.9,5,18,4.4,27.6c0.1,5-0.1,11.2-0.1,16.8c-42.4,0-82.9,0-126,0
		c0.4,7.1,1.6,13.5,2.9,19.8c3.2,15.1,11.7,27.3,24.5,35.5c5.6,3.6,12.7,5,19.3,6.9c3.6,1.1,7.5,1.8,11.2,1.6
		c19.1-0.6,34.6-7.7,43.9-25.4c0.6-1.1,3-2,4.2-1.7c4.6,1.1,9.1,2.7,13.6,4.2c2.9,0.9,3.2,2.2,1.9,5.2
		c-7.9,17.6-20.8,27.3-38.4,33.3c-3.3,1.1-8.1,1.7-11.6,2C1238.4,235.5,1215.4,235.4,1209.8,234.2z M1173,135.4c35,0,69.6,0,104.9,0
		c0-1.8-3.4-20.5-6.6-27.6c-5.7-12.6-15.1-21.8-28.7-26.2c-9.1-2.9-18-3.2-27.3-1.2c-13.5,2.9-23.2,10.7-30.7,21.6
		C1177.8,111.8,1174.2,122.8,1173,135.4z"/>
	<path d="M1708.8,234.3c-22.3-4.4-37.1-18.3-46.8-37.9c-3.7-7.4-5.7-13.6-7.7-22c-2.5-10.6-4.5-30.9-2-45.3
		c3.4-20.3,11.5-38.7,27.7-52.7c13.4-11.5,28.6-16.3,46.1-16.7c35.9-0.9,61.9,24.9,71,55.5c4.6,15.3,4.7,30.8,3.7,46.2
		c-1.1,17.4-7.1,33.5-17.9,47.8c-9,11.9-20.4,19.4-34.1,24.2c-2.9,1-6,1.3-9,2C1734.1,236.7,1715.8,236,1708.8,234.3z M1780.3,136.6
		c-1.5-10.1-4.1-18.3-7.9-26.6c-6.2-13.6-15.5-24.1-30.4-28.7c-10-3.1-20-3.6-30-0.5c-4.8,1.5-9.7,3.5-13.7,6.3
		c-13.6,9.5-20.7,23.8-23.9,39.3c-3.5,16.9-3.7,34.2,2.3,51.1c4.7,13.3,11.1,25.4,23.5,32.6c11,6.4,23.7,7.2,36,6
		c12.8-2.7,22.4-9.1,30.1-19.2C1786.2,172.1,1780.4,140.6,1780.3,136.6z"/>
	<path d="M962.9,42.1c0,64.2,0,127.2,0,190.5c-7.4,0-14.5,0-21.9,0c0-75.5,0-150.8,0-227.1c6.6,0,13.2-0.2,19.8,0.1
		c1.3,0.1,2.9,1.6,3.7,2.8c9.8,13.7,114.5,163,130.7,186.2c0.1,0.2,0.6,0.1,1.4,0.3c0-62.9,0-125.7,0-188.9c7.6,0,14.6,0,22,0
		c0.1,1.6,0.2,3.2,0.2,4.9c0,72.1,0,144.3,0,216.4c0,6.6,0,6.6-6.7,6.4c-1.3,0-2.7-0.3-4,0c-8.3,1.7-12.8-2.4-17.2-9
		C1078.4,206.1,971,53.7,962.9,42.1z"/>
	<path d="M1589.6,232.9c-6.5,0-12.5,0.2-18.5-0.1c-1.5-0.1-3.7-1.7-4.1-3c-6.3-21.5-31.1-107.7-37.5-129.2c-0.6-2.2-1.3-4.3-3-6.2
		c-3.7,13.5-34.8,122.8-38.8,136.6c-0.4,1.2-2.4,2.7-3.8,2.8c-5,0.3-10,0.4-15-0.1c-1.8-0.2-4.3-2.1-4.8-3.7
		c-7.5-24.1-45.4-151.1-48.8-162.6c-0.4-1.5-1-3.1-1.2-4.9c7.4,0,14.8,0,22.2,0c13.2,46.2,26.4,92.7,40,140.3
		c2.1-7.3,33.9-119.6,39.4-137.5c0.4-1.3,2.7-2.8,4.2-2.8c5.9-0.3,11.9-0.1,18.9-0.1c13.1,46.3,26.2,92.7,39.7,140.6
		c1.3-5,2.4-8.9,3.5-12.8c3.7-13,31.5-110.3,35.9-124.9c0.4-1.3,2.4-2.8,3.8-2.9c6.3-0.3,12.5-0.1,19.4-0.1
		C1623.9,119.2,1606.8,175.9,1589.6,232.9z"/>
	<path d="M1929.8,5.7c6.3,0,13.2,0,20.8,0c0,45.5,0,90.8,0,137.1c1.9-1.5,2.9-2.2,3.8-3.1c13.2-13.2,62.1-63,73.7-74.5
		c1.5-1.5,4.2-2.3,6.4-2.4c7.4-0.3,14.7-0.1,22.7-0.1c-24,24.1-48.2,48.4-72.5,72.7c25.8,32.6,51.5,65.1,77.1,97.5
		c-8.5,0-16.7,0.4-24.8-0.3c-2.5-0.2-5.3-3.1-7.1-5.4c-13.8-17.3-53.8-68.9-60.7-78c-6.1,5.7-12,11.1-17.8,16.8
		c-0.8,0.8-0.7,2.8-0.7,4.2c0,19.3-0.1,38.6,0.1,58c0,3.6-0.8,5.1-4.7,4.9c-5.1-0.3-10.3-0.1-16.3-0.1
		C1929.8,157,1929.8,81.4,1929.8,5.7z"/>
	<path d="M1396.8,62.7c0,5,0.2,10.1-0.2,15.2c-0.1,1-1.8,2.3-3.9,2.3c-10,0-20.1,0-30.1-0.1c-1.4,0-1.7,0.2-1.7,0.4
		c-0.1,1.3-0.6,74.8,0,110.2c0.3,13.8,6.2,23.5,23.6,24c4,0.1,8-0.5,13.2-0.9c1.3,5,3,11,4.3,17c0.2,0.8-2,2.8-3.2,2.9
		c-8.2,1.2-16.3,2.3-24.9,0.6c-9.9-2-17.9-6.5-24.5-13.6c-6-6.5-9.4-14.4-9.4-23.3c-0.1-37.3-0.1-115.2-0.1-116.9
		c-7,0-13.6-0.1-20.1,0c-3.9,0.1-5.4,0.3-5.7-4c-0.3-3.4-0.3-7.5,0-10.9c0.2-3.2,0.9-3.7,3.8-3.6c7.4,0,14.5,0.1,22.1,0.1
		c0-14,0-27.5,0-41.3c7,0,13.7,0,20.8,0c0,12.4,0.2,24.7-0.1,36.9c-0.1,3.6,1,4.7,4.4,4.7C1375.3,62.7,1385.6,62.7,1396.8,62.7z"/>
	<path d="M1850.8,87c12.3-24.2,33.4-28.6,57.6-27.1c0,6.3,0,13,0,20.7c-4.7,0-9.8,0.1-14.8,0c-19.3-0.7-36.6,13.9-40.5,30.9
		c-1.2,5.3-1.2,10.9-1.2,16.3c-0.1,32.2-0.1,64.3,0,96.5c0,8.6,0,8.6-8.9,8.6c-4,0-8,0-12.5,0c0-2.5,0-4.7,0-6.9
		c0-53.3,0-106.6-0.2-159.9c0-3.1,0.6-4.2,3.8-4.1c4.3,0.2,8.7,0.2,13,0c3.1-0.2,4.1,1,4,4c-0.2,5.5-0.2,11-0.3,16.5
		C1850.8,84,1850.8,85.5,1850.8,87z"/>
</g>
</svg>
