<?xml version="1.0" encoding="utf-8"?>
<!-- Generator: Adobe Illustrator 22.0.1, SVG Export Plug-In . SVG Version: 6.00 Build 0)  -->
<svg version="1.1" id="Layer_1" xmlns="http://www.w3.org/2000/svg" xmlns:xlink="http://www.w3.org/1999/xlink" x="0px" y="0px"
	 viewBox="0 0 305.5 314.9" style="enable-background:new 0 0 305.5 314.9;" xml:space="preserve">
<g>
	<path d="M305.4,107.3c0,13-0.1,26,0,39c0.1,9-3.6,15.4-11.5,19.9c-29.3,16.7-58.4,33.7-87.6,50.5c-14.6,8.4-29.2,0.1-29.3-16.9
		c-0.1-19.7,0.1-39.3-0.1-59c-0.1-11.1,7.1-16.3,15.4-21.1c24.9-14.2,49.9-28.4,74.6-43c11.2-6.6,7.9-17.4,0.2-21.4
		c-2.9-1.5-5.8-3.3-8.7-4.9c-5.9-3.5-7.5-7.6-5.1-12.6c1.9-4,8.9-6.6,13.4-4.2c10.9,5.8,21.8,11.8,32.3,18.3
		c5.1,3.2,6.5,8.9,6.5,14.8C305.5,80.3,305.5,93.8,305.4,107.3C305.5,107.3,305.5,107.3,305.4,107.3z"/>
	<path d="M146.8,227.9c0,15.3,0.1,30.6-0.1,46c-0.1,5.3,2.2,8.8,6.5,11.3c4.2,2.5,8.1,1.9,12.2-0.8c3.5-2.4,7.5-4,11.1-6.2
		c3.4-2,6.8-1.1,8.9,1.3c1.8,2.1,3.5,5.8,2.8,8.1c-1.1,3.5-3.6,7.3-6.6,9.3c-8.3,5.5-17.2,10.1-25.7,15.2c-6.7,3.9-13,3.8-19.7-0.1
		c-23.2-13.6-46.5-27-69.9-40.4c-6.9-4-10.2-9.9-10.3-17.5c-0.1-34.6-0.2-69.3,0-103.9c0.1-15.4,14.1-23.9,27.6-16.6
		c18.3,10.1,36.2,20.7,54.3,31.1c6.5,3.7,8.9,9.6,8.9,16.8C146.8,196.9,146.8,212.4,146.8,227.9z"/>
	<path d="M0.1,74.6c0-4.3,0.3-8.7-0.1-13c-0.8-9.8,4.7-15.9,12.3-20.3c16.4-9.5,33-18.6,49.5-27.9c5.8-3.3,11.7-6.7,17.4-10.2
		c8.5-5.3,16.4-3.6,24.5,1.1c19,11.2,38.1,22.1,57.2,33.2c10.8,6.2,21.5,12.6,32.3,18.7c8.6,4.8,10.1,23.7-1.8,30.3
		c-8.3,4.6-16.4,9.4-24.6,14.2c-9.6,5.6-19.3,11.1-28.9,16.7c-6.8,4-13.5,3.8-20.3-0.1c-25.9-15-51.7-30-77.8-44.8
		c-3.1-1.8-7.2-3.3-10.6-3c-6.4,0.7-9.9,5.8-10,12.3c-0.1,3.8,0,7.7,0.1,11.5c0,4.7-2.1,8.1-6.8,9.2c-4.5,1-7.9-1.4-9.9-5.1
		c-1.4-2.5-2-5.6-2.2-8.5C-0.1,84.3,0.2,79.4,0.1,74.6C0.2,74.6,0.1,74.6,0.1,74.6z"/>
</g>
</svg>
