<svg width="280" height="274" viewBox="0 0 280 274" fill="none" xmlns="http://www.w3.org/2000/svg">
<path d="M255.055 152.643C254.605 217.883 202.263 270.4 138.147 269.942C74.0305 269.484 22.4188 216.225 22.8688 150.985C23.3187 85.7441 75.6601 33.2274 139.776 33.6853C203.893 34.1432 255.505 87.4023 255.055 152.643ZM37.9608 151.092C37.5693 207.852 82.4716 254.187 138.253 254.586C194.034 254.984 239.571 209.294 239.962 152.535C240.354 95.7758 195.452 49.4403 139.671 49.042C83.8893 48.6436 38.3523 94.3332 37.9608 151.092Z" fill="#402B60"/>
<path fill-rule="evenodd" clip-rule="evenodd" d="M139.071 0C159.968 0 176.907 17.1965 176.907 38.4096C176.907 59.6223 159.968 76.8185 139.071 76.8185C118.175 76.8185 101.236 59.6223 101.236 38.4096C101.236 17.1965 118.175 0 139.071 0Z" fill="#5739AB"/>
<path d="M122.423 58.9735C121.759 58.9735 121.183 58.8695 120.695 58.6615C120.215 58.4535 119.847 58.1815 119.591 57.8455C119.335 57.5015 119.199 57.1335 119.183 56.7415C119.183 56.6775 119.207 56.6215 119.255 56.5735C119.311 56.5175 119.375 56.4895 119.447 56.4895H120.059C120.211 56.4895 120.315 56.5695 120.371 56.7295C120.443 57.0655 120.647 57.3535 120.983 57.5935C121.327 57.8335 121.807 57.9535 122.423 57.9535C123.087 57.9535 123.587 57.8375 123.923 57.6055C124.259 57.3655 124.427 57.0335 124.427 56.6095C124.427 56.3375 124.343 56.1175 124.175 55.9495C124.015 55.7815 123.775 55.6335 123.455 55.5055C123.135 55.3775 122.655 55.2175 122.015 55.0255C121.391 54.8495 120.895 54.6615 120.527 54.4615C120.159 54.2615 119.883 54.0135 119.699 53.7175C119.515 53.4215 119.423 53.0495 119.423 52.6015C119.423 52.1695 119.539 51.7815 119.771 51.4375C120.011 51.0935 120.351 50.8255 120.791 50.6335C121.231 50.4335 121.755 50.3335 122.363 50.3335C122.987 50.3335 123.523 50.4455 123.971 50.6695C124.419 50.8855 124.759 51.1615 124.991 51.4975C125.223 51.8335 125.347 52.1695 125.363 52.5055C125.363 52.5695 125.339 52.6255 125.291 52.6735C125.251 52.7215 125.191 52.7455 125.111 52.7455H124.475C124.307 52.7455 124.203 52.6695 124.163 52.5175C124.115 52.1815 123.927 51.9055 123.599 51.6895C123.271 51.4655 122.859 51.3535 122.363 51.3535C121.819 51.3535 121.391 51.4575 121.079 51.6655C120.767 51.8735 120.611 52.1815 120.611 52.5895C120.611 52.8615 120.683 53.0855 120.827 53.2615C120.979 53.4375 121.207 53.5935 121.511 53.7295C121.815 53.8575 122.259 54.0055 122.843 54.1735C123.523 54.3575 124.059 54.5495 124.451 54.7495C124.843 54.9415 125.135 55.1855 125.327 55.4815C125.519 55.7695 125.615 56.1375 125.615 56.5855C125.615 57.3295 125.327 57.9135 124.751 58.3375C124.175 58.7615 123.399 58.9735 122.423 58.9735ZM129.468 58.8535C128.204 58.8535 127.572 58.1495 127.572 56.7415V53.5735H126.636C126.556 53.5735 126.488 53.5495 126.432 53.5015C126.384 53.4455 126.36 53.3775 126.36 53.2975V52.8895C126.36 52.8095 126.384 52.7455 126.432 52.6975C126.488 52.6415 126.556 52.6135 126.636 52.6135H127.572V50.6095C127.572 50.5295 127.596 50.4655 127.644 50.4175C127.7 50.3615 127.768 50.3335 127.848 50.3335H128.412C128.492 50.3335 128.556 50.3615 128.604 50.4175C128.66 50.4655 128.688 50.5295 128.688 50.6095V52.6135H130.176C130.256 52.6135 130.32 52.6415 130.368 52.6975C130.424 52.7455 130.452 52.8095 130.452 52.8895V53.2975C130.452 53.3775 130.424 53.4455 130.368 53.5015C130.32 53.5495 130.256 53.5735 130.176 53.5735H128.688V56.6575C128.688 57.0575 128.756 57.3615 128.892 57.5695C129.028 57.7695 129.252 57.8695 129.564 57.8695H130.296C130.376 57.8695 130.44 57.8975 130.488 57.9535C130.544 58.0015 130.572 58.0655 130.572 58.1455V58.5775C130.572 58.6575 130.544 58.7255 130.488 58.7815C130.44 58.8295 130.376 58.8535 130.296 58.8535H129.468ZM133.459 58.9735C133.067 58.9735 132.703 58.8935 132.367 58.7335C132.031 58.5735 131.763 58.3575 131.563 58.0855C131.371 57.8055 131.275 57.4975 131.275 57.1615C131.275 56.6335 131.491 56.2015 131.923 55.8655C132.363 55.5215 132.955 55.2975 133.699 55.1935L135.487 54.9415V54.5935C135.487 53.7775 135.019 53.3695 134.083 53.3695C133.731 53.3695 133.443 53.4455 133.219 53.5975C132.995 53.7415 132.827 53.9135 132.715 54.1135C132.691 54.1855 132.659 54.2375 132.619 54.2695C132.587 54.3015 132.539 54.3175 132.475 54.3175H131.959C131.887 54.3175 131.823 54.2935 131.767 54.2455C131.719 54.1895 131.695 54.1255 131.695 54.0535C131.703 53.8615 131.791 53.6455 131.959 53.4055C132.135 53.1575 132.403 52.9455 132.763 52.7695C133.123 52.5855 133.567 52.4935 134.095 52.4935C134.991 52.4935 135.635 52.7055 136.027 53.1295C136.419 53.5455 136.615 54.0655 136.615 54.6895V58.5775C136.615 58.6575 136.587 58.7255 136.531 58.7815C136.483 58.8295 136.419 58.8535 136.339 58.8535H135.787C135.707 58.8535 135.639 58.8295 135.583 58.7815C135.535 58.7255 135.511 58.6575 135.511 58.5775V58.0615C135.335 58.3175 135.079 58.5335 134.743 58.7095C134.407 58.8855 133.979 58.9735 133.459 58.9735ZM133.711 58.0735C134.231 58.0735 134.655 57.9055 134.983 57.5695C135.319 57.2255 135.487 56.7335 135.487 56.0935V55.7575L134.095 55.9615C133.527 56.0415 133.099 56.1775 132.811 56.3695C132.523 56.5535 132.379 56.7895 132.379 57.0775C132.379 57.3975 132.511 57.6455 132.775 57.8215C133.039 57.9895 133.351 58.0735 133.711 58.0735ZM140.896 61.4935C140.24 61.4935 139.712 61.3815 139.312 61.1575C138.912 60.9415 138.628 60.6935 138.46 60.4135C138.292 60.1335 138.2 59.8815 138.184 59.6575C138.176 59.5775 138.2 59.5095 138.256 59.4535C138.32 59.3975 138.388 59.3695 138.46 59.3695H139.036C139.108 59.3695 139.168 59.3855 139.216 59.4175C139.264 59.4575 139.304 59.5255 139.336 59.6215C139.432 59.8775 139.588 60.0975 139.804 60.2815C140.028 60.4735 140.372 60.5695 140.836 60.5695C141.428 60.5695 141.864 60.4415 142.144 60.1855C142.424 59.9375 142.564 59.4935 142.564 58.8535V58.0375C142.356 58.3015 142.092 58.5135 141.772 58.6735C141.452 58.8255 141.072 58.9015 140.632 58.9015C139.784 58.9015 139.148 58.6335 138.724 58.0975C138.308 57.5535 138.088 56.8655 138.064 56.0335L138.052 55.6975L138.064 55.3735C138.088 54.5495 138.312 53.8655 138.736 53.3215C139.16 52.7695 139.792 52.4935 140.632 52.4935C141.472 52.4935 142.128 52.8015 142.6 53.4175V52.9015C142.6 52.8215 142.624 52.7535 142.672 52.6975C142.728 52.6415 142.796 52.6135 142.876 52.6135H143.428C143.508 52.6135 143.576 52.6415 143.632 52.6975C143.688 52.7535 143.716 52.8215 143.716 52.9015V58.7215C143.716 60.5695 142.776 61.4935 140.896 61.4935ZM140.872 57.9415C141.416 57.9415 141.828 57.7615 142.108 57.4015C142.388 57.0415 142.54 56.6135 142.564 56.1175C142.572 56.0455 142.576 55.9055 142.576 55.6975C142.576 55.4975 142.572 55.3615 142.564 55.2895C142.54 54.7935 142.388 54.3655 142.108 54.0055C141.836 53.6455 141.424 53.4655 140.872 53.4655C140.304 53.4655 139.892 53.6415 139.636 53.9935C139.38 54.3455 139.24 54.8095 139.216 55.3855L139.204 55.6975L139.216 56.0215C139.24 56.5895 139.38 57.0535 139.636 57.4135C139.892 57.7655 140.304 57.9415 140.872 57.9415ZM147.997 58.9735C147.173 58.9735 146.513 58.7215 146.017 58.2175C145.529 57.7055 145.261 57.0095 145.213 56.1295L145.201 55.7215L145.213 55.3255C145.269 54.4615 145.541 53.7735 146.029 53.2615C146.525 52.7495 147.177 52.4935 147.985 52.4935C148.873 52.4935 149.561 52.7775 150.049 53.3455C150.537 53.9055 150.781 54.6655 150.781 55.6255V55.8295C150.781 55.9095 150.753 55.9775 150.697 56.0335C150.649 56.0815 150.585 56.1055 150.505 56.1055H146.353V56.2135C146.377 56.7335 146.533 57.1775 146.821 57.5455C147.117 57.9055 147.505 58.0855 147.985 58.0855C148.353 58.0855 148.653 58.0135 148.885 57.8695C149.125 57.7175 149.301 57.5615 149.413 57.4015C149.485 57.3055 149.537 57.2495 149.569 57.2335C149.609 57.2095 149.677 57.1975 149.773 57.1975H150.361C150.433 57.1975 150.493 57.2175 150.541 57.2575C150.589 57.2975 150.613 57.3535 150.613 57.4255C150.613 57.6015 150.501 57.8135 150.277 58.0615C150.061 58.3095 149.753 58.5255 149.353 58.7095C148.961 58.8855 148.509 58.9735 147.997 58.9735ZM149.641 55.2775V55.2415C149.641 54.6895 149.489 54.2415 149.185 53.8975C148.889 53.5455 148.489 53.3695 147.985 53.3695C147.481 53.3695 147.081 53.5455 146.785 53.8975C146.497 54.2415 146.353 54.6895 146.353 55.2415V55.2775H149.641ZM157.581 58.8535C157.501 58.8535 157.433 58.8295 157.377 58.7815C157.329 58.7255 157.305 58.6575 157.305 58.5775V51.8575L155.313 53.3935C155.257 53.4415 155.197 53.4655 155.133 53.4655C155.061 53.4655 154.993 53.4255 154.929 53.3455L154.617 52.9495C154.577 52.8935 154.557 52.8375 154.557 52.7815C154.557 52.6855 154.597 52.6095 154.677 52.5535L157.293 50.5375C157.381 50.4815 157.485 50.4535 157.605 50.4535H158.217C158.297 50.4535 158.361 50.4815 158.409 50.5375C158.465 50.5855 158.493 50.6495 158.493 50.7295V58.5775C158.493 58.6575 158.465 58.7255 158.409 58.7815C158.361 58.8295 158.297 58.8535 158.217 58.8535H157.581Z" fill="white"/>
<path fill-rule="evenodd" clip-rule="evenodd" d="M242.164 80.3293C263.06 80.3293 280 97.5259 280 118.739C280 139.952 263.06 157.148 242.164 157.148C221.268 157.148 204.329 139.952 204.329 118.739C204.329 97.5259 221.268 80.3293 242.164 80.3293Z" fill="#7057B8"/>
<path d="M224.495 139.303C223.831 139.303 223.255 139.199 222.767 138.991C222.287 138.783 221.919 138.511 221.663 138.175C221.407 137.831 221.271 137.463 221.255 137.071C221.255 137.007 221.279 136.951 221.327 136.903C221.383 136.847 221.447 136.819 221.519 136.819H222.131C222.283 136.819 222.387 136.899 222.443 137.059C222.515 137.395 222.719 137.683 223.055 137.923C223.399 138.163 223.879 138.283 224.495 138.283C225.159 138.283 225.659 138.167 225.995 137.935C226.331 137.695 226.499 137.363 226.499 136.939C226.499 136.667 226.415 136.447 226.247 136.279C226.087 136.111 225.847 135.963 225.527 135.835C225.207 135.707 224.727 135.547 224.087 135.355C223.463 135.179 222.967 134.991 222.599 134.791C222.231 134.591 221.955 134.343 221.771 134.047C221.587 133.751 221.495 133.379 221.495 132.931C221.495 132.499 221.611 132.111 221.843 131.767C222.083 131.423 222.423 131.155 222.863 130.963C223.303 130.763 223.827 130.663 224.435 130.663C225.059 130.663 225.595 130.775 226.043 130.999C226.491 131.215 226.831 131.491 227.063 131.827C227.295 132.163 227.419 132.499 227.435 132.835C227.435 132.899 227.411 132.955 227.363 133.003C227.323 133.051 227.263 133.075 227.183 133.075H226.547C226.379 133.075 226.275 132.999 226.235 132.847C226.187 132.511 225.999 132.235 225.671 132.019C225.343 131.795 224.931 131.683 224.435 131.683C223.891 131.683 223.463 131.787 223.151 131.995C222.839 132.203 222.683 132.511 222.683 132.919C222.683 133.191 222.755 133.415 222.899 133.591C223.051 133.767 223.279 133.923 223.583 134.059C223.887 134.187 224.331 134.335 224.915 134.503C225.595 134.687 226.131 134.879 226.523 135.079C226.915 135.271 227.207 135.515 227.399 135.811C227.591 136.099 227.687 136.467 227.687 136.915C227.687 137.659 227.399 138.243 226.823 138.667C226.247 139.091 225.471 139.303 224.495 139.303ZM231.54 139.183C230.276 139.183 229.644 138.479 229.644 137.071V133.903H228.708C228.628 133.903 228.56 133.879 228.504 133.831C228.456 133.775 228.432 133.707 228.432 133.627V133.219C228.432 133.139 228.456 133.075 228.504 133.027C228.56 132.971 228.628 132.943 228.708 132.943H229.644V130.939C229.644 130.859 229.668 130.795 229.716 130.747C229.772 130.691 229.84 130.663 229.92 130.663H230.484C230.564 130.663 230.628 130.691 230.676 130.747C230.732 130.795 230.76 130.859 230.76 130.939V132.943H232.248C232.328 132.943 232.392 132.971 232.44 133.027C232.496 133.075 232.524 133.139 232.524 133.219V133.627C232.524 133.707 232.496 133.775 232.44 133.831C232.392 133.879 232.328 133.903 232.248 133.903H230.76V136.987C230.76 137.387 230.828 137.691 230.964 137.899C231.1 138.099 231.324 138.199 231.636 138.199H232.368C232.448 138.199 232.512 138.227 232.56 138.283C232.616 138.331 232.644 138.395 232.644 138.475V138.907C232.644 138.987 232.616 139.055 232.56 139.111C232.512 139.159 232.448 139.183 232.368 139.183H231.54ZM235.532 139.303C235.14 139.303 234.776 139.223 234.44 139.063C234.104 138.903 233.836 138.687 233.636 138.415C233.444 138.135 233.348 137.827 233.348 137.491C233.348 136.963 233.564 136.531 233.996 136.195C234.436 135.851 235.028 135.627 235.772 135.523L237.56 135.271V134.923C237.56 134.107 237.092 133.699 236.156 133.699C235.804 133.699 235.516 133.775 235.292 133.927C235.068 134.071 234.9 134.243 234.788 134.443C234.764 134.515 234.732 134.567 234.692 134.599C234.66 134.631 234.612 134.647 234.548 134.647H234.032C233.96 134.647 233.896 134.623 233.84 134.575C233.792 134.519 233.768 134.455 233.768 134.383C233.776 134.191 233.864 133.975 234.032 133.735C234.208 133.487 234.476 133.275 234.836 133.099C235.196 132.915 235.64 132.823 236.168 132.823C237.064 132.823 237.708 133.035 238.1 133.459C238.492 133.875 238.688 134.395 238.688 135.019V138.907C238.688 138.987 238.66 139.055 238.604 139.111C238.556 139.159 238.492 139.183 238.412 139.183H237.86C237.78 139.183 237.712 139.159 237.656 139.111C237.608 139.055 237.584 138.987 237.584 138.907V138.391C237.408 138.647 237.152 138.863 236.816 139.039C236.48 139.215 236.052 139.303 235.532 139.303ZM235.784 138.403C236.304 138.403 236.728 138.235 237.056 137.899C237.392 137.555 237.56 137.063 237.56 136.423V136.087L236.168 136.291C235.6 136.371 235.172 136.507 234.884 136.699C234.596 136.883 234.452 137.119 234.452 137.407C234.452 137.727 234.584 137.975 234.848 138.151C235.112 138.319 235.424 138.403 235.784 138.403ZM242.969 141.823C242.313 141.823 241.785 141.711 241.385 141.487C240.985 141.271 240.701 141.023 240.533 140.743C240.365 140.463 240.273 140.211 240.257 139.987C240.249 139.907 240.273 139.839 240.329 139.783C240.393 139.727 240.461 139.699 240.533 139.699H241.109C241.181 139.699 241.241 139.715 241.289 139.747C241.337 139.787 241.377 139.855 241.409 139.951C241.505 140.207 241.661 140.427 241.877 140.611C242.101 140.803 242.445 140.899 242.909 140.899C243.501 140.899 243.937 140.771 244.217 140.515C244.497 140.267 244.637 139.823 244.637 139.183V138.367C244.429 138.631 244.165 138.843 243.845 139.003C243.525 139.155 243.145 139.231 242.705 139.231C241.857 139.231 241.221 138.963 240.797 138.427C240.381 137.883 240.161 137.195 240.137 136.363L240.125 136.027L240.137 135.703C240.161 134.879 240.385 134.195 240.809 133.651C241.233 133.099 241.865 132.823 242.705 132.823C243.545 132.823 244.201 133.131 244.673 133.747V133.231C244.673 133.151 244.697 133.083 244.745 133.027C244.801 132.971 244.869 132.943 244.949 132.943H245.501C245.581 132.943 245.649 132.971 245.705 133.027C245.761 133.083 245.789 133.151 245.789 133.231V139.051C245.789 140.899 244.849 141.823 242.969 141.823ZM242.945 138.271C243.489 138.271 243.901 138.091 244.181 137.731C244.461 137.371 244.613 136.943 244.637 136.447C244.645 136.375 244.649 136.235 244.649 136.027C244.649 135.827 244.645 135.691 244.637 135.619C244.613 135.123 244.461 134.695 244.181 134.335C243.909 133.975 243.497 133.795 242.945 133.795C242.377 133.795 241.965 133.971 241.709 134.323C241.453 134.675 241.313 135.139 241.289 135.715L241.277 136.027L241.289 136.351C241.313 136.919 241.453 137.383 241.709 137.743C241.965 138.095 242.377 138.271 242.945 138.271ZM250.069 139.303C249.245 139.303 248.585 139.051 248.089 138.547C247.601 138.035 247.333 137.339 247.285 136.459L247.273 136.051L247.285 135.655C247.341 134.791 247.613 134.103 248.101 133.591C248.597 133.079 249.249 132.823 250.057 132.823C250.945 132.823 251.633 133.107 252.121 133.675C252.609 134.235 252.853 134.995 252.853 135.955V136.159C252.853 136.239 252.825 136.307 252.769 136.363C252.721 136.411 252.657 136.435 252.577 136.435H248.425V136.543C248.449 137.063 248.605 137.507 248.893 137.875C249.189 138.235 249.577 138.415 250.057 138.415C250.425 138.415 250.725 138.343 250.957 138.199C251.197 138.047 251.373 137.891 251.485 137.731C251.557 137.635 251.609 137.579 251.641 137.563C251.681 137.539 251.749 137.527 251.845 137.527H252.433C252.505 137.527 252.565 137.547 252.613 137.587C252.661 137.627 252.685 137.683 252.685 137.755C252.685 137.931 252.573 138.143 252.349 138.391C252.133 138.639 251.825 138.855 251.425 139.039C251.033 139.215 250.581 139.303 250.069 139.303ZM251.713 135.607V135.571C251.713 135.019 251.561 134.571 251.257 134.227C250.961 133.875 250.561 133.699 250.057 133.699C249.553 133.699 249.153 133.875 248.857 134.227C248.569 134.571 248.425 135.019 248.425 135.571V135.607H251.713ZM257.205 139.183C257.125 139.183 257.057 139.159 257.001 139.111C256.953 139.055 256.929 138.987 256.929 138.907V138.523C256.929 138.339 257.029 138.163 257.229 137.995L259.773 135.451C260.389 134.939 260.813 134.523 261.045 134.203C261.277 133.875 261.393 133.531 261.393 133.171C261.393 132.707 261.261 132.343 260.997 132.079C260.741 131.815 260.365 131.683 259.869 131.683C259.405 131.683 259.033 131.823 258.753 132.103C258.473 132.375 258.301 132.739 258.237 133.195C258.221 133.291 258.181 133.363 258.117 133.411C258.061 133.451 257.997 133.471 257.925 133.471H257.301C257.229 133.471 257.169 133.451 257.121 133.411C257.073 133.363 257.049 133.307 257.049 133.243C257.065 132.811 257.181 132.399 257.397 132.007C257.613 131.607 257.929 131.283 258.345 131.035C258.769 130.779 259.277 130.651 259.869 130.651C260.773 130.651 261.453 130.887 261.909 131.359C262.373 131.823 262.605 132.415 262.605 133.135C262.605 133.639 262.477 134.095 262.221 134.503C261.973 134.903 261.585 135.335 261.057 135.799L258.753 138.139H262.497C262.585 138.139 262.653 138.167 262.701 138.223C262.757 138.271 262.785 138.335 262.785 138.415V138.907C262.785 138.987 262.757 139.055 262.701 139.111C262.645 139.159 262.577 139.183 262.497 139.183H257.205Z" fill="white"/>
<path d="M242.938 104.965C242.938 104.094 242.437 103.505 241.592 103.394C241.432 103.37 241.268 103.352 241.108 103.333C240.633 103.273 240.184 103.222 239.753 103.125C238.07 102.74 236.439 101.947 234.636 100.631C234.338 100.413 234.01 100.214 233.623 100.214C233.241 100.214 232.913 100.413 232.615 100.627C230.203 102.355 228.031 103.236 225.783 103.384C224.81 103.449 224.299 104.024 224.299 105.048C224.299 105.66 224.299 106.272 224.299 106.884V106.893C224.295 108.594 224.295 110.351 224.313 112.084C224.317 112.728 224.397 113.396 224.544 114.072C224.89 115.658 225.681 117.085 226.96 118.434C228.555 120.116 230.554 121.414 233.068 122.401C233.237 122.466 233.419 122.503 233.61 122.503C233.841 122.503 234.072 122.452 234.276 122.359C234.414 122.294 234.556 122.234 234.694 122.174L234.707 122.169C235.316 121.896 235.942 121.613 236.555 121.279C238.598 120.153 240.144 118.823 241.282 117.21C242.303 115.764 242.832 114.308 242.894 112.76C242.907 112.464 242.916 112.149 242.921 111.792L242.943 108.927C242.943 108.909 242.943 108.895 242.943 108.876V107.764C242.943 106.828 242.943 105.896 242.938 104.965ZM241.872 108.872C241.872 108.881 241.872 108.891 241.872 108.905L241.85 111.778C241.845 112.122 241.836 112.423 241.827 112.71C241.774 114.031 241.312 115.287 240.419 116.548C239.38 118.021 237.949 119.245 236.053 120.293C235.48 120.608 234.871 120.881 234.28 121.145L234.267 121.15C234.125 121.215 233.987 121.275 233.845 121.34C233.774 121.373 233.689 121.391 233.605 121.391C233.543 121.391 233.485 121.382 233.437 121.364C231.069 120.432 229.194 119.218 227.711 117.656C226.583 116.455 225.885 115.204 225.583 113.827C225.45 113.23 225.383 112.641 225.379 112.075C225.361 110.351 225.365 108.595 225.365 106.898V106.889C225.365 106.277 225.365 105.665 225.365 105.053C225.365 104.84 225.397 104.682 225.459 104.618C225.517 104.553 225.654 104.511 225.854 104.497C228.302 104.33 230.643 103.394 233.219 101.54C233.419 101.396 233.552 101.327 233.623 101.327C233.694 101.327 233.827 101.401 234.027 101.545C235.951 102.945 237.701 103.793 239.526 104.21C240.006 104.321 240.481 104.377 240.988 104.437C241.148 104.456 241.303 104.474 241.463 104.498C241.774 104.539 241.876 104.655 241.876 104.966C241.876 105.897 241.876 106.829 241.876 107.76L241.872 108.872Z" fill="white"/>
<path d="M234.361 110.791H232.873C232.269 110.791 231.776 110.277 231.776 109.646C231.776 109.016 232.269 108.502 232.873 108.502H235.493C235.786 108.502 236.026 108.252 236.026 107.945C236.026 107.639 235.787 107.389 235.493 107.389H234.152V106.323C234.152 106.017 233.912 105.767 233.619 105.767C233.325 105.767 233.086 106.017 233.086 106.323V107.389H232.877C231.686 107.389 230.714 108.4 230.714 109.646C230.714 110.888 231.682 111.903 232.877 111.903H234.365C234.969 111.903 235.462 112.418 235.462 113.048C235.462 113.678 234.969 114.193 234.365 114.193H231.695C231.402 114.193 231.162 114.443 231.162 114.749C231.162 115.055 231.402 115.305 231.695 115.305H233.086V116.39C233.086 116.696 233.325 116.946 233.619 116.946C233.912 116.946 234.152 116.696 234.152 116.39V115.305H234.378C234.383 115.305 234.387 115.305 234.392 115.305C235.569 115.291 236.524 114.281 236.524 113.048C236.524 111.802 235.555 110.791 234.361 110.791Z" fill="white"/>
<path d="M256.499 105.517C258.311 105.517 259.676 104.782 259.676 103.807C259.676 102.831 258.311 102.096 256.499 102.096C254.687 102.096 253.322 102.831 253.322 103.807C253.322 104.782 254.687 105.517 256.499 105.517ZM256.499 102.83C258.009 102.83 258.974 103.41 258.974 103.809C258.974 104.208 258.01 104.788 256.499 104.788C254.988 104.788 254.023 104.208 254.023 103.809C254.023 103.41 254.987 102.83 256.499 102.83Z" fill="white"/>
<path d="M259.41 105.551C259.228 105.481 259.027 105.578 258.959 105.767C258.81 106.191 257.828 106.649 256.502 106.649C255.21 106.649 254.242 106.216 254.056 105.798C253.974 105.615 253.763 105.536 253.588 105.621C253.413 105.707 253.337 105.926 253.419 106.109C253.761 106.871 255 107.38 256.502 107.38C257.218 107.38 257.914 107.258 258.466 107.033C259.074 106.786 259.474 106.435 259.621 106.018C259.684 105.831 259.591 105.621 259.41 105.551Z" fill="white"/>
<path d="M259.41 107.417C259.228 107.346 259.027 107.444 258.959 107.633C258.81 108.057 257.828 108.514 256.502 108.514C255.21 108.514 254.242 108.081 254.056 107.664C253.974 107.481 253.763 107.402 253.588 107.487C253.413 107.572 253.337 107.792 253.419 107.975C253.761 108.737 255 109.246 256.502 109.246C257.218 109.246 257.914 109.124 258.466 108.899C259.074 108.652 259.474 108.301 259.621 107.883C259.684 107.697 259.591 107.487 259.41 107.417Z" fill="white"/>
<path d="M259.41 109.28C259.228 109.21 259.027 109.307 258.959 109.497C258.81 109.92 257.828 110.378 256.502 110.378C255.21 110.378 254.242 109.945 254.056 109.527C253.974 109.345 253.763 109.265 253.588 109.351C253.413 109.436 253.337 109.655 253.419 109.838C253.761 110.601 255 111.11 256.502 111.11C257.218 111.11 257.914 110.988 258.466 110.762C259.074 110.515 259.474 110.165 259.621 109.747C259.684 109.561 259.591 109.351 259.41 109.28Z" fill="white"/>
<path d="M259.41 111.146C259.228 111.076 259.027 111.174 258.959 111.363C258.81 111.787 257.828 112.244 256.502 112.244C255.21 112.244 254.242 111.811 254.056 111.394C253.974 111.211 253.763 111.131 253.588 111.217C253.413 111.302 253.337 111.522 253.419 111.705C253.761 112.467 255 112.976 256.502 112.976C257.218 112.976 257.914 112.854 258.466 112.629C259.074 112.382 259.474 112.031 259.621 111.613C259.684 111.424 259.591 111.213 259.41 111.146Z" fill="white"/>
<path d="M259.41 113.01C259.228 112.939 259.027 113.037 258.959 113.226C258.81 113.65 257.828 114.108 256.502 114.108C255.21 114.108 254.242 113.675 254.056 113.257C253.974 113.074 253.763 112.995 253.588 113.08C253.413 113.165 253.337 113.385 253.419 113.568C253.761 114.33 255 114.839 256.502 114.839C257.218 114.839 257.914 114.717 258.466 114.492C259.074 114.245 259.474 113.894 259.621 113.476C259.684 113.29 259.591 113.08 259.41 113.01Z" fill="white"/>
<path d="M251.702 109.28C251.521 109.21 251.319 109.307 251.252 109.497C251.103 109.92 250.121 110.378 248.795 110.378C247.503 110.378 246.536 109.945 246.348 109.527C246.267 109.345 246.056 109.265 245.881 109.351C245.706 109.436 245.63 109.655 245.711 109.838C246.053 110.601 247.293 111.11 248.795 111.11C249.511 111.11 250.207 110.988 250.759 110.762C251.367 110.515 251.767 110.165 251.914 109.747C251.977 109.561 251.884 109.351 251.702 109.28Z" fill="white"/>
<path d="M251.702 111.146C251.521 111.076 251.319 111.174 251.252 111.363C251.103 111.787 250.121 112.244 248.795 112.244C247.503 112.244 246.536 111.811 246.348 111.394C246.267 111.211 246.056 111.131 245.881 111.217C245.706 111.302 245.63 111.522 245.711 111.705C246.053 112.467 247.293 112.976 248.795 112.976C249.511 112.976 250.207 112.854 250.759 112.629C251.367 112.382 251.767 112.031 251.914 111.613C251.977 111.424 251.884 111.213 251.702 111.146Z" fill="white"/>
<path d="M251.702 113.01C251.521 112.939 251.319 113.037 251.252 113.226C251.103 113.65 250.121 114.108 248.795 114.108C247.503 114.108 246.536 113.675 246.348 113.257C246.267 113.074 246.056 112.995 245.881 113.08C245.706 113.165 245.63 113.385 245.711 113.568C246.053 114.33 247.293 114.839 248.795 114.839C249.511 114.839 250.207 114.717 250.759 114.492C251.367 114.245 251.767 113.894 251.914 113.476C251.977 113.29 251.884 113.08 251.702 113.01Z" fill="white"/>
<path d="M248.795 105.825C246.983 105.825 245.618 106.56 245.618 107.535C245.618 108.511 246.983 109.246 248.795 109.246C250.606 109.246 251.971 108.511 251.971 107.535C251.971 106.56 250.606 105.825 248.795 105.825ZM248.795 108.515C247.284 108.515 246.319 107.935 246.319 107.536C246.319 107.137 247.283 106.557 248.795 106.557C250.306 106.557 251.27 107.137 251.27 107.536C251.27 107.935 250.305 108.515 248.795 108.515Z" fill="white"/>
<path fill-rule="evenodd" clip-rule="evenodd" d="M211.516 197.043C232.41 197.043 249.35 214.24 249.35 235.453C249.35 256.666 232.41 273.862 211.516 273.862C190.619 273.862 173.679 256.666 173.679 235.453C173.679 214.24 190.619 197.043 211.516 197.043Z" fill="#4D2CA9"/>
<path d="M193.951 256.017C193.287 256.017 192.711 255.913 192.223 255.705C191.743 255.497 191.375 255.225 191.119 254.889C190.863 254.545 190.727 254.177 190.711 253.785C190.711 253.721 190.735 253.665 190.783 253.617C190.839 253.561 190.903 253.533 190.975 253.533H191.587C191.739 253.533 191.843 253.613 191.899 253.773C191.971 254.109 192.175 254.397 192.511 254.637C192.855 254.877 193.335 254.997 193.951 254.997C194.615 254.997 195.115 254.881 195.451 254.649C195.787 254.409 195.955 254.077 195.955 253.653C195.955 253.381 195.871 253.161 195.703 252.993C195.543 252.825 195.303 252.677 194.983 252.549C194.663 252.421 194.183 252.261 193.543 252.069C192.919 251.893 192.423 251.705 192.055 251.505C191.687 251.305 191.411 251.057 191.227 250.761C191.043 250.465 190.951 250.093 190.951 249.645C190.951 249.213 191.067 248.825 191.299 248.481C191.539 248.137 191.879 247.869 192.319 247.677C192.759 247.477 193.283 247.377 193.891 247.377C194.515 247.377 195.051 247.489 195.499 247.713C195.947 247.929 196.287 248.205 196.519 248.541C196.751 248.877 196.875 249.213 196.891 249.549C196.891 249.613 196.867 249.669 196.819 249.717C196.779 249.765 196.719 249.789 196.639 249.789H196.003C195.835 249.789 195.731 249.713 195.691 249.561C195.643 249.225 195.455 248.949 195.127 248.733C194.799 248.509 194.387 248.397 193.891 248.397C193.347 248.397 192.919 248.501 192.607 248.709C192.295 248.917 192.139 249.225 192.139 249.633C192.139 249.905 192.211 250.129 192.355 250.305C192.507 250.481 192.735 250.637 193.039 250.773C193.343 250.901 193.787 251.049 194.371 251.217C195.051 251.401 195.587 251.593 195.979 251.793C196.371 251.985 196.663 252.229 196.855 252.525C197.047 252.813 197.143 253.181 197.143 253.629C197.143 254.373 196.855 254.957 196.279 255.381C195.703 255.805 194.927 256.017 193.951 256.017ZM200.996 255.897C199.732 255.897 199.1 255.193 199.1 253.785V250.617H198.164C198.084 250.617 198.016 250.593 197.96 250.545C197.912 250.489 197.888 250.421 197.888 250.341V249.933C197.888 249.853 197.912 249.789 197.96 249.741C198.016 249.685 198.084 249.657 198.164 249.657H199.1V247.653C199.1 247.573 199.124 247.509 199.172 247.461C199.228 247.405 199.296 247.377 199.376 247.377H199.94C200.02 247.377 200.084 247.405 200.132 247.461C200.188 247.509 200.216 247.573 200.216 247.653V249.657H201.704C201.784 249.657 201.848 249.685 201.896 249.741C201.952 249.789 201.98 249.853 201.98 249.933V250.341C201.98 250.421 201.952 250.489 201.896 250.545C201.848 250.593 201.784 250.617 201.704 250.617H200.216V253.701C200.216 254.101 200.284 254.405 200.42 254.613C200.556 254.813 200.78 254.913 201.092 254.913H201.824C201.904 254.913 201.968 254.941 202.016 254.997C202.072 255.045 202.1 255.109 202.1 255.189V255.621C202.1 255.701 202.072 255.769 202.016 255.825C201.968 255.873 201.904 255.897 201.824 255.897H200.996ZM204.987 256.017C204.595 256.017 204.231 255.937 203.895 255.777C203.559 255.617 203.291 255.401 203.091 255.129C202.899 254.849 202.803 254.541 202.803 254.205C202.803 253.677 203.019 253.245 203.451 252.909C203.891 252.565 204.483 252.341 205.227 252.237L207.015 251.985V251.637C207.015 250.821 206.547 250.413 205.611 250.413C205.259 250.413 204.971 250.489 204.747 250.641C204.523 250.785 204.355 250.957 204.243 251.157C204.219 251.229 204.187 251.281 204.147 251.313C204.115 251.345 204.067 251.361 204.003 251.361H203.487C203.415 251.361 203.351 251.337 203.295 251.289C203.247 251.233 203.223 251.169 203.223 251.097C203.231 250.905 203.319 250.689 203.487 250.449C203.663 250.201 203.931 249.989 204.291 249.813C204.651 249.629 205.095 249.537 205.623 249.537C206.519 249.537 207.163 249.749 207.555 250.173C207.947 250.589 208.143 251.109 208.143 251.733V255.621C208.143 255.701 208.115 255.769 208.059 255.825C208.011 255.873 207.947 255.897 207.867 255.897H207.315C207.235 255.897 207.167 255.873 207.111 255.825C207.063 255.769 207.039 255.701 207.039 255.621V255.105C206.863 255.361 206.607 255.577 206.271 255.753C205.935 255.929 205.507 256.017 204.987 256.017ZM205.239 255.117C205.759 255.117 206.183 254.949 206.511 254.613C206.847 254.269 207.015 253.777 207.015 253.137V252.801L205.623 253.005C205.055 253.085 204.627 253.221 204.339 253.413C204.051 253.597 203.907 253.833 203.907 254.121C203.907 254.441 204.039 254.689 204.303 254.865C204.567 255.033 204.879 255.117 205.239 255.117ZM212.424 258.537C211.768 258.537 211.24 258.425 210.84 258.201C210.44 257.985 210.156 257.737 209.988 257.457C209.82 257.177 209.728 256.925 209.712 256.701C209.704 256.621 209.728 256.553 209.784 256.497C209.848 256.441 209.916 256.413 209.988 256.413H210.564C210.636 256.413 210.696 256.429 210.744 256.461C210.792 256.501 210.832 256.569 210.864 256.665C210.96 256.921 211.116 257.141 211.332 257.325C211.556 257.517 211.9 257.613 212.364 257.613C212.956 257.613 213.392 257.485 213.672 257.229C213.952 256.981 214.092 256.537 214.092 255.897V255.081C213.884 255.345 213.62 255.557 213.3 255.717C212.98 255.869 212.6 255.945 212.16 255.945C211.312 255.945 210.676 255.677 210.252 255.141C209.836 254.597 209.616 253.909 209.592 253.077L209.58 252.741L209.592 252.417C209.616 251.593 209.84 250.909 210.264 250.365C210.688 249.813 211.32 249.537 212.16 249.537C213 249.537 213.656 249.845 214.128 250.461V249.945C214.128 249.865 214.152 249.797 214.2 249.741C214.256 249.685 214.324 249.657 214.404 249.657H214.956C215.036 249.657 215.104 249.685 215.16 249.741C215.216 249.797 215.244 249.865 215.244 249.945V255.765C215.244 257.613 214.304 258.537 212.424 258.537ZM212.4 254.985C212.944 254.985 213.356 254.805 213.636 254.445C213.916 254.085 214.068 253.657 214.092 253.161C214.1 253.089 214.104 252.949 214.104 252.741C214.104 252.541 214.1 252.405 214.092 252.333C214.068 251.837 213.916 251.409 213.636 251.049C213.364 250.689 212.952 250.509 212.4 250.509C211.832 250.509 211.42 250.685 211.164 251.037C210.908 251.389 210.768 251.853 210.744 252.429L210.732 252.741L210.744 253.065C210.768 253.633 210.908 254.097 211.164 254.457C211.42 254.809 211.832 254.985 212.4 254.985ZM219.524 256.017C218.7 256.017 218.04 255.765 217.544 255.261C217.056 254.749 216.788 254.053 216.74 253.173L216.728 252.765L216.74 252.369C216.796 251.505 217.068 250.817 217.556 250.305C218.052 249.793 218.704 249.537 219.512 249.537C220.4 249.537 221.088 249.821 221.576 250.389C222.064 250.949 222.308 251.709 222.308 252.669V252.873C222.308 252.953 222.28 253.021 222.224 253.077C222.176 253.125 222.112 253.149 222.032 253.149H217.88V253.257C217.904 253.777 218.06 254.221 218.348 254.589C218.644 254.949 219.032 255.129 219.512 255.129C219.88 255.129 220.18 255.057 220.412 254.913C220.652 254.761 220.828 254.605 220.94 254.445C221.012 254.349 221.064 254.293 221.096 254.277C221.136 254.253 221.204 254.241 221.3 254.241H221.888C221.96 254.241 222.02 254.261 222.068 254.301C222.116 254.341 222.14 254.397 222.14 254.469C222.14 254.645 222.028 254.857 221.804 255.105C221.588 255.353 221.28 255.569 220.88 255.753C220.488 255.929 220.036 256.017 219.524 256.017ZM221.168 252.321V252.285C221.168 251.733 221.016 251.285 220.712 250.941C220.416 250.589 220.016 250.413 219.512 250.413C219.008 250.413 218.608 250.589 218.312 250.941C218.024 251.285 217.88 251.733 217.88 252.285V252.321H221.168ZM229.373 256.017C228.741 256.017 228.193 255.917 227.729 255.717C227.273 255.509 226.925 255.241 226.685 254.913C226.453 254.585 226.329 254.241 226.313 253.881C226.313 253.809 226.337 253.753 226.385 253.713C226.433 253.665 226.493 253.641 226.565 253.641H227.153C227.321 253.641 227.433 253.729 227.489 253.905C227.593 254.305 227.817 254.589 228.161 254.757C228.505 254.917 228.909 254.997 229.373 254.997C229.941 254.997 230.393 254.865 230.729 254.601C231.065 254.329 231.233 253.941 231.233 253.437C231.233 252.469 230.645 251.985 229.469 251.985H228.329C228.249 251.985 228.181 251.961 228.125 251.913C228.077 251.857 228.053 251.789 228.053 251.709V251.385C228.053 251.273 228.097 251.165 228.185 251.061L230.513 248.517H226.973C226.893 248.517 226.825 248.493 226.769 248.445C226.721 248.389 226.697 248.321 226.697 248.241V247.785C226.697 247.705 226.721 247.637 226.769 247.581C226.825 247.525 226.893 247.497 226.973 247.497H231.761C231.849 247.497 231.917 247.525 231.965 247.581C232.021 247.629 232.049 247.697 232.049 247.785V248.217C232.049 248.313 232.005 248.405 231.917 248.493L229.601 251.073L229.793 251.085C230.609 251.109 231.253 251.321 231.725 251.721C232.197 252.121 232.433 252.705 232.433 253.473C232.433 253.993 232.301 254.445 232.037 254.829C231.773 255.213 231.409 255.509 230.945 255.717C230.481 255.917 229.957 256.017 229.373 256.017Z" fill="white"/>
<path fill-rule="evenodd" clip-rule="evenodd" d="M67.0911 197.043C87.7308 197.043 104.463 214.134 104.463 235.217C104.463 256.299 87.7308 273.389 67.0911 273.389C46.4526 273.389 29.7205 256.299 29.7205 235.217C29.7208 214.134 46.4526 197.043 67.0911 197.043Z" fill="#6A5BC6"/>
<path d="M47.8604 255.635C47.1964 255.635 46.6204 255.531 46.1324 255.323C45.6524 255.115 45.2844 254.843 45.0284 254.507C44.7724 254.163 44.6364 253.795 44.6204 253.403C44.6204 253.339 44.6444 253.283 44.6924 253.235C44.7484 253.179 44.8124 253.151 44.8844 253.151H45.4964C45.6484 253.151 45.7524 253.231 45.8084 253.391C45.8804 253.727 46.0844 254.015 46.4204 254.255C46.7644 254.495 47.2444 254.615 47.8604 254.615C48.5244 254.615 49.0244 254.499 49.3604 254.267C49.6964 254.027 49.8644 253.695 49.8644 253.271C49.8644 252.999 49.7804 252.779 49.6124 252.611C49.4524 252.443 49.2124 252.295 48.8924 252.167C48.5724 252.039 48.0924 251.879 47.4524 251.687C46.8284 251.511 46.3324 251.323 45.9644 251.123C45.5964 250.923 45.3204 250.675 45.1364 250.379C44.9524 250.083 44.8604 249.711 44.8604 249.263C44.8604 248.831 44.9764 248.443 45.2084 248.099C45.4484 247.755 45.7884 247.487 46.2284 247.295C46.6684 247.095 47.1924 246.995 47.8004 246.995C48.4244 246.995 48.9604 247.107 49.4084 247.331C49.8564 247.547 50.1964 247.823 50.4284 248.159C50.6604 248.495 50.7844 248.831 50.8004 249.167C50.8004 249.231 50.7764 249.287 50.7284 249.335C50.6884 249.383 50.6284 249.407 50.5484 249.407H49.9124C49.7444 249.407 49.6404 249.331 49.6004 249.179C49.5524 248.843 49.3644 248.567 49.0364 248.351C48.7084 248.127 48.2964 248.015 47.8004 248.015C47.2564 248.015 46.8284 248.119 46.5164 248.327C46.2044 248.535 46.0484 248.843 46.0484 249.251C46.0484 249.523 46.1204 249.747 46.2644 249.923C46.4164 250.099 46.6444 250.255 46.9484 250.391C47.2524 250.519 47.6964 250.667 48.2804 250.835C48.9604 251.019 49.4964 251.211 49.8884 251.411C50.2804 251.603 50.5724 251.847 50.7644 252.143C50.9564 252.431 51.0524 252.799 51.0524 253.247C51.0524 253.991 50.7644 254.575 50.1884 254.999C49.6124 255.423 48.8364 255.635 47.8604 255.635ZM54.9052 255.515C53.6412 255.515 53.0092 254.811 53.0092 253.403V250.235H52.0732C51.9932 250.235 51.9252 250.211 51.8692 250.163C51.8212 250.107 51.7972 250.039 51.7972 249.959V249.551C51.7972 249.471 51.8212 249.407 51.8692 249.359C51.9252 249.303 51.9932 249.275 52.0732 249.275H53.0092V247.271C53.0092 247.191 53.0332 247.127 53.0812 247.079C53.1372 247.023 53.2052 246.995 53.2852 246.995H53.8492C53.9292 246.995 53.9932 247.023 54.0412 247.079C54.0972 247.127 54.1252 247.191 54.1252 247.271V249.275H55.6132C55.6932 249.275 55.7572 249.303 55.8052 249.359C55.8612 249.407 55.8892 249.471 55.8892 249.551V249.959C55.8892 250.039 55.8612 250.107 55.8052 250.163C55.7572 250.211 55.6932 250.235 55.6132 250.235H54.1252V253.319C54.1252 253.719 54.1932 254.023 54.3292 254.231C54.4652 254.431 54.6892 254.531 55.0012 254.531H55.7332C55.8132 254.531 55.8772 254.559 55.9252 254.615C55.9812 254.663 56.0092 254.727 56.0092 254.807V255.239C56.0092 255.319 55.9812 255.387 55.9252 255.443C55.8772 255.491 55.8132 255.515 55.7332 255.515H54.9052ZM58.8967 255.635C58.5047 255.635 58.1407 255.555 57.8047 255.395C57.4687 255.235 57.2007 255.019 57.0007 254.747C56.8087 254.467 56.7127 254.159 56.7127 253.823C56.7127 253.295 56.9287 252.863 57.3607 252.527C57.8007 252.183 58.3927 251.959 59.1367 251.855L60.9247 251.603V251.255C60.9247 250.439 60.4567 250.031 59.5207 250.031C59.1687 250.031 58.8807 250.107 58.6567 250.259C58.4327 250.403 58.2647 250.575 58.1527 250.775C58.1287 250.847 58.0967 250.899 58.0567 250.931C58.0247 250.963 57.9767 250.979 57.9127 250.979H57.3967C57.3247 250.979 57.2607 250.955 57.2047 250.907C57.1567 250.851 57.1327 250.787 57.1327 250.715C57.1407 250.523 57.2287 250.307 57.3967 250.067C57.5727 249.819 57.8407 249.607 58.2007 249.431C58.5607 249.247 59.0047 249.155 59.5327 249.155C60.4287 249.155 61.0727 249.367 61.4647 249.791C61.8567 250.207 62.0527 250.727 62.0527 251.351V255.239C62.0527 255.319 62.0247 255.387 61.9687 255.443C61.9207 255.491 61.8567 255.515 61.7767 255.515H61.2247C61.1447 255.515 61.0767 255.491 61.0207 255.443C60.9727 255.387 60.9487 255.319 60.9487 255.239V254.723C60.7727 254.979 60.5167 255.195 60.1807 255.371C59.8447 255.547 59.4167 255.635 58.8967 255.635ZM59.1487 254.735C59.6687 254.735 60.0927 254.567 60.4207 254.231C60.7567 253.887 60.9247 253.395 60.9247 252.755V252.419L59.5327 252.623C58.9647 252.703 58.5367 252.839 58.2487 253.031C57.9607 253.215 57.8167 253.451 57.8167 253.739C57.8167 254.059 57.9487 254.307 58.2127 254.483C58.4767 254.651 58.7887 254.735 59.1487 254.735ZM66.3338 258.155C65.6778 258.155 65.1498 258.043 64.7498 257.819C64.3498 257.603 64.0658 257.355 63.8978 257.075C63.7298 256.795 63.6378 256.543 63.6218 256.319C63.6138 256.239 63.6378 256.171 63.6938 256.115C63.7578 256.059 63.8258 256.031 63.8978 256.031H64.4738C64.5458 256.031 64.6058 256.047 64.6538 256.079C64.7018 256.119 64.7418 256.187 64.7738 256.283C64.8698 256.539 65.0258 256.759 65.2418 256.943C65.4658 257.135 65.8098 257.231 66.2738 257.231C66.8658 257.231 67.3018 257.103 67.5818 256.847C67.8618 256.599 68.0018 256.155 68.0018 255.515V254.699C67.7938 254.963 67.5298 255.175 67.2098 255.335C66.8898 255.487 66.5098 255.563 66.0698 255.563C65.2218 255.563 64.5858 255.295 64.1618 254.759C63.7458 254.215 63.5258 253.527 63.5018 252.695L63.4898 252.359L63.5018 252.035C63.5258 251.211 63.7498 250.527 64.1738 249.983C64.5978 249.431 65.2298 249.155 66.0698 249.155C66.9098 249.155 67.5658 249.463 68.0378 250.079V249.563C68.0378 249.483 68.0618 249.415 68.1098 249.359C68.1658 249.303 68.2338 249.275 68.3138 249.275H68.8658C68.9458 249.275 69.0138 249.303 69.0698 249.359C69.1258 249.415 69.1538 249.483 69.1538 249.563V255.383C69.1538 257.231 68.2138 258.155 66.3338 258.155ZM66.3098 254.603C66.8538 254.603 67.2658 254.423 67.5458 254.063C67.8258 253.703 67.9778 253.275 68.0018 252.779C68.0098 252.707 68.0138 252.567 68.0138 252.359C68.0138 252.159 68.0098 252.023 68.0018 251.951C67.9778 251.455 67.8258 251.027 67.5458 250.667C67.2738 250.307 66.8618 250.127 66.3098 250.127C65.7418 250.127 65.3298 250.303 65.0738 250.655C64.8178 251.007 64.6778 251.471 64.6538 252.047L64.6418 252.359L64.6538 252.683C64.6778 253.251 64.8178 253.715 65.0738 254.075C65.3298 254.427 65.7418 254.603 66.3098 254.603ZM73.434 255.635C72.61 255.635 71.95 255.383 71.454 254.879C70.966 254.367 70.698 253.671 70.65 252.791L70.638 252.383L70.65 251.987C70.706 251.123 70.978 250.435 71.466 249.923C71.962 249.411 72.614 249.155 73.422 249.155C74.31 249.155 74.998 249.439 75.486 250.007C75.974 250.567 76.218 251.327 76.218 252.287V252.491C76.218 252.571 76.19 252.639 76.134 252.695C76.086 252.743 76.022 252.767 75.942 252.767H71.79V252.875C71.814 253.395 71.97 253.839 72.258 254.207C72.554 254.567 72.942 254.747 73.422 254.747C73.79 254.747 74.09 254.675 74.322 254.531C74.562 254.379 74.738 254.223 74.85 254.063C74.922 253.967 74.974 253.911 75.006 253.895C75.046 253.871 75.114 253.859 75.21 253.859H75.798C75.87 253.859 75.93 253.879 75.978 253.919C76.026 253.959 76.05 254.015 76.05 254.087C76.05 254.263 75.938 254.475 75.714 254.723C75.498 254.971 75.19 255.187 74.79 255.371C74.398 255.547 73.946 255.635 73.434 255.635ZM75.078 251.939V251.903C75.078 251.351 74.926 250.903 74.622 250.559C74.326 250.207 73.926 250.031 73.422 250.031C72.918 250.031 72.518 250.207 72.222 250.559C71.934 250.903 71.79 251.351 71.79 251.903V251.939H75.078ZM84.5182 255.515C84.4382 255.515 84.3702 255.491 84.3142 255.443C84.2662 255.387 84.2422 255.319 84.2422 255.239V253.511H80.3542C80.2742 253.511 80.2062 253.487 80.1502 253.439C80.1022 253.383 80.0782 253.315 80.0782 253.235V252.755C80.0782 252.635 80.1222 252.515 80.2102 252.395L83.8102 247.319C83.8502 247.255 83.9102 247.207 83.9902 247.175C84.0702 247.135 84.1582 247.115 84.2542 247.115H85.1182C85.1982 247.115 85.2622 247.143 85.3102 247.199C85.3662 247.247 85.3942 247.311 85.3942 247.391V252.467H86.4742C86.5542 252.467 86.6222 252.495 86.6782 252.551C86.7342 252.599 86.7622 252.663 86.7622 252.743V253.235C86.7622 253.315 86.7342 253.383 86.6782 253.439C86.6302 253.487 86.5662 253.511 86.4862 253.511H85.3942V255.239C85.3942 255.319 85.3662 255.387 85.3102 255.443C85.2622 255.491 85.1982 255.515 85.1182 255.515H84.5182ZM84.2542 252.491V248.375L81.3622 252.491H84.2542Z" fill="white"/>
<g clip-path="url(#clip0)">
<path d="M68.4181 228.98H67.8297V225.341V224.871H70.2495C70.5844 224.871 70.8583 224.593 70.8583 224.252C70.8583 223.911 70.5844 223.632 70.2495 223.632H67.8297V217.583L69.0927 218.868C69.3311 219.111 69.7167 219.111 69.9551 218.868C70.1935 218.625 70.1935 218.233 69.9551 217.99L67.657 215.652C67.5404 215.534 67.3881 215.472 67.2259 215.472C67.0636 215.472 66.9114 215.539 66.7947 215.652L64.4916 217.996C64.2532 218.239 64.2532 218.631 64.4916 218.873C64.6083 218.992 64.7655 219.054 64.9228 219.054C65.08 219.054 65.2323 218.992 65.354 218.873L66.612 217.588V223.633H66.0235C64.2378 223.633 62.787 225.109 62.787 226.926C62.787 228.743 64.2378 230.219 66.0235 230.219H66.612V233.801V234.328H64.1111C63.7761 234.328 63.5022 234.607 63.5022 234.947C63.5022 235.288 63.7761 235.567 64.1111 235.567H66.612V237.534C66.612 237.875 66.8859 238.153 67.2208 238.153C67.5558 238.153 67.8297 237.875 67.8297 237.534V235.567H68.4181C70.2039 235.567 71.6546 234.091 71.6546 232.274C71.6546 230.457 70.2035 228.98 68.4181 228.98ZM66.0235 228.98C64.9124 228.98 64.0045 228.057 64.0045 226.926C64.0045 225.795 64.9124 224.871 66.0235 224.871H66.612V225.341V228.98H66.0235ZM68.4181 234.328H67.8297V233.802V230.219H68.4181C69.5293 230.219 70.4372 231.143 70.4372 232.274C70.4369 233.409 69.534 234.328 68.4181 234.328Z" fill="white"/>
<path d="M76.9759 228.691H76.6463V225.986V225.754H78.4066C78.7415 225.754 79.0155 225.475 79.0155 225.135C79.0155 224.794 78.7415 224.515 78.4066 224.515H76.6463V220.246L77.4021 221.015C77.6405 221.258 78.026 221.258 78.2644 221.015C78.5028 220.773 78.5028 220.38 78.2644 220.138L76.4686 218.311C76.2303 218.068 75.8447 218.068 75.6063 218.311L73.8055 220.143C73.5671 220.386 73.5671 220.778 73.8055 221.02C73.9222 221.139 74.0794 221.201 74.2367 221.201C74.3939 221.201 74.5461 221.139 74.6678 221.02L75.4236 220.251V224.51H75.094C73.6278 224.51 72.4308 225.723 72.4308 227.22C72.4308 228.716 73.6231 229.93 75.094 229.93H75.4236V232.593V232.867H73.6127C73.2777 232.867 73.0038 233.145 73.0038 233.486C73.0038 233.827 73.2777 234.106 73.6127 234.106H75.434V235.51C75.434 235.85 75.7079 236.129 76.0428 236.129C76.3778 236.129 76.6517 235.85 76.6517 235.51V234.106H76.9813C78.4475 234.106 79.6445 232.893 79.6445 231.396C79.6445 229.9 78.4472 228.691 76.9759 228.691ZM75.104 228.691C74.3077 228.691 73.6583 228.03 73.6583 227.22C73.6583 226.41 74.3077 225.749 75.104 225.749H75.4336V225.981V228.686H75.104V228.691ZM76.9759 232.867H76.6463V232.594V229.93H76.9759C77.7722 229.93 78.4217 230.591 78.4217 231.401C78.4217 232.207 77.7726 232.867 76.9759 232.867Z" fill="white"/>
<path d="M59.3376 228.691H59.008V225.986V225.754H60.7683C61.1032 225.754 61.3772 225.475 61.3772 225.135C61.3772 224.794 61.1032 224.515 60.7683 224.515H59.008V220.246L59.7638 221.015C60.0022 221.258 60.3877 221.258 60.6261 221.015C60.8645 220.773 60.8645 220.38 60.6261 220.138L58.8354 218.316C58.597 218.073 58.2114 218.073 57.973 218.316L56.1719 220.148C55.9335 220.391 55.9335 220.783 56.1719 221.026C56.2885 221.145 56.4458 221.207 56.603 221.207C56.7603 221.207 56.9125 221.145 57.0342 221.026L57.7899 220.257V224.515H57.4604C55.9945 224.515 54.7972 225.729 54.7972 227.225C54.7972 228.722 55.9895 229.935 57.4604 229.935H57.7899V232.593V232.867H55.974C55.6391 232.867 55.3652 233.146 55.3652 233.487C55.3652 233.827 55.6391 234.106 55.974 234.106H57.7953V235.51C57.7953 235.851 58.0692 236.13 58.4042 236.13C58.7391 236.13 59.0131 235.851 59.0131 235.51V234.106H59.3426C60.8088 234.106 62.0058 232.893 62.0058 231.396C62.0058 229.9 60.8035 228.691 59.3376 228.691ZM57.4654 228.691C56.6691 228.691 56.0196 228.03 56.0196 227.22C56.0196 226.41 56.6691 225.749 57.4654 225.749H57.795V225.981V228.686H57.4654V228.691ZM59.3376 232.867H59.008V232.594V229.93H59.3376C60.1339 229.93 60.7834 230.591 60.7834 231.401C60.7834 232.207 60.1339 232.867 59.3376 232.867Z" fill="white"/>
</g>
<path fill-rule="evenodd" clip-rule="evenodd" d="M37.8362 80.3293C58.7324 80.3293 75.672 97.5259 75.672 118.739C75.672 139.952 58.7324 157.148 37.8362 157.148C16.9397 157.148 0 139.952 0 118.739C0.000339792 97.5259 16.9397 80.3293 37.8362 80.3293Z" fill="#4325A4"/>
<path d="M19.9974 136.559C19.3334 136.559 18.7574 136.455 18.2694 136.247C17.7894 136.039 17.4214 135.767 17.1654 135.431C16.9094 135.087 16.7734 134.719 16.7574 134.327C16.7574 134.263 16.7814 134.207 16.8294 134.159C16.8854 134.103 16.9494 134.075 17.0214 134.075H17.6334C17.7854 134.075 17.8894 134.155 17.9454 134.315C18.0174 134.651 18.2214 134.939 18.5574 135.179C18.9014 135.419 19.3814 135.539 19.9974 135.539C20.6614 135.539 21.1614 135.423 21.4974 135.191C21.8334 134.951 22.0014 134.619 22.0014 134.195C22.0014 133.923 21.9174 133.703 21.7494 133.535C21.5894 133.367 21.3494 133.219 21.0294 133.091C20.7094 132.963 20.2294 132.803 19.5894 132.611C18.9654 132.435 18.4694 132.247 18.1014 132.047C17.7334 131.847 17.4574 131.599 17.2734 131.303C17.0894 131.007 16.9974 130.635 16.9974 130.187C16.9974 129.755 17.1134 129.367 17.3454 129.023C17.5854 128.679 17.9254 128.411 18.3654 128.219C18.8054 128.019 19.3294 127.919 19.9374 127.919C20.5614 127.919 21.0974 128.031 21.5454 128.255C21.9934 128.471 22.3334 128.747 22.5654 129.083C22.7974 129.419 22.9214 129.755 22.9374 130.091C22.9374 130.155 22.9134 130.211 22.8654 130.259C22.8254 130.307 22.7654 130.331 22.6854 130.331H22.0494C21.8814 130.331 21.7774 130.255 21.7374 130.103C21.6894 129.767 21.5014 129.491 21.1734 129.275C20.8454 129.051 20.4334 128.939 19.9374 128.939C19.3934 128.939 18.9654 129.043 18.6534 129.251C18.3414 129.459 18.1854 129.767 18.1854 130.175C18.1854 130.447 18.2574 130.671 18.4014 130.847C18.5534 131.023 18.7814 131.179 19.0854 131.315C19.3894 131.443 19.8334 131.591 20.4174 131.759C21.0974 131.943 21.6334 132.135 22.0254 132.335C22.4174 132.527 22.7094 132.771 22.9014 133.067C23.0934 133.355 23.1894 133.723 23.1894 134.171C23.1894 134.915 22.9014 135.499 22.3254 135.923C21.7494 136.347 20.9734 136.559 19.9974 136.559ZM27.0422 136.439C25.7782 136.439 25.1462 135.735 25.1462 134.327V131.159H24.2102C24.1302 131.159 24.0622 131.135 24.0062 131.087C23.9582 131.031 23.9342 130.963 23.9342 130.883V130.475C23.9342 130.395 23.9582 130.331 24.0062 130.283C24.0622 130.227 24.1302 130.199 24.2102 130.199H25.1462V128.195C25.1462 128.115 25.1702 128.051 25.2182 128.003C25.2742 127.947 25.3422 127.919 25.4222 127.919H25.9862C26.0662 127.919 26.1302 127.947 26.1782 128.003C26.2342 128.051 26.2622 128.115 26.2622 128.195V130.199H27.7502C27.8302 130.199 27.8942 130.227 27.9422 130.283C27.9982 130.331 28.0262 130.395 28.0262 130.475V130.883C28.0262 130.963 27.9982 131.031 27.9422 131.087C27.8942 131.135 27.8302 131.159 27.7502 131.159H26.2622V134.243C26.2622 134.643 26.3302 134.947 26.4662 135.155C26.6022 135.355 26.8262 135.455 27.1382 135.455H27.8702C27.9502 135.455 28.0142 135.483 28.0622 135.539C28.1182 135.587 28.1462 135.651 28.1462 135.731V136.163C28.1462 136.243 28.1182 136.311 28.0622 136.367C28.0142 136.415 27.9502 136.439 27.8702 136.439H27.0422ZM31.0337 136.559C30.6417 136.559 30.2777 136.479 29.9417 136.319C29.6057 136.159 29.3377 135.943 29.1377 135.671C28.9457 135.391 28.8497 135.083 28.8497 134.747C28.8497 134.219 29.0657 133.787 29.4977 133.451C29.9377 133.107 30.5297 132.883 31.2737 132.779L33.0617 132.527V132.179C33.0617 131.363 32.5937 130.955 31.6577 130.955C31.3057 130.955 31.0177 131.031 30.7937 131.183C30.5697 131.327 30.4017 131.499 30.2897 131.699C30.2657 131.771 30.2337 131.823 30.1937 131.855C30.1617 131.887 30.1137 131.903 30.0497 131.903H29.5337C29.4617 131.903 29.3977 131.879 29.3417 131.831C29.2937 131.775 29.2697 131.711 29.2697 131.639C29.2777 131.447 29.3657 131.231 29.5337 130.991C29.7097 130.743 29.9777 130.531 30.3377 130.355C30.6977 130.171 31.1417 130.079 31.6697 130.079C32.5657 130.079 33.2097 130.291 33.6017 130.715C33.9937 131.131 34.1897 131.651 34.1897 132.275V136.163C34.1897 136.243 34.1617 136.311 34.1057 136.367C34.0577 136.415 33.9937 136.439 33.9137 136.439H33.3617C33.2817 136.439 33.2137 136.415 33.1577 136.367C33.1097 136.311 33.0857 136.243 33.0857 136.163V135.647C32.9097 135.903 32.6537 136.119 32.3177 136.295C31.9817 136.471 31.5537 136.559 31.0337 136.559ZM31.2857 135.659C31.8057 135.659 32.2297 135.491 32.5577 135.155C32.8937 134.811 33.0617 134.319 33.0617 133.679V133.343L31.6697 133.547C31.1017 133.627 30.6737 133.763 30.3857 133.955C30.0977 134.139 29.9537 134.375 29.9537 134.663C29.9537 134.983 30.0857 135.231 30.3497 135.407C30.6137 135.575 30.9257 135.659 31.2857 135.659ZM38.4708 139.079C37.8148 139.079 37.2868 138.967 36.8868 138.743C36.4868 138.527 36.2028 138.279 36.0348 137.999C35.8668 137.719 35.7748 137.467 35.7588 137.243C35.7508 137.163 35.7748 137.095 35.8308 137.039C35.8948 136.983 35.9628 136.955 36.0348 136.955H36.6108C36.6828 136.955 36.7428 136.971 36.7908 137.003C36.8388 137.043 36.8788 137.111 36.9108 137.207C37.0068 137.463 37.1628 137.683 37.3788 137.867C37.6028 138.059 37.9468 138.155 38.4108 138.155C39.0028 138.155 39.4388 138.027 39.7188 137.771C39.9988 137.523 40.1388 137.079 40.1388 136.439V135.623C39.9308 135.887 39.6668 136.099 39.3468 136.259C39.0268 136.411 38.6468 136.487 38.2068 136.487C37.3588 136.487 36.7228 136.219 36.2988 135.683C35.8828 135.139 35.6628 134.451 35.6388 133.619L35.6268 133.283L35.6388 132.959C35.6628 132.135 35.8868 131.451 36.3108 130.907C36.7348 130.355 37.3668 130.079 38.2068 130.079C39.0468 130.079 39.7028 130.387 40.1748 131.003V130.487C40.1748 130.407 40.1988 130.339 40.2468 130.283C40.3028 130.227 40.3708 130.199 40.4508 130.199H41.0028C41.0828 130.199 41.1508 130.227 41.2068 130.283C41.2628 130.339 41.2908 130.407 41.2908 130.487V136.307C41.2908 138.155 40.3508 139.079 38.4708 139.079ZM38.4468 135.527C38.9908 135.527 39.4028 135.347 39.6828 134.987C39.9628 134.627 40.1148 134.199 40.1388 133.703C40.1468 133.631 40.1508 133.491 40.1508 133.283C40.1508 133.083 40.1468 132.947 40.1388 132.875C40.1148 132.379 39.9628 131.951 39.6828 131.591C39.4108 131.231 38.9988 131.051 38.4468 131.051C37.8788 131.051 37.4668 131.227 37.2108 131.579C36.9548 131.931 36.8148 132.395 36.7908 132.971L36.7788 133.283L36.7908 133.607C36.8148 134.175 36.9548 134.639 37.2108 134.999C37.4668 135.351 37.8788 135.527 38.4468 135.527ZM45.571 136.559C44.747 136.559 44.087 136.307 43.591 135.803C43.103 135.291 42.835 134.595 42.787 133.715L42.775 133.307L42.787 132.911C42.843 132.047 43.115 131.359 43.603 130.847C44.099 130.335 44.751 130.079 45.559 130.079C46.447 130.079 47.135 130.363 47.623 130.931C48.111 131.491 48.355 132.251 48.355 133.211V133.415C48.355 133.495 48.327 133.563 48.271 133.619C48.223 133.667 48.159 133.691 48.079 133.691H43.927V133.799C43.951 134.319 44.107 134.763 44.395 135.131C44.691 135.491 45.079 135.671 45.559 135.671C45.927 135.671 46.227 135.599 46.459 135.455C46.699 135.303 46.875 135.147 46.987 134.987C47.059 134.891 47.111 134.835 47.143 134.819C47.183 134.795 47.251 134.783 47.347 134.783H47.935C48.007 134.783 48.067 134.803 48.115 134.843C48.163 134.883 48.187 134.939 48.187 135.011C48.187 135.187 48.075 135.399 47.851 135.647C47.635 135.895 47.327 136.111 46.927 136.295C46.535 136.471 46.083 136.559 45.571 136.559ZM47.215 132.863V132.827C47.215 132.275 47.063 131.827 46.759 131.483C46.463 131.131 46.063 130.955 45.559 130.955C45.055 130.955 44.655 131.131 44.359 131.483C44.071 131.827 43.927 132.275 43.927 132.827V132.863H47.215ZM55.3472 136.559C54.7392 136.559 54.2152 136.451 53.7752 136.235C53.3352 136.019 52.9952 135.735 52.7552 135.383C52.5232 135.031 52.3992 134.655 52.3832 134.255V134.231C52.3832 134.167 52.4072 134.115 52.4552 134.075C52.5032 134.035 52.5592 134.015 52.6232 134.015H53.2712C53.4392 134.015 53.5472 134.103 53.5952 134.279C53.7072 134.703 53.9232 135.019 54.2432 135.227C54.5632 135.435 54.9312 135.539 55.3472 135.539C55.8832 135.539 56.3272 135.379 56.6792 135.059C57.0392 134.731 57.2192 134.279 57.2192 133.703C57.2192 133.183 57.0392 132.763 56.6792 132.443C56.3272 132.123 55.8832 131.963 55.3472 131.963C55.0592 131.963 54.8272 132.003 54.6512 132.083C54.4752 132.155 54.2992 132.259 54.1232 132.395C54.0272 132.467 53.9432 132.523 53.8712 132.563C53.8072 132.595 53.7352 132.611 53.6552 132.611H53.0312C52.9592 132.611 52.8952 132.587 52.8392 132.539C52.7832 132.483 52.7592 132.419 52.7672 132.347L53.1512 128.339C53.1592 128.243 53.1872 128.171 53.2352 128.123C53.2912 128.067 53.3632 128.039 53.4512 128.039H57.6392C57.7192 128.039 57.7832 128.067 57.8312 128.123C57.8872 128.171 57.9152 128.235 57.9152 128.315V128.783C57.9152 128.863 57.8872 128.931 57.8312 128.987C57.7832 129.035 57.7192 129.059 57.6392 129.059H54.1832L53.9552 131.423C54.3872 131.151 54.9072 131.015 55.5152 131.015C56.0432 131.015 56.5272 131.123 56.9672 131.339C57.4152 131.555 57.7672 131.867 58.0232 132.275C58.2872 132.683 58.4192 133.163 58.4192 133.715C58.4192 134.307 58.2872 134.819 58.0232 135.251C57.7672 135.675 57.4072 135.999 56.9432 136.223C56.4792 136.447 55.9472 136.559 55.3472 136.559Z" fill="white"/>
<g clip-path="url(#clip1)">
<path d="M200.949 228.815C200.839 228.815 200.73 228.82 200.626 228.825C200.537 228.829 200.451 228.833 200.348 228.833C200.345 228.833 199.962 228.829 199.773 228.829C199.414 228.829 199.055 228.833 198.696 228.837C198.338 228.841 197.979 228.845 197.621 228.845L197.25 228.843C196.194 228.843 196.183 229.192 196.156 230.123L196.152 230.271C196.112 231.521 196.085 232.992 196.189 234.413C196.192 234.444 196.201 234.468 196.209 234.49L196.256 234.479L196.225 234.535C196.271 234.637 196.36 234.695 196.47 234.695L197.586 234.696L201.742 234.695C201.896 234.695 202.023 234.567 202.024 234.41C202.029 233.979 202.04 233.548 202.051 233.117C202.067 232.522 202.083 231.928 202.08 231.333C202.08 231.217 202.086 231.076 202.093 230.921C202.119 230.336 202.154 229.534 201.85 229.131C201.639 228.851 201.257 228.815 200.949 228.815ZM199.048 229.416L199.474 229.409C199.573 229.408 199.7 229.398 199.844 229.387C200.046 229.372 200.28 229.355 200.51 229.355C201.002 229.355 201.305 229.438 201.436 229.609C201.526 229.725 201.518 230.398 201.514 230.72C201.513 230.815 201.512 230.894 201.513 230.943C201.52 231.332 201.517 231.722 201.51 232.11C201.504 232.443 201.496 232.776 201.488 233.109C201.48 233.447 201.472 233.784 201.466 234.122H196.74C196.716 233.615 196.723 233.1 196.729 232.601C196.735 232.123 196.741 231.629 196.721 231.141C196.707 230.812 196.706 230.493 196.718 230.164C196.742 229.512 196.824 229.421 197.39 229.421L197.491 229.422C197.656 229.426 197.821 229.427 197.986 229.427C198.34 229.427 198.693 229.421 199.048 229.416Z" fill="white" stroke="white" stroke-width="0.8915" stroke-miterlimit="10"/>
<path d="M207.771 223.462C207.507 223.462 207.232 223.486 206.967 223.509C206.743 223.529 206.527 223.548 206.306 223.551C206.151 223.551 205.944 223.531 205.712 223.51C205.415 223.482 205.078 223.451 204.754 223.451C203.999 223.451 203.568 223.635 203.436 224.013C203.248 224.551 203.307 225.26 203.358 225.887C203.378 226.131 203.398 226.367 203.402 226.582C203.425 227.639 203.398 228.719 203.371 229.764C203.332 231.29 203.292 232.869 203.408 234.413C203.41 234.443 203.419 234.466 203.426 234.486L203.444 234.534C203.488 234.637 203.577 234.696 203.689 234.696L204.804 234.697L208.961 234.696C209.112 234.696 209.242 234.564 209.243 234.41C209.248 233.473 209.258 232.537 209.269 231.6C209.285 230.146 209.302 228.692 209.298 227.238C209.297 226.997 209.302 226.753 209.307 226.506C209.32 225.827 209.334 225.126 209.236 224.463C209.104 223.576 208.384 223.462 207.771 223.462ZM203.963 224.307C204.011 224.218 204.032 224.165 204.05 224.125C204.071 224.127 204.101 224.131 204.15 224.131C204.19 224.131 204.243 224.129 204.314 224.12C204.44 224.104 204.57 224.098 204.702 224.098C204.87 224.098 205.042 224.107 205.212 224.116C205.379 224.125 205.545 224.134 205.75 224.134C205.753 224.134 205.756 224.134 205.759 224.134C205.937 224.132 206.166 224.11 206.418 224.087C206.742 224.057 207.109 224.023 207.449 224.023C207.922 224.023 208.248 224.09 208.444 224.228C208.853 224.515 208.793 225.68 208.754 226.45C208.743 226.657 208.734 226.84 208.734 226.977C208.74 228.279 208.729 229.579 208.717 230.88L208.697 232.676C208.696 232.797 208.706 232.942 208.716 233.094C208.737 233.415 208.761 233.779 208.685 234.014C208.675 234.044 208.668 234.068 208.663 234.09H208.657C208.616 234.09 208.565 234.102 208.5 234.125C208.374 234.173 208.201 234.196 207.971 234.196C207.751 234.196 207.513 234.175 207.29 234.155C207.094 234.138 206.91 234.122 206.761 234.122L203.954 234.123C203.862 232.667 203.899 231.177 203.934 229.736C203.956 228.854 203.978 227.942 203.971 227.048C203.969 226.855 203.942 226.595 203.911 226.294C203.838 225.584 203.746 224.702 203.963 224.307Z" fill="white" stroke="white" stroke-width="0.8915" stroke-miterlimit="10"/>
<path d="M216.51 227.601C216.524 227.163 216.542 226.617 216.332 226.288C216.133 225.977 215.727 225.825 215.091 225.825C214.823 225.825 214.556 225.85 214.321 225.872C214.192 225.885 214.075 225.896 213.977 225.901L213.606 225.921C213.186 225.943 212.751 225.967 212.319 225.968C212.221 225.968 212.11 225.958 211.992 225.949C211.858 225.938 211.718 225.926 211.581 225.926C211.376 225.926 211.221 225.952 211.095 226.007C210.62 226.218 210.619 226.617 210.619 227.04C210.619 227.115 210.618 227.192 210.616 227.27C210.527 229.834 210.468 232.141 210.626 234.412C210.628 234.444 210.638 234.47 210.663 234.536C210.708 234.637 210.797 234.695 210.907 234.695L212.021 234.696L216.179 234.695C216.331 234.695 216.46 234.564 216.461 234.409C216.466 233.69 216.478 232.97 216.49 232.251C216.513 230.845 216.537 229.391 216.504 227.962C216.502 227.856 216.506 227.733 216.51 227.601ZM211.157 228.006C211.16 227.905 211.155 227.785 211.149 227.659C211.136 227.382 211.122 227.069 211.192 226.861C211.23 226.749 211.226 226.696 211.22 226.657C211.228 226.646 211.276 226.617 211.368 226.561C211.434 226.521 211.543 226.502 211.701 226.502C211.826 226.502 211.961 226.514 212.079 226.525C212.174 226.533 212.259 226.541 212.323 226.541C212.503 226.541 212.773 226.512 213.087 226.479C213.516 226.434 214.049 226.378 214.531 226.378C215.298 226.378 215.744 226.518 215.895 226.806C216.08 227.158 216.027 227.91 215.984 228.514C215.968 228.74 215.953 228.943 215.954 229.095C215.957 230.092 215.944 231.088 215.93 232.084L215.909 233.475C215.908 233.519 215.914 233.577 215.919 233.642C215.931 233.777 215.946 233.944 215.895 234.043C215.865 234.102 215.841 234.149 215.825 234.149H215.824C215.791 234.136 215.735 234.114 215.631 234.114C215.596 234.114 215.556 234.117 215.509 234.122C215.063 234.179 214.561 234.206 213.975 234.206C213.455 234.206 212.929 234.185 212.408 234.165C211.992 234.148 211.58 234.132 211.176 234.127C211.05 232.069 211.107 229.912 211.157 228.006Z" fill="white" stroke="white" stroke-width="0.8915" stroke-miterlimit="10"/>
<path d="M223.669 220.727C223.557 219.229 223.363 219.138 221.9 219.122L221.254 219.113C220.826 219.106 220.396 219.1 219.967 219.1C219.528 219.1 219.09 219.107 218.658 219.128L218.568 219.131C218.275 219.143 218.063 219.151 217.899 219.45C217.641 219.92 217.718 220.72 217.785 221.425C217.809 221.672 217.831 221.902 217.835 222.094C217.859 223.193 217.85 224.312 217.842 225.393L217.838 225.9C217.832 226.726 217.812 227.557 217.791 228.39C217.743 230.373 217.693 232.422 217.845 234.412C217.847 234.442 217.856 234.465 217.864 234.486L217.911 234.477L217.88 234.532C217.925 234.635 218.015 234.695 218.127 234.695L219.24 234.696L223.399 234.695C223.551 234.695 223.68 234.564 223.681 234.409C223.688 233.03 223.721 231.618 223.754 230.252C223.828 227.118 223.906 223.876 223.669 220.727ZM218.356 229.385C218.369 228.771 218.383 228.157 218.388 227.547C218.399 226.216 218.388 224.864 218.378 223.556C218.37 222.676 218.363 221.797 218.363 220.918C218.362 220.644 218.372 220.368 218.39 220.096L218.398 219.988C218.415 219.723 218.415 219.723 218.575 219.714C218.622 219.712 218.679 219.708 218.75 219.701C219.105 219.663 219.506 219.644 219.974 219.644C220.402 219.644 220.834 219.659 221.259 219.674C221.542 219.684 221.821 219.694 222.093 219.698C223 219.715 223.061 219.993 223.117 220.869C223.14 221.225 223.146 221.581 223.153 221.952C223.196 224.189 223.179 226.465 223.162 228.666L223.123 233.585C223.123 233.631 223.127 233.69 223.132 233.753C223.143 233.886 223.155 234.052 223.122 234.135C223.111 234.164 223.116 234.201 223.121 234.24C222.891 234.16 222.3 234.121 222.293 234.121L221.841 234.121L218.391 234.122C218.288 232.555 218.323 230.943 218.356 229.385Z" fill="white" stroke="white" stroke-width="0.8915" stroke-miterlimit="10"/>
<path d="M213.552 220.956C213.627 220.956 213.693 220.928 213.743 220.875C215.511 218.981 217.564 217.117 220.391 214.845L220.375 214.924C220.312 215.236 220.246 215.558 220.237 215.887C220.235 215.965 220.259 216.033 220.308 216.083C220.358 216.136 220.433 216.166 220.512 216.166C220.652 216.166 220.795 216.071 220.8 215.889C220.809 215.577 220.873 215.265 220.935 214.964C220.998 214.658 221.063 214.341 221.072 214.018C221.074 213.946 221.044 213.873 220.991 213.817C220.938 213.762 220.868 213.73 220.789 213.73H220.788C220.131 213.757 219.471 213.882 218.77 214.115C218.611 214.167 218.559 214.315 218.579 214.439C218.601 214.582 218.705 214.681 218.833 214.681C218.862 214.681 218.893 214.676 218.923 214.666C219.319 214.535 219.694 214.441 220.063 214.381C218.12 215.94 216.572 217.281 215.202 218.59C215.032 218.753 214.867 218.927 214.701 219.103C214.444 219.375 214.179 219.658 213.893 219.889C213.655 220.082 213.475 220.164 213.29 220.164C213.099 220.164 212.902 220.075 212.63 219.951L212.456 219.873C211.42 219.414 210.362 218.964 209.314 218.535C209.089 218.443 208.845 218.326 208.591 218.204C207.919 217.881 207.158 217.515 206.473 217.502C205.858 217.502 205.321 218 204.847 218.44C204.724 218.554 204.607 218.663 204.494 218.757C202.653 220.295 200.77 221.952 198.894 223.682C198.809 223.761 198.783 223.865 198.822 223.969C198.866 224.084 198.983 224.167 199.102 224.167C199.17 224.167 199.235 224.141 199.29 224.09C201.216 222.314 203.155 220.61 205.054 219.028C205.657 218.525 206.221 218.281 206.778 218.281C207.018 218.281 207.259 218.327 207.495 218.42C208.119 218.664 208.741 218.914 209.361 219.169C210.654 219.701 211.976 220.274 213.405 220.923C213.454 220.945 213.504 220.956 213.552 220.956Z" fill="white" stroke="white" stroke-width="0.8915" stroke-miterlimit="10"/>
<path d="M219.212 223.274C219.292 223.274 219.365 223.243 219.412 223.19C219.457 223.139 219.477 223.071 219.469 222.993L219.464 222.944C219.337 221.709 219.375 220.967 219.578 220.739C219.616 220.695 219.66 220.674 219.711 220.674V220.63C219.712 220.63 219.714 220.63 219.715 220.63L219.761 220.676C219.922 220.676 220 220.551 220.006 220.427C220.013 220.283 219.921 220.12 219.739 220.102C219.7 220.098 219.662 220.096 219.627 220.096C219.227 220.096 218.988 220.329 218.915 220.788C218.788 221.59 218.849 222.436 218.906 223.003C218.924 223.181 219.073 223.274 219.212 223.274Z" fill="white" stroke="white" stroke-width="0.8915" stroke-miterlimit="10"/>
<path d="M220.503 220.695C220.587 220.695 220.658 220.664 220.708 220.604C220.752 220.552 220.776 220.482 220.776 220.409C220.776 220.267 220.682 220.122 220.503 220.122C220.419 220.122 220.348 220.153 220.297 220.213C220.253 220.266 220.229 220.335 220.229 220.409C220.229 220.551 220.323 220.695 220.503 220.695Z" fill="white" stroke="white" stroke-width="0.8915" stroke-miterlimit="10"/>
</g>
<path d="M27.3672 115.388L26.4698 115.375L26.4788 114.582C26.5159 110.899 26.5384 108.675 29.2162 107.658C31.4627 106.765 32.8237 105.844 32.8373 105.835L33.3323 105.498L35.139 111.459L35.4199 110.631C34.7232 109.559 34.5312 108.732 34.833 108.108C35.1857 107.378 36.043 107.289 36.3951 107.284C36.3951 107.284 36.3951 107.284 36.3954 107.284C36.6925 107.284 37.6108 107.342 37.9823 108.097C38.29 108.722 38.0996 109.553 37.4004 110.631L37.6813 111.459L39.4875 105.499L39.982 105.834C39.9956 105.844 41.3696 106.768 43.6104 107.66C46.2909 108.677 46.3091 110.907 46.3386 114.602L46.3457 115.377L45.448 115.387L45.4409 114.61C45.4119 110.988 45.3984 109.335 43.2967 108.538C41.7426 107.919 40.6023 107.295 39.9934 106.933L37.725 114.395L36.4095 110.518L35.094 114.395L34.4434 112.271L32.8259 106.933C32.2178 107.295 31.0804 107.918 29.5288 108.535C27.4285 109.333 27.4119 110.981 27.3756 114.592L27.3672 115.388ZM36.419 108.22C36.1736 108.223 35.7488 108.292 35.6338 108.53C35.5796 108.642 35.466 109.1 36.2837 110.288L36.4098 110.471L36.5353 110.288C37.3549 109.096 37.2386 108.638 37.1835 108.525C37.0651 108.284 36.6315 108.22 36.419 108.22Z" fill="white"/>
<path d="M36.4098 93.5511C39.3414 93.5511 41.7267 96.0377 41.7267 99.094C41.7267 102.153 39.3416 104.642 36.4098 104.642C33.4779 104.642 31.0929 102.155 31.0929 99.0988C31.0929 96.0399 33.4782 93.5511 36.4098 93.5511ZM34.9859 95.0277C33.9985 95.4985 33.4253 96.3531 33.3624 97.4603C33.322 98.1539 33.5018 99.1149 34.5415 99.8674C34.2915 99.8787 33.7813 99.9978 33.5617 100.743C33.4966 100.956 33.4329 101.184 33.3727 101.42C33.1881 102.142 33.4223 102.67 34.0692 102.988C34.3555 103.134 34.647 103.229 34.914 103.294C34.9384 103.971 35.4015 104.455 36.0489 104.473C36.1555 104.475 36.2623 104.476 36.3683 104.476C36.4746 104.476 36.5803 104.475 36.6888 104.472C37.3362 104.454 37.8063 103.948 37.8063 103.271C37.8063 103.216 37.8071 103.16 37.8082 103.104C38.2306 102.914 38.5923 102.629 38.8873 102.255C39.4043 101.597 39.6138 100.745 39.4615 99.9152C39.324 99.1658 38.9081 98.505 38.3063 98.0606C38.5435 97.9672 38.8219 97.7537 38.9664 97.271C39.0196 97.0976 39.0684 96.9217 39.1172 96.7452L39.1771 96.5302C39.3498 95.9171 39.0846 95.331 38.5193 95.073C38.2911 94.9681 38.0601 94.8843 37.8258 94.8224C37.7304 94.0354 37.3094 93.7197 36.4144 93.7197H36.1829H36.1666L36.1503 93.7202C35.4237 93.748 34.9994 94.1983 34.9861 94.9562L34.9859 94.9647V94.9731V95.0277V95.0277ZM36.4098 92.615C32.9783 92.615 30.1958 95.5183 30.1958 99.0988C30.1958 102.679 32.9783 105.578 36.4098 105.578C39.8413 105.578 42.6238 102.675 42.6238 99.0943C42.6238 95.5137 39.8413 92.615 36.4098 92.615ZM36.1457 101.248C36.3388 101.248 36.5277 101.211 36.7094 101.131C37.1678 100.922 37.2359 100.368 36.8501 100.037C36.7183 99.9231 36.5687 99.8428 36.4144 99.767C36.015 99.5822 35.5972 99.445 35.2161 99.208C34.6033 98.8244 34.2129 98.2985 34.2582 97.5172C34.3081 96.6362 34.7893 96.0869 35.5609 95.7932C35.8787 95.6702 35.8833 95.6747 35.8833 95.329C35.8833 95.2105 35.8833 95.0922 35.8833 94.9737C35.8879 94.7132 35.9332 94.6659 36.1829 94.6563C36.2601 94.6563 36.3371 94.6563 36.4144 94.6563C36.9501 94.6563 36.9501 94.6563 36.9501 95.2153C36.9501 95.6085 36.9501 95.613 37.327 95.6699C37.613 95.7171 37.8898 95.8074 38.1577 95.9304C38.303 95.9966 38.3618 96.1055 38.3166 96.2668C38.2485 96.5084 38.1848 96.75 38.1124 96.9867C38.0688 97.1322 38.0235 97.1961 37.943 97.1961C37.8977 97.1961 37.841 97.1757 37.7675 97.1381C37.4002 96.9548 37.0184 96.8631 36.6166 96.8631C36.5619 96.8631 36.5066 96.8648 36.451 96.8682C36.3284 96.873 36.2105 96.892 36.1015 96.944C35.7022 97.1239 35.6385 97.5834 35.979 97.8677C36.1514 98.0097 36.3466 98.1141 36.551 98.204C36.9051 98.3556 37.2592 98.5025 37.5905 98.6965C38.6571 99.3124 38.9431 100.71 38.1943 101.661C37.9218 102.007 37.5723 102.235 37.1594 102.353C36.9778 102.405 36.9008 102.504 36.9097 102.699C36.9189 102.888 36.9097 103.082 36.9097 103.272C36.9097 103.442 36.8281 103.532 36.6646 103.537C36.567 103.539 36.4683 103.541 36.3691 103.541C36.2699 103.541 36.1698 103.54 36.0701 103.537C35.8976 103.532 35.8158 103.433 35.8114 103.253C35.8114 103.111 35.8068 102.973 35.8068 102.831C35.8022 102.523 35.7933 102.509 35.5118 102.462C35.1488 102.4 34.7901 102.315 34.4588 102.144C34.1956 102.017 34.1682 101.945 34.2408 101.661C34.2953 101.448 34.3544 101.235 34.4179 101.027C34.4637 100.872 34.5057 100.803 34.5852 100.803C34.6318 100.803 34.6912 100.827 34.772 100.871C35.1396 101.069 35.53 101.183 35.9432 101.235C36.0104 101.244 36.0782 101.248 36.1457 101.248Z" fill="white"/>
<g clip-path="url(#clip2)">
<path d="M139.038 23.7695H138.987C138.871 23.7695 138.778 23.8649 138.778 23.983V24.2427C138.461 24.3316 138.161 24.6253 138.161 25.0158C138.161 25.4814 138.565 25.6222 138.921 25.746C139.29 25.8746 139.445 25.9584 139.445 26.1424C139.445 26.4086 139.173 26.4796 139.013 26.4796C138.85 26.4796 138.65 26.4326 138.596 26.3551C138.572 26.3205 138.556 26.2535 138.548 26.1551C138.539 26.0443 138.448 25.9589 138.339 25.9589H138.297C138.241 25.9589 138.187 25.9816 138.148 26.0222C138.108 26.0624 138.086 26.1173 138.087 26.174L138.09 26.5937C138.091 26.6888 138.153 26.7718 138.243 26.7974C138.252 26.8001 138.264 26.8028 138.277 26.8055L138.287 26.8077C138.474 26.8609 138.643 26.9069 138.778 26.9242V27.2774C138.778 27.3952 138.872 27.4906 138.987 27.4906H139.038C139.154 27.4906 139.247 27.3952 139.247 27.2774V26.9163C139.596 26.8418 139.927 26.5477 139.927 26.1335C139.927 25.6225 139.481 25.4636 139.122 25.3358C138.785 25.2158 138.644 25.1423 138.644 24.9983C138.644 24.7418 138.904 24.674 139.042 24.674C139.306 24.674 139.361 24.7832 139.361 24.9472V24.9599C139.361 25.0777 139.455 25.1734 139.57 25.1734H139.624C139.74 25.1734 139.834 25.078 139.834 24.9602L139.834 24.5899C139.834 24.5302 139.809 24.4729 139.766 24.4327C139.635 24.31 139.464 24.2416 139.247 24.2254V23.9827C139.247 23.8652 139.153 23.7695 139.038 23.7695Z" fill="white"/>
<path d="M145.898 37.8021H132.117C131.645 37.8021 131.26 37.4108 131.26 36.9295V28.7794C131.26 28.2984 131.645 27.9071 132.117 27.9071H136.449C135.947 27.3007 135.664 26.5284 135.664 25.7183C135.664 24.5382 136.27 23.4476 137.241 22.8309C136.884 22.3888 136.62 22.0145 136.607 21.9951L136.59 21.9691C136.371 21.5884 136.231 21.1844 136.172 20.7631C135.172 21.3241 132.862 22.6028 131.992 22.942C131.344 23.1952 130.006 23.2995 129.646 22.6082C129.236 21.8194 130.484 20.9361 130.894 20.6456C131.281 20.3713 131.896 19.9179 132.608 19.3925C135.675 17.1302 138.274 15.2416 139.025 15.0505C139.851 14.84 141.869 15.0467 143.65 15.2289C144.586 15.3248 145.47 15.4161 145.803 15.3959C146.715 15.3432 148.757 14.6495 149.819 14.1758L150.089 14.8016C149.003 15.2856 146.866 16.0187 145.841 16.0785C145.456 16.1009 144.63 16.0163 143.583 15.909C142.029 15.7499 139.901 15.5318 139.188 15.7136C138.503 15.8882 135.059 18.4286 133.002 19.9465C132.287 20.4737 131.67 20.929 131.277 21.2071C130.194 21.9735 130.238 22.2864 130.239 22.2888C130.321 22.4456 131.105 22.5561 131.752 22.3045C132.807 21.8929 136.277 19.923 136.312 19.9033L136.828 19.6101L136.811 20.2113C136.797 20.7061 136.915 21.1771 137.162 21.6114C137.223 21.697 137.591 22.211 138.017 22.7077L138.313 23.0533L137.903 23.2435C136.951 23.6854 136.335 24.6571 136.335 25.7191C136.335 26.6179 136.773 27.4586 137.506 27.9674L138.405 28.5916H132.117C132.015 28.5916 131.932 28.6762 131.932 28.7802V36.9303C131.932 37.0346 132.015 37.1192 132.117 37.1192H145.898C146 37.1192 146.084 37.0346 146.084 36.9303V28.7802C146.084 28.6762 146.001 28.5916 145.898 28.5916H139.61L140.509 27.9674C141.242 27.4586 141.68 26.6179 141.68 25.7191C141.68 25.0697 141.45 24.4412 141.033 23.9475L140.71 23.5932L141.111 23.3903C141.338 23.2749 141.578 23.1252 141.855 22.9517C142.44 22.5861 143.237 22.0872 144.525 21.546L146.504 19.5282L151.082 18.5964L151.213 19.2666L146.835 20.1575L144.904 22.1259L144.842 22.1521C143.567 22.6823 142.813 23.1544 142.207 23.5338C142.052 23.6305 141.908 23.7205 141.77 23.8029C142.147 24.3658 142.352 25.0327 142.352 25.7188C142.352 26.5292 142.068 27.3013 141.567 27.9077H145.898C146.371 27.9077 146.756 28.299 146.756 28.78V36.93C146.755 37.4108 146.371 37.8021 145.898 37.8021ZM141.364 30.9126H136.651C136.18 30.9126 135.796 30.5221 135.796 30.0422C135.796 29.5623 136.18 29.1718 136.651 29.1718H141.364C141.836 29.1718 142.219 29.5623 142.219 30.0422C142.219 30.5221 141.836 30.9126 141.364 30.9126ZM136.651 29.8552C136.55 29.8552 136.468 29.9392 136.468 30.0422C136.468 30.1452 136.55 30.2289 136.651 30.2289H141.364C141.465 30.2289 141.548 30.1452 141.548 30.0422C141.548 29.9392 141.465 29.8552 141.364 29.8552H136.651ZM139.008 28.3149C137.601 28.3149 136.456 27.15 136.456 25.7183C136.456 24.2866 137.601 23.1217 139.008 23.1217C139.21 23.1217 139.413 23.1465 139.61 23.1954L139.867 23.2589V23.5278C139.867 23.6119 139.895 23.6381 139.906 23.6481C139.959 23.6973 140.077 23.7178 140.222 23.7035C140.282 23.6975 140.339 23.6891 140.396 23.6786L140.555 23.6486L140.677 23.7564C141.238 24.2512 141.56 24.9665 141.56 25.7186C141.56 26.4112 141.294 27.0629 140.812 27.5539C140.329 28.0447 139.689 28.3149 139.008 28.3149ZM139.008 23.8053C137.971 23.8053 137.128 24.6636 137.128 25.7186C137.128 26.7735 137.971 27.6318 139.008 27.6318C139.509 27.6318 139.981 27.4326 140.337 27.0708C140.692 26.7089 140.888 26.2287 140.888 25.7188C140.888 25.2159 140.692 24.7349 140.346 24.3777C140.327 24.3801 140.307 24.3823 140.287 24.3842C139.852 24.4277 139.594 24.2836 139.455 24.1548C139.355 24.0623 139.282 23.9494 139.24 23.8205C139.163 23.8102 139.085 23.8053 139.008 23.8053ZM139.968 23.169L139.733 23.1017C139.611 23.0668 139.486 23.0406 139.362 23.0236L139.149 22.9947L139.086 22.7858C138.964 22.3829 138.752 21.8527 138.438 21.1652C138.415 21.1098 138.251 20.6991 138.309 20.1956L138.317 20.1489C138.455 19.6133 138.919 18.9353 140.346 18.7478C141.751 18.5635 142.289 18.9837 142.494 19.369C142.754 19.8589 142.588 20.5134 142.038 21.165C141.81 21.4057 141.558 21.6235 141.274 21.8275C140.606 22.3067 140.269 22.709 140.104 22.9622L139.968 23.169ZM139.663 22.3821C139.67 22.3834 139.677 22.385 139.684 22.3867C139.97 22.0148 140.381 21.6322 140.886 21.269C141.135 21.0898 141.356 20.8999 141.541 20.7048C141.876 20.3072 142.019 19.9141 141.902 19.6936C141.792 19.4852 141.347 19.3052 140.432 19.4258C139.598 19.5352 139.107 19.8292 138.973 20.2994C138.944 20.6158 139.051 20.8869 139.052 20.8896C139.326 21.4881 139.528 21.9816 139.663 22.3821Z" fill="white"/>
</g>
<defs>
<clipPath id="clip0">
<rect width="24.8473" height="22.6812" fill="white" transform="translate(54.7972 215.472)"/>
</clipPath>
<clipPath id="clip1">
<rect width="28.0052" height="21.2637" fill="white" transform="translate(195.97 213.582)"/>
</clipPath>
<clipPath id="clip2">
<rect width="21.6494" height="23.6263" fill="white" transform="translate(129.563 14.1758)"/>
</clipPath>
</defs>
</svg>
