<svg width="222" height="29" viewBox="0 0 222 29" fill="none" xmlns="http://www.w3.org/2000/svg">
<path d="M80.2042 6.125V24H81.0042V6.125H80.2042ZM84.3284 24H90.5534C95.7284 24 98.1034 20.15 98.1034 15.15C98.1034 10.175 95.9034 6.125 90.7284 6.125H84.3284V24ZM85.0784 6.825H90.7034C95.0284 6.825 97.3034 10.1 97.3034 15.15C97.3034 20.2 94.8534 23.3 90.5284 23.3H85.0784V6.825ZM108.186 24.275C113.111 24.275 116.411 20.425 116.411 15.05C116.411 9.675 113.111 5.85 108.186 5.85C103.261 5.85 99.9614 9.675 99.9614 15.05C99.9614 20.425 103.261 24.275 108.186 24.275ZM108.186 23.575C103.961 23.575 100.761 20.15 100.761 15.05C100.761 9.95 103.961 6.55 108.186 6.55C112.411 6.55 115.611 9.95 115.611 15.05C115.611 20.15 112.411 23.575 108.186 23.575ZM125.534 14.15V6.825H136.484V6.125H124.734V24H136.734V23.3H125.534V14.85H135.609V14.15H125.534ZM138.234 11.15L142.959 17.425L137.834 24H138.784L143.434 17.9H143.484L148.159 24H149.109L143.959 17.425L148.684 11.15H147.759L143.484 16.9H143.434L139.159 11.15H138.234ZM156.231 10.975C153.731 10.975 152.156 12.55 151.406 14.525H151.356V11.15H150.606V28.15H151.356V20.8H151.406C152.131 22.65 153.731 24.275 156.231 24.275C159.281 24.275 161.731 21.825 161.731 17.625C161.731 13.425 159.281 10.975 156.231 10.975ZM156.056 23.625C153.581 23.625 151.356 21.375 151.356 17.625C151.356 13.875 153.581 11.625 156.056 11.625C158.931 11.625 160.981 13.875 160.981 17.625C160.981 21.375 158.931 23.625 156.056 23.625ZM163.815 6.125V24H164.565V6.125H163.815ZM172.48 24.275C176.13 24.275 178.355 21.6 178.355 17.625C178.355 13.65 176.13 10.975 172.48 10.975C168.83 10.975 166.605 13.65 166.605 17.625C166.605 21.6 168.83 24.275 172.48 24.275ZM172.48 23.625C169.205 23.625 167.355 21.1 167.355 17.625C167.355 14.15 169.205 11.625 172.48 11.625C175.755 11.625 177.605 14.15 177.605 17.625C177.605 21.1 175.755 23.625 172.48 23.625ZM185.017 10.975C183.242 10.975 181.692 12.225 181.142 13.9H181.092V11.15H180.342V24H181.092V16.025C181.092 13.2 183.442 11.325 185.892 11.7H185.942V11.05C185.692 11 185.417 10.975 185.017 10.975ZM192.084 23.625C188.709 23.625 187.009 20.925 187.009 17.65V17.5H197.484C197.484 13.75 195.784 10.975 192.059 10.975C188.609 10.975 186.259 13.45 186.259 17.625C186.259 21.625 188.509 24.275 192.084 24.275C195.084 24.275 196.759 22.5 197.309 20.15H196.559C196.259 21.525 195.059 23.625 192.084 23.625ZM192.059 11.625C195.284 11.625 196.734 14.275 196.734 16.85H187.009C187.084 14.125 188.884 11.625 192.059 11.625ZM204.084 10.975C202.309 10.975 200.759 12.225 200.209 13.9H200.159V11.15H199.409V24H200.159V16.025C200.159 13.2 202.509 11.325 204.959 11.7H205.009V11.05C204.759 11 204.484 10.975 204.084 10.975Z" fill="#693B93"/>
<line x1="73.64" y1="6.39109" x2="62.64" y2="24.3911" stroke="#FF9E2F" stroke-width="1.5"/>
<path fill-rule="evenodd" clip-rule="evenodd" d="M55.3764 24H57L49.2048 6H47.5812L43.8552 14.5705H45.4787L48.3862 7.85254L55.3764 23.9949V24ZM42.933 16.701H44.5566L41.3943 24H39.7708L42.933 16.701ZM36.3979 24H38.0232L34.4415 16.701H32.8162L36.3979 24ZM11.1561 24H13.0412L7.15663 16.701H5.27661L11.1561 24V24ZM7.17192 14.5689L13.0412 6H11.1561L5.28171 14.5705L7.17192 14.5689ZM0 6H1.62357V14.5705H0V6ZM1.62357 16.701V24H0V16.701H1.62357ZM17.1019 6H18.7254V14.5705H17.1019V6ZM18.7254 16.701V24H17.1019V16.701H18.7254ZM24.7952 6H33.8946C34.7047 6.00222 35.481 6.32232 36.0538 6.89034C36.6266 7.45837 36.9493 8.22813 36.9516 9.03144V11.7075C36.9491 12.3368 36.7503 12.9498 36.3823 13.4625C36.0144 13.9751 35.4954 14.3622 34.8966 14.5705H24.7952V6ZM26.4187 16.701V24H24.7952V16.701H26.4187ZM26.4187 7.2311V13.5079H33.6654C34.1564 13.5065 34.6269 13.3125 34.974 12.9682C35.3212 12.6239 35.5169 12.1574 35.5182 11.6705V9.06849C35.5169 8.58101 35.3208 8.11393 34.9728 7.76955C34.6249 7.42516 34.1536 7.23154 33.662 7.2311H26.4187Z" fill="#404042"/>
</svg>
