<svg width="97" height="97" viewBox="0 0 97 97" fill="none" xmlns="http://www.w3.org/2000/svg">
<path d="M91.2226 0H5.91525C2.74573 0 0.176331 2.57442 0.176331 5.75013V91.2199C0.176331 94.3956 2.74573 96.9701 5.91525 96.9701H91.2226C94.3921 96.9701 96.9615 94.3956 96.9615 91.2199V5.75013C96.9615 2.57442 94.3921 0 91.2226 0Z" fill="black"/>
<path d="M74.101 51.4784C74.101 55.3675 73.2102 58.9378 71.4285 62.1893C69.6467 65.3771 66.9107 67.9593 63.22 69.9357C59.5294 71.9121 54.9479 72.9003 49.4756 72.9003H39.3581V97H23.0366V29.8652H49.4756C54.8207 29.8652 59.3384 30.7896 63.0292 32.6384C66.7197 34.4875 69.4877 37.0377 71.333 40.2893C73.1784 43.5407 74.101 47.2705 74.101 51.4784ZM48.2349 59.8941C51.3527 59.8941 53.6754 59.1609 55.2024 57.6946C56.7297 56.2282 57.4932 54.1562 57.4932 51.4784C57.4932 48.8007 56.7297 46.7286 55.2024 45.2623C53.6754 43.7957 51.3527 43.0625 48.2349 43.0625H39.3581V59.8941H48.2349Z" fill="white"/>
<path d="M74.1012 12.8574H23.0369V23.6618H74.1012V12.8574Z" fill="#E50913"/>
</svg>
