<svg width="304" height="97" viewBox="0 0 304 97" fill="none" xmlns="http://www.w3.org/2000/svg">
<path d="M77.7812 48.3391L71.7425 42.4851L71.2302 42.9977L63.6908 50.5419L56.1515 42.9977L55.6371 42.4851L54.6453 41.4927H54.6432C54.1057 40.9179 53.5376 40.3697 52.9422 39.8549C49.0895 36.5187 44.0649 34.4968 38.5671 34.4968C26.4303 34.4968 16.5884 44.345 16.5884 56.4894C16.5884 68.6381 26.4303 78.4841 38.5671 78.4841C44.0649 78.4841 49.0895 76.4622 52.9422 73.126C53.5376 72.6092 54.1057 72.063 54.6432 71.4862L54.6453 71.4883L55.6371 70.4958L56.1515 69.9811L63.6908 62.4391L71.2302 69.9811L71.7425 70.4958L77.7812 64.6418L69.6346 56.4894L77.7812 48.3391ZM49.5997 64.6418L48.7531 65.4911L48.6512 65.5931L48.6575 65.5993C48.1138 66.1993 47.5184 66.7538 46.8777 67.2497C44.5807 69.0285 41.6974 70.0873 38.5671 70.0873C31.0633 70.0873 24.9799 64.0007 24.9799 56.4901C24.9799 48.9816 31.0626 42.893 38.5671 42.893C41.6974 42.893 44.5814 43.9539 46.8777 45.7327C47.5184 46.2285 48.1138 46.7831 48.6575 47.383L48.6512 47.3893L48.7531 47.4892L49.5997 48.3405L57.747 56.4901L49.5997 64.6418Z" fill="#B30838"/>
<path d="M88.8138 34.4968C86.7974 34.4968 84.8452 34.7692 82.9929 35.2777V17.6179H74.4394V39.855L80.5033 45.732C82.8016 43.9532 85.6814 42.8923 88.8138 42.8923C96.3155 42.8923 102.4 48.981 102.4 56.4894C102.4 64 96.3155 70.0866 88.8138 70.0866C85.6814 70.0866 82.8016 69.0278 80.5033 67.249L74.4394 73.126C78.2921 76.4623 83.3167 78.4841 88.8145 78.4841C100.951 78.4841 110.793 68.6381 110.793 56.4894C110.793 44.345 100.951 34.4968 88.8138 34.4968Z" fill="url(#paint0_radial)"/>
<path d="M142.496 60.487H134.846L133.245 65.088H129.677L137.138 45.3254H140.217L147.691 65.088H144.11L142.496 60.487ZM135.809 57.7178H141.533L138.672 49.5193L135.809 57.7178Z" fill="#B30838"/>
<path d="M157.806 62.3468H166.773V65.0887H154.374V45.3254H157.806V62.3468H157.806Z" fill="#B30838"/>
<path d="M177.281 57.759V65.0887H173.85V45.3254H181.404C183.611 45.3254 185.363 45.9009 186.661 47.0512C187.959 48.2021 188.608 49.724 188.608 51.6166C188.608 53.5554 187.972 55.0639 186.702 56.1416C185.431 57.2192 183.652 57.7583 181.364 57.7583H177.281V57.759ZM177.281 54.9899H181.404C182.626 54.9899 183.557 54.7028 184.199 54.1281C184.841 53.5533 185.162 52.7229 185.162 51.6376C185.162 50.5697 184.836 49.717 184.186 49.0786C183.534 48.441 182.639 48.1127 181.5 48.0946H177.281V54.9899Z" fill="#B30838"/>
<path d="M211.732 65.088H208.313V56.3196H199.483V65.088H196.052V45.3254H199.483V53.5512H208.313V45.3254H211.732V65.088Z" fill="#B30838"/>
<path d="M231.532 60.487H223.882L222.282 65.088H218.714L226.174 45.3254H229.253L236.728 65.088H233.147L231.532 60.487ZM224.844 57.7178H230.569L227.708 49.5193L224.844 57.7178Z" fill="#B30838"/>
<path d="M243.411 65.088V45.3254H250.18C252.413 45.3254 254.113 45.7731 255.28 46.6692C256.446 47.5652 257.029 48.8998 257.029 50.6731C257.029 51.5782 256.786 52.3925 256.297 53.1168C255.809 53.841 255.095 54.4018 254.155 54.7999C255.222 55.0898 256.047 55.6345 256.63 56.4356C257.214 57.2366 257.505 58.1983 257.505 59.32C257.505 61.1749 256.911 62.6003 255.722 63.5956C254.532 64.5908 252.83 65.0887 250.615 65.0887H243.411V65.088ZM246.842 53.6462H250.206C251.273 53.6462 252.107 53.4038 252.708 52.9198C253.31 52.4358 253.611 51.7507 253.611 50.8637C253.611 49.886 253.333 49.1806 252.777 48.7462C252.221 48.3118 251.354 48.0946 250.179 48.0946H246.842V53.6462ZM246.842 56.1709V62.3468H250.654C251.731 62.3468 252.572 62.08 253.177 61.5458C253.783 61.0122 254.086 60.2698 254.086 59.32C254.086 57.266 253.037 56.2163 250.939 56.1709H246.842Z" fill="#57575A"/>
<path d="M269.003 65.088H265.585V45.3254H269.003V65.088Z" fill="#57575A"/>
<path d="M291.937 48.0946H285.779V65.0887H282.374V48.0946H276.27V45.3254H291.938V48.0946H291.937Z" fill="#57575A"/>
<defs>
<radialGradient id="paint0_radial" cx="0" cy="0" r="1" gradientUnits="userSpaceOnUse" gradientTransform="translate(92.6158 48.0508) scale(25.0538 25.0697)">
<stop stop-color="white"/>
<stop offset="0.1232" stop-color="#ECEDED"/>
<stop offset="0.3585" stop-color="#C8C9CA"/>
<stop offset="0.5225" stop-color="#ADAEB0"/>
<stop offset="0.6004" stop-color="#A2A4A6"/>
<stop offset="0.7316" stop-color="#868C8E"/>
<stop offset="0.8989" stop-color="#5F686B"/>
<stop offset="1" stop-color="#465053"/>
</radialGradient>
</defs>
</svg>
