<?xml version="1.0" encoding="utf-8"?>
<!-- Generator: Adobe Illustrator 22.0.1, SVG Export Plug-In . SVG Version: 6.00 Build 0)  -->
<svg version="1.1" id="Layer_1" xmlns="http://www.w3.org/2000/svg" xmlns:xlink="http://www.w3.org/1999/xlink" x="0px" y="0px"
	 viewBox="0 0 472.7 222.9" style="enable-background:new 0 0 472.7 222.9;" xml:space="preserve">
<style type="text/css">
	.st0{fill:url(#SVGID_1_);}
</style>
<linearGradient id="SVGID_1_" gradientUnits="userSpaceOnUse" x1="0" y1="111.4494" x2="472.6582" y2="111.4494">
	<stop  offset="0" style="stop-color:#006837"/>
	<stop  offset="1" style="stop-color:#009245"/>
</linearGradient>
<path class="st0" d="M15.2,152.4h5.3l15.1,38.2h-6.3l-4-10.4H10.4l-4,10.4H0L15.2,152.4z M23.9,175.8l-6.1-16.4l-6.3,16.4H23.9z
	 M62.2,161.4c-0.4-0.4-0.9-0.8-1.6-1.3c-0.7-0.4-1.5-0.9-2.4-1.3c-0.9-0.4-1.9-0.7-3-1c-1.1-0.3-2.2-0.4-3.4-0.4
	c-2.5,0-4.4,0.5-5.6,1.4c-1.2,0.9-1.8,2.2-1.8,3.9c0,0.9,0.2,1.7,0.6,2.3c0.4,0.6,1,1.1,1.7,1.6c0.8,0.4,1.8,0.8,3,1.2
	s2.6,0.7,4.1,1.1c1.9,0.5,3.7,1,5.2,1.6c1.6,0.6,2.9,1.3,4,2.1c1.1,0.8,1.9,1.8,2.5,3c0.6,1.2,0.9,2.7,0.9,4.4c0,1.9-0.4,3.6-1.1,5
	c-0.7,1.4-1.7,2.5-3,3.4c-1.3,0.9-2.8,1.5-4.4,1.9c-1.7,0.4-3.5,0.6-5.4,0.6c-2.9,0-5.7-0.4-8.4-1.3c-2.7-0.9-5.2-2.2-7.3-3.8
	l2.7-5.2c0.5,0.5,1.1,1,2,1.6c0.9,0.6,1.9,1.1,3.1,1.6s2.4,0.9,3.8,1.2c1.4,0.3,2.8,0.5,4.2,0.5c2.4,0,4.2-0.4,5.5-1.2
	s1.9-2,1.9-3.7c0-1-0.2-1.8-0.7-2.4c-0.5-0.6-1.2-1.2-2.1-1.7c-0.9-0.5-2-0.9-3.3-1.3c-1.3-0.4-2.8-0.8-4.4-1.2
	c-1.9-0.5-3.6-1-5-1.6c-1.4-0.6-2.6-1.2-3.5-2c-0.9-0.8-1.6-1.7-2.1-2.8s-0.7-2.3-0.7-3.8c0-1.9,0.4-3.5,1.1-5
	c0.7-1.5,1.7-2.7,2.9-3.7c1.2-1,2.7-1.7,4.4-2.2c1.7-0.5,3.5-0.8,5.5-0.8c2.6,0,5,0.4,7.1,1.2c2.2,0.8,4.1,1.8,5.8,3.1L62.2,161.4z
	 M70,171.3c0-2.3,0.4-4.6,1.2-6.9c0.8-2.3,2-4.3,3.6-6.1c1.6-1.8,3.5-3.3,5.8-4.4c2.3-1.1,4.9-1.7,7.8-1.7c3.5,0,6.5,0.8,8.9,2.3
	c2.5,1.5,4.3,3.5,5.6,6l-4.7,3.2c-0.5-1.1-1.2-2.1-1.9-2.9c-0.8-0.8-1.6-1.4-2.5-1.9c-0.9-0.5-1.8-0.8-2.8-1c-1-0.2-1.9-0.3-2.8-0.3
	c-2,0-3.8,0.4-5.3,1.2c-1.5,0.8-2.8,1.9-3.8,3.2c-1,1.3-1.8,2.8-2.3,4.5c-0.5,1.6-0.8,3.3-0.8,4.9c0,1.9,0.3,3.6,0.9,5.3
	c0.6,1.7,1.5,3.2,2.6,4.5c1.1,1.3,2.4,2.3,3.9,3.1c1.5,0.8,3.2,1.2,4.9,1.2c0.9,0,1.9-0.1,2.9-0.3c1-0.2,1.9-0.6,2.8-1.1
	c0.9-0.5,1.8-1.2,2.5-2c0.8-0.8,1.4-1.7,1.9-2.8l5,2.8c-0.6,1.4-1.5,2.7-2.6,3.8c-1.1,1.1-2.4,2-3.8,2.8c-1.4,0.8-2.9,1.3-4.4,1.7
	c-1.6,0.4-3.1,0.6-4.6,0.6c-2.7,0-5.1-0.6-7.4-1.7c-2.2-1.1-4.1-2.6-5.8-4.5c-1.6-1.8-2.9-3.9-3.8-6.3C70.5,176.1,70,173.7,70,171.3
	z M135.4,185.3v5.3h-26.2v-38.2h25.7v5.3h-19.7v10.9h17v5h-17v11.7H135.4z M147.7,163.7v26.9h-6v-38.2h4.7l21.8,27.5v-27.5h6.1v38.1
	h-5L147.7,163.7z M205.4,161.4c-0.4-0.4-0.9-0.8-1.6-1.3c-0.7-0.4-1.5-0.9-2.4-1.3c-0.9-0.4-1.9-0.7-3-1c-1.1-0.3-2.2-0.4-3.4-0.4
	c-2.5,0-4.4,0.5-5.6,1.4c-1.2,0.9-1.8,2.2-1.8,3.9c0,0.9,0.2,1.7,0.6,2.3c0.4,0.6,1,1.1,1.7,1.6c0.8,0.4,1.8,0.8,3,1.2
	s2.6,0.7,4.1,1.1c1.9,0.5,3.7,1,5.2,1.6c1.6,0.6,2.9,1.3,4,2.1c1.1,0.8,1.9,1.8,2.5,3c0.6,1.2,0.9,2.7,0.9,4.4c0,1.9-0.4,3.6-1.1,5
	c-0.7,1.4-1.7,2.5-3,3.4c-1.3,0.9-2.8,1.5-4.4,1.9c-1.7,0.4-3.5,0.6-5.4,0.6c-2.9,0-5.7-0.4-8.4-1.3c-2.7-0.9-5.2-2.2-7.3-3.8
	l2.7-5.2c0.5,0.5,1.1,1,2,1.6c0.9,0.6,1.9,1.1,3.1,1.6s2.4,0.9,3.8,1.2c1.4,0.3,2.8,0.5,4.2,0.5c2.4,0,4.2-0.4,5.5-1.2
	s1.9-2,1.9-3.7c0-1-0.2-1.8-0.7-2.4c-0.5-0.6-1.2-1.2-2.1-1.7c-0.9-0.5-2-0.9-3.3-1.3c-1.3-0.4-2.8-0.8-4.4-1.2
	c-1.9-0.5-3.6-1-5-1.6c-1.4-0.6-2.6-1.2-3.5-2c-0.9-0.8-1.6-1.7-2.1-2.8s-0.7-2.3-0.7-3.8c0-1.9,0.4-3.5,1.1-5
	c0.7-1.5,1.7-2.7,2.9-3.7c1.2-1,2.7-1.7,4.4-2.2c1.7-0.5,3.5-0.8,5.5-0.8c2.6,0,5,0.4,7.1,1.2c2.2,0.8,4.1,1.8,5.8,3.1L205.4,161.4z
	 M215.7,190.6v-38.2h6v38.2H215.7z M232.8,152.4l11.5,30.6l11.5-30.6h6.4l-15.3,38.2h-5.2l-15.3-38.2H232.8z M293,185.3v5.3h-26.2
	v-38.2h25.7v5.3h-19.7v10.9h17v5h-17v11.7H293z M322,152.4h5.3l15.1,38.2H336l-4-10.4h-14.7l-4,10.4h-6.4L322,152.4z M330.8,175.8
	l-6.1-16.4l-6.3,16.4H330.8z M369.1,161.4c-0.4-0.4-0.9-0.8-1.6-1.3c-0.7-0.4-1.5-0.9-2.4-1.3c-0.9-0.4-1.9-0.7-3-1
	c-1.1-0.3-2.2-0.4-3.4-0.4c-2.5,0-4.4,0.5-5.6,1.4c-1.2,0.9-1.8,2.2-1.8,3.9c0,0.9,0.2,1.7,0.6,2.3c0.4,0.6,1,1.1,1.7,1.6
	c0.8,0.4,1.8,0.8,3,1.2s2.6,0.7,4.1,1.1c1.9,0.5,3.7,1,5.2,1.6c1.6,0.6,2.9,1.3,4,2.1c1.1,0.8,1.9,1.8,2.5,3
	c0.6,1.2,0.9,2.7,0.9,4.4c0,1.9-0.4,3.6-1.1,5c-0.7,1.4-1.7,2.5-3,3.4c-1.3,0.9-2.8,1.5-4.4,1.9c-1.7,0.4-3.5,0.6-5.4,0.6
	c-2.9,0-5.7-0.4-8.4-1.3c-2.7-0.9-5.2-2.2-7.3-3.8l2.7-5.2c0.5,0.5,1.1,1,2,1.6c0.9,0.6,1.9,1.1,3.1,1.6c1.2,0.5,2.4,0.9,3.8,1.2
	c1.4,0.3,2.8,0.5,4.2,0.5c2.4,0,4.2-0.4,5.5-1.2s1.9-2,1.9-3.7c0-1-0.2-1.8-0.7-2.4c-0.5-0.6-1.2-1.2-2.1-1.7s-2-0.9-3.3-1.3
	c-1.3-0.4-2.8-0.8-4.4-1.2c-1.9-0.5-3.6-1-5-1.6c-1.4-0.6-2.6-1.2-3.5-2c-0.9-0.8-1.6-1.7-2.1-2.8c-0.5-1.1-0.7-2.3-0.7-3.8
	c0-1.9,0.4-3.5,1.1-5s1.7-2.7,2.9-3.7c1.2-1,2.7-1.7,4.4-2.2c1.7-0.5,3.5-0.8,5.5-0.8c2.6,0,5,0.4,7.1,1.2c2.2,0.8,4.1,1.8,5.8,3.1
	L369.1,161.4z M401.9,161.4c-0.4-0.4-0.9-0.8-1.6-1.3c-0.7-0.4-1.5-0.9-2.4-1.3c-0.9-0.4-1.9-0.7-3-1c-1.1-0.3-2.2-0.4-3.4-0.4
	c-2.5,0-4.4,0.5-5.6,1.4c-1.2,0.9-1.8,2.2-1.8,3.9c0,0.9,0.2,1.7,0.6,2.3c0.4,0.6,1,1.1,1.7,1.6c0.8,0.4,1.8,0.8,3,1.2
	s2.6,0.7,4.1,1.1c1.9,0.5,3.7,1,5.2,1.6c1.6,0.6,2.9,1.3,4,2.1c1.1,0.8,1.9,1.8,2.5,3c0.6,1.2,0.9,2.7,0.9,4.4c0,1.9-0.4,3.6-1.1,5
	c-0.7,1.4-1.7,2.5-3,3.4c-1.3,0.9-2.8,1.5-4.4,1.9c-1.7,0.4-3.5,0.6-5.4,0.6c-2.9,0-5.7-0.4-8.4-1.3c-2.7-0.9-5.2-2.2-7.3-3.8
	l2.7-5.2c0.5,0.5,1.1,1,2,1.6c0.9,0.6,1.9,1.1,3.1,1.6c1.2,0.5,2.4,0.9,3.8,1.2c1.4,0.3,2.8,0.5,4.2,0.5c2.4,0,4.2-0.4,5.5-1.2
	s1.9-2,1.9-3.7c0-1-0.2-1.8-0.7-2.4c-0.5-0.6-1.2-1.2-2.1-1.7s-2-0.9-3.3-1.3c-1.3-0.4-2.8-0.8-4.4-1.2c-1.9-0.5-3.6-1-5-1.6
	c-1.4-0.6-2.6-1.2-3.5-2c-0.9-0.8-1.6-1.7-2.1-2.8c-0.5-1.1-0.7-2.3-0.7-3.8c0-1.9,0.4-3.5,1.1-5s1.7-2.7,2.9-3.7
	c1.2-1,2.7-1.7,4.4-2.2c1.7-0.5,3.5-0.8,5.5-0.8c2.6,0,5,0.4,7.1,1.2c2.2,0.8,4.1,1.8,5.8,3.1L401.9,161.4z M438.4,185.3v5.3h-26.2
	v-38.2h25.7v5.3h-19.7v10.9h17v5h-17v11.7H438.4z M472.6,157.8h-12.7v32.8h-6.1v-32.8h-12.7v-5.3h31.5V157.8z M23.5,222.7v-19.4
	l-8.6,15h-1.4l-8.6-15v19.4H2.6v-23.6H5l9.2,16.2l9.3-16.2h2.4v23.6H23.5z M65.2,199.1h2l9.8,23.6h-2.5l-3.1-7.4H60.8l-3,7.4h-2.5
	L65.2,199.1z M70.9,213.5l-4.8-11.7l-4.8,11.7H70.9z M108.8,203.5v19.3h-2.3v-23.6h1.8l15.6,19.6v-19.6h2.3v23.6h-2L108.8,203.5z
	 M165.6,199.1h2l9.8,23.6h-2.5l-3.1-7.4h-10.6l-3,7.4h-2.5L165.6,199.1z M171.3,213.5l-4.8-11.7l-4.8,11.7H171.3z M223.1,219.3
	c-2.2,2.4-4.7,3.6-7.6,3.6c-1.6,0-3.1-0.3-4.4-1c-1.3-0.7-2.5-1.6-3.5-2.7s-1.8-2.4-2.3-3.8c-0.6-1.4-0.8-2.9-0.8-4.4
	c0-1.6,0.3-3.1,0.8-4.5c0.5-1.4,1.3-2.7,2.3-3.8c1-1.1,2.1-2,3.5-2.6c1.3-0.7,2.8-1,4.4-1c1.2,0,2.2,0.1,3.2,0.4s1.8,0.6,2.5,1.1
	s1.4,1,1.9,1.6s1,1.3,1.4,2.1l-1.8,1.2c-0.8-1.5-1.8-2.5-3-3.2c-1.2-0.7-2.6-1-4.2-1c-1.3,0-2.5,0.3-3.5,0.8c-1.1,0.6-2,1.3-2.7,2.2
	c-0.7,0.9-1.3,2-1.7,3.2s-0.6,2.4-0.6,3.7c0,1.3,0.2,2.6,0.7,3.8s1.1,2.2,1.9,3.1c0.8,0.9,1.7,1.6,2.8,2.1c1.1,0.5,2.2,0.8,3.5,0.8
	c1.4,0,2.6-0.3,3.9-0.9c1.2-0.6,2.4-1.6,3.5-3v-3.9h-5.3v-1.8h7.2v11.6h-2V219.3z M271.9,220.7v2.1H256v-23.6h15.6v2.1h-13.2v8.5
	h11.5v2h-11.5v9H271.9z M323.3,222.7v-19.4l-8.6,15h-1.4l-8.6-15v19.4h-2.3v-23.6h2.4l9.2,16.2l9.3-16.2h2.4v23.6H323.3z
	 M373.6,220.7v2.1h-15.9v-23.6h15.6v2.1H360v8.5h11.5v2H360v9H373.6z M406.4,203.5v19.3h-2.3v-23.6h1.8l15.6,19.6v-19.6h2.3v23.6h-2
	L406.4,203.5z M472.7,201.2h-8.4v21.5h-2.3v-21.5h-8.4v-2.1h19.1V201.2z M282.5,109.3h59.7L241.3,0v90.9h-4.4h-1.2h-4.4V0
	L130.5,109.3h59.9V90.7H174l38.1-38.1v56.8h23.6h1.2h23.6V52.5l38.1,38.1h-16.2V109.3z"/>
</svg>
