<svg width="380" height="110" viewBox="0 0 380 110" fill="none" xmlns="http://www.w3.org/2000/svg">
<path d="M39.8512 55.6828C39.8512 53.012 40.4222 50.5344 41.5663 48.2521C42.7103 45.9698 44.3767 43.9783 46.5672 42.2758C48.2031 41.0187 49.9649 40.0524 51.8547 39.3771C53.7446 38.6997 55.6486 38.3621 57.571 38.3621C60.0156 38.3621 62.3809 38.8991 64.667 39.9731C66.9531 41.0471 68.9527 42.5605 70.6678 44.5174C73.4619 47.6988 74.86 51.3155 74.86 55.3716C74.86 57.4077 74.4942 59.3707 73.7647 61.2624C73.0352 63.1542 71.9703 64.8812 70.5743 66.4393C68.8592 68.3799 66.8312 69.8811 64.4902 70.947C62.1493 72.0108 59.7006 72.5458 57.1442 72.5458C54.6204 72.5458 52.2063 72.0292 49.9039 70.9958C47.6016 69.9625 45.6183 68.4979 43.9499 66.6061C42.6331 65.1273 41.6211 63.4451 40.914 61.5615C40.2048 59.6778 39.8512 57.719 39.8512 55.6828ZM45.6142 56.0388C45.6142 60.6522 46.868 64.5394 49.3776 67.7046C50.5054 69.1203 51.7003 70.1496 52.9622 70.7944C54.2241 71.4393 55.6811 71.7607 57.3312 71.7607C58.9975 71.7607 60.4626 71.4433 61.7246 70.8066C62.9865 70.1699 64.1895 69.1366 65.3315 67.7066C67.8391 64.5272 69.0949 60.6054 69.0949 55.9452C69.0949 53.3862 68.7495 50.9636 68.0586 48.6813C67.3677 46.399 66.3963 44.4625 65.1405 42.8738C64.1245 41.5699 62.9926 40.62 61.7469 40.024C60.5013 39.428 59.028 39.1289 57.3292 39.1289C55.6466 39.1289 54.1896 39.4239 52.9602 40.0118C51.7308 40.5996 50.5908 41.5536 49.5422 42.8738C48.2884 44.4482 47.3191 46.3807 46.6363 48.6711C45.9556 50.9595 45.6142 53.4147 45.6142 56.0388Z" fill="black"/>
<path d="M87.0118 54.7856C87.5828 53.7848 88.227 53.0301 88.9403 52.5236C90.2571 51.5879 91.7588 51.118 93.4413 51.118C94.4736 51.118 95.26 51.3479 95.7985 51.8096C96.2903 52.2225 96.5362 52.7311 96.5362 53.3332C96.5362 53.7787 96.3899 54.1428 96.0952 54.4296C95.8006 54.7164 95.4246 54.8588 94.9634 54.8588C94.4228 54.8588 93.9554 54.6371 93.5592 54.1916L92.8215 53.382C92.2343 52.7636 91.5434 52.4524 90.7488 52.4524C89.6698 52.4524 88.8285 53.1501 88.225 54.5476C87.6214 55.945 87.3207 57.8897 87.3207 60.3815V64.8322L87.3451 66.6426C87.3451 67.7227 87.4081 68.512 87.5361 69.0124C87.6641 69.5128 87.91 69.9298 88.2737 70.2613C88.7188 70.6905 89.5357 71.016 90.7265 71.2377V71.7381H80.2003V71.2357C81.1533 71.1096 81.8361 70.9326 82.2486 70.7027C82.6611 70.4729 82.9944 70.0823 83.2484 69.529C83.4231 69.1649 83.5451 68.6157 83.6182 67.8793C83.6914 67.143 83.7259 66.0812 83.7259 64.6898V58.8315C83.7259 57.2042 83.6853 56.061 83.606 55.4039C83.5268 54.7469 83.352 54.214 83.0818 53.8031C82.8115 53.3617 82.4864 53.0403 82.1064 52.843C81.7264 52.6456 81.1777 52.5236 80.4624 52.4748V51.9744L86.6013 51.116C86.8736 52.5439 87.0118 53.7665 87.0118 54.7856Z" fill="black"/>
<path d="M99.8567 51.9745L106.715 51.1161V64.8465L106.739 66.6508C106.739 67.7289 106.802 68.5161 106.93 69.0145C107.058 69.5129 107.304 69.9299 107.668 70.2614C108.113 70.6886 108.93 71.0141 110.121 71.2358V71.7362H99.5945V71.2358C100.548 71.1097 101.23 70.9327 101.643 70.7028C102.055 70.473 102.389 70.0824 102.643 69.5291C102.817 69.165 102.939 68.6158 103.013 67.8794C103.086 67.1431 103.12 66.0813 103.12 64.6899V58.8316C103.12 57.2043 103.08 56.0611 103 55.404C102.921 54.747 102.746 54.2141 102.476 53.8032C102.206 53.3618 101.881 53.0404 101.501 52.8431C101.121 52.6457 100.572 52.5237 99.8567 52.4749V51.9745ZM104.821 42.5584C104.197 42.5584 103.683 42.3591 103.277 41.9624C102.87 41.5658 102.667 41.0654 102.667 40.4612C102.667 39.8733 102.874 39.377 103.289 38.9722C103.705 38.5674 104.216 38.364 104.821 38.364C105.427 38.364 105.939 38.5674 106.353 38.9722C106.768 39.377 106.975 39.8733 106.975 40.4612C106.975 41.0654 106.772 41.5658 106.365 41.9624C105.959 42.3611 105.443 42.5584 104.821 42.5584Z" fill="black"/>
<path d="M119.798 73.7623L119.369 73.8823C119.098 73.4368 118.828 73.1276 118.56 72.9527C118.292 72.7777 117.956 72.6903 117.56 72.6903C116.894 72.6903 116.349 72.9445 115.928 73.4531C115.508 73.9616 115.296 74.6207 115.296 75.4323C115.296 76.7199 115.939 77.7756 117.225 78.6035C118.511 79.4314 120.153 79.8423 122.155 79.8423C124.282 79.8423 126.001 79.3846 127.31 78.4713C128.619 77.558 129.275 76.37 129.275 74.9075C129.275 73.7317 128.838 72.8306 127.964 72.2021C127.091 71.5735 125.845 71.2603 124.225 71.2603H120.442C118.885 71.2603 117.631 70.8941 116.678 70.1598C115.695 69.3949 115.201 68.4775 115.201 67.4096C115.201 66.2766 115.725 65.3836 116.772 64.7307C117.312 64.4113 118.296 64.0696 119.724 63.7034C118.343 63.0688 117.272 62.2327 116.51 61.1933C115.748 60.1538 115.366 59.0086 115.366 57.7556C115.366 56.1527 115.961 54.7267 117.152 53.4737C117.851 52.7292 118.676 52.1495 119.631 51.7365C120.584 51.3236 121.561 51.1182 122.561 51.1182C124.085 51.1182 125.642 51.6592 127.231 52.7394C127.979 52.1515 128.651 51.7345 129.249 51.4884C129.846 51.2422 130.494 51.1182 131.195 51.1182C131.976 51.1182 132.604 51.285 133.081 51.6186C133.654 52.0315 133.941 52.54 133.941 53.1442C133.941 53.5103 133.829 53.8154 133.604 54.0616C133.378 54.3077 133.098 54.4318 132.762 54.4318C132.25 54.4318 131.785 54.1612 131.368 53.6222L130.822 52.9062C130.521 52.5238 130.092 52.3346 129.539 52.3346C128.954 52.3346 128.336 52.6295 127.686 53.2174C128.981 54.7898 129.629 56.411 129.629 58.081C129.629 60.162 128.704 61.8076 126.859 63.0159C125.934 63.62 124.941 64.0248 123.874 64.2323C123.555 64.2791 122.545 64.3604 120.842 64.4703C118.509 64.6127 117.341 65.2656 117.341 66.4251C117.341 67.4422 118.334 67.9507 120.322 67.9507H124.258C125.642 67.9507 126.81 68.0748 127.765 68.3209C128.718 68.5671 129.554 68.9535 130.269 69.4763C131.667 70.5097 132.368 71.9641 132.368 73.8396C132.368 75.9062 131.557 77.5193 129.936 78.6788C128.267 79.8708 125.819 80.4668 122.592 80.4668C119.127 80.4668 116.67 79.767 115.225 78.3696C114.303 77.4644 113.841 76.3354 113.841 74.9848C113.841 73.9209 114.183 73.0178 114.866 72.2794C115.548 71.541 116.382 71.1708 117.365 71.1708C118.08 71.1708 118.664 71.3843 119.115 71.8135C119.566 72.2428 119.793 72.8062 119.793 73.506V73.7623H119.798ZM118.773 57.9224C118.773 59.6351 119.133 61.0306 119.852 62.1086C120.572 63.1867 121.494 63.7258 122.618 63.7258C123.758 63.7258 124.644 63.1908 125.276 62.1188C125.91 61.0489 126.225 59.5619 126.225 57.6579C126.225 55.6909 125.812 54.1206 124.992 52.9469C124.39 52.0742 123.614 51.6389 122.665 51.6389C121.525 51.6389 120.606 52.2105 119.911 53.3517C119.564 53.9212 119.285 54.621 119.08 55.4448C118.877 56.2727 118.773 57.0965 118.773 57.9224Z" fill="black"/>
<path d="M136.619 51.9745L143.477 51.1161V64.8465L143.502 66.6508C143.502 67.7289 143.565 68.5161 143.693 69.0145C143.821 69.5129 144.067 69.9299 144.43 70.2614C144.875 70.6886 145.692 71.0141 146.883 71.2358V71.7362H136.357V71.2358C137.31 71.1097 137.993 70.9327 138.405 70.7028C138.818 70.473 139.151 70.0824 139.405 69.5291C139.58 69.165 139.702 68.6158 139.775 67.8794C139.848 67.1431 139.883 66.0813 139.883 64.6899V58.8316C139.883 57.2043 139.842 56.0611 139.763 55.404C139.683 54.747 139.509 54.2141 139.238 53.8032C138.968 53.3618 138.643 53.0404 138.263 52.8431C137.883 52.6457 137.334 52.5237 136.619 52.4749V51.9745ZM141.585 42.5584C140.962 42.5584 140.448 42.3591 140.041 41.9624C139.635 41.5658 139.431 41.0654 139.431 40.4612C139.431 39.8733 139.639 39.377 140.053 38.9722C140.47 38.5674 140.98 38.364 141.585 38.364C142.191 38.364 142.703 38.5674 143.118 38.9722C143.532 39.377 143.739 39.8733 143.739 40.4612C143.739 41.0654 143.536 41.5658 143.13 41.9624C142.721 42.3611 142.207 42.5584 141.585 42.5584Z" fill="black"/>
<path d="M157.393 51.1158C157.617 52.0434 157.728 52.9058 157.728 53.7032V54.0857C159.698 52.1044 162.039 51.1138 164.753 51.1138C166.785 51.1138 168.421 51.5898 169.659 52.5417C170.882 53.4774 171.492 54.8118 171.492 56.5429V66.6383C171.492 67.7164 171.555 68.5057 171.683 69.0081C171.811 69.5085 172.057 69.9255 172.42 70.2571C172.865 70.6863 173.682 71.0118 174.873 71.2335V71.7339H164.347V71.2355C165.3 71.1074 165.983 70.9304 166.395 70.7005C166.808 70.4707 167.141 70.0781 167.395 69.5207C167.57 69.1566 167.692 68.6054 167.765 67.867C167.836 67.1286 167.873 66.0708 167.873 64.6876V59.6409C167.873 57.9098 167.814 56.6405 167.694 55.8309C167.574 55.0234 167.35 54.3704 167.017 53.8802C166.653 53.3249 166.129 52.8916 165.45 52.5824C164.77 52.2732 164.016 52.1166 163.193 52.1166C162.305 52.1166 161.478 52.2915 160.71 52.6394C159.941 52.9892 159.336 53.4652 158.891 54.0673C158.415 54.704 158.102 55.4221 157.952 56.2235C157.802 57.025 157.726 58.3533 157.726 60.2105V64.8768L157.751 66.6383C157.751 67.7164 157.814 68.5077 157.942 69.0081C158.07 69.5085 158.316 69.9255 158.679 70.2571C159.125 70.6863 159.941 71.0118 161.132 71.2335V71.7339H150.606V71.2355C151.559 71.1094 152.242 70.9324 152.654 70.7026C153.067 70.4727 153.4 70.0822 153.654 69.5289C153.829 69.1648 153.951 68.6155 154.024 67.8792C154.097 67.1428 154.132 66.081 154.132 64.6896V58.8313C154.132 57.204 154.091 56.0608 154.012 55.4038C153.933 54.7467 153.758 54.2138 153.488 53.8029C153.217 53.3615 152.892 53.0401 152.512 52.8428C152.132 52.6455 151.583 52.5234 150.868 52.4746V51.9742L157.393 51.1158Z" fill="black"/>
<path d="M230.193 39.0313L230.479 49.6861H229.93C229.756 49.2244 229.622 48.8765 229.526 48.6365C228.971 47.1109 228.518 45.9738 228.169 45.2273C227.549 43.8929 226.653 42.6683 225.478 41.5557C224.588 40.7135 223.668 40.1013 222.717 39.7209C221.766 39.3405 220.693 39.1493 219.502 39.1493C217.707 39.1493 216.153 39.5378 214.834 40.3169C213.676 41.0003 212.595 41.9808 211.595 43.2603C210.595 44.5398 209.776 45.9982 209.142 47.6337C208.238 49.9384 207.785 52.5604 207.785 55.4997C207.785 57.9956 208.094 60.2433 208.713 62.2449C209.333 64.2465 210.238 65.9247 211.428 67.2754C213.619 69.7855 216.525 71.0426 220.144 71.0426C221.955 71.0426 223.58 70.7294 225.025 70.1008C226.47 69.4723 227.589 68.5874 228.382 67.4422C229.303 66.1241 229.969 64.3442 230.382 62.1026L230.93 62.1982C230.629 64.7083 229.947 66.7038 228.882 68.1806C227.866 69.5943 226.466 70.6765 224.68 71.423C222.893 72.1695 220.827 72.5438 218.476 72.5438C216.285 72.5438 214.19 72.2183 212.188 71.5674C208.998 70.5178 206.505 68.624 204.71 65.882C202.916 63.14 202.02 59.8711 202.02 56.0733C202.02 53.1645 202.544 50.4835 203.591 48.0283C204.637 45.5731 206.098 43.5979 207.972 42.1049C209.417 40.9597 211.144 40.0504 213.152 39.3751C215.159 38.6997 217.173 38.3621 219.189 38.3621C221.109 38.3621 223.141 38.7282 225.285 39.4585L227.238 40.1013C227.62 40.2436 227.953 40.3148 228.238 40.3148C228.634 40.3148 228.959 40.148 229.213 39.8144C229.325 39.6558 229.459 39.3934 229.618 39.0272H230.193V39.0313Z" fill="black"/>
<path d="M255.85 69.4232L256.254 69.6612C255.683 71.3292 254.372 72.1632 252.324 72.1632C251.194 72.1632 250.255 71.8845 249.51 71.3292C249.018 70.963 248.508 70.3284 247.984 69.4211C246.919 70.3751 246.114 71.0017 245.573 71.3048C244.539 71.8763 243.338 72.1632 241.973 72.1632C240.225 72.1632 238.837 71.7421 237.811 70.9C236.785 70.0578 236.273 68.9207 236.273 67.4907C236.273 66.1726 236.693 65.0681 237.535 64.1771C238.01 63.6848 238.559 63.2902 239.179 62.9973C239.798 62.7044 240.694 62.4054 241.869 62.1043C243.251 61.7544 244.271 61.4615 244.929 61.2215C245.588 60.9815 246.14 60.6967 246.583 60.3631C247.091 59.9969 247.441 59.5677 247.632 59.0755C247.823 58.5832 247.919 57.8997 247.919 57.0251C247.919 55.1659 247.569 53.8071 246.87 52.9486C246.553 52.552 246.145 52.2326 245.643 51.9946C245.141 51.7566 244.622 51.6366 244.082 51.6366C243.432 51.6366 242.853 51.8034 242.345 52.137C241.836 52.4706 241.454 52.9324 241.2 53.5202L240.605 54.9035C240.288 55.65 239.715 56.0243 238.89 56.0243C238.349 56.0243 237.898 55.8453 237.533 55.4873C237.167 55.1292 236.984 54.6817 236.984 54.1407C236.984 53.3311 237.555 52.6476 238.703 52.0902C239.323 51.8034 240.091 51.5695 241.003 51.3864C241.918 51.2033 242.814 51.1118 243.686 51.1118C244.671 51.1118 245.697 51.24 246.764 51.4942C247.831 51.7485 248.721 52.074 249.434 52.4706C250.469 53.0585 251.113 53.8213 251.367 54.759C251.495 55.235 251.558 56.0385 251.558 57.1675V65.9875C251.558 67.4806 251.621 68.4976 251.749 69.0387C252.019 70.1677 252.67 70.7311 253.702 70.7311C254.194 70.7311 254.58 70.6437 254.856 70.4687C255.132 70.2938 255.47 69.948 255.85 69.4232ZM247.967 60.0315C247.112 60.7475 246.171 61.3741 245.143 61.9151C243.986 62.5356 243.188 63.0034 242.743 63.3207C242.3 63.6381 241.897 64.0205 241.532 64.466C240.788 65.3874 240.416 66.4594 240.416 67.684C240.416 68.7336 240.707 69.5981 241.284 70.2816C241.861 70.965 242.594 71.3068 243.478 71.3068C244.255 71.3068 244.986 71.0647 245.675 70.5806C246.362 70.0965 246.882 69.4476 247.23 68.638C247.719 67.5741 247.965 66.0323 247.965 64.0144V60.0315H247.967Z" fill="black"/>
<path d="M266.002 69.7346L266.026 74.11V75.7516C266.026 76.8297 266.089 77.6169 266.217 78.1173C266.345 78.6177 266.591 79.0408 266.955 79.3886C267.4 79.8158 268.217 80.1331 269.408 80.3406V80.841H258.882V80.3406C259.835 80.2125 260.517 80.0396 260.93 79.8158C261.342 79.5941 261.676 79.2056 261.93 78.6502C262.104 78.2841 262.226 77.7288 262.299 76.9822C262.371 76.2357 262.407 75.1719 262.407 73.7907V57.3324C262.407 55.5383 262.125 54.2588 261.562 53.4981C260.999 52.7373 260.05 52.3549 258.717 52.3549V51.7589L265.671 50.7825C265.845 51.5453 265.933 52.245 265.933 52.8797V53.3333C267.105 52.5379 268.207 51.9704 269.239 51.6287C270.269 51.2869 271.387 51.1161 272.59 51.1161C275 51.1161 277.061 51.8382 278.772 53.2845C279.851 54.2059 280.682 55.3593 281.269 56.7405C281.854 58.1237 282.149 59.6493 282.149 61.3173C282.149 63.0504 281.836 64.6635 281.21 66.1565C280.582 67.6496 279.692 68.8823 278.536 69.8505C276.727 71.3924 274.581 72.1634 272.092 72.1634C270.901 72.1634 269.875 71.9884 269.011 71.6385C268.146 71.2907 267.144 70.6561 266.002 69.7346ZM266.002 61.8197C266.002 64.0125 266.097 65.6663 266.286 66.779C266.477 67.8916 266.817 68.7887 267.307 69.4722C267.752 70.0763 268.331 70.5604 269.05 70.9266C269.769 71.2927 270.501 71.4758 271.245 71.4758C272.919 71.4758 274.382 70.6805 275.632 69.0918C276.39 68.1378 276.975 67.0109 277.386 65.707C277.796 64.4031 278.003 63.0443 278.003 61.6306C278.003 60.2636 277.808 58.9251 277.422 57.6131C277.036 56.3011 276.494 55.1783 275.799 54.2405C274.612 52.6193 273.165 51.8097 271.456 51.8097C270.619 51.8097 269.826 52.0172 269.085 52.4301C268.341 52.8431 267.75 53.4065 267.305 54.1225C266.815 54.8853 266.475 55.8353 266.284 56.9703C266.097 58.1054 266.002 59.7225 266.002 61.8197Z" fill="black"/>
<path d="M286.969 51.9745L293.827 51.1161V64.8465L293.852 66.6508C293.852 67.7289 293.915 68.5161 294.043 69.0145C294.171 69.5129 294.417 69.9299 294.78 70.2614C295.225 70.6886 296.042 71.0141 297.233 71.2358V71.7362H286.707V71.2358C287.66 71.1097 288.343 70.9327 288.755 70.7028C289.168 70.473 289.501 70.0824 289.755 69.5291C289.93 69.165 290.052 68.6158 290.125 67.8794C290.198 67.1431 290.233 66.0813 290.233 64.6899V58.8316C290.233 57.2043 290.192 56.0611 290.113 55.404C290.033 54.747 289.859 54.2141 289.588 53.8032C289.318 53.3618 288.993 53.0404 288.613 52.8431C288.233 52.6457 287.684 52.5237 286.969 52.4749V51.9745ZM291.933 42.5584C291.31 42.5584 290.795 42.3591 290.389 41.9624C289.983 41.5658 289.777 41.0654 289.777 40.4612C289.777 39.8733 289.985 39.377 290.401 38.9722C290.816 38.5674 291.326 38.364 291.933 38.364C292.541 38.364 293.051 38.5674 293.466 38.9722C293.88 39.377 294.089 39.8733 294.089 40.4612C294.089 41.0654 293.884 41.5658 293.478 41.9624C293.071 42.3591 292.557 42.5584 291.933 42.5584Z" fill="black"/>
<path d="M307.125 51.4739H313.175V52.3791H307.125V66.252C307.125 67.92 307.41 69.112 307.981 69.828C308.28 70.2247 308.678 70.5359 309.168 70.7576C309.657 70.9793 310.188 71.0912 310.757 71.0912C311.47 71.0912 312.063 70.9447 312.537 70.6498C313.01 70.3548 313.535 69.8199 314.104 69.0408L314.459 69.35C313.935 70.304 313.201 71.0098 312.256 71.4716C311.311 71.9333 310.133 72.1632 308.72 72.1632C306.847 72.1632 305.481 71.7971 304.624 71.0668C304.162 70.6844 303.862 70.2287 303.72 69.6958C303.577 69.1628 303.506 68.2068 303.506 66.8236V52.3791H300.958V51.9967C301.99 51.6631 302.943 51.0203 303.817 50.0663C304.345 49.4784 304.768 48.8946 305.087 48.3149C305.406 47.7352 305.711 46.9846 305.997 46.0631L306.237 45.2759H307.125V51.4739Z" fill="black"/>
<path d="M336.426 69.4232L336.83 69.6612C336.259 71.3292 334.949 72.1632 332.9 72.1632C331.77 72.1632 330.832 71.8845 330.086 71.3292C329.594 70.963 329.084 70.3284 328.56 69.4211C327.495 70.3751 326.69 71.0017 326.15 71.3048C325.115 71.8763 323.914 72.1632 322.549 72.1632C320.801 72.1632 319.413 71.7421 318.387 70.9C317.361 70.0578 316.849 68.9207 316.849 67.4907C316.849 66.1726 317.27 65.0681 318.111 64.1771C318.586 63.6848 319.135 63.2902 319.755 62.9973C320.375 62.7044 321.271 62.4054 322.445 62.1043C323.827 61.7544 324.847 61.4615 325.506 61.2215C326.164 60.9815 326.717 60.6967 327.16 60.3631C327.668 59.9969 328.017 59.5677 328.208 59.0755C328.399 58.5832 328.495 57.8997 328.495 57.0251C328.495 55.1659 328.145 53.8071 327.446 52.9486C327.129 52.552 326.721 52.2326 326.219 51.9946C325.717 51.7566 325.199 51.6366 324.658 51.6366C324.008 51.6366 323.429 51.8034 322.921 52.137C322.413 52.4706 322.031 52.9324 321.777 53.5202L321.181 54.9035C320.864 55.65 320.291 56.0243 319.466 56.0243C318.926 56.0243 318.475 55.8453 318.109 55.4873C317.743 55.1292 317.56 54.6817 317.56 54.1407C317.56 53.3311 318.131 52.6476 319.279 52.0902C319.899 51.8034 320.667 51.5695 321.58 51.3864C322.494 51.2033 323.39 51.1118 324.262 51.1118C325.248 51.1118 326.274 51.24 327.341 51.4942C328.407 51.7485 329.297 52.074 330.011 52.4706C331.045 53.0585 331.689 53.8213 331.943 54.759C332.071 55.235 332.134 56.0385 332.134 57.1675V65.9875C332.134 67.4806 332.197 68.4976 332.325 69.0387C332.596 70.1677 333.246 70.7311 334.278 70.7311C334.77 70.7311 335.156 70.6437 335.432 70.4687C335.709 70.2938 336.044 69.948 336.426 69.4232ZM328.544 60.0315C327.688 60.7475 326.747 61.3741 325.719 61.9151C324.563 62.5356 323.764 63.0034 323.319 63.3207C322.876 63.6381 322.474 64.0205 322.108 64.466C321.364 65.3874 320.992 66.4594 320.992 67.684C320.992 68.7336 321.283 69.5981 321.86 70.2816C322.437 70.965 323.171 71.3068 324.055 71.3068C324.831 71.3068 325.562 71.0647 326.251 70.5806C326.938 70.0965 327.458 69.4476 327.806 68.638C328.296 67.5741 328.542 66.0323 328.542 64.0144V60.0315H328.544Z" fill="black"/>
<path d="M339.555 39.1023L346.414 38.2439V64.8281L346.438 66.6385C346.438 67.7186 346.501 68.5079 346.629 69.0103C346.757 69.5107 347.003 69.9277 347.367 70.2613C347.812 70.6905 348.629 71.016 349.819 71.2377V71.7381H339.293V71.2357C340.246 71.1075 340.929 70.9305 341.342 70.7007C341.754 70.4708 342.087 70.0782 342.341 69.5229C342.516 69.1568 342.638 68.6055 342.711 67.8692C342.784 67.1328 342.819 66.0649 342.819 64.6674V45.9818C342.819 44.3646 342.778 43.2214 342.699 42.5542C342.62 41.887 342.445 41.348 342.175 40.9371C341.905 40.4937 341.579 40.1743 341.199 39.9851C340.817 39.7959 340.271 39.6759 339.555 39.6291V39.1023Z" fill="black"/>
</svg>
